<?xml version="1.0" encoding="utf-8" standalone="no"?>
<!DOCTYPE svg PUBLIC "-//W3C//DTD SVG 1.1//EN"
  "http://www.w3.org/Graphics/SVG/1.1/DTD/svg11.dtd">
<!-- Created with matplotlib (https://matplotlib.org/) -->
<svg height="345.6pt" version="1.1" viewBox="0 0 460.8 345.6" width="460.8pt" xmlns="http://www.w3.org/2000/svg" xmlns:xlink="http://www.w3.org/1999/xlink">
 <defs>
  <style type="text/css">
*{stroke-linecap:butt;stroke-linejoin:round;}
  </style>
 </defs>
 <g id="figure_1">
  <g id="patch_1">
   <path d="M 0 345.6 
L 460.8 345.6 
L 460.8 0 
L 0 0 
z
" style="fill:#ffffff;"/>
  </g>
  <g id="axes_1">
   <g id="patch_2">
    <path d="M 57.6 307.584 
L 414.72 307.584 
L 414.72 41.472 
L 57.6 41.472 
z
" style="fill:#ffffff;"/>
   </g>
   <g id="matplotlib.axis_1">
    <g id="xtick_1">
     <g id="line2d_1">
      <defs>
       <path d="M 0 0 
L 0 3.5 
" id="mfb6d64c18f" style="stroke:#000000;stroke-width:0.8;"/>
      </defs>
      <g>
       <use style="stroke:#000000;stroke-width:0.8;" x="73.832727" xlink:href="#mfb6d64c18f" y="307.584"/>
      </g>
     </g>
     <g id="text_1">
      <!-- 1 -->
      <defs>
       <path d="M 12.40625 8.296875 
L 28.515625 8.296875 
L 28.515625 63.921875 
L 10.984375 60.40625 
L 10.984375 69.390625 
L 28.421875 72.90625 
L 38.28125 72.90625 
L 38.28125 8.296875 
L 54.390625 8.296875 
L 54.390625 0 
L 12.40625 0 
z
" id="DejaVuSans-49"/>
      </defs>
      <g transform="translate(70.651477 322.182437)scale(0.1 -0.1)">
       <use xlink:href="#DejaVuSans-49"/>
      </g>
     </g>
    </g>
    <g id="xtick_2">
     <g id="line2d_2">
      <g>
       <use style="stroke:#000000;stroke-width:0.8;" x="138.763636" xlink:href="#mfb6d64c18f" y="307.584"/>
      </g>
     </g>
     <g id="text_2">
      <!-- 2 -->
      <defs>
       <path d="M 19.1875 8.296875 
L 53.609375 8.296875 
L 53.609375 0 
L 7.328125 0 
L 7.328125 8.296875 
Q 12.9375 14.109375 22.625 23.890625 
Q 32.328125 33.6875 34.8125 36.53125 
Q 39.546875 41.84375 41.421875 45.53125 
Q 43.3125 49.21875 43.3125 52.78125 
Q 43.3125 58.59375 39.234375 62.25 
Q 35.15625 65.921875 28.609375 65.921875 
Q 23.96875 65.921875 18.8125 64.3125 
Q 13.671875 62.703125 7.8125 59.421875 
L 7.8125 69.390625 
Q 13.765625 71.78125 18.9375 73 
Q 24.125 74.21875 28.421875 74.21875 
Q 39.75 74.21875 46.484375 68.546875 
Q 53.21875 62.890625 53.21875 53.421875 
Q 53.21875 48.921875 51.53125 44.890625 
Q 49.859375 40.875 45.40625 35.40625 
Q 44.1875 33.984375 37.640625 27.21875 
Q 31.109375 20.453125 19.1875 8.296875 
z
" id="DejaVuSans-50"/>
      </defs>
      <g transform="translate(135.582386 322.182437)scale(0.1 -0.1)">
       <use xlink:href="#DejaVuSans-50"/>
      </g>
     </g>
    </g>
    <g id="xtick_3">
     <g id="line2d_3">
      <g>
       <use style="stroke:#000000;stroke-width:0.8;" x="203.694545" xlink:href="#mfb6d64c18f" y="307.584"/>
      </g>
     </g>
     <g id="text_3">
      <!-- 3 -->
      <defs>
       <path d="M 40.578125 39.3125 
Q 47.65625 37.796875 51.625 33 
Q 55.609375 28.21875 55.609375 21.1875 
Q 55.609375 10.40625 48.1875 4.484375 
Q 40.765625 -1.421875 27.09375 -1.421875 
Q 22.515625 -1.421875 17.65625 -0.515625 
Q 12.796875 0.390625 7.625 2.203125 
L 7.625 11.71875 
Q 11.71875 9.328125 16.59375 8.109375 
Q 21.484375 6.890625 26.8125 6.890625 
Q 36.078125 6.890625 40.9375 10.546875 
Q 45.796875 14.203125 45.796875 21.1875 
Q 45.796875 27.640625 41.28125 31.265625 
Q 36.765625 34.90625 28.71875 34.90625 
L 20.21875 34.90625 
L 20.21875 43.015625 
L 29.109375 43.015625 
Q 36.375 43.015625 40.234375 45.921875 
Q 44.09375 48.828125 44.09375 54.296875 
Q 44.09375 59.90625 40.109375 62.90625 
Q 36.140625 65.921875 28.71875 65.921875 
Q 24.65625 65.921875 20.015625 65.03125 
Q 15.375 64.15625 9.8125 62.3125 
L 9.8125 71.09375 
Q 15.4375 72.65625 20.34375 73.4375 
Q 25.25 74.21875 29.59375 74.21875 
Q 40.828125 74.21875 47.359375 69.109375 
Q 53.90625 64.015625 53.90625 55.328125 
Q 53.90625 49.265625 50.4375 45.09375 
Q 46.96875 40.921875 40.578125 39.3125 
z
" id="DejaVuSans-51"/>
      </defs>
      <g transform="translate(200.513295 322.182437)scale(0.1 -0.1)">
       <use xlink:href="#DejaVuSans-51"/>
      </g>
     </g>
    </g>
    <g id="xtick_4">
     <g id="line2d_4">
      <g>
       <use style="stroke:#000000;stroke-width:0.8;" x="268.625455" xlink:href="#mfb6d64c18f" y="307.584"/>
      </g>
     </g>
     <g id="text_4">
      <!-- 4 -->
      <defs>
       <path d="M 37.796875 64.3125 
L 12.890625 25.390625 
L 37.796875 25.390625 
z
M 35.203125 72.90625 
L 47.609375 72.90625 
L 47.609375 25.390625 
L 58.015625 25.390625 
L 58.015625 17.1875 
L 47.609375 17.1875 
L 47.609375 0 
L 37.796875 0 
L 37.796875 17.1875 
L 4.890625 17.1875 
L 4.890625 26.703125 
z
" id="DejaVuSans-52"/>
      </defs>
      <g transform="translate(265.444205 322.182437)scale(0.1 -0.1)">
       <use xlink:href="#DejaVuSans-52"/>
      </g>
     </g>
    </g>
    <g id="xtick_5">
     <g id="line2d_5">
      <g>
       <use style="stroke:#000000;stroke-width:0.8;" x="333.556364" xlink:href="#mfb6d64c18f" y="307.584"/>
      </g>
     </g>
     <g id="text_5">
      <!-- 5 -->
      <defs>
       <path d="M 10.796875 72.90625 
L 49.515625 72.90625 
L 49.515625 64.59375 
L 19.828125 64.59375 
L 19.828125 46.734375 
Q 21.96875 47.46875 24.109375 47.828125 
Q 26.265625 48.1875 28.421875 48.1875 
Q 40.625 48.1875 47.75 41.5 
Q 54.890625 34.8125 54.890625 23.390625 
Q 54.890625 11.625 47.5625 5.09375 
Q 40.234375 -1.421875 26.90625 -1.421875 
Q 22.3125 -1.421875 17.546875 -0.640625 
Q 12.796875 0.140625 7.71875 1.703125 
L 7.71875 11.625 
Q 12.109375 9.234375 16.796875 8.0625 
Q 21.484375 6.890625 26.703125 6.890625 
Q 35.15625 6.890625 40.078125 11.328125 
Q 45.015625 15.765625 45.015625 23.390625 
Q 45.015625 31 40.078125 35.4375 
Q 35.15625 39.890625 26.703125 39.890625 
Q 22.75 39.890625 18.8125 39.015625 
Q 14.890625 38.140625 10.796875 36.28125 
z
" id="DejaVuSans-53"/>
      </defs>
      <g transform="translate(330.375114 322.182437)scale(0.1 -0.1)">
       <use xlink:href="#DejaVuSans-53"/>
      </g>
     </g>
    </g>
    <g id="xtick_6">
     <g id="line2d_6">
      <g>
       <use style="stroke:#000000;stroke-width:0.8;" x="398.487273" xlink:href="#mfb6d64c18f" y="307.584"/>
      </g>
     </g>
     <g id="text_6">
      <!-- 6 -->
      <defs>
       <path d="M 33.015625 40.375 
Q 26.375 40.375 22.484375 35.828125 
Q 18.609375 31.296875 18.609375 23.390625 
Q 18.609375 15.53125 22.484375 10.953125 
Q 26.375 6.390625 33.015625 6.390625 
Q 39.65625 6.390625 43.53125 10.953125 
Q 47.40625 15.53125 47.40625 23.390625 
Q 47.40625 31.296875 43.53125 35.828125 
Q 39.65625 40.375 33.015625 40.375 
z
M 52.59375 71.296875 
L 52.59375 62.3125 
Q 48.875 64.0625 45.09375 64.984375 
Q 41.3125 65.921875 37.59375 65.921875 
Q 27.828125 65.921875 22.671875 59.328125 
Q 17.53125 52.734375 16.796875 39.40625 
Q 19.671875 43.65625 24.015625 45.921875 
Q 28.375 48.1875 33.59375 48.1875 
Q 44.578125 48.1875 50.953125 41.515625 
Q 57.328125 34.859375 57.328125 23.390625 
Q 57.328125 12.15625 50.6875 5.359375 
Q 44.046875 -1.421875 33.015625 -1.421875 
Q 20.359375 -1.421875 13.671875 8.265625 
Q 6.984375 17.96875 6.984375 36.375 
Q 6.984375 53.65625 15.1875 63.9375 
Q 23.390625 74.21875 37.203125 74.21875 
Q 40.921875 74.21875 44.703125 73.484375 
Q 48.484375 72.75 52.59375 71.296875 
z
" id="DejaVuSans-54"/>
      </defs>
      <g transform="translate(395.306023 322.182437)scale(0.1 -0.1)">
       <use xlink:href="#DejaVuSans-54"/>
      </g>
     </g>
    </g>
    <g id="text_7">
     <!-- $\gamma_i$ -->
     <defs>
      <path d="M 23.296875 46.09375 
L 28.71875 12.3125 
L 54 54.6875 
L 63.53125 54.6875 
L 30.8125 0 
L 26.765625 -20.796875 
L 17.78125 -20.796875 
L 21.828125 0 
L 15.4375 40.828125 
Q 14.453125 46.96875 9.8125 46.96875 
L 7.421875 46.96875 
L 8.890625 54.6875 
L 12.3125 54.6875 
Q 21.921875 54.6875 23.296875 46.09375 
z
" id="DejaVuSans-Oblique-947"/>
      <path d="M 18.3125 75.984375 
L 27.296875 75.984375 
L 25.09375 64.59375 
L 16.109375 64.59375 
z
M 14.203125 54.6875 
L 23.1875 54.6875 
L 12.5 0 
L 3.515625 0 
z
" id="DejaVuSans-Oblique-105"/>
     </defs>
     <g transform="translate(232.06 335.84025)scale(0.1 -0.1)">
      <use transform="translate(0 0.3125)" xlink:href="#DejaVuSans-Oblique-947"/>
      <use transform="translate(59.179688 -16.09375)scale(0.7)" xlink:href="#DejaVuSans-Oblique-105"/>
     </g>
    </g>
   </g>
   <g id="matplotlib.axis_2">
    <g id="ytick_1">
     <g id="line2d_7">
      <defs>
       <path d="M 0 0 
L -3.5 0 
" id="mf18ad2f8b7" style="stroke:#000000;stroke-width:0.8;"/>
      </defs>
      <g>
       <use style="stroke:#000000;stroke-width:0.8;" x="57.6" xlink:href="#mf18ad2f8b7" y="289.031746"/>
      </g>
     </g>
     <g id="text_8">
      <!-- 0.05 -->
      <defs>
       <path d="M 31.78125 66.40625 
Q 24.171875 66.40625 20.328125 58.90625 
Q 16.5 51.421875 16.5 36.375 
Q 16.5 21.390625 20.328125 13.890625 
Q 24.171875 6.390625 31.78125 6.390625 
Q 39.453125 6.390625 43.28125 13.890625 
Q 47.125 21.390625 47.125 36.375 
Q 47.125 51.421875 43.28125 58.90625 
Q 39.453125 66.40625 31.78125 66.40625 
z
M 31.78125 74.21875 
Q 44.046875 74.21875 50.515625 64.515625 
Q 56.984375 54.828125 56.984375 36.375 
Q 56.984375 17.96875 50.515625 8.265625 
Q 44.046875 -1.421875 31.78125 -1.421875 
Q 19.53125 -1.421875 13.0625 8.265625 
Q 6.59375 17.96875 6.59375 36.375 
Q 6.59375 54.828125 13.0625 64.515625 
Q 19.53125 74.21875 31.78125 74.21875 
z
" id="DejaVuSans-48"/>
       <path d="M 10.6875 12.40625 
L 21 12.40625 
L 21 0 
L 10.6875 0 
z
" id="DejaVuSans-46"/>
      </defs>
      <g transform="translate(28.334375 292.830965)scale(0.1 -0.1)">
       <use xlink:href="#DejaVuSans-48"/>
       <use x="63.623047" xlink:href="#DejaVuSans-46"/>
       <use x="95.410156" xlink:href="#DejaVuSans-48"/>
       <use x="159.033203" xlink:href="#DejaVuSans-53"/>
      </g>
     </g>
    </g>
    <g id="ytick_2">
     <g id="line2d_8">
      <g>
       <use style="stroke:#000000;stroke-width:0.8;" x="57.6" xlink:href="#mf18ad2f8b7" y="258.328865"/>
      </g>
     </g>
     <g id="text_9">
      <!-- 0.10 -->
      <g transform="translate(28.334375 262.128084)scale(0.1 -0.1)">
       <use xlink:href="#DejaVuSans-48"/>
       <use x="63.623047" xlink:href="#DejaVuSans-46"/>
       <use x="95.410156" xlink:href="#DejaVuSans-49"/>
       <use x="159.033203" xlink:href="#DejaVuSans-48"/>
      </g>
     </g>
    </g>
    <g id="ytick_3">
     <g id="line2d_9">
      <g>
       <use style="stroke:#000000;stroke-width:0.8;" x="57.6" xlink:href="#mf18ad2f8b7" y="227.625985"/>
      </g>
     </g>
     <g id="text_10">
      <!-- 0.15 -->
      <g transform="translate(28.334375 231.425203)scale(0.1 -0.1)">
       <use xlink:href="#DejaVuSans-48"/>
       <use x="63.623047" xlink:href="#DejaVuSans-46"/>
       <use x="95.410156" xlink:href="#DejaVuSans-49"/>
       <use x="159.033203" xlink:href="#DejaVuSans-53"/>
      </g>
     </g>
    </g>
    <g id="ytick_4">
     <g id="line2d_10">
      <g>
       <use style="stroke:#000000;stroke-width:0.8;" x="57.6" xlink:href="#mf18ad2f8b7" y="196.923104"/>
      </g>
     </g>
     <g id="text_11">
      <!-- 0.20 -->
      <g transform="translate(28.334375 200.722323)scale(0.1 -0.1)">
       <use xlink:href="#DejaVuSans-48"/>
       <use x="63.623047" xlink:href="#DejaVuSans-46"/>
       <use x="95.410156" xlink:href="#DejaVuSans-50"/>
       <use x="159.033203" xlink:href="#DejaVuSans-48"/>
      </g>
     </g>
    </g>
    <g id="ytick_5">
     <g id="line2d_11">
      <g>
       <use style="stroke:#000000;stroke-width:0.8;" x="57.6" xlink:href="#mf18ad2f8b7" y="166.220224"/>
      </g>
     </g>
     <g id="text_12">
      <!-- 0.25 -->
      <g transform="translate(28.334375 170.019442)scale(0.1 -0.1)">
       <use xlink:href="#DejaVuSans-48"/>
       <use x="63.623047" xlink:href="#DejaVuSans-46"/>
       <use x="95.410156" xlink:href="#DejaVuSans-50"/>
       <use x="159.033203" xlink:href="#DejaVuSans-53"/>
      </g>
     </g>
    </g>
    <g id="ytick_6">
     <g id="line2d_12">
      <g>
       <use style="stroke:#000000;stroke-width:0.8;" x="57.6" xlink:href="#mf18ad2f8b7" y="135.517343"/>
      </g>
     </g>
     <g id="text_13">
      <!-- 0.30 -->
      <g transform="translate(28.334375 139.316562)scale(0.1 -0.1)">
       <use xlink:href="#DejaVuSans-48"/>
       <use x="63.623047" xlink:href="#DejaVuSans-46"/>
       <use x="95.410156" xlink:href="#DejaVuSans-51"/>
       <use x="159.033203" xlink:href="#DejaVuSans-48"/>
      </g>
     </g>
    </g>
    <g id="ytick_7">
     <g id="line2d_13">
      <g>
       <use style="stroke:#000000;stroke-width:0.8;" x="57.6" xlink:href="#mf18ad2f8b7" y="104.814462"/>
      </g>
     </g>
     <g id="text_14">
      <!-- 0.35 -->
      <g transform="translate(28.334375 108.613681)scale(0.1 -0.1)">
       <use xlink:href="#DejaVuSans-48"/>
       <use x="63.623047" xlink:href="#DejaVuSans-46"/>
       <use x="95.410156" xlink:href="#DejaVuSans-51"/>
       <use x="159.033203" xlink:href="#DejaVuSans-53"/>
      </g>
     </g>
    </g>
    <g id="ytick_8">
     <g id="line2d_14">
      <g>
       <use style="stroke:#000000;stroke-width:0.8;" x="57.6" xlink:href="#mf18ad2f8b7" y="74.111582"/>
      </g>
     </g>
     <g id="text_15">
      <!-- 0.40 -->
      <g transform="translate(28.334375 77.910801)scale(0.1 -0.1)">
       <use xlink:href="#DejaVuSans-48"/>
       <use x="63.623047" xlink:href="#DejaVuSans-46"/>
       <use x="95.410156" xlink:href="#DejaVuSans-52"/>
       <use x="159.033203" xlink:href="#DejaVuSans-48"/>
      </g>
     </g>
    </g>
    <g id="ytick_9">
     <g id="line2d_15">
      <g>
       <use style="stroke:#000000;stroke-width:0.8;" x="57.6" xlink:href="#mf18ad2f8b7" y="43.408701"/>
      </g>
     </g>
     <g id="text_16">
      <!-- 0.45 -->
      <g transform="translate(28.334375 47.20792)scale(0.1 -0.1)">
       <use xlink:href="#DejaVuSans-48"/>
       <use x="63.623047" xlink:href="#DejaVuSans-46"/>
       <use x="95.410156" xlink:href="#DejaVuSans-52"/>
       <use x="159.033203" xlink:href="#DejaVuSans-53"/>
      </g>
     </g>
    </g>
    <g id="text_17">
     <!-- Value of $\gamma_i$ -->
     <defs>
      <path d="M 28.609375 0 
L 0.78125 72.90625 
L 11.078125 72.90625 
L 34.1875 11.53125 
L 57.328125 72.90625 
L 67.578125 72.90625 
L 39.796875 0 
z
" id="DejaVuSans-86"/>
      <path d="M 34.28125 27.484375 
Q 23.390625 27.484375 19.1875 25 
Q 14.984375 22.515625 14.984375 16.5 
Q 14.984375 11.71875 18.140625 8.90625 
Q 21.296875 6.109375 26.703125 6.109375 
Q 34.1875 6.109375 38.703125 11.40625 
Q 43.21875 16.703125 43.21875 25.484375 
L 43.21875 27.484375 
z
M 52.203125 31.203125 
L 52.203125 0 
L 43.21875 0 
L 43.21875 8.296875 
Q 40.140625 3.328125 35.546875 0.953125 
Q 30.953125 -1.421875 24.3125 -1.421875 
Q 15.921875 -1.421875 10.953125 3.296875 
Q 6 8.015625 6 15.921875 
Q 6 25.140625 12.171875 29.828125 
Q 18.359375 34.515625 30.609375 34.515625 
L 43.21875 34.515625 
L 43.21875 35.40625 
Q 43.21875 41.609375 39.140625 45 
Q 35.0625 48.390625 27.6875 48.390625 
Q 23 48.390625 18.546875 47.265625 
Q 14.109375 46.140625 10.015625 43.890625 
L 10.015625 52.203125 
Q 14.9375 54.109375 19.578125 55.046875 
Q 24.21875 56 28.609375 56 
Q 40.484375 56 46.34375 49.84375 
Q 52.203125 43.703125 52.203125 31.203125 
z
" id="DejaVuSans-97"/>
      <path d="M 9.421875 75.984375 
L 18.40625 75.984375 
L 18.40625 0 
L 9.421875 0 
z
" id="DejaVuSans-108"/>
      <path d="M 8.5 21.578125 
L 8.5 54.6875 
L 17.484375 54.6875 
L 17.484375 21.921875 
Q 17.484375 14.15625 20.5 10.265625 
Q 23.53125 6.390625 29.59375 6.390625 
Q 36.859375 6.390625 41.078125 11.03125 
Q 45.3125 15.671875 45.3125 23.6875 
L 45.3125 54.6875 
L 54.296875 54.6875 
L 54.296875 0 
L 45.3125 0 
L 45.3125 8.40625 
Q 42.046875 3.421875 37.71875 1 
Q 33.40625 -1.421875 27.6875 -1.421875 
Q 18.265625 -1.421875 13.375 4.4375 
Q 8.5 10.296875 8.5 21.578125 
z
M 31.109375 56 
z
" id="DejaVuSans-117"/>
      <path d="M 56.203125 29.59375 
L 56.203125 25.203125 
L 14.890625 25.203125 
Q 15.484375 15.921875 20.484375 11.0625 
Q 25.484375 6.203125 34.421875 6.203125 
Q 39.59375 6.203125 44.453125 7.46875 
Q 49.3125 8.734375 54.109375 11.28125 
L 54.109375 2.78125 
Q 49.265625 0.734375 44.1875 -0.34375 
Q 39.109375 -1.421875 33.890625 -1.421875 
Q 20.796875 -1.421875 13.15625 6.1875 
Q 5.515625 13.8125 5.515625 26.8125 
Q 5.515625 40.234375 12.765625 48.109375 
Q 20.015625 56 32.328125 56 
Q 43.359375 56 49.78125 48.890625 
Q 56.203125 41.796875 56.203125 29.59375 
z
M 47.21875 32.234375 
Q 47.125 39.59375 43.09375 43.984375 
Q 39.0625 48.390625 32.421875 48.390625 
Q 24.90625 48.390625 20.390625 44.140625 
Q 15.875 39.890625 15.1875 32.171875 
z
" id="DejaVuSans-101"/>
      <path id="DejaVuSans-32"/>
      <path d="M 30.609375 48.390625 
Q 23.390625 48.390625 19.1875 42.75 
Q 14.984375 37.109375 14.984375 27.296875 
Q 14.984375 17.484375 19.15625 11.84375 
Q 23.34375 6.203125 30.609375 6.203125 
Q 37.796875 6.203125 41.984375 11.859375 
Q 46.1875 17.53125 46.1875 27.296875 
Q 46.1875 37.015625 41.984375 42.703125 
Q 37.796875 48.390625 30.609375 48.390625 
z
M 30.609375 56 
Q 42.328125 56 49.015625 48.375 
Q 55.71875 40.765625 55.71875 27.296875 
Q 55.71875 13.875 49.015625 6.21875 
Q 42.328125 -1.421875 30.609375 -1.421875 
Q 18.84375 -1.421875 12.171875 6.21875 
Q 5.515625 13.875 5.515625 27.296875 
Q 5.515625 40.765625 12.171875 48.375 
Q 18.84375 56 30.609375 56 
z
" id="DejaVuSans-111"/>
      <path d="M 37.109375 75.984375 
L 37.109375 68.5 
L 28.515625 68.5 
Q 23.6875 68.5 21.796875 66.546875 
Q 19.921875 64.59375 19.921875 59.515625 
L 19.921875 54.6875 
L 34.71875 54.6875 
L 34.71875 47.703125 
L 19.921875 47.703125 
L 19.921875 0 
L 10.890625 0 
L 10.890625 47.703125 
L 2.296875 47.703125 
L 2.296875 54.6875 
L 10.890625 54.6875 
L 10.890625 58.5 
Q 10.890625 67.625 15.140625 71.796875 
Q 19.390625 75.984375 28.609375 75.984375 
z
" id="DejaVuSans-102"/>
     </defs>
     <g transform="translate(22.234375 200.728)rotate(-90)scale(0.1 -0.1)">
      <use transform="translate(0 0.015625)" xlink:href="#DejaVuSans-86"/>
      <use transform="translate(68.408203 0.015625)" xlink:href="#DejaVuSans-97"/>
      <use transform="translate(129.6875 0.015625)" xlink:href="#DejaVuSans-108"/>
      <use transform="translate(157.470703 0.015625)" xlink:href="#DejaVuSans-117"/>
      <use transform="translate(220.849609 0.015625)" xlink:href="#DejaVuSans-101"/>
      <use transform="translate(282.373047 0.015625)" xlink:href="#DejaVuSans-32"/>
      <use transform="translate(314.160156 0.015625)" xlink:href="#DejaVuSans-111"/>
      <use transform="translate(375.341797 0.015625)" xlink:href="#DejaVuSans-102"/>
      <use transform="translate(410.546875 0.015625)" xlink:href="#DejaVuSans-32"/>
      <use transform="translate(442.333984 0.015625)" xlink:href="#DejaVuSans-Oblique-947"/>
      <use transform="translate(501.513672 -16.390625)scale(0.7)" xlink:href="#DejaVuSans-Oblique-105"/>
     </g>
    </g>
   </g>
   <g id="line2d_16">
    <path clip-path="url(#pe5b0ef9274)" d="M 73.832727 273.662102 
L 138.763636 211.243922 
L 203.694545 173.411716 
L 268.625455 151.863305 
L 333.556364 114.331567 
L 398.487273 66.016481 
" style="fill:none;stroke:#1f77b4;stroke-linecap:square;stroke-width:1.5;"/>
    <defs>
     <path d="M 0 3 
C 0.795609 3 1.55874 2.683901 2.12132 2.12132 
C 2.683901 1.55874 3 0.795609 3 0 
C 3 -0.795609 2.683901 -1.55874 2.12132 -2.12132 
C 1.55874 -2.683901 0.795609 -3 0 -3 
C -0.795609 -3 -1.55874 -2.683901 -2.12132 -2.12132 
C -2.683901 -1.55874 -3 -0.795609 -3 0 
C -3 0.795609 -2.683901 1.55874 -2.12132 2.12132 
C -1.55874 2.683901 -0.795609 3 0 3 
z
" id="mf2fb36683f" style="stroke:#1f77b4;"/>
    </defs>
    <g clip-path="url(#pe5b0ef9274)">
     <use style="fill:#1f77b4;stroke:#1f77b4;" x="73.832727" xlink:href="#mf2fb36683f" y="273.662102"/>
     <use style="fill:#1f77b4;stroke:#1f77b4;" x="138.763636" xlink:href="#mf2fb36683f" y="211.243922"/>
     <use style="fill:#1f77b4;stroke:#1f77b4;" x="203.694545" xlink:href="#mf2fb36683f" y="173.411716"/>
     <use style="fill:#1f77b4;stroke:#1f77b4;" x="268.625455" xlink:href="#mf2fb36683f" y="151.863305"/>
     <use style="fill:#1f77b4;stroke:#1f77b4;" x="333.556364" xlink:href="#mf2fb36683f" y="114.331567"/>
     <use style="fill:#1f77b4;stroke:#1f77b4;" x="398.487273" xlink:href="#mf2fb36683f" y="66.016481"/>
    </g>
   </g>
   <g id="line2d_17">
    <path clip-path="url(#pe5b0ef9274)" d="M 73.832727 281.99618 
L 138.763636 231.584766 
L 203.694545 189.760178 
L 268.625455 157.521888 
L 333.556364 138.780731 
L 398.487273 130.892435 
" style="fill:none;stroke:#ff7f0e;stroke-linecap:square;stroke-width:1.5;"/>
    <defs>
     <path d="M 0 3 
C 0.795609 3 1.55874 2.683901 2.12132 2.12132 
C 2.683901 1.55874 3 0.795609 3 0 
C 3 -0.795609 2.683901 -1.55874 2.12132 -2.12132 
C 1.55874 -2.683901 0.795609 -3 0 -3 
C -0.795609 -3 -1.55874 -2.683901 -2.12132 -2.12132 
C -2.683901 -1.55874 -3 -0.795609 -3 0 
C -3 0.795609 -2.683901 1.55874 -2.12132 2.12132 
C -1.55874 2.683901 -0.795609 3 0 3 
z
" id="ma4a100e913" style="stroke:#ff7f0e;"/>
    </defs>
    <g clip-path="url(#pe5b0ef9274)">
     <use style="fill:#ff7f0e;stroke:#ff7f0e;" x="73.832727" xlink:href="#ma4a100e913" y="281.99618"/>
     <use style="fill:#ff7f0e;stroke:#ff7f0e;" x="138.763636" xlink:href="#ma4a100e913" y="231.584766"/>
     <use style="fill:#ff7f0e;stroke:#ff7f0e;" x="203.694545" xlink:href="#ma4a100e913" y="189.760178"/>
     <use style="fill:#ff7f0e;stroke:#ff7f0e;" x="268.625455" xlink:href="#ma4a100e913" y="157.521888"/>
     <use style="fill:#ff7f0e;stroke:#ff7f0e;" x="333.556364" xlink:href="#ma4a100e913" y="138.780731"/>
     <use style="fill:#ff7f0e;stroke:#ff7f0e;" x="398.487273" xlink:href="#ma4a100e913" y="130.892435"/>
    </g>
   </g>
   <g id="line2d_18">
    <path clip-path="url(#pe5b0ef9274)" d="M 73.832727 271.70266 
L 138.763636 211.685143 
L 203.694545 178.318126 
L 268.625455 150.775384 
L 333.556364 134.180552 
L 398.487273 113.051765 
" style="fill:none;stroke:#2ca02c;stroke-linecap:square;stroke-width:1.5;"/>
    <defs>
     <path d="M 0 3 
C 0.795609 3 1.55874 2.683901 2.12132 2.12132 
C 2.683901 1.55874 3 0.795609 3 0 
C 3 -0.795609 2.683901 -1.55874 2.12132 -2.12132 
C 1.55874 -2.683901 0.795609 -3 0 -3 
C -0.795609 -3 -1.55874 -2.683901 -2.12132 -2.12132 
C -2.683901 -1.55874 -3 -0.795609 -3 0 
C -3 0.795609 -2.683901 1.55874 -2.12132 2.12132 
C -1.55874 2.683901 -0.795609 3 0 3 
z
" id="m5db067b59d" style="stroke:#2ca02c;"/>
    </defs>
    <g clip-path="url(#pe5b0ef9274)">
     <use style="fill:#2ca02c;stroke:#2ca02c;" x="73.832727" xlink:href="#m5db067b59d" y="271.70266"/>
     <use style="fill:#2ca02c;stroke:#2ca02c;" x="138.763636" xlink:href="#m5db067b59d" y="211.685143"/>
     <use style="fill:#2ca02c;stroke:#2ca02c;" x="203.694545" xlink:href="#m5db067b59d" y="178.318126"/>
     <use style="fill:#2ca02c;stroke:#2ca02c;" x="268.625455" xlink:href="#m5db067b59d" y="150.775384"/>
     <use style="fill:#2ca02c;stroke:#2ca02c;" x="333.556364" xlink:href="#m5db067b59d" y="134.180552"/>
     <use style="fill:#2ca02c;stroke:#2ca02c;" x="398.487273" xlink:href="#m5db067b59d" y="113.051765"/>
    </g>
   </g>
   <g id="line2d_19">
    <path clip-path="url(#pe5b0ef9274)" d="M 73.832727 265.68143 
L 138.763636 194.031999 
L 203.694545 161.270745 
L 268.625455 129.217357 
L 333.556364 120.256621 
L 398.487273 111.448414 
" style="fill:none;stroke:#d62728;stroke-linecap:square;stroke-width:1.5;"/>
    <defs>
     <path d="M 0 3 
C 0.795609 3 1.55874 2.683901 2.12132 2.12132 
C 2.683901 1.55874 3 0.795609 3 0 
C 3 -0.795609 2.683901 -1.55874 2.12132 -2.12132 
C 1.55874 -2.683901 0.795609 -3 0 -3 
C -0.795609 -3 -1.55874 -2.683901 -2.12132 -2.12132 
C -2.683901 -1.55874 -3 -0.795609 -3 0 
C -3 0.795609 -2.683901 1.55874 -2.12132 2.12132 
C -1.55874 2.683901 -0.795609 3 0 3 
z
" id="mc739ee5569" style="stroke:#d62728;"/>
    </defs>
    <g clip-path="url(#pe5b0ef9274)">
     <use style="fill:#d62728;stroke:#d62728;" x="73.832727" xlink:href="#mc739ee5569" y="265.68143"/>
     <use style="fill:#d62728;stroke:#d62728;" x="138.763636" xlink:href="#mc739ee5569" y="194.031999"/>
     <use style="fill:#d62728;stroke:#d62728;" x="203.694545" xlink:href="#mc739ee5569" y="161.270745"/>
     <use style="fill:#d62728;stroke:#d62728;" x="268.625455" xlink:href="#mc739ee5569" y="129.217357"/>
     <use style="fill:#d62728;stroke:#d62728;" x="333.556364" xlink:href="#mc739ee5569" y="120.256621"/>
     <use style="fill:#d62728;stroke:#d62728;" x="398.487273" xlink:href="#mc739ee5569" y="111.448414"/>
    </g>
   </g>
   <g id="line2d_20">
    <path clip-path="url(#pe5b0ef9274)" d="M 73.832727 279.107295 
L 138.763636 217.954652 
L 203.694545 181.438133 
L 268.625455 145.694202 
L 333.556364 121.516643 
L 398.487273 95.941926 
" style="fill:none;stroke:#9467bd;stroke-linecap:square;stroke-width:1.5;"/>
    <defs>
     <path d="M 0 3 
C 0.795609 3 1.55874 2.683901 2.12132 2.12132 
C 2.683901 1.55874 3 0.795609 3 0 
C 3 -0.795609 2.683901 -1.55874 2.12132 -2.12132 
C 1.55874 -2.683901 0.795609 -3 0 -3 
C -0.795609 -3 -1.55874 -2.683901 -2.12132 -2.12132 
C -2.683901 -1.55874 -3 -0.795609 -3 0 
C -3 0.795609 -2.683901 1.55874 -2.12132 2.12132 
C -1.55874 2.683901 -0.795609 3 0 3 
z
" id="m8ceb226099" style="stroke:#9467bd;"/>
    </defs>
    <g clip-path="url(#pe5b0ef9274)">
     <use style="fill:#9467bd;stroke:#9467bd;" x="73.832727" xlink:href="#m8ceb226099" y="279.107295"/>
     <use style="fill:#9467bd;stroke:#9467bd;" x="138.763636" xlink:href="#m8ceb226099" y="217.954652"/>
     <use style="fill:#9467bd;stroke:#9467bd;" x="203.694545" xlink:href="#m8ceb226099" y="181.438133"/>
     <use style="fill:#9467bd;stroke:#9467bd;" x="268.625455" xlink:href="#m8ceb226099" y="145.694202"/>
     <use style="fill:#9467bd;stroke:#9467bd;" x="333.556364" xlink:href="#m8ceb226099" y="121.516643"/>
     <use style="fill:#9467bd;stroke:#9467bd;" x="398.487273" xlink:href="#m8ceb226099" y="95.941926"/>
    </g>
   </g>
   <g id="line2d_21">
    <path clip-path="url(#pe5b0ef9274)" d="M 73.832727 270.103362 
L 138.763636 215.73333 
L 203.694545 189.85041 
L 268.625455 175.362446 
L 333.556364 152.641824 
L 398.487273 138.277861 
" style="fill:none;stroke:#8c564b;stroke-linecap:square;stroke-width:1.5;"/>
    <defs>
     <path d="M 0 3 
C 0.795609 3 1.55874 2.683901 2.12132 2.12132 
C 2.683901 1.55874 3 0.795609 3 0 
C 3 -0.795609 2.683901 -1.55874 2.12132 -2.12132 
C 1.55874 -2.683901 0.795609 -3 0 -3 
C -0.795609 -3 -1.55874 -2.683901 -2.12132 -2.12132 
C -2.683901 -1.55874 -3 -0.795609 -3 0 
C -3 0.795609 -2.683901 1.55874 -2.12132 2.12132 
C -1.55874 2.683901 -0.795609 3 0 3 
z
" id="m3bb196bdba" style="stroke:#8c564b;"/>
    </defs>
    <g clip-path="url(#pe5b0ef9274)">
     <use style="fill:#8c564b;stroke:#8c564b;" x="73.832727" xlink:href="#m3bb196bdba" y="270.103362"/>
     <use style="fill:#8c564b;stroke:#8c564b;" x="138.763636" xlink:href="#m3bb196bdba" y="215.73333"/>
     <use style="fill:#8c564b;stroke:#8c564b;" x="203.694545" xlink:href="#m3bb196bdba" y="189.85041"/>
     <use style="fill:#8c564b;stroke:#8c564b;" x="268.625455" xlink:href="#m3bb196bdba" y="175.362446"/>
     <use style="fill:#8c564b;stroke:#8c564b;" x="333.556364" xlink:href="#m3bb196bdba" y="152.641824"/>
     <use style="fill:#8c564b;stroke:#8c564b;" x="398.487273" xlink:href="#m3bb196bdba" y="138.277861"/>
    </g>
   </g>
   <g id="line2d_22">
    <path clip-path="url(#pe5b0ef9274)" d="M 73.832727 277.585626 
L 138.763636 219.607509 
L 203.694545 181.563532 
L 268.625455 141.416005 
L 333.556364 113.992927 
L 398.487273 100.151417 
" style="fill:none;stroke:#e377c2;stroke-linecap:square;stroke-width:1.5;"/>
    <defs>
     <path d="M 0 3 
C 0.795609 3 1.55874 2.683901 2.12132 2.12132 
C 2.683901 1.55874 3 0.795609 3 0 
C 3 -0.795609 2.683901 -1.55874 2.12132 -2.12132 
C 1.55874 -2.683901 0.795609 -3 0 -3 
C -0.795609 -3 -1.55874 -2.683901 -2.12132 -2.12132 
C -2.683901 -1.55874 -3 -0.795609 -3 0 
C -3 0.795609 -2.683901 1.55874 -2.12132 2.12132 
C -1.55874 2.683901 -0.795609 3 0 3 
z
" id="me14893f710" style="stroke:#e377c2;"/>
    </defs>
    <g clip-path="url(#pe5b0ef9274)">
     <use style="fill:#e377c2;stroke:#e377c2;" x="73.832727" xlink:href="#me14893f710" y="277.585626"/>
     <use style="fill:#e377c2;stroke:#e377c2;" x="138.763636" xlink:href="#me14893f710" y="219.607509"/>
     <use style="fill:#e377c2;stroke:#e377c2;" x="203.694545" xlink:href="#me14893f710" y="181.563532"/>
     <use style="fill:#e377c2;stroke:#e377c2;" x="268.625455" xlink:href="#me14893f710" y="141.416005"/>
     <use style="fill:#e377c2;stroke:#e377c2;" x="333.556364" xlink:href="#me14893f710" y="113.992927"/>
     <use style="fill:#e377c2;stroke:#e377c2;" x="398.487273" xlink:href="#me14893f710" y="100.151417"/>
    </g>
   </g>
   <g id="line2d_23">
    <path clip-path="url(#pe5b0ef9274)" d="M 73.832727 285.362331 
L 138.763636 229.972883 
L 203.694545 168.389412 
L 268.625455 129.221231 
L 333.556364 92.890437 
L 398.487273 62.050927 
" style="fill:none;stroke:#7f7f7f;stroke-linecap:square;stroke-width:1.5;"/>
    <defs>
     <path d="M 0 3 
C 0.795609 3 1.55874 2.683901 2.12132 2.12132 
C 2.683901 1.55874 3 0.795609 3 0 
C 3 -0.795609 2.683901 -1.55874 2.12132 -2.12132 
C 1.55874 -2.683901 0.795609 -3 0 -3 
C -0.795609 -3 -1.55874 -2.683901 -2.12132 -2.12132 
C -2.683901 -1.55874 -3 -0.795609 -3 0 
C -3 0.795609 -2.683901 1.55874 -2.12132 2.12132 
C -1.55874 2.683901 -0.795609 3 0 3 
z
" id="ma1100d5491" style="stroke:#7f7f7f;"/>
    </defs>
    <g clip-path="url(#pe5b0ef9274)">
     <use style="fill:#7f7f7f;stroke:#7f7f7f;" x="73.832727" xlink:href="#ma1100d5491" y="285.362331"/>
     <use style="fill:#7f7f7f;stroke:#7f7f7f;" x="138.763636" xlink:href="#ma1100d5491" y="229.972883"/>
     <use style="fill:#7f7f7f;stroke:#7f7f7f;" x="203.694545" xlink:href="#ma1100d5491" y="168.389412"/>
     <use style="fill:#7f7f7f;stroke:#7f7f7f;" x="268.625455" xlink:href="#ma1100d5491" y="129.221231"/>
     <use style="fill:#7f7f7f;stroke:#7f7f7f;" x="333.556364" xlink:href="#ma1100d5491" y="92.890437"/>
     <use style="fill:#7f7f7f;stroke:#7f7f7f;" x="398.487273" xlink:href="#ma1100d5491" y="62.050927"/>
    </g>
   </g>
   <g id="line2d_24">
    <path clip-path="url(#pe5b0ef9274)" d="M 73.832727 281.32228 
L 138.763636 232.088971 
L 203.694545 193.512775 
L 268.625455 151.945171 
L 333.556364 126.258242 
L 398.487273 113.965587 
" style="fill:none;stroke:#bcbd22;stroke-linecap:square;stroke-width:1.5;"/>
    <defs>
     <path d="M 0 3 
C 0.795609 3 1.55874 2.683901 2.12132 2.12132 
C 2.683901 1.55874 3 0.795609 3 0 
C 3 -0.795609 2.683901 -1.55874 2.12132 -2.12132 
C 1.55874 -2.683901 0.795609 -3 0 -3 
C -0.795609 -3 -1.55874 -2.683901 -2.12132 -2.12132 
C -2.683901 -1.55874 -3 -0.795609 -3 0 
C -3 0.795609 -2.683901 1.55874 -2.12132 2.12132 
C -1.55874 2.683901 -0.795609 3 0 3 
z
" id="ma71568095d" style="stroke:#bcbd22;"/>
    </defs>
    <g clip-path="url(#pe5b0ef9274)">
     <use style="fill:#bcbd22;stroke:#bcbd22;" x="73.832727" xlink:href="#ma71568095d" y="281.32228"/>
     <use style="fill:#bcbd22;stroke:#bcbd22;" x="138.763636" xlink:href="#ma71568095d" y="232.088971"/>
     <use style="fill:#bcbd22;stroke:#bcbd22;" x="203.694545" xlink:href="#ma71568095d" y="193.512775"/>
     <use style="fill:#bcbd22;stroke:#bcbd22;" x="268.625455" xlink:href="#ma71568095d" y="151.945171"/>
     <use style="fill:#bcbd22;stroke:#bcbd22;" x="333.556364" xlink:href="#ma71568095d" y="126.258242"/>
     <use style="fill:#bcbd22;stroke:#bcbd22;" x="398.487273" xlink:href="#ma71568095d" y="113.965587"/>
    </g>
   </g>
   <g id="line2d_25">
    <path clip-path="url(#pe5b0ef9274)" d="M 73.832727 265.52137 
L 138.763636 194.068185 
L 203.694545 138.453345 
L 268.625455 113.269804 
L 333.556364 96.734012 
L 398.487273 103.106059 
" style="fill:none;stroke:#17becf;stroke-linecap:square;stroke-width:1.5;"/>
    <defs>
     <path d="M 0 3 
C 0.795609 3 1.55874 2.683901 2.12132 2.12132 
C 2.683901 1.55874 3 0.795609 3 0 
C 3 -0.795609 2.683901 -1.55874 2.12132 -2.12132 
C 1.55874 -2.683901 0.795609 -3 0 -3 
C -0.795609 -3 -1.55874 -2.683901 -2.12132 -2.12132 
C -2.683901 -1.55874 -3 -0.795609 -3 0 
C -3 0.795609 -2.683901 1.55874 -2.12132 2.12132 
C -1.55874 2.683901 -0.795609 3 0 3 
z
" id="mc9c5079347" style="stroke:#17becf;"/>
    </defs>
    <g clip-path="url(#pe5b0ef9274)">
     <use style="fill:#17becf;stroke:#17becf;" x="73.832727" xlink:href="#mc9c5079347" y="265.52137"/>
     <use style="fill:#17becf;stroke:#17becf;" x="138.763636" xlink:href="#mc9c5079347" y="194.068185"/>
     <use style="fill:#17becf;stroke:#17becf;" x="203.694545" xlink:href="#mc9c5079347" y="138.453345"/>
     <use style="fill:#17becf;stroke:#17becf;" x="268.625455" xlink:href="#mc9c5079347" y="113.269804"/>
     <use style="fill:#17becf;stroke:#17becf;" x="333.556364" xlink:href="#mc9c5079347" y="96.734012"/>
     <use style="fill:#17becf;stroke:#17becf;" x="398.487273" xlink:href="#mc9c5079347" y="103.106059"/>
    </g>
   </g>
   <g id="line2d_26">
    <path clip-path="url(#pe5b0ef9274)" d="M 73.832727 276.659556 
L 138.763636 227.800781 
L 203.694545 194.26988 
L 268.625455 175.077377 
L 333.556364 140.315094 
L 398.487273 121.094381 
" style="fill:none;stroke:#1f77b4;stroke-linecap:square;stroke-width:1.5;"/>
    <g clip-path="url(#pe5b0ef9274)">
     <use style="fill:#1f77b4;stroke:#1f77b4;" x="73.832727" xlink:href="#mf2fb36683f" y="276.659556"/>
     <use style="fill:#1f77b4;stroke:#1f77b4;" x="138.763636" xlink:href="#mf2fb36683f" y="227.800781"/>
     <use style="fill:#1f77b4;stroke:#1f77b4;" x="203.694545" xlink:href="#mf2fb36683f" y="194.26988"/>
     <use style="fill:#1f77b4;stroke:#1f77b4;" x="268.625455" xlink:href="#mf2fb36683f" y="175.077377"/>
     <use style="fill:#1f77b4;stroke:#1f77b4;" x="333.556364" xlink:href="#mf2fb36683f" y="140.315094"/>
     <use style="fill:#1f77b4;stroke:#1f77b4;" x="398.487273" xlink:href="#mf2fb36683f" y="121.094381"/>
    </g>
   </g>
   <g id="line2d_27">
    <path clip-path="url(#pe5b0ef9274)" d="M 73.832727 283.05902 
L 138.763636 229.658766 
L 203.694545 188.859557 
L 268.625455 161.151482 
L 333.556364 145.74538 
L 398.487273 119.681042 
" style="fill:none;stroke:#ff7f0e;stroke-linecap:square;stroke-width:1.5;"/>
    <g clip-path="url(#pe5b0ef9274)">
     <use style="fill:#ff7f0e;stroke:#ff7f0e;" x="73.832727" xlink:href="#ma4a100e913" y="283.05902"/>
     <use style="fill:#ff7f0e;stroke:#ff7f0e;" x="138.763636" xlink:href="#ma4a100e913" y="229.658766"/>
     <use style="fill:#ff7f0e;stroke:#ff7f0e;" x="203.694545" xlink:href="#ma4a100e913" y="188.859557"/>
     <use style="fill:#ff7f0e;stroke:#ff7f0e;" x="268.625455" xlink:href="#ma4a100e913" y="161.151482"/>
     <use style="fill:#ff7f0e;stroke:#ff7f0e;" x="333.556364" xlink:href="#ma4a100e913" y="145.74538"/>
     <use style="fill:#ff7f0e;stroke:#ff7f0e;" x="398.487273" xlink:href="#ma4a100e913" y="119.681042"/>
    </g>
   </g>
   <g id="line2d_28">
    <path clip-path="url(#pe5b0ef9274)" d="M 73.832727 269.577678 
L 138.763636 216.704741 
L 203.694545 183.624559 
L 268.625455 144.118543 
L 333.556364 127.366866 
L 398.487273 103.054846 
" style="fill:none;stroke:#2ca02c;stroke-linecap:square;stroke-width:1.5;"/>
    <g clip-path="url(#pe5b0ef9274)">
     <use style="fill:#2ca02c;stroke:#2ca02c;" x="73.832727" xlink:href="#m5db067b59d" y="269.577678"/>
     <use style="fill:#2ca02c;stroke:#2ca02c;" x="138.763636" xlink:href="#m5db067b59d" y="216.704741"/>
     <use style="fill:#2ca02c;stroke:#2ca02c;" x="203.694545" xlink:href="#m5db067b59d" y="183.624559"/>
     <use style="fill:#2ca02c;stroke:#2ca02c;" x="268.625455" xlink:href="#m5db067b59d" y="144.118543"/>
     <use style="fill:#2ca02c;stroke:#2ca02c;" x="333.556364" xlink:href="#m5db067b59d" y="127.366866"/>
     <use style="fill:#2ca02c;stroke:#2ca02c;" x="398.487273" xlink:href="#m5db067b59d" y="103.054846"/>
    </g>
   </g>
   <g id="line2d_29">
    <path clip-path="url(#pe5b0ef9274)" d="M 73.832727 268.297421 
L 138.763636 193.024845 
L 203.694545 141.630425 
L 268.625455 112.658194 
L 333.556364 112.784802 
L 398.487273 123.666137 
" style="fill:none;stroke:#d62728;stroke-linecap:square;stroke-width:1.5;"/>
    <g clip-path="url(#pe5b0ef9274)">
     <use style="fill:#d62728;stroke:#d62728;" x="73.832727" xlink:href="#mc739ee5569" y="268.297421"/>
     <use style="fill:#d62728;stroke:#d62728;" x="138.763636" xlink:href="#mc739ee5569" y="193.024845"/>
     <use style="fill:#d62728;stroke:#d62728;" x="203.694545" xlink:href="#mc739ee5569" y="141.630425"/>
     <use style="fill:#d62728;stroke:#d62728;" x="268.625455" xlink:href="#mc739ee5569" y="112.658194"/>
     <use style="fill:#d62728;stroke:#d62728;" x="333.556364" xlink:href="#mc739ee5569" y="112.784802"/>
     <use style="fill:#d62728;stroke:#d62728;" x="398.487273" xlink:href="#mc739ee5569" y="123.666137"/>
    </g>
   </g>
   <g id="line2d_30">
    <path clip-path="url(#pe5b0ef9274)" d="M 73.832727 295.488 
L 138.763636 244.427976 
L 203.694545 198.930316 
L 268.625455 161.493911 
L 333.556364 133.952425 
L 398.487273 111.904419 
" style="fill:none;stroke:#9467bd;stroke-linecap:square;stroke-width:1.5;"/>
    <g clip-path="url(#pe5b0ef9274)">
     <use style="fill:#9467bd;stroke:#9467bd;" x="73.832727" xlink:href="#m8ceb226099" y="295.488"/>
     <use style="fill:#9467bd;stroke:#9467bd;" x="138.763636" xlink:href="#m8ceb226099" y="244.427976"/>
     <use style="fill:#9467bd;stroke:#9467bd;" x="203.694545" xlink:href="#m8ceb226099" y="198.930316"/>
     <use style="fill:#9467bd;stroke:#9467bd;" x="268.625455" xlink:href="#m8ceb226099" y="161.493911"/>
     <use style="fill:#9467bd;stroke:#9467bd;" x="333.556364" xlink:href="#m8ceb226099" y="133.952425"/>
     <use style="fill:#9467bd;stroke:#9467bd;" x="398.487273" xlink:href="#m8ceb226099" y="111.904419"/>
    </g>
   </g>
   <g id="line2d_31">
    <path clip-path="url(#pe5b0ef9274)" d="M 73.832727 278.97925 
L 138.763636 220.276139 
L 203.694545 184.58949 
L 268.625455 155.973378 
L 333.556364 137.241881 
L 398.487273 126.464625 
" style="fill:none;stroke:#8c564b;stroke-linecap:square;stroke-width:1.5;"/>
    <g clip-path="url(#pe5b0ef9274)">
     <use style="fill:#8c564b;stroke:#8c564b;" x="73.832727" xlink:href="#m3bb196bdba" y="278.97925"/>
     <use style="fill:#8c564b;stroke:#8c564b;" x="138.763636" xlink:href="#m3bb196bdba" y="220.276139"/>
     <use style="fill:#8c564b;stroke:#8c564b;" x="203.694545" xlink:href="#m3bb196bdba" y="184.58949"/>
     <use style="fill:#8c564b;stroke:#8c564b;" x="268.625455" xlink:href="#m3bb196bdba" y="155.973378"/>
     <use style="fill:#8c564b;stroke:#8c564b;" x="333.556364" xlink:href="#m3bb196bdba" y="137.241881"/>
     <use style="fill:#8c564b;stroke:#8c564b;" x="398.487273" xlink:href="#m3bb196bdba" y="126.464625"/>
    </g>
   </g>
   <g id="line2d_32">
    <path clip-path="url(#pe5b0ef9274)" d="M 73.832727 256.195967 
L 138.763636 193.048783 
L 203.694545 150.508634 
L 268.625455 134.275966 
L 333.556364 128.179739 
L 398.487273 131.563184 
" style="fill:none;stroke:#e377c2;stroke-linecap:square;stroke-width:1.5;"/>
    <g clip-path="url(#pe5b0ef9274)">
     <use style="fill:#e377c2;stroke:#e377c2;" x="73.832727" xlink:href="#me14893f710" y="256.195967"/>
     <use style="fill:#e377c2;stroke:#e377c2;" x="138.763636" xlink:href="#me14893f710" y="193.048783"/>
     <use style="fill:#e377c2;stroke:#e377c2;" x="203.694545" xlink:href="#me14893f710" y="150.508634"/>
     <use style="fill:#e377c2;stroke:#e377c2;" x="268.625455" xlink:href="#me14893f710" y="134.275966"/>
     <use style="fill:#e377c2;stroke:#e377c2;" x="333.556364" xlink:href="#me14893f710" y="128.179739"/>
     <use style="fill:#e377c2;stroke:#e377c2;" x="398.487273" xlink:href="#me14893f710" y="131.563184"/>
    </g>
   </g>
   <g id="line2d_33">
    <path clip-path="url(#pe5b0ef9274)" d="M 73.832727 295.162944 
L 138.763636 242.78691 
L 203.694545 189.070322 
L 268.625455 144.417076 
L 333.556364 113.660627 
L 398.487273 83.559089 
" style="fill:none;stroke:#7f7f7f;stroke-linecap:square;stroke-width:1.5;"/>
    <g clip-path="url(#pe5b0ef9274)">
     <use style="fill:#7f7f7f;stroke:#7f7f7f;" x="73.832727" xlink:href="#ma1100d5491" y="295.162944"/>
     <use style="fill:#7f7f7f;stroke:#7f7f7f;" x="138.763636" xlink:href="#ma1100d5491" y="242.78691"/>
     <use style="fill:#7f7f7f;stroke:#7f7f7f;" x="203.694545" xlink:href="#ma1100d5491" y="189.070322"/>
     <use style="fill:#7f7f7f;stroke:#7f7f7f;" x="268.625455" xlink:href="#ma1100d5491" y="144.417076"/>
     <use style="fill:#7f7f7f;stroke:#7f7f7f;" x="333.556364" xlink:href="#ma1100d5491" y="113.660627"/>
     <use style="fill:#7f7f7f;stroke:#7f7f7f;" x="398.487273" xlink:href="#ma1100d5491" y="83.559089"/>
    </g>
   </g>
   <g id="line2d_34">
    <path clip-path="url(#pe5b0ef9274)" d="M 73.832727 278.202237 
L 138.763636 225.747583 
L 203.694545 184.836408 
L 268.625455 167.799499 
L 333.556364 146.420476 
L 398.487273 140.844759 
" style="fill:none;stroke:#bcbd22;stroke-linecap:square;stroke-width:1.5;"/>
    <g clip-path="url(#pe5b0ef9274)">
     <use style="fill:#bcbd22;stroke:#bcbd22;" x="73.832727" xlink:href="#ma71568095d" y="278.202237"/>
     <use style="fill:#bcbd22;stroke:#bcbd22;" x="138.763636" xlink:href="#ma71568095d" y="225.747583"/>
     <use style="fill:#bcbd22;stroke:#bcbd22;" x="203.694545" xlink:href="#ma71568095d" y="184.836408"/>
     <use style="fill:#bcbd22;stroke:#bcbd22;" x="268.625455" xlink:href="#ma71568095d" y="167.799499"/>
     <use style="fill:#bcbd22;stroke:#bcbd22;" x="333.556364" xlink:href="#ma71568095d" y="146.420476"/>
     <use style="fill:#bcbd22;stroke:#bcbd22;" x="398.487273" xlink:href="#ma71568095d" y="140.844759"/>
    </g>
   </g>
   <g id="line2d_35">
    <path clip-path="url(#pe5b0ef9274)" d="M 73.832727 285.566758 
L 138.763636 226.747065 
L 203.694545 190.190806 
L 268.625455 162.531057 
L 333.556364 133.384858 
L 398.487273 115.813663 
" style="fill:none;stroke:#17becf;stroke-linecap:square;stroke-width:1.5;"/>
    <g clip-path="url(#pe5b0ef9274)">
     <use style="fill:#17becf;stroke:#17becf;" x="73.832727" xlink:href="#mc9c5079347" y="285.566758"/>
     <use style="fill:#17becf;stroke:#17becf;" x="138.763636" xlink:href="#mc9c5079347" y="226.747065"/>
     <use style="fill:#17becf;stroke:#17becf;" x="203.694545" xlink:href="#mc9c5079347" y="190.190806"/>
     <use style="fill:#17becf;stroke:#17becf;" x="268.625455" xlink:href="#mc9c5079347" y="162.531057"/>
     <use style="fill:#17becf;stroke:#17becf;" x="333.556364" xlink:href="#mc9c5079347" y="133.384858"/>
     <use style="fill:#17becf;stroke:#17becf;" x="398.487273" xlink:href="#mc9c5079347" y="115.813663"/>
    </g>
   </g>
   <g id="line2d_36">
    <path clip-path="url(#pe5b0ef9274)" d="M 73.832727 291.297781 
L 138.763636 233.373544 
L 203.694545 178.889154 
L 268.625455 141.567972 
L 333.556364 125.491247 
L 398.487273 108.80381 
" style="fill:none;stroke:#1f77b4;stroke-linecap:square;stroke-width:1.5;"/>
    <g clip-path="url(#pe5b0ef9274)">
     <use style="fill:#1f77b4;stroke:#1f77b4;" x="73.832727" xlink:href="#mf2fb36683f" y="291.297781"/>
     <use style="fill:#1f77b4;stroke:#1f77b4;" x="138.763636" xlink:href="#mf2fb36683f" y="233.373544"/>
     <use style="fill:#1f77b4;stroke:#1f77b4;" x="203.694545" xlink:href="#mf2fb36683f" y="178.889154"/>
     <use style="fill:#1f77b4;stroke:#1f77b4;" x="268.625455" xlink:href="#mf2fb36683f" y="141.567972"/>
     <use style="fill:#1f77b4;stroke:#1f77b4;" x="333.556364" xlink:href="#mf2fb36683f" y="125.491247"/>
     <use style="fill:#1f77b4;stroke:#1f77b4;" x="398.487273" xlink:href="#mf2fb36683f" y="108.80381"/>
    </g>
   </g>
   <g id="line2d_37">
    <path clip-path="url(#pe5b0ef9274)" d="M 73.832727 278.583559 
L 138.763636 228.87581 
L 203.694545 186.415095 
L 268.625455 142.891769 
L 333.556364 124.351477 
L 398.487273 88.984273 
" style="fill:none;stroke:#ff7f0e;stroke-linecap:square;stroke-width:1.5;"/>
    <g clip-path="url(#pe5b0ef9274)">
     <use style="fill:#ff7f0e;stroke:#ff7f0e;" x="73.832727" xlink:href="#ma4a100e913" y="278.583559"/>
     <use style="fill:#ff7f0e;stroke:#ff7f0e;" x="138.763636" xlink:href="#ma4a100e913" y="228.87581"/>
     <use style="fill:#ff7f0e;stroke:#ff7f0e;" x="203.694545" xlink:href="#ma4a100e913" y="186.415095"/>
     <use style="fill:#ff7f0e;stroke:#ff7f0e;" x="268.625455" xlink:href="#ma4a100e913" y="142.891769"/>
     <use style="fill:#ff7f0e;stroke:#ff7f0e;" x="333.556364" xlink:href="#ma4a100e913" y="124.351477"/>
     <use style="fill:#ff7f0e;stroke:#ff7f0e;" x="398.487273" xlink:href="#ma4a100e913" y="88.984273"/>
    </g>
   </g>
   <g id="line2d_38">
    <path clip-path="url(#pe5b0ef9274)" d="M 73.832727 276.351729 
L 138.763636 213.166083 
L 203.694545 176.357307 
L 268.625455 154.34222 
L 333.556364 111.921459 
L 398.487273 53.568 
" style="fill:none;stroke:#2ca02c;stroke-linecap:square;stroke-width:1.5;"/>
    <g clip-path="url(#pe5b0ef9274)">
     <use style="fill:#2ca02c;stroke:#2ca02c;" x="73.832727" xlink:href="#m5db067b59d" y="276.351729"/>
     <use style="fill:#2ca02c;stroke:#2ca02c;" x="138.763636" xlink:href="#m5db067b59d" y="213.166083"/>
     <use style="fill:#2ca02c;stroke:#2ca02c;" x="203.694545" xlink:href="#m5db067b59d" y="176.357307"/>
     <use style="fill:#2ca02c;stroke:#2ca02c;" x="268.625455" xlink:href="#m5db067b59d" y="154.34222"/>
     <use style="fill:#2ca02c;stroke:#2ca02c;" x="333.556364" xlink:href="#m5db067b59d" y="111.921459"/>
     <use style="fill:#2ca02c;stroke:#2ca02c;" x="398.487273" xlink:href="#m5db067b59d" y="53.568"/>
    </g>
   </g>
   <g id="line2d_39">
    <path clip-path="url(#pe5b0ef9274)" d="M 73.832727 284.47672 
L 138.763636 224.440759 
L 203.694545 175.015437 
L 268.625455 156.458519 
L 333.556364 140.789332 
L 398.487273 144.45585 
" style="fill:none;stroke:#d62728;stroke-linecap:square;stroke-width:1.5;"/>
    <g clip-path="url(#pe5b0ef9274)">
     <use style="fill:#d62728;stroke:#d62728;" x="73.832727" xlink:href="#mc739ee5569" y="284.47672"/>
     <use style="fill:#d62728;stroke:#d62728;" x="138.763636" xlink:href="#mc739ee5569" y="224.440759"/>
     <use style="fill:#d62728;stroke:#d62728;" x="203.694545" xlink:href="#mc739ee5569" y="175.015437"/>
     <use style="fill:#d62728;stroke:#d62728;" x="268.625455" xlink:href="#mc739ee5569" y="156.458519"/>
     <use style="fill:#d62728;stroke:#d62728;" x="333.556364" xlink:href="#mc739ee5569" y="140.789332"/>
     <use style="fill:#d62728;stroke:#d62728;" x="398.487273" xlink:href="#mc739ee5569" y="144.45585"/>
    </g>
   </g>
   <g id="line2d_40">
    <path clip-path="url(#pe5b0ef9274)" d="M 73.832727 264.761786 
L 138.763636 196.670483 
L 203.694545 157.235053 
L 268.625455 136.173787 
L 333.556364 126.001567 
L 398.487273 83.26142 
" style="fill:none;stroke:#9467bd;stroke-linecap:square;stroke-width:1.5;"/>
    <g clip-path="url(#pe5b0ef9274)">
     <use style="fill:#9467bd;stroke:#9467bd;" x="73.832727" xlink:href="#m8ceb226099" y="264.761786"/>
     <use style="fill:#9467bd;stroke:#9467bd;" x="138.763636" xlink:href="#m8ceb226099" y="196.670483"/>
     <use style="fill:#9467bd;stroke:#9467bd;" x="203.694545" xlink:href="#m8ceb226099" y="157.235053"/>
     <use style="fill:#9467bd;stroke:#9467bd;" x="268.625455" xlink:href="#m8ceb226099" y="136.173787"/>
     <use style="fill:#9467bd;stroke:#9467bd;" x="333.556364" xlink:href="#m8ceb226099" y="126.001567"/>
     <use style="fill:#9467bd;stroke:#9467bd;" x="398.487273" xlink:href="#m8ceb226099" y="83.26142"/>
    </g>
   </g>
   <g id="line2d_41">
    <path clip-path="url(#pe5b0ef9274)" d="M 73.832727 283.664739 
L 138.763636 228.490341 
L 203.694545 187.070092 
L 268.625455 157.498291 
L 333.556364 129.872922 
L 398.487273 93.893164 
" style="fill:none;stroke:#8c564b;stroke-linecap:square;stroke-width:1.5;"/>
    <g clip-path="url(#pe5b0ef9274)">
     <use style="fill:#8c564b;stroke:#8c564b;" x="73.832727" xlink:href="#m3bb196bdba" y="283.664739"/>
     <use style="fill:#8c564b;stroke:#8c564b;" x="138.763636" xlink:href="#m3bb196bdba" y="228.490341"/>
     <use style="fill:#8c564b;stroke:#8c564b;" x="203.694545" xlink:href="#m3bb196bdba" y="187.070092"/>
     <use style="fill:#8c564b;stroke:#8c564b;" x="268.625455" xlink:href="#m3bb196bdba" y="157.498291"/>
     <use style="fill:#8c564b;stroke:#8c564b;" x="333.556364" xlink:href="#m3bb196bdba" y="129.872922"/>
     <use style="fill:#8c564b;stroke:#8c564b;" x="398.487273" xlink:href="#m3bb196bdba" y="93.893164"/>
    </g>
   </g>
   <g id="line2d_42">
    <path clip-path="url(#pe5b0ef9274)" d="M 73.832727 273.648017 
L 138.763636 205.66015 
L 203.694545 160.094763 
L 268.625455 124.601554 
L 333.556364 118.526031 
L 398.487273 103.553856 
" style="fill:none;stroke:#e377c2;stroke-linecap:square;stroke-width:1.5;"/>
    <g clip-path="url(#pe5b0ef9274)">
     <use style="fill:#e377c2;stroke:#e377c2;" x="73.832727" xlink:href="#me14893f710" y="273.648017"/>
     <use style="fill:#e377c2;stroke:#e377c2;" x="138.763636" xlink:href="#me14893f710" y="205.66015"/>
     <use style="fill:#e377c2;stroke:#e377c2;" x="203.694545" xlink:href="#me14893f710" y="160.094763"/>
     <use style="fill:#e377c2;stroke:#e377c2;" x="268.625455" xlink:href="#me14893f710" y="124.601554"/>
     <use style="fill:#e377c2;stroke:#e377c2;" x="333.556364" xlink:href="#me14893f710" y="118.526031"/>
     <use style="fill:#e377c2;stroke:#e377c2;" x="398.487273" xlink:href="#me14893f710" y="103.553856"/>
    </g>
   </g>
   <g id="patch_3">
    <path d="M 57.6 307.584 
L 57.6 41.472 
" style="fill:none;stroke:#000000;stroke-linecap:square;stroke-linejoin:miter;stroke-width:0.8;"/>
   </g>
   <g id="patch_4">
    <path d="M 414.72 307.584 
L 414.72 41.472 
" style="fill:none;stroke:#000000;stroke-linecap:square;stroke-linejoin:miter;stroke-width:0.8;"/>
   </g>
   <g id="patch_5">
    <path d="M 57.6 307.584 
L 414.72 307.584 
" style="fill:none;stroke:#000000;stroke-linecap:square;stroke-linejoin:miter;stroke-width:0.8;"/>
   </g>
   <g id="patch_6">
    <path d="M 57.6 41.472 
L 414.72 41.472 
" style="fill:none;stroke:#000000;stroke-linecap:square;stroke-linejoin:miter;stroke-width:0.8;"/>
   </g>
  </g>
 </g>
 <defs>
  <clipPath id="pe5b0ef9274">
   <rect height="266.112" width="357.12" x="57.6" y="41.472"/>
  </clipPath>
 </defs>
</svg>
