<?xml version="1.0" encoding="utf-8" standalone="no"?>
<!DOCTYPE svg PUBLIC "-//W3C//DTD SVG 1.1//EN"
  "http://www.w3.org/Graphics/SVG/1.1/DTD/svg11.dtd">
<!-- Created with matplotlib (https://matplotlib.org/) -->
<svg height="345.6pt" version="1.1" viewBox="0 0 460.8 345.6" width="460.8pt" xmlns="http://www.w3.org/2000/svg" xmlns:xlink="http://www.w3.org/1999/xlink">
 <defs>
  <style type="text/css">
*{stroke-linecap:butt;stroke-linejoin:round;}
  </style>
 </defs>
 <g id="figure_1">
  <g id="patch_1">
   <path d="M 0 345.6 
L 460.8 345.6 
L 460.8 0 
L 0 0 
z
" style="fill:#ffffff;"/>
  </g>
  <g id="axes_1">
   <g id="patch_2">
    <path d="M 100.37 269.8 
L 436.68 269.8 
L 436.68 24.12 
L 100.37 24.12 
z
" style="fill:#ffffff;"/>
   </g>
   <g id="matplotlib.axis_1">
    <g id="xtick_1">
     <g id="line2d_1">
      <defs>
       <path d="M 0 0 
L 0 3.5 
" id="m362bc4bfe5" style="stroke:#000000;stroke-width:0.8;"/>
      </defs>
      <g>
       <use style="stroke:#000000;stroke-width:0.8;" x="115.656818" xlink:href="#m362bc4bfe5" y="269.8"/>
      </g>
     </g>
     <g id="text_1">
      <!-- 1 -->
      <defs>
       <path d="M 12.40625 8.296875 
L 28.515625 8.296875 
L 28.515625 63.921875 
L 10.984375 60.40625 
L 10.984375 69.390625 
L 28.421875 72.90625 
L 38.28125 72.90625 
L 38.28125 8.296875 
L 54.390625 8.296875 
L 54.390625 0 
L 12.40625 0 
z
" id="DejaVuSans-49"/>
      </defs>
      <g transform="translate(109.294318 291.996875)scale(0.2 -0.2)">
       <use xlink:href="#DejaVuSans-49"/>
      </g>
     </g>
    </g>
    <g id="xtick_2">
     <g id="line2d_2">
      <g>
       <use style="stroke:#000000;stroke-width:0.8;" x="192.090909" xlink:href="#m362bc4bfe5" y="269.8"/>
      </g>
     </g>
     <g id="text_2">
      <!-- 2 -->
      <defs>
       <path d="M 19.1875 8.296875 
L 53.609375 8.296875 
L 53.609375 0 
L 7.328125 0 
L 7.328125 8.296875 
Q 12.9375 14.109375 22.625 23.890625 
Q 32.328125 33.6875 34.8125 36.53125 
Q 39.546875 41.84375 41.421875 45.53125 
Q 43.3125 49.21875 43.3125 52.78125 
Q 43.3125 58.59375 39.234375 62.25 
Q 35.15625 65.921875 28.609375 65.921875 
Q 23.96875 65.921875 18.8125 64.3125 
Q 13.671875 62.703125 7.8125 59.421875 
L 7.8125 69.390625 
Q 13.765625 71.78125 18.9375 73 
Q 24.125 74.21875 28.421875 74.21875 
Q 39.75 74.21875 46.484375 68.546875 
Q 53.21875 62.890625 53.21875 53.421875 
Q 53.21875 48.921875 51.53125 44.890625 
Q 49.859375 40.875 45.40625 35.40625 
Q 44.1875 33.984375 37.640625 27.21875 
Q 31.109375 20.453125 19.1875 8.296875 
z
" id="DejaVuSans-50"/>
      </defs>
      <g transform="translate(185.728409 291.996875)scale(0.2 -0.2)">
       <use xlink:href="#DejaVuSans-50"/>
      </g>
     </g>
    </g>
    <g id="xtick_3">
     <g id="line2d_3">
      <g>
       <use style="stroke:#000000;stroke-width:0.8;" x="268.525" xlink:href="#m362bc4bfe5" y="269.8"/>
      </g>
     </g>
     <g id="text_3">
      <!-- 3 -->
      <defs>
       <path d="M 40.578125 39.3125 
Q 47.65625 37.796875 51.625 33 
Q 55.609375 28.21875 55.609375 21.1875 
Q 55.609375 10.40625 48.1875 4.484375 
Q 40.765625 -1.421875 27.09375 -1.421875 
Q 22.515625 -1.421875 17.65625 -0.515625 
Q 12.796875 0.390625 7.625 2.203125 
L 7.625 11.71875 
Q 11.71875 9.328125 16.59375 8.109375 
Q 21.484375 6.890625 26.8125 6.890625 
Q 36.078125 6.890625 40.9375 10.546875 
Q 45.796875 14.203125 45.796875 21.1875 
Q 45.796875 27.640625 41.28125 31.265625 
Q 36.765625 34.90625 28.71875 34.90625 
L 20.21875 34.90625 
L 20.21875 43.015625 
L 29.109375 43.015625 
Q 36.375 43.015625 40.234375 45.921875 
Q 44.09375 48.828125 44.09375 54.296875 
Q 44.09375 59.90625 40.109375 62.90625 
Q 36.140625 65.921875 28.71875 65.921875 
Q 24.65625 65.921875 20.015625 65.03125 
Q 15.375 64.15625 9.8125 62.3125 
L 9.8125 71.09375 
Q 15.4375 72.65625 20.34375 73.4375 
Q 25.25 74.21875 29.59375 74.21875 
Q 40.828125 74.21875 47.359375 69.109375 
Q 53.90625 64.015625 53.90625 55.328125 
Q 53.90625 49.265625 50.4375 45.09375 
Q 46.96875 40.921875 40.578125 39.3125 
z
" id="DejaVuSans-51"/>
      </defs>
      <g transform="translate(262.1625 291.996875)scale(0.2 -0.2)">
       <use xlink:href="#DejaVuSans-51"/>
      </g>
     </g>
    </g>
    <g id="xtick_4">
     <g id="line2d_4">
      <g>
       <use style="stroke:#000000;stroke-width:0.8;" x="344.959091" xlink:href="#m362bc4bfe5" y="269.8"/>
      </g>
     </g>
     <g id="text_4">
      <!-- 4 -->
      <defs>
       <path d="M 37.796875 64.3125 
L 12.890625 25.390625 
L 37.796875 25.390625 
z
M 35.203125 72.90625 
L 47.609375 72.90625 
L 47.609375 25.390625 
L 58.015625 25.390625 
L 58.015625 17.1875 
L 47.609375 17.1875 
L 47.609375 0 
L 37.796875 0 
L 37.796875 17.1875 
L 4.890625 17.1875 
L 4.890625 26.703125 
z
" id="DejaVuSans-52"/>
      </defs>
      <g transform="translate(338.596591 291.996875)scale(0.2 -0.2)">
       <use xlink:href="#DejaVuSans-52"/>
      </g>
     </g>
    </g>
    <g id="xtick_5">
     <g id="line2d_5">
      <g>
       <use style="stroke:#000000;stroke-width:0.8;" x="421.393182" xlink:href="#m362bc4bfe5" y="269.8"/>
      </g>
     </g>
     <g id="text_5">
      <!-- 5 -->
      <defs>
       <path d="M 10.796875 72.90625 
L 49.515625 72.90625 
L 49.515625 64.59375 
L 19.828125 64.59375 
L 19.828125 46.734375 
Q 21.96875 47.46875 24.109375 47.828125 
Q 26.265625 48.1875 28.421875 48.1875 
Q 40.625 48.1875 47.75 41.5 
Q 54.890625 34.8125 54.890625 23.390625 
Q 54.890625 11.625 47.5625 5.09375 
Q 40.234375 -1.421875 26.90625 -1.421875 
Q 22.3125 -1.421875 17.546875 -0.640625 
Q 12.796875 0.140625 7.71875 1.703125 
L 7.71875 11.625 
Q 12.109375 9.234375 16.796875 8.0625 
Q 21.484375 6.890625 26.703125 6.890625 
Q 35.15625 6.890625 40.078125 11.328125 
Q 45.015625 15.765625 45.015625 23.390625 
Q 45.015625 31 40.078125 35.4375 
Q 35.15625 39.890625 26.703125 39.890625 
Q 22.75 39.890625 18.8125 39.015625 
Q 14.890625 38.140625 10.796875 36.28125 
z
" id="DejaVuSans-53"/>
      </defs>
      <g transform="translate(415.030682 291.996875)scale(0.2 -0.2)">
       <use xlink:href="#DejaVuSans-53"/>
      </g>
     </g>
    </g>
    <g id="text_6">
     <!-- $\beta_i$ -->
     <defs>
      <path d="M 13.625 3.375 
L 8.9375 -20.796875 
L -0.09375 -20.796875 
L 14.5 54.34375 
Q 18.84375 76.609375 39.65625 76.609375 
Q 60.75 76.609375 57.171875 57.8125 
Q 54.734375 44.4375 45.21875 39.546875 
Q 58.015625 35.15625 55.515625 22.125 
Q 51.125 -1.078125 27.484375 -1.03125 
Q 17.140625 -0.984375 13.625 3.375 
z
M 15.921875 15.09375 
Q 19.671875 6.59375 29.296875 6.640625 
Q 43.359375 6.640625 46.34375 21.96875 
Q 49.03125 35.75 26.171875 34.671875 
L 27.78125 42.96875 
Q 45.453125 42.671875 48.53125 58.59375 
Q 50.640625 69.34375 39.203125 69.28125 
Q 26.421875 69.28125 23.484375 54.046875 
z
" id="DejaVuSans-Oblique-946"/>
      <path d="M 18.3125 75.984375 
L 27.296875 75.984375 
L 25.09375 64.59375 
L 16.109375 64.59375 
z
M 14.203125 54.6875 
L 23.1875 54.6875 
L 12.5 0 
L 3.515625 0 
z
" id="DejaVuSans-Oblique-105"/>
     </defs>
     <g transform="translate(259.825 315.55625)scale(0.2 -0.2)">
      <use transform="translate(0 0.390625)" xlink:href="#DejaVuSans-Oblique-946"/>
      <use transform="translate(63.818359 -16.015625)scale(0.7)" xlink:href="#DejaVuSans-Oblique-105"/>
     </g>
    </g>
   </g>
   <g id="matplotlib.axis_2">
    <g id="ytick_1">
     <g id="line2d_6">
      <defs>
       <path d="M 0 0 
L -3.5 0 
" id="m7f16ef380b" style="stroke:#000000;stroke-width:0.8;"/>
      </defs>
      <g>
       <use style="stroke:#000000;stroke-width:0.8;" x="100.37" xlink:href="#m7f16ef380b" y="269.8"/>
      </g>
     </g>
     <g id="text_7">
      <!-- 0.00 -->
      <defs>
       <path d="M 31.78125 66.40625 
Q 24.171875 66.40625 20.328125 58.90625 
Q 16.5 51.421875 16.5 36.375 
Q 16.5 21.390625 20.328125 13.890625 
Q 24.171875 6.390625 31.78125 6.390625 
Q 39.453125 6.390625 43.28125 13.890625 
Q 47.125 21.390625 47.125 36.375 
Q 47.125 51.421875 43.28125 58.90625 
Q 39.453125 66.40625 31.78125 66.40625 
z
M 31.78125 74.21875 
Q 44.046875 74.21875 50.515625 64.515625 
Q 56.984375 54.828125 56.984375 36.375 
Q 56.984375 17.96875 50.515625 8.265625 
Q 44.046875 -1.421875 31.78125 -1.421875 
Q 19.53125 -1.421875 13.0625 8.265625 
Q 6.59375 17.96875 6.59375 36.375 
Q 6.59375 54.828125 13.0625 64.515625 
Q 19.53125 74.21875 31.78125 74.21875 
z
" id="DejaVuSans-48"/>
       <path d="M 10.6875 12.40625 
L 21 12.40625 
L 21 0 
L 10.6875 0 
z
" id="DejaVuSans-46"/>
      </defs>
      <g transform="translate(48.83875 277.398438)scale(0.2 -0.2)">
       <use xlink:href="#DejaVuSans-48"/>
       <use x="63.623047" xlink:href="#DejaVuSans-46"/>
       <use x="95.410156" xlink:href="#DejaVuSans-48"/>
       <use x="159.033203" xlink:href="#DejaVuSans-48"/>
      </g>
     </g>
    </g>
    <g id="ytick_2">
     <g id="line2d_7">
      <g>
       <use style="stroke:#000000;stroke-width:0.8;" x="100.37" xlink:href="#m7f16ef380b" y="193.025"/>
      </g>
     </g>
     <g id="text_8">
      <!-- 0.05 -->
      <g transform="translate(48.83875 200.623437)scale(0.2 -0.2)">
       <use xlink:href="#DejaVuSans-48"/>
       <use x="63.623047" xlink:href="#DejaVuSans-46"/>
       <use x="95.410156" xlink:href="#DejaVuSans-48"/>
       <use x="159.033203" xlink:href="#DejaVuSans-53"/>
      </g>
     </g>
    </g>
    <g id="ytick_3">
     <g id="line2d_8">
      <g>
       <use style="stroke:#000000;stroke-width:0.8;" x="100.37" xlink:href="#m7f16ef380b" y="116.25"/>
      </g>
     </g>
     <g id="text_9">
      <!-- 0.10 -->
      <g transform="translate(48.83875 123.848437)scale(0.2 -0.2)">
       <use xlink:href="#DejaVuSans-48"/>
       <use x="63.623047" xlink:href="#DejaVuSans-46"/>
       <use x="95.410156" xlink:href="#DejaVuSans-49"/>
       <use x="159.033203" xlink:href="#DejaVuSans-48"/>
      </g>
     </g>
    </g>
    <g id="ytick_4">
     <g id="line2d_9">
      <g>
       <use style="stroke:#000000;stroke-width:0.8;" x="100.37" xlink:href="#m7f16ef380b" y="39.475"/>
      </g>
     </g>
     <g id="text_10">
      <!-- 0.15 -->
      <g transform="translate(48.83875 47.073437)scale(0.2 -0.2)">
       <use xlink:href="#DejaVuSans-48"/>
       <use x="63.623047" xlink:href="#DejaVuSans-46"/>
       <use x="95.410156" xlink:href="#DejaVuSans-49"/>
       <use x="159.033203" xlink:href="#DejaVuSans-53"/>
      </g>
     </g>
    </g>
    <g id="text_11">
     <!-- Value of $\beta_i$ -->
     <defs>
      <path d="M 28.609375 0 
L 0.78125 72.90625 
L 11.078125 72.90625 
L 34.1875 11.53125 
L 57.328125 72.90625 
L 67.578125 72.90625 
L 39.796875 0 
z
" id="DejaVuSans-86"/>
      <path d="M 34.28125 27.484375 
Q 23.390625 27.484375 19.1875 25 
Q 14.984375 22.515625 14.984375 16.5 
Q 14.984375 11.71875 18.140625 8.90625 
Q 21.296875 6.109375 26.703125 6.109375 
Q 34.1875 6.109375 38.703125 11.40625 
Q 43.21875 16.703125 43.21875 25.484375 
L 43.21875 27.484375 
z
M 52.203125 31.203125 
L 52.203125 0 
L 43.21875 0 
L 43.21875 8.296875 
Q 40.140625 3.328125 35.546875 0.953125 
Q 30.953125 -1.421875 24.3125 -1.421875 
Q 15.921875 -1.421875 10.953125 3.296875 
Q 6 8.015625 6 15.921875 
Q 6 25.140625 12.171875 29.828125 
Q 18.359375 34.515625 30.609375 34.515625 
L 43.21875 34.515625 
L 43.21875 35.40625 
Q 43.21875 41.609375 39.140625 45 
Q 35.0625 48.390625 27.6875 48.390625 
Q 23 48.390625 18.546875 47.265625 
Q 14.109375 46.140625 10.015625 43.890625 
L 10.015625 52.203125 
Q 14.9375 54.109375 19.578125 55.046875 
Q 24.21875 56 28.609375 56 
Q 40.484375 56 46.34375 49.84375 
Q 52.203125 43.703125 52.203125 31.203125 
z
" id="DejaVuSans-97"/>
      <path d="M 9.421875 75.984375 
L 18.40625 75.984375 
L 18.40625 0 
L 9.421875 0 
z
" id="DejaVuSans-108"/>
      <path d="M 8.5 21.578125 
L 8.5 54.6875 
L 17.484375 54.6875 
L 17.484375 21.921875 
Q 17.484375 14.15625 20.5 10.265625 
Q 23.53125 6.390625 29.59375 6.390625 
Q 36.859375 6.390625 41.078125 11.03125 
Q 45.3125 15.671875 45.3125 23.6875 
L 45.3125 54.6875 
L 54.296875 54.6875 
L 54.296875 0 
L 45.3125 0 
L 45.3125 8.40625 
Q 42.046875 3.421875 37.71875 1 
Q 33.40625 -1.421875 27.6875 -1.421875 
Q 18.265625 -1.421875 13.375 4.4375 
Q 8.5 10.296875 8.5 21.578125 
z
M 31.109375 56 
z
" id="DejaVuSans-117"/>
      <path d="M 56.203125 29.59375 
L 56.203125 25.203125 
L 14.890625 25.203125 
Q 15.484375 15.921875 20.484375 11.0625 
Q 25.484375 6.203125 34.421875 6.203125 
Q 39.59375 6.203125 44.453125 7.46875 
Q 49.3125 8.734375 54.109375 11.28125 
L 54.109375 2.78125 
Q 49.265625 0.734375 44.1875 -0.34375 
Q 39.109375 -1.421875 33.890625 -1.421875 
Q 20.796875 -1.421875 13.15625 6.1875 
Q 5.515625 13.8125 5.515625 26.8125 
Q 5.515625 40.234375 12.765625 48.109375 
Q 20.015625 56 32.328125 56 
Q 43.359375 56 49.78125 48.890625 
Q 56.203125 41.796875 56.203125 29.59375 
z
M 47.21875 32.234375 
Q 47.125 39.59375 43.09375 43.984375 
Q 39.0625 48.390625 32.421875 48.390625 
Q 24.90625 48.390625 20.390625 44.140625 
Q 15.875 39.890625 15.1875 32.171875 
z
" id="DejaVuSans-101"/>
      <path id="DejaVuSans-32"/>
      <path d="M 30.609375 48.390625 
Q 23.390625 48.390625 19.1875 42.75 
Q 14.984375 37.109375 14.984375 27.296875 
Q 14.984375 17.484375 19.15625 11.84375 
Q 23.34375 6.203125 30.609375 6.203125 
Q 37.796875 6.203125 41.984375 11.859375 
Q 46.1875 17.53125 46.1875 27.296875 
Q 46.1875 37.015625 41.984375 42.703125 
Q 37.796875 48.390625 30.609375 48.390625 
z
M 30.609375 56 
Q 42.328125 56 49.015625 48.375 
Q 55.71875 40.765625 55.71875 27.296875 
Q 55.71875 13.875 49.015625 6.21875 
Q 42.328125 -1.421875 30.609375 -1.421875 
Q 18.84375 -1.421875 12.171875 6.21875 
Q 5.515625 13.875 5.515625 27.296875 
Q 5.515625 40.765625 12.171875 48.375 
Q 18.84375 56 30.609375 56 
z
" id="DejaVuSans-111"/>
      <path d="M 37.109375 75.984375 
L 37.109375 68.5 
L 28.515625 68.5 
Q 23.6875 68.5 21.796875 66.546875 
Q 19.921875 64.59375 19.921875 59.515625 
L 19.921875 54.6875 
L 34.71875 54.6875 
L 34.71875 47.703125 
L 19.921875 47.703125 
L 19.921875 0 
L 10.890625 0 
L 10.890625 47.703125 
L 2.296875 47.703125 
L 2.296875 54.6875 
L 10.890625 54.6875 
L 10.890625 58.5 
Q 10.890625 67.625 15.140625 71.796875 
Q 19.390625 75.984375 28.609375 75.984375 
z
" id="DejaVuSans-102"/>
     </defs>
     <g transform="translate(40.63875 199.86)rotate(-90)scale(0.2 -0.2)">
      <use transform="translate(0 0.390625)" xlink:href="#DejaVuSans-86"/>
      <use transform="translate(68.408203 0.390625)" xlink:href="#DejaVuSans-97"/>
      <use transform="translate(129.6875 0.390625)" xlink:href="#DejaVuSans-108"/>
      <use transform="translate(157.470703 0.390625)" xlink:href="#DejaVuSans-117"/>
      <use transform="translate(220.849609 0.390625)" xlink:href="#DejaVuSans-101"/>
      <use transform="translate(282.373047 0.390625)" xlink:href="#DejaVuSans-32"/>
      <use transform="translate(314.160156 0.390625)" xlink:href="#DejaVuSans-111"/>
      <use transform="translate(375.341797 0.390625)" xlink:href="#DejaVuSans-102"/>
      <use transform="translate(410.546875 0.390625)" xlink:href="#DejaVuSans-32"/>
      <use transform="translate(442.333984 0.390625)" xlink:href="#DejaVuSans-Oblique-946"/>
      <use transform="translate(506.152344 -16.015625)scale(0.7)" xlink:href="#DejaVuSans-Oblique-105"/>
     </g>
    </g>
   </g>
   <g id="line2d_10">
    <path clip-path="url(#p000942ca2f)" d="M 115.656818 79.775686 
L 192.090909 112.828552 
L 268.525 157.50517 
L 344.959091 172.963459 
L 421.393182 215.158649 
" style="fill:none;stroke:#1f77b4;stroke-linecap:square;stroke-width:1.5;"/>
    <defs>
     <path d="M 0 3 
C 0.795609 3 1.55874 2.683901 2.12132 2.12132 
C 2.683901 1.55874 3 0.795609 3 0 
C 3 -0.795609 2.683901 -1.55874 2.12132 -2.12132 
C 1.55874 -2.683901 0.795609 -3 0 -3 
C -0.795609 -3 -1.55874 -2.683901 -2.12132 -2.12132 
C -2.683901 -1.55874 -3 -0.795609 -3 0 
C -3 0.795609 -2.683901 1.55874 -2.12132 2.12132 
C -1.55874 2.683901 -0.795609 3 0 3 
z
" id="m709956bf01" style="stroke:#1f77b4;"/>
    </defs>
    <g clip-path="url(#p000942ca2f)">
     <use style="fill:#1f77b4;stroke:#1f77b4;" x="115.656818" xlink:href="#m709956bf01" y="79.775686"/>
     <use style="fill:#1f77b4;stroke:#1f77b4;" x="192.090909" xlink:href="#m709956bf01" y="112.828552"/>
     <use style="fill:#1f77b4;stroke:#1f77b4;" x="268.525" xlink:href="#m709956bf01" y="157.50517"/>
     <use style="fill:#1f77b4;stroke:#1f77b4;" x="344.959091" xlink:href="#m709956bf01" y="172.963459"/>
     <use style="fill:#1f77b4;stroke:#1f77b4;" x="421.393182" xlink:href="#m709956bf01" y="215.158649"/>
    </g>
   </g>
   <g id="line2d_11">
    <path clip-path="url(#p000942ca2f)" d="M 115.656818 70.962331 
L 192.090909 111.983428 
L 268.525 141.549902 
L 344.959091 169.947227 
L 421.393182 215.656192 
" style="fill:none;stroke:#ff7f0e;stroke-linecap:square;stroke-width:1.5;"/>
    <defs>
     <path d="M 0 3 
C 0.795609 3 1.55874 2.683901 2.12132 2.12132 
C 2.683901 1.55874 3 0.795609 3 0 
C 3 -0.795609 2.683901 -1.55874 2.12132 -2.12132 
C 1.55874 -2.683901 0.795609 -3 0 -3 
C -0.795609 -3 -1.55874 -2.683901 -2.12132 -2.12132 
C -2.683901 -1.55874 -3 -0.795609 -3 0 
C -3 0.795609 -2.683901 1.55874 -2.12132 2.12132 
C -1.55874 2.683901 -0.795609 3 0 3 
z
" id="mbfd241fe68" style="stroke:#ff7f0e;"/>
    </defs>
    <g clip-path="url(#p000942ca2f)">
     <use style="fill:#ff7f0e;stroke:#ff7f0e;" x="115.656818" xlink:href="#mbfd241fe68" y="70.962331"/>
     <use style="fill:#ff7f0e;stroke:#ff7f0e;" x="192.090909" xlink:href="#mbfd241fe68" y="111.983428"/>
     <use style="fill:#ff7f0e;stroke:#ff7f0e;" x="268.525" xlink:href="#mbfd241fe68" y="141.549902"/>
     <use style="fill:#ff7f0e;stroke:#ff7f0e;" x="344.959091" xlink:href="#mbfd241fe68" y="169.947227"/>
     <use style="fill:#ff7f0e;stroke:#ff7f0e;" x="421.393182" xlink:href="#mbfd241fe68" y="215.656192"/>
    </g>
   </g>
   <g id="line2d_12">
    <path clip-path="url(#p000942ca2f)" d="M 115.656818 77.809982 
L 192.090909 96.401188 
L 268.525 120.681593 
L 344.959091 160.607461 
L 421.393182 215.625072 
" style="fill:none;stroke:#2ca02c;stroke-linecap:square;stroke-width:1.5;"/>
    <defs>
     <path d="M 0 3 
C 0.795609 3 1.55874 2.683901 2.12132 2.12132 
C 2.683901 1.55874 3 0.795609 3 0 
C 3 -0.795609 2.683901 -1.55874 2.12132 -2.12132 
C 1.55874 -2.683901 0.795609 -3 0 -3 
C -0.795609 -3 -1.55874 -2.683901 -2.12132 -2.12132 
C -2.683901 -1.55874 -3 -0.795609 -3 0 
C -3 0.795609 -2.683901 1.55874 -2.12132 2.12132 
C -1.55874 2.683901 -0.795609 3 0 3 
z
" id="m58433e40be" style="stroke:#2ca02c;"/>
    </defs>
    <g clip-path="url(#p000942ca2f)">
     <use style="fill:#2ca02c;stroke:#2ca02c;" x="115.656818" xlink:href="#m58433e40be" y="77.809982"/>
     <use style="fill:#2ca02c;stroke:#2ca02c;" x="192.090909" xlink:href="#m58433e40be" y="96.401188"/>
     <use style="fill:#2ca02c;stroke:#2ca02c;" x="268.525" xlink:href="#m58433e40be" y="120.681593"/>
     <use style="fill:#2ca02c;stroke:#2ca02c;" x="344.959091" xlink:href="#m58433e40be" y="160.607461"/>
     <use style="fill:#2ca02c;stroke:#2ca02c;" x="421.393182" xlink:href="#m58433e40be" y="215.625072"/>
    </g>
   </g>
   <g id="line2d_13">
    <path clip-path="url(#p000942ca2f)" d="M 115.656818 71.057577 
L 192.090909 83.458081 
L 268.525 95.00926 
L 344.959091 125.536426 
L 421.393182 180.657135 
" style="fill:none;stroke:#d62728;stroke-linecap:square;stroke-width:1.5;"/>
    <defs>
     <path d="M 0 3 
C 0.795609 3 1.55874 2.683901 2.12132 2.12132 
C 2.683901 1.55874 3 0.795609 3 0 
C 3 -0.795609 2.683901 -1.55874 2.12132 -2.12132 
C 1.55874 -2.683901 0.795609 -3 0 -3 
C -0.795609 -3 -1.55874 -2.683901 -2.12132 -2.12132 
C -2.683901 -1.55874 -3 -0.795609 -3 0 
C -3 0.795609 -2.683901 1.55874 -2.12132 2.12132 
C -1.55874 2.683901 -0.795609 3 0 3 
z
" id="m8c070b4fe5" style="stroke:#d62728;"/>
    </defs>
    <g clip-path="url(#p000942ca2f)">
     <use style="fill:#d62728;stroke:#d62728;" x="115.656818" xlink:href="#m8c070b4fe5" y="71.057577"/>
     <use style="fill:#d62728;stroke:#d62728;" x="192.090909" xlink:href="#m8c070b4fe5" y="83.458081"/>
     <use style="fill:#d62728;stroke:#d62728;" x="268.525" xlink:href="#m8c070b4fe5" y="95.00926"/>
     <use style="fill:#d62728;stroke:#d62728;" x="344.959091" xlink:href="#m8c070b4fe5" y="125.536426"/>
     <use style="fill:#d62728;stroke:#d62728;" x="421.393182" xlink:href="#m8c070b4fe5" y="180.657135"/>
    </g>
   </g>
   <g id="line2d_14">
    <path clip-path="url(#p000942ca2f)" d="M 115.656818 84.372163 
L 192.090909 123.048267 
L 268.525 156.422453 
L 344.959091 187.110357 
L 421.393182 226.435316 
" style="fill:none;stroke:#9467bd;stroke-linecap:square;stroke-width:1.5;"/>
    <defs>
     <path d="M 0 3 
C 0.795609 3 1.55874 2.683901 2.12132 2.12132 
C 2.683901 1.55874 3 0.795609 3 0 
C 3 -0.795609 2.683901 -1.55874 2.12132 -2.12132 
C 1.55874 -2.683901 0.795609 -3 0 -3 
C -0.795609 -3 -1.55874 -2.683901 -2.12132 -2.12132 
C -2.683901 -1.55874 -3 -0.795609 -3 0 
C -3 0.795609 -2.683901 1.55874 -2.12132 2.12132 
C -1.55874 2.683901 -0.795609 3 0 3 
z
" id="m35daa02b2e" style="stroke:#9467bd;"/>
    </defs>
    <g clip-path="url(#p000942ca2f)">
     <use style="fill:#9467bd;stroke:#9467bd;" x="115.656818" xlink:href="#m35daa02b2e" y="84.372163"/>
     <use style="fill:#9467bd;stroke:#9467bd;" x="192.090909" xlink:href="#m35daa02b2e" y="123.048267"/>
     <use style="fill:#9467bd;stroke:#9467bd;" x="268.525" xlink:href="#m35daa02b2e" y="156.422453"/>
     <use style="fill:#9467bd;stroke:#9467bd;" x="344.959091" xlink:href="#m35daa02b2e" y="187.110357"/>
     <use style="fill:#9467bd;stroke:#9467bd;" x="421.393182" xlink:href="#m35daa02b2e" y="226.435316"/>
    </g>
   </g>
   <g id="line2d_15">
    <path clip-path="url(#p000942ca2f)" d="M 115.656818 79.035989 
L 192.090909 100.824974 
L 268.525 121.993948 
L 344.959091 128.454696 
L 421.393182 189.570863 
" style="fill:none;stroke:#8c564b;stroke-linecap:square;stroke-width:1.5;"/>
    <defs>
     <path d="M 0 3 
C 0.795609 3 1.55874 2.683901 2.12132 2.12132 
C 2.683901 1.55874 3 0.795609 3 0 
C 3 -0.795609 2.683901 -1.55874 2.12132 -2.12132 
C 1.55874 -2.683901 0.795609 -3 0 -3 
C -0.795609 -3 -1.55874 -2.683901 -2.12132 -2.12132 
C -2.683901 -1.55874 -3 -0.795609 -3 0 
C -3 0.795609 -2.683901 1.55874 -2.12132 2.12132 
C -1.55874 2.683901 -0.795609 3 0 3 
z
" id="m2dd816a844" style="stroke:#8c564b;"/>
    </defs>
    <g clip-path="url(#p000942ca2f)">
     <use style="fill:#8c564b;stroke:#8c564b;" x="115.656818" xlink:href="#m2dd816a844" y="79.035989"/>
     <use style="fill:#8c564b;stroke:#8c564b;" x="192.090909" xlink:href="#m2dd816a844" y="100.824974"/>
     <use style="fill:#8c564b;stroke:#8c564b;" x="268.525" xlink:href="#m2dd816a844" y="121.993948"/>
     <use style="fill:#8c564b;stroke:#8c564b;" x="344.959091" xlink:href="#m2dd816a844" y="128.454696"/>
     <use style="fill:#8c564b;stroke:#8c564b;" x="421.393182" xlink:href="#m2dd816a844" y="189.570863"/>
    </g>
   </g>
   <g id="line2d_16">
    <path clip-path="url(#p000942ca2f)" d="M 115.656818 80.526287 
L 192.090909 119.838062 
L 268.525 156.24393 
L 344.959091 182.876781 
L 421.393182 221.944468 
" style="fill:none;stroke:#e377c2;stroke-linecap:square;stroke-width:1.5;"/>
    <defs>
     <path d="M 0 3 
C 0.795609 3 1.55874 2.683901 2.12132 2.12132 
C 2.683901 1.55874 3 0.795609 3 0 
C 3 -0.795609 2.683901 -1.55874 2.12132 -2.12132 
C 1.55874 -2.683901 0.795609 -3 0 -3 
C -0.795609 -3 -1.55874 -2.683901 -2.12132 -2.12132 
C -2.683901 -1.55874 -3 -0.795609 -3 0 
C -3 0.795609 -2.683901 1.55874 -2.12132 2.12132 
C -1.55874 2.683901 -0.795609 3 0 3 
z
" id="m5adb838f87" style="stroke:#e377c2;"/>
    </defs>
    <g clip-path="url(#p000942ca2f)">
     <use style="fill:#e377c2;stroke:#e377c2;" x="115.656818" xlink:href="#m5adb838f87" y="80.526287"/>
     <use style="fill:#e377c2;stroke:#e377c2;" x="192.090909" xlink:href="#m5adb838f87" y="119.838062"/>
     <use style="fill:#e377c2;stroke:#e377c2;" x="268.525" xlink:href="#m5adb838f87" y="156.24393"/>
     <use style="fill:#e377c2;stroke:#e377c2;" x="344.959091" xlink:href="#m5adb838f87" y="182.876781"/>
     <use style="fill:#e377c2;stroke:#e377c2;" x="421.393182" xlink:href="#m5adb838f87" y="221.944468"/>
    </g>
   </g>
   <g id="line2d_17">
    <path clip-path="url(#p000942ca2f)" d="M 115.656818 86.463317 
L 192.090909 126.239406 
L 268.525 153.953321 
L 344.959091 173.836444 
L 421.393182 211.996186 
" style="fill:none;stroke:#7f7f7f;stroke-linecap:square;stroke-width:1.5;"/>
    <defs>
     <path d="M 0 3 
C 0.795609 3 1.55874 2.683901 2.12132 2.12132 
C 2.683901 1.55874 3 0.795609 3 0 
C 3 -0.795609 2.683901 -1.55874 2.12132 -2.12132 
C 1.55874 -2.683901 0.795609 -3 0 -3 
C -0.795609 -3 -1.55874 -2.683901 -2.12132 -2.12132 
C -2.683901 -1.55874 -3 -0.795609 -3 0 
C -3 0.795609 -2.683901 1.55874 -2.12132 2.12132 
C -1.55874 2.683901 -0.795609 3 0 3 
z
" id="m457135e3b7" style="stroke:#7f7f7f;"/>
    </defs>
    <g clip-path="url(#p000942ca2f)">
     <use style="fill:#7f7f7f;stroke:#7f7f7f;" x="115.656818" xlink:href="#m457135e3b7" y="86.463317"/>
     <use style="fill:#7f7f7f;stroke:#7f7f7f;" x="192.090909" xlink:href="#m457135e3b7" y="126.239406"/>
     <use style="fill:#7f7f7f;stroke:#7f7f7f;" x="268.525" xlink:href="#m457135e3b7" y="153.953321"/>
     <use style="fill:#7f7f7f;stroke:#7f7f7f;" x="344.959091" xlink:href="#m457135e3b7" y="173.836444"/>
     <use style="fill:#7f7f7f;stroke:#7f7f7f;" x="421.393182" xlink:href="#m457135e3b7" y="211.996186"/>
    </g>
   </g>
   <g id="line2d_18">
    <path clip-path="url(#p000942ca2f)" d="M 115.656818 60.647064 
L 192.090909 104.839711 
L 268.525 104.169453 
L 344.959091 137.917859 
L 421.393182 198.197782 
" style="fill:none;stroke:#bcbd22;stroke-linecap:square;stroke-width:1.5;"/>
    <defs>
     <path d="M 0 3 
C 0.795609 3 1.55874 2.683901 2.12132 2.12132 
C 2.683901 1.55874 3 0.795609 3 0 
C 3 -0.795609 2.683901 -1.55874 2.12132 -2.12132 
C 1.55874 -2.683901 0.795609 -3 0 -3 
C -0.795609 -3 -1.55874 -2.683901 -2.12132 -2.12132 
C -2.683901 -1.55874 -3 -0.795609 -3 0 
C -3 0.795609 -2.683901 1.55874 -2.12132 2.12132 
C -1.55874 2.683901 -0.795609 3 0 3 
z
" id="m31665592c0" style="stroke:#bcbd22;"/>
    </defs>
    <g clip-path="url(#p000942ca2f)">
     <use style="fill:#bcbd22;stroke:#bcbd22;" x="115.656818" xlink:href="#m31665592c0" y="60.647064"/>
     <use style="fill:#bcbd22;stroke:#bcbd22;" x="192.090909" xlink:href="#m31665592c0" y="104.839711"/>
     <use style="fill:#bcbd22;stroke:#bcbd22;" x="268.525" xlink:href="#m31665592c0" y="104.169453"/>
     <use style="fill:#bcbd22;stroke:#bcbd22;" x="344.959091" xlink:href="#m31665592c0" y="137.917859"/>
     <use style="fill:#bcbd22;stroke:#bcbd22;" x="421.393182" xlink:href="#m31665592c0" y="198.197782"/>
    </g>
   </g>
   <g id="line2d_19">
    <path clip-path="url(#p000942ca2f)" d="M 115.656818 77.053087 
L 192.090909 108.758736 
L 268.525 143.84419 
L 344.959091 171.763566 
L 421.393182 220.871338 
" style="fill:none;stroke:#17becf;stroke-linecap:square;stroke-width:1.5;"/>
    <defs>
     <path d="M 0 3 
C 0.795609 3 1.55874 2.683901 2.12132 2.12132 
C 2.683901 1.55874 3 0.795609 3 0 
C 3 -0.795609 2.683901 -1.55874 2.12132 -2.12132 
C 1.55874 -2.683901 0.795609 -3 0 -3 
C -0.795609 -3 -1.55874 -2.683901 -2.12132 -2.12132 
C -2.683901 -1.55874 -3 -0.795609 -3 0 
C -3 0.795609 -2.683901 1.55874 -2.12132 2.12132 
C -1.55874 2.683901 -0.795609 3 0 3 
z
" id="m64caee8ec3" style="stroke:#17becf;"/>
    </defs>
    <g clip-path="url(#p000942ca2f)">
     <use style="fill:#17becf;stroke:#17becf;" x="115.656818" xlink:href="#m64caee8ec3" y="77.053087"/>
     <use style="fill:#17becf;stroke:#17becf;" x="192.090909" xlink:href="#m64caee8ec3" y="108.758736"/>
     <use style="fill:#17becf;stroke:#17becf;" x="268.525" xlink:href="#m64caee8ec3" y="143.84419"/>
     <use style="fill:#17becf;stroke:#17becf;" x="344.959091" xlink:href="#m64caee8ec3" y="171.763566"/>
     <use style="fill:#17becf;stroke:#17becf;" x="421.393182" xlink:href="#m64caee8ec3" y="220.871338"/>
    </g>
   </g>
   <g id="line2d_20">
    <path clip-path="url(#p000942ca2f)" d="M 115.656818 81.455542 
L 192.090909 113.74713 
L 268.525 137.710189 
L 344.959091 169.538814 
L 421.393182 213.624203 
" style="fill:none;stroke:#1f77b4;stroke-linecap:square;stroke-width:1.5;"/>
    <g clip-path="url(#p000942ca2f)">
     <use style="fill:#1f77b4;stroke:#1f77b4;" x="115.656818" xlink:href="#m709956bf01" y="81.455542"/>
     <use style="fill:#1f77b4;stroke:#1f77b4;" x="192.090909" xlink:href="#m709956bf01" y="113.74713"/>
     <use style="fill:#1f77b4;stroke:#1f77b4;" x="268.525" xlink:href="#m709956bf01" y="137.710189"/>
     <use style="fill:#1f77b4;stroke:#1f77b4;" x="344.959091" xlink:href="#m709956bf01" y="169.538814"/>
     <use style="fill:#1f77b4;stroke:#1f77b4;" x="421.393182" xlink:href="#m709956bf01" y="213.624203"/>
    </g>
   </g>
   <g id="line2d_21">
    <path clip-path="url(#p000942ca2f)" d="M 115.656818 76.501194 
L 192.090909 110.172728 
L 268.525 141.671784 
L 344.959091 183.424448 
L 421.393182 228.6528 
" style="fill:none;stroke:#ff7f0e;stroke-linecap:square;stroke-width:1.5;"/>
    <g clip-path="url(#p000942ca2f)">
     <use style="fill:#ff7f0e;stroke:#ff7f0e;" x="115.656818" xlink:href="#mbfd241fe68" y="76.501194"/>
     <use style="fill:#ff7f0e;stroke:#ff7f0e;" x="192.090909" xlink:href="#mbfd241fe68" y="110.172728"/>
     <use style="fill:#ff7f0e;stroke:#ff7f0e;" x="268.525" xlink:href="#mbfd241fe68" y="141.671784"/>
     <use style="fill:#ff7f0e;stroke:#ff7f0e;" x="344.959091" xlink:href="#mbfd241fe68" y="183.424448"/>
     <use style="fill:#ff7f0e;stroke:#ff7f0e;" x="421.393182" xlink:href="#mbfd241fe68" y="228.6528"/>
    </g>
   </g>
   <g id="line2d_22">
    <path clip-path="url(#p000942ca2f)" d="M 115.656818 72.250289 
L 192.090909 89.813204 
L 268.525 111.268496 
L 344.959091 153.750241 
L 421.393182 216.401631 
" style="fill:none;stroke:#2ca02c;stroke-linecap:square;stroke-width:1.5;"/>
    <g clip-path="url(#p000942ca2f)">
     <use style="fill:#2ca02c;stroke:#2ca02c;" x="115.656818" xlink:href="#m58433e40be" y="72.250289"/>
     <use style="fill:#2ca02c;stroke:#2ca02c;" x="192.090909" xlink:href="#m58433e40be" y="89.813204"/>
     <use style="fill:#2ca02c;stroke:#2ca02c;" x="268.525" xlink:href="#m58433e40be" y="111.268496"/>
     <use style="fill:#2ca02c;stroke:#2ca02c;" x="344.959091" xlink:href="#m58433e40be" y="153.750241"/>
     <use style="fill:#2ca02c;stroke:#2ca02c;" x="421.393182" xlink:href="#m58433e40be" y="216.401631"/>
    </g>
   </g>
   <g id="line2d_23">
    <path clip-path="url(#p000942ca2f)" d="M 115.656818 71.275065 
L 192.090909 95.36587 
L 268.525 108.560238 
L 344.959091 124.73433 
L 421.393182 173.553406 
" style="fill:none;stroke:#d62728;stroke-linecap:square;stroke-width:1.5;"/>
    <g clip-path="url(#p000942ca2f)">
     <use style="fill:#d62728;stroke:#d62728;" x="115.656818" xlink:href="#m8c070b4fe5" y="71.275065"/>
     <use style="fill:#d62728;stroke:#d62728;" x="192.090909" xlink:href="#m8c070b4fe5" y="95.36587"/>
     <use style="fill:#d62728;stroke:#d62728;" x="268.525" xlink:href="#m8c070b4fe5" y="108.560238"/>
     <use style="fill:#d62728;stroke:#d62728;" x="344.959091" xlink:href="#m8c070b4fe5" y="124.73433"/>
     <use style="fill:#d62728;stroke:#d62728;" x="421.393182" xlink:href="#m8c070b4fe5" y="173.553406"/>
    </g>
   </g>
   <g id="line2d_24">
    <path clip-path="url(#p000942ca2f)" d="M 115.656818 70.948868 
L 192.090909 116.188118 
L 268.525 122.416109 
L 344.959091 127.329896 
L 421.393182 181.786892 
" style="fill:none;stroke:#9467bd;stroke-linecap:square;stroke-width:1.5;"/>
    <g clip-path="url(#p000942ca2f)">
     <use style="fill:#9467bd;stroke:#9467bd;" x="115.656818" xlink:href="#m35daa02b2e" y="70.948868"/>
     <use style="fill:#9467bd;stroke:#9467bd;" x="192.090909" xlink:href="#m35daa02b2e" y="116.188118"/>
     <use style="fill:#9467bd;stroke:#9467bd;" x="268.525" xlink:href="#m35daa02b2e" y="122.416109"/>
     <use style="fill:#9467bd;stroke:#9467bd;" x="344.959091" xlink:href="#m35daa02b2e" y="127.329896"/>
     <use style="fill:#9467bd;stroke:#9467bd;" x="421.393182" xlink:href="#m35daa02b2e" y="181.786892"/>
    </g>
   </g>
   <g id="line2d_25">
    <path clip-path="url(#p000942ca2f)" d="M 115.656818 65.009613 
L 192.090909 86.606666 
L 268.525 115.086842 
L 344.959091 164.565608 
L 421.393182 221.125078 
" style="fill:none;stroke:#8c564b;stroke-linecap:square;stroke-width:1.5;"/>
    <g clip-path="url(#p000942ca2f)">
     <use style="fill:#8c564b;stroke:#8c564b;" x="115.656818" xlink:href="#m2dd816a844" y="65.009613"/>
     <use style="fill:#8c564b;stroke:#8c564b;" x="192.090909" xlink:href="#m2dd816a844" y="86.606666"/>
     <use style="fill:#8c564b;stroke:#8c564b;" x="268.525" xlink:href="#m2dd816a844" y="115.086842"/>
     <use style="fill:#8c564b;stroke:#8c564b;" x="344.959091" xlink:href="#m2dd816a844" y="164.565608"/>
     <use style="fill:#8c564b;stroke:#8c564b;" x="421.393182" xlink:href="#m2dd816a844" y="221.125078"/>
    </g>
   </g>
   <g id="line2d_26">
    <path clip-path="url(#p000942ca2f)" d="M 115.656818 67.424247 
L 192.090909 91.538872 
L 268.525 130.359091 
L 344.959091 176.773722 
L 421.393182 233.94622 
" style="fill:none;stroke:#e377c2;stroke-linecap:square;stroke-width:1.5;"/>
    <g clip-path="url(#p000942ca2f)">
     <use style="fill:#e377c2;stroke:#e377c2;" x="115.656818" xlink:href="#m5adb838f87" y="67.424247"/>
     <use style="fill:#e377c2;stroke:#e377c2;" x="192.090909" xlink:href="#m5adb838f87" y="91.538872"/>
     <use style="fill:#e377c2;stroke:#e377c2;" x="268.525" xlink:href="#m5adb838f87" y="130.359091"/>
     <use style="fill:#e377c2;stroke:#e377c2;" x="344.959091" xlink:href="#m5adb838f87" y="176.773722"/>
     <use style="fill:#e377c2;stroke:#e377c2;" x="421.393182" xlink:href="#m5adb838f87" y="233.94622"/>
    </g>
   </g>
   <g id="line2d_27">
    <path clip-path="url(#p000942ca2f)" d="M 115.656818 83.547107 
L 192.090909 108.076274 
L 268.525 152.467671 
L 344.959091 191.939231 
L 421.393182 230.033637 
" style="fill:none;stroke:#7f7f7f;stroke-linecap:square;stroke-width:1.5;"/>
    <g clip-path="url(#p000942ca2f)">
     <use style="fill:#7f7f7f;stroke:#7f7f7f;" x="115.656818" xlink:href="#m457135e3b7" y="83.547107"/>
     <use style="fill:#7f7f7f;stroke:#7f7f7f;" x="192.090909" xlink:href="#m457135e3b7" y="108.076274"/>
     <use style="fill:#7f7f7f;stroke:#7f7f7f;" x="268.525" xlink:href="#m457135e3b7" y="152.467671"/>
     <use style="fill:#7f7f7f;stroke:#7f7f7f;" x="344.959091" xlink:href="#m457135e3b7" y="191.939231"/>
     <use style="fill:#7f7f7f;stroke:#7f7f7f;" x="421.393182" xlink:href="#m457135e3b7" y="230.033637"/>
    </g>
   </g>
   <g id="line2d_28">
    <path clip-path="url(#p000942ca2f)" d="M 115.656818 97.028429 
L 192.090909 128.876839 
L 268.525 162.174167 
L 344.959091 183.4362 
L 421.393182 226.789276 
" style="fill:none;stroke:#bcbd22;stroke-linecap:square;stroke-width:1.5;"/>
    <g clip-path="url(#p000942ca2f)">
     <use style="fill:#bcbd22;stroke:#bcbd22;" x="115.656818" xlink:href="#m31665592c0" y="97.028429"/>
     <use style="fill:#bcbd22;stroke:#bcbd22;" x="192.090909" xlink:href="#m31665592c0" y="128.876839"/>
     <use style="fill:#bcbd22;stroke:#bcbd22;" x="268.525" xlink:href="#m31665592c0" y="162.174167"/>
     <use style="fill:#bcbd22;stroke:#bcbd22;" x="344.959091" xlink:href="#m31665592c0" y="183.4362"/>
     <use style="fill:#bcbd22;stroke:#bcbd22;" x="421.393182" xlink:href="#m31665592c0" y="226.789276"/>
    </g>
   </g>
   <g id="line2d_29">
    <path clip-path="url(#p000942ca2f)" d="M 115.656818 48.858113 
L 192.090909 68.155233 
L 268.525 97.337089 
L 344.959091 138.191415 
L 421.393182 195.374781 
" style="fill:none;stroke:#17becf;stroke-linecap:square;stroke-width:1.5;"/>
    <g clip-path="url(#p000942ca2f)">
     <use style="fill:#17becf;stroke:#17becf;" x="115.656818" xlink:href="#m64caee8ec3" y="48.858113"/>
     <use style="fill:#17becf;stroke:#17becf;" x="192.090909" xlink:href="#m64caee8ec3" y="68.155233"/>
     <use style="fill:#17becf;stroke:#17becf;" x="268.525" xlink:href="#m64caee8ec3" y="97.337089"/>
     <use style="fill:#17becf;stroke:#17becf;" x="344.959091" xlink:href="#m64caee8ec3" y="138.191415"/>
     <use style="fill:#17becf;stroke:#17becf;" x="421.393182" xlink:href="#m64caee8ec3" y="195.374781"/>
    </g>
   </g>
   <g id="line2d_30">
    <path clip-path="url(#p000942ca2f)" d="M 115.656818 85.891359 
L 192.090909 116.782753 
L 268.525 158.927815 
L 344.959091 168.702987 
L 421.393182 189.402823 
" style="fill:none;stroke:#1f77b4;stroke-linecap:square;stroke-width:1.5;"/>
    <g clip-path="url(#p000942ca2f)">
     <use style="fill:#1f77b4;stroke:#1f77b4;" x="115.656818" xlink:href="#m709956bf01" y="85.891359"/>
     <use style="fill:#1f77b4;stroke:#1f77b4;" x="192.090909" xlink:href="#m709956bf01" y="116.782753"/>
     <use style="fill:#1f77b4;stroke:#1f77b4;" x="268.525" xlink:href="#m709956bf01" y="158.927815"/>
     <use style="fill:#1f77b4;stroke:#1f77b4;" x="344.959091" xlink:href="#m709956bf01" y="168.702987"/>
     <use style="fill:#1f77b4;stroke:#1f77b4;" x="421.393182" xlink:href="#m709956bf01" y="189.402823"/>
    </g>
   </g>
   <g id="line2d_31">
    <path clip-path="url(#p000942ca2f)" d="M 115.656818 84.953356 
L 192.090909 113.107362 
L 268.525 152.550584 
L 344.959091 180.119723 
L 421.393182 217.943405 
" style="fill:none;stroke:#ff7f0e;stroke-linecap:square;stroke-width:1.5;"/>
    <g clip-path="url(#p000942ca2f)">
     <use style="fill:#ff7f0e;stroke:#ff7f0e;" x="115.656818" xlink:href="#mbfd241fe68" y="84.953356"/>
     <use style="fill:#ff7f0e;stroke:#ff7f0e;" x="192.090909" xlink:href="#mbfd241fe68" y="113.107362"/>
     <use style="fill:#ff7f0e;stroke:#ff7f0e;" x="268.525" xlink:href="#mbfd241fe68" y="152.550584"/>
     <use style="fill:#ff7f0e;stroke:#ff7f0e;" x="344.959091" xlink:href="#mbfd241fe68" y="180.119723"/>
     <use style="fill:#ff7f0e;stroke:#ff7f0e;" x="421.393182" xlink:href="#mbfd241fe68" y="217.943405"/>
    </g>
   </g>
   <g id="line2d_32">
    <path clip-path="url(#p000942ca2f)" d="M 115.656818 84.252157 
L 192.090909 94.259197 
L 268.525 118.537162 
L 344.959091 153.667549 
L 421.393182 206.970321 
" style="fill:none;stroke:#2ca02c;stroke-linecap:square;stroke-width:1.5;"/>
    <g clip-path="url(#p000942ca2f)">
     <use style="fill:#2ca02c;stroke:#2ca02c;" x="115.656818" xlink:href="#m58433e40be" y="84.252157"/>
     <use style="fill:#2ca02c;stroke:#2ca02c;" x="192.090909" xlink:href="#m58433e40be" y="94.259197"/>
     <use style="fill:#2ca02c;stroke:#2ca02c;" x="268.525" xlink:href="#m58433e40be" y="118.537162"/>
     <use style="fill:#2ca02c;stroke:#2ca02c;" x="344.959091" xlink:href="#m58433e40be" y="153.667549"/>
     <use style="fill:#2ca02c;stroke:#2ca02c;" x="421.393182" xlink:href="#m58433e40be" y="206.970321"/>
    </g>
   </g>
   <g id="patch_3">
    <path d="M 100.37 269.8 
L 100.37 24.12 
" style="fill:none;stroke:#000000;stroke-linecap:square;stroke-linejoin:miter;stroke-width:0.8;"/>
   </g>
   <g id="patch_4">
    <path d="M 436.68 269.8 
L 436.68 24.12 
" style="fill:none;stroke:#000000;stroke-linecap:square;stroke-linejoin:miter;stroke-width:0.8;"/>
   </g>
   <g id="patch_5">
    <path d="M 100.37 269.8 
L 436.68 269.8 
" style="fill:none;stroke:#000000;stroke-linecap:square;stroke-linejoin:miter;stroke-width:0.8;"/>
   </g>
   <g id="patch_6">
    <path d="M 100.37 24.12 
L 436.68 24.12 
" style="fill:none;stroke:#000000;stroke-linecap:square;stroke-linejoin:miter;stroke-width:0.8;"/>
   </g>
   <g id="text_12">
    <!-- $p=$5 -->
    <defs>
     <path d="M 49.609375 33.6875 
Q 49.609375 40.875 46.484375 44.671875 
Q 43.359375 48.484375 37.5 48.484375 
Q 33.5 48.484375 29.859375 46.4375 
Q 26.21875 44.390625 23.390625 40.484375 
Q 20.609375 36.625 18.9375 31.15625 
Q 17.28125 25.6875 17.28125 20.3125 
Q 17.28125 13.484375 20.40625 9.796875 
Q 23.53125 6.109375 29.296875 6.109375 
Q 33.546875 6.109375 37.1875 8.109375 
Q 40.828125 10.109375 43.40625 13.921875 
Q 46.1875 17.921875 47.890625 23.34375 
Q 49.609375 28.765625 49.609375 33.6875 
z
M 21.78125 46.390625 
Q 25.390625 51.125 30.296875 53.5625 
Q 35.203125 56 41.21875 56 
Q 49.609375 56 54.25 50.5 
Q 58.890625 45.015625 58.890625 35.109375 
Q 58.890625 27 56 19.65625 
Q 53.125 12.3125 47.703125 6.5 
Q 44.09375 2.640625 39.546875 0.609375 
Q 35.015625 -1.421875 29.984375 -1.421875 
Q 24.171875 -1.421875 20.21875 1 
Q 16.265625 3.421875 14.3125 8.203125 
L 8.6875 -20.796875 
L -0.296875 -20.796875 
L 14.40625 54.6875 
L 23.390625 54.6875 
z
" id="DejaVuSans-Oblique-112"/>
     <path d="M 10.59375 45.40625 
L 73.1875 45.40625 
L 73.1875 37.203125 
L 10.59375 37.203125 
z
M 10.59375 25.484375 
L 73.1875 25.484375 
L 73.1875 17.1875 
L 10.59375 17.1875 
z
" id="DejaVuSans-61"/>
    </defs>
    <g transform="translate(243.525 18.12)scale(0.2 -0.2)">
     <use transform="translate(0 0.09375)" xlink:href="#DejaVuSans-Oblique-112"/>
     <use transform="translate(82.958984 0.09375)" xlink:href="#DejaVuSans-61"/>
     <use transform="translate(186.230469 0.09375)" xlink:href="#DejaVuSans-53"/>
    </g>
   </g>
  </g>
 </g>
 <defs>
  <clipPath id="p000942ca2f">
   <rect height="245.68" width="336.31" x="100.37" y="24.12"/>
  </clipPath>
 </defs>
</svg>
