<?xml version="1.0" encoding="utf-8" standalone="no"?>
<!DOCTYPE svg PUBLIC "-//W3C//DTD SVG 1.1//EN"
  "http://www.w3.org/Graphics/SVG/1.1/DTD/svg11.dtd">
<!-- Created with matplotlib (https://matplotlib.org/) -->
<svg height="345.6pt" version="1.1" viewBox="0 0 460.8 345.6" width="460.8pt" xmlns="http://www.w3.org/2000/svg" xmlns:xlink="http://www.w3.org/1999/xlink">
 <defs>
  <style type="text/css">
*{stroke-linecap:butt;stroke-linejoin:round;}
  </style>
 </defs>
 <g id="figure_1">
  <g id="patch_1">
   <path d="M 0 345.6 
L 460.8 345.6 
L 460.8 0 
L 0 0 
z
" style="fill:#ffffff;"/>
  </g>
  <g id="axes_1">
   <g id="patch_2">
    <path d="M 87.59 272.68 
L 436.68 272.68 
L 436.68 24.12 
L 87.59 24.12 
z
" style="fill:#ffffff;"/>
   </g>
   <g id="matplotlib.axis_1">
    <g id="xtick_1">
     <g id="line2d_1">
      <defs>
       <path d="M 0 0 
L 0 3.5 
" id="mcd2c598bed" style="stroke:#000000;stroke-width:0.8;"/>
      </defs>
      <g>
       <use style="stroke:#000000;stroke-width:0.8;" x="103.457727" xlink:href="#mcd2c598bed" y="272.68"/>
      </g>
     </g>
     <g id="text_1">
      <!-- 1 -->
      <defs>
       <path d="M 12.40625 8.296875 
L 28.515625 8.296875 
L 28.515625 63.921875 
L 10.984375 60.40625 
L 10.984375 69.390625 
L 28.421875 72.90625 
L 38.28125 72.90625 
L 38.28125 8.296875 
L 54.390625 8.296875 
L 54.390625 0 
L 12.40625 0 
z
" id="DejaVuSans-49"/>
      </defs>
      <g transform="translate(97.095227 294.876875)scale(0.2 -0.2)">
       <use xlink:href="#DejaVuSans-49"/>
      </g>
     </g>
    </g>
    <g id="xtick_2">
     <g id="line2d_2">
      <g>
       <use style="stroke:#000000;stroke-width:0.8;" x="182.796364" xlink:href="#mcd2c598bed" y="272.68"/>
      </g>
     </g>
     <g id="text_2">
      <!-- 2 -->
      <defs>
       <path d="M 19.1875 8.296875 
L 53.609375 8.296875 
L 53.609375 0 
L 7.328125 0 
L 7.328125 8.296875 
Q 12.9375 14.109375 22.625 23.890625 
Q 32.328125 33.6875 34.8125 36.53125 
Q 39.546875 41.84375 41.421875 45.53125 
Q 43.3125 49.21875 43.3125 52.78125 
Q 43.3125 58.59375 39.234375 62.25 
Q 35.15625 65.921875 28.609375 65.921875 
Q 23.96875 65.921875 18.8125 64.3125 
Q 13.671875 62.703125 7.8125 59.421875 
L 7.8125 69.390625 
Q 13.765625 71.78125 18.9375 73 
Q 24.125 74.21875 28.421875 74.21875 
Q 39.75 74.21875 46.484375 68.546875 
Q 53.21875 62.890625 53.21875 53.421875 
Q 53.21875 48.921875 51.53125 44.890625 
Q 49.859375 40.875 45.40625 35.40625 
Q 44.1875 33.984375 37.640625 27.21875 
Q 31.109375 20.453125 19.1875 8.296875 
z
" id="DejaVuSans-50"/>
      </defs>
      <g transform="translate(176.433864 294.876875)scale(0.2 -0.2)">
       <use xlink:href="#DejaVuSans-50"/>
      </g>
     </g>
    </g>
    <g id="xtick_3">
     <g id="line2d_3">
      <g>
       <use style="stroke:#000000;stroke-width:0.8;" x="262.135" xlink:href="#mcd2c598bed" y="272.68"/>
      </g>
     </g>
     <g id="text_3">
      <!-- 3 -->
      <defs>
       <path d="M 40.578125 39.3125 
Q 47.65625 37.796875 51.625 33 
Q 55.609375 28.21875 55.609375 21.1875 
Q 55.609375 10.40625 48.1875 4.484375 
Q 40.765625 -1.421875 27.09375 -1.421875 
Q 22.515625 -1.421875 17.65625 -0.515625 
Q 12.796875 0.390625 7.625 2.203125 
L 7.625 11.71875 
Q 11.71875 9.328125 16.59375 8.109375 
Q 21.484375 6.890625 26.8125 6.890625 
Q 36.078125 6.890625 40.9375 10.546875 
Q 45.796875 14.203125 45.796875 21.1875 
Q 45.796875 27.640625 41.28125 31.265625 
Q 36.765625 34.90625 28.71875 34.90625 
L 20.21875 34.90625 
L 20.21875 43.015625 
L 29.109375 43.015625 
Q 36.375 43.015625 40.234375 45.921875 
Q 44.09375 48.828125 44.09375 54.296875 
Q 44.09375 59.90625 40.109375 62.90625 
Q 36.140625 65.921875 28.71875 65.921875 
Q 24.65625 65.921875 20.015625 65.03125 
Q 15.375 64.15625 9.8125 62.3125 
L 9.8125 71.09375 
Q 15.4375 72.65625 20.34375 73.4375 
Q 25.25 74.21875 29.59375 74.21875 
Q 40.828125 74.21875 47.359375 69.109375 
Q 53.90625 64.015625 53.90625 55.328125 
Q 53.90625 49.265625 50.4375 45.09375 
Q 46.96875 40.921875 40.578125 39.3125 
z
" id="DejaVuSans-51"/>
      </defs>
      <g transform="translate(255.7725 294.876875)scale(0.2 -0.2)">
       <use xlink:href="#DejaVuSans-51"/>
      </g>
     </g>
    </g>
    <g id="xtick_4">
     <g id="line2d_4">
      <g>
       <use style="stroke:#000000;stroke-width:0.8;" x="341.473636" xlink:href="#mcd2c598bed" y="272.68"/>
      </g>
     </g>
     <g id="text_4">
      <!-- 4 -->
      <defs>
       <path d="M 37.796875 64.3125 
L 12.890625 25.390625 
L 37.796875 25.390625 
z
M 35.203125 72.90625 
L 47.609375 72.90625 
L 47.609375 25.390625 
L 58.015625 25.390625 
L 58.015625 17.1875 
L 47.609375 17.1875 
L 47.609375 0 
L 37.796875 0 
L 37.796875 17.1875 
L 4.890625 17.1875 
L 4.890625 26.703125 
z
" id="DejaVuSans-52"/>
      </defs>
      <g transform="translate(335.111136 294.876875)scale(0.2 -0.2)">
       <use xlink:href="#DejaVuSans-52"/>
      </g>
     </g>
    </g>
    <g id="xtick_5">
     <g id="line2d_5">
      <g>
       <use style="stroke:#000000;stroke-width:0.8;" x="420.812273" xlink:href="#mcd2c598bed" y="272.68"/>
      </g>
     </g>
     <g id="text_5">
      <!-- 5 -->
      <defs>
       <path d="M 10.796875 72.90625 
L 49.515625 72.90625 
L 49.515625 64.59375 
L 19.828125 64.59375 
L 19.828125 46.734375 
Q 21.96875 47.46875 24.109375 47.828125 
Q 26.265625 48.1875 28.421875 48.1875 
Q 40.625 48.1875 47.75 41.5 
Q 54.890625 34.8125 54.890625 23.390625 
Q 54.890625 11.625 47.5625 5.09375 
Q 40.234375 -1.421875 26.90625 -1.421875 
Q 22.3125 -1.421875 17.546875 -0.640625 
Q 12.796875 0.140625 7.71875 1.703125 
L 7.71875 11.625 
Q 12.109375 9.234375 16.796875 8.0625 
Q 21.484375 6.890625 26.703125 6.890625 
Q 35.15625 6.890625 40.078125 11.328125 
Q 45.015625 15.765625 45.015625 23.390625 
Q 45.015625 31 40.078125 35.4375 
Q 35.15625 39.890625 26.703125 39.890625 
Q 22.75 39.890625 18.8125 39.015625 
Q 14.890625 38.140625 10.796875 36.28125 
z
" id="DejaVuSans-53"/>
      </defs>
      <g transform="translate(414.449773 294.876875)scale(0.2 -0.2)">
       <use xlink:href="#DejaVuSans-53"/>
      </g>
     </g>
    </g>
    <g id="text_6">
     <!-- $\gamma_i$ -->
     <defs>
      <path d="M 23.296875 46.09375 
L 28.71875 12.3125 
L 54 54.6875 
L 63.53125 54.6875 
L 30.8125 0 
L 26.765625 -20.796875 
L 17.78125 -20.796875 
L 21.828125 0 
L 15.4375 40.828125 
Q 14.453125 46.96875 9.8125 46.96875 
L 7.421875 46.96875 
L 8.890625 54.6875 
L 12.3125 54.6875 
Q 21.921875 54.6875 23.296875 46.09375 
z
" id="DejaVuSans-Oblique-947"/>
      <path d="M 18.3125 75.984375 
L 27.296875 75.984375 
L 25.09375 64.59375 
L 16.109375 64.59375 
z
M 14.203125 54.6875 
L 23.1875 54.6875 
L 12.5 0 
L 3.515625 0 
z
" id="DejaVuSans-Oblique-105"/>
     </defs>
     <g transform="translate(253.935 318.1925)scale(0.2 -0.2)">
      <use transform="translate(0 0.3125)" xlink:href="#DejaVuSans-Oblique-947"/>
      <use transform="translate(59.179688 -16.09375)scale(0.7)" xlink:href="#DejaVuSans-Oblique-105"/>
     </g>
    </g>
   </g>
   <g id="matplotlib.axis_2">
    <g id="ytick_1">
     <g id="line2d_6">
      <defs>
       <path d="M 0 0 
L -3.5 0 
" id="m2591d40b7e" style="stroke:#000000;stroke-width:0.8;"/>
      </defs>
      <g>
       <use style="stroke:#000000;stroke-width:0.8;" x="87.59" xlink:href="#m2591d40b7e" y="272.68"/>
      </g>
     </g>
     <g id="text_7">
      <!-- 0.0 -->
      <defs>
       <path d="M 31.78125 66.40625 
Q 24.171875 66.40625 20.328125 58.90625 
Q 16.5 51.421875 16.5 36.375 
Q 16.5 21.390625 20.328125 13.890625 
Q 24.171875 6.390625 31.78125 6.390625 
Q 39.453125 6.390625 43.28125 13.890625 
Q 47.125 21.390625 47.125 36.375 
Q 47.125 51.421875 43.28125 58.90625 
Q 39.453125 66.40625 31.78125 66.40625 
z
M 31.78125 74.21875 
Q 44.046875 74.21875 50.515625 64.515625 
Q 56.984375 54.828125 56.984375 36.375 
Q 56.984375 17.96875 50.515625 8.265625 
Q 44.046875 -1.421875 31.78125 -1.421875 
Q 19.53125 -1.421875 13.0625 8.265625 
Q 6.59375 17.96875 6.59375 36.375 
Q 6.59375 54.828125 13.0625 64.515625 
Q 19.53125 74.21875 31.78125 74.21875 
z
" id="DejaVuSans-48"/>
       <path d="M 10.6875 12.40625 
L 21 12.40625 
L 21 0 
L 10.6875 0 
z
" id="DejaVuSans-46"/>
      </defs>
      <g transform="translate(48.78375 280.278437)scale(0.2 -0.2)">
       <use xlink:href="#DejaVuSans-48"/>
       <use x="63.623047" xlink:href="#DejaVuSans-46"/>
       <use x="95.410156" xlink:href="#DejaVuSans-48"/>
      </g>
     </g>
    </g>
    <g id="ytick_2">
     <g id="line2d_7">
      <g>
       <use style="stroke:#000000;stroke-width:0.8;" x="87.59" xlink:href="#m2591d40b7e" y="217.444444"/>
      </g>
     </g>
     <g id="text_8">
      <!-- 0.1 -->
      <g transform="translate(48.78375 225.042882)scale(0.2 -0.2)">
       <use xlink:href="#DejaVuSans-48"/>
       <use x="63.623047" xlink:href="#DejaVuSans-46"/>
       <use x="95.410156" xlink:href="#DejaVuSans-49"/>
      </g>
     </g>
    </g>
    <g id="ytick_3">
     <g id="line2d_8">
      <g>
       <use style="stroke:#000000;stroke-width:0.8;" x="87.59" xlink:href="#m2591d40b7e" y="162.208889"/>
      </g>
     </g>
     <g id="text_9">
      <!-- 0.2 -->
      <g transform="translate(48.78375 169.807326)scale(0.2 -0.2)">
       <use xlink:href="#DejaVuSans-48"/>
       <use x="63.623047" xlink:href="#DejaVuSans-46"/>
       <use x="95.410156" xlink:href="#DejaVuSans-50"/>
      </g>
     </g>
    </g>
    <g id="ytick_4">
     <g id="line2d_9">
      <g>
       <use style="stroke:#000000;stroke-width:0.8;" x="87.59" xlink:href="#m2591d40b7e" y="106.973333"/>
      </g>
     </g>
     <g id="text_10">
      <!-- 0.3 -->
      <g transform="translate(48.78375 114.571771)scale(0.2 -0.2)">
       <use xlink:href="#DejaVuSans-48"/>
       <use x="63.623047" xlink:href="#DejaVuSans-46"/>
       <use x="95.410156" xlink:href="#DejaVuSans-51"/>
      </g>
     </g>
    </g>
    <g id="ytick_5">
     <g id="line2d_10">
      <g>
       <use style="stroke:#000000;stroke-width:0.8;" x="87.59" xlink:href="#m2591d40b7e" y="51.737778"/>
      </g>
     </g>
     <g id="text_11">
      <!-- 0.4 -->
      <g transform="translate(48.78375 59.336215)scale(0.2 -0.2)">
       <use xlink:href="#DejaVuSans-48"/>
       <use x="63.623047" xlink:href="#DejaVuSans-46"/>
       <use x="95.410156" xlink:href="#DejaVuSans-52"/>
      </g>
     </g>
    </g>
    <g id="text_12">
     <!-- Value of $\gamma_i$ -->
     <defs>
      <path d="M 28.609375 0 
L 0.78125 72.90625 
L 11.078125 72.90625 
L 34.1875 11.53125 
L 57.328125 72.90625 
L 67.578125 72.90625 
L 39.796875 0 
z
" id="DejaVuSans-86"/>
      <path d="M 34.28125 27.484375 
Q 23.390625 27.484375 19.1875 25 
Q 14.984375 22.515625 14.984375 16.5 
Q 14.984375 11.71875 18.140625 8.90625 
Q 21.296875 6.109375 26.703125 6.109375 
Q 34.1875 6.109375 38.703125 11.40625 
Q 43.21875 16.703125 43.21875 25.484375 
L 43.21875 27.484375 
z
M 52.203125 31.203125 
L 52.203125 0 
L 43.21875 0 
L 43.21875 8.296875 
Q 40.140625 3.328125 35.546875 0.953125 
Q 30.953125 -1.421875 24.3125 -1.421875 
Q 15.921875 -1.421875 10.953125 3.296875 
Q 6 8.015625 6 15.921875 
Q 6 25.140625 12.171875 29.828125 
Q 18.359375 34.515625 30.609375 34.515625 
L 43.21875 34.515625 
L 43.21875 35.40625 
Q 43.21875 41.609375 39.140625 45 
Q 35.0625 48.390625 27.6875 48.390625 
Q 23 48.390625 18.546875 47.265625 
Q 14.109375 46.140625 10.015625 43.890625 
L 10.015625 52.203125 
Q 14.9375 54.109375 19.578125 55.046875 
Q 24.21875 56 28.609375 56 
Q 40.484375 56 46.34375 49.84375 
Q 52.203125 43.703125 52.203125 31.203125 
z
" id="DejaVuSans-97"/>
      <path d="M 9.421875 75.984375 
L 18.40625 75.984375 
L 18.40625 0 
L 9.421875 0 
z
" id="DejaVuSans-108"/>
      <path d="M 8.5 21.578125 
L 8.5 54.6875 
L 17.484375 54.6875 
L 17.484375 21.921875 
Q 17.484375 14.15625 20.5 10.265625 
Q 23.53125 6.390625 29.59375 6.390625 
Q 36.859375 6.390625 41.078125 11.03125 
Q 45.3125 15.671875 45.3125 23.6875 
L 45.3125 54.6875 
L 54.296875 54.6875 
L 54.296875 0 
L 45.3125 0 
L 45.3125 8.40625 
Q 42.046875 3.421875 37.71875 1 
Q 33.40625 -1.421875 27.6875 -1.421875 
Q 18.265625 -1.421875 13.375 4.4375 
Q 8.5 10.296875 8.5 21.578125 
z
M 31.109375 56 
z
" id="DejaVuSans-117"/>
      <path d="M 56.203125 29.59375 
L 56.203125 25.203125 
L 14.890625 25.203125 
Q 15.484375 15.921875 20.484375 11.0625 
Q 25.484375 6.203125 34.421875 6.203125 
Q 39.59375 6.203125 44.453125 7.46875 
Q 49.3125 8.734375 54.109375 11.28125 
L 54.109375 2.78125 
Q 49.265625 0.734375 44.1875 -0.34375 
Q 39.109375 -1.421875 33.890625 -1.421875 
Q 20.796875 -1.421875 13.15625 6.1875 
Q 5.515625 13.8125 5.515625 26.8125 
Q 5.515625 40.234375 12.765625 48.109375 
Q 20.015625 56 32.328125 56 
Q 43.359375 56 49.78125 48.890625 
Q 56.203125 41.796875 56.203125 29.59375 
z
M 47.21875 32.234375 
Q 47.125 39.59375 43.09375 43.984375 
Q 39.0625 48.390625 32.421875 48.390625 
Q 24.90625 48.390625 20.390625 44.140625 
Q 15.875 39.890625 15.1875 32.171875 
z
" id="DejaVuSans-101"/>
      <path id="DejaVuSans-32"/>
      <path d="M 30.609375 48.390625 
Q 23.390625 48.390625 19.1875 42.75 
Q 14.984375 37.109375 14.984375 27.296875 
Q 14.984375 17.484375 19.15625 11.84375 
Q 23.34375 6.203125 30.609375 6.203125 
Q 37.796875 6.203125 41.984375 11.859375 
Q 46.1875 17.53125 46.1875 27.296875 
Q 46.1875 37.015625 41.984375 42.703125 
Q 37.796875 48.390625 30.609375 48.390625 
z
M 30.609375 56 
Q 42.328125 56 49.015625 48.375 
Q 55.71875 40.765625 55.71875 27.296875 
Q 55.71875 13.875 49.015625 6.21875 
Q 42.328125 -1.421875 30.609375 -1.421875 
Q 18.84375 -1.421875 12.171875 6.21875 
Q 5.515625 13.875 5.515625 27.296875 
Q 5.515625 40.765625 12.171875 48.375 
Q 18.84375 56 30.609375 56 
z
" id="DejaVuSans-111"/>
      <path d="M 37.109375 75.984375 
L 37.109375 68.5 
L 28.515625 68.5 
Q 23.6875 68.5 21.796875 66.546875 
Q 19.921875 64.59375 19.921875 59.515625 
L 19.921875 54.6875 
L 34.71875 54.6875 
L 34.71875 47.703125 
L 19.921875 47.703125 
L 19.921875 0 
L 10.890625 0 
L 10.890625 47.703125 
L 2.296875 47.703125 
L 2.296875 54.6875 
L 10.890625 54.6875 
L 10.890625 58.5 
Q 10.890625 67.625 15.140625 71.796875 
Q 19.390625 75.984375 28.609375 75.984375 
z
" id="DejaVuSans-102"/>
     </defs>
     <g transform="translate(40.58375 200.8)rotate(-90)scale(0.2 -0.2)">
      <use transform="translate(0 0.015625)" xlink:href="#DejaVuSans-86"/>
      <use transform="translate(68.408203 0.015625)" xlink:href="#DejaVuSans-97"/>
      <use transform="translate(129.6875 0.015625)" xlink:href="#DejaVuSans-108"/>
      <use transform="translate(157.470703 0.015625)" xlink:href="#DejaVuSans-117"/>
      <use transform="translate(220.849609 0.015625)" xlink:href="#DejaVuSans-101"/>
      <use transform="translate(282.373047 0.015625)" xlink:href="#DejaVuSans-32"/>
      <use transform="translate(314.160156 0.015625)" xlink:href="#DejaVuSans-111"/>
      <use transform="translate(375.341797 0.015625)" xlink:href="#DejaVuSans-102"/>
      <use transform="translate(410.546875 0.015625)" xlink:href="#DejaVuSans-32"/>
      <use transform="translate(442.333984 0.015625)" xlink:href="#DejaVuSans-Oblique-947"/>
      <use transform="translate(501.513672 -16.390625)scale(0.7)" xlink:href="#DejaVuSans-Oblique-105"/>
     </g>
    </g>
   </g>
   <g id="line2d_11">
    <path clip-path="url(#p00240cdfef)" d="M 103.457727 225.656181 
L 182.796364 170.298573 
L 262.135 132.590484 
L 341.473636 103.974016 
L 420.812273 66.556811 
" style="fill:none;stroke:#1f77b4;stroke-linecap:square;stroke-width:1.5;"/>
    <defs>
     <path d="M 0 3 
C 0.795609 3 1.55874 2.683901 2.12132 2.12132 
C 2.683901 1.55874 3 0.795609 3 0 
C 3 -0.795609 2.683901 -1.55874 2.12132 -2.12132 
C 1.55874 -2.683901 0.795609 -3 0 -3 
C -0.795609 -3 -1.55874 -2.683901 -2.12132 -2.12132 
C -2.683901 -1.55874 -3 -0.795609 -3 0 
C -3 0.795609 -2.683901 1.55874 -2.12132 2.12132 
C -1.55874 2.683901 -0.795609 3 0 3 
z
" id="md8e93a71fb" style="stroke:#1f77b4;"/>
    </defs>
    <g clip-path="url(#p00240cdfef)">
     <use style="fill:#1f77b4;stroke:#1f77b4;" x="103.457727" xlink:href="#md8e93a71fb" y="225.656181"/>
     <use style="fill:#1f77b4;stroke:#1f77b4;" x="182.796364" xlink:href="#md8e93a71fb" y="170.298573"/>
     <use style="fill:#1f77b4;stroke:#1f77b4;" x="262.135" xlink:href="#md8e93a71fb" y="132.590484"/>
     <use style="fill:#1f77b4;stroke:#1f77b4;" x="341.473636" xlink:href="#md8e93a71fb" y="103.974016"/>
     <use style="fill:#1f77b4;stroke:#1f77b4;" x="420.812273" xlink:href="#md8e93a71fb" y="66.556811"/>
    </g>
   </g>
   <g id="line2d_12">
    <path clip-path="url(#p00240cdfef)" d="M 103.457727 229.928524 
L 182.796364 179.723797 
L 262.135 133.728629 
L 341.473636 105.118345 
L 420.812273 90.863315 
" style="fill:none;stroke:#ff7f0e;stroke-linecap:square;stroke-width:1.5;"/>
    <defs>
     <path d="M 0 3 
C 0.795609 3 1.55874 2.683901 2.12132 2.12132 
C 2.683901 1.55874 3 0.795609 3 0 
C 3 -0.795609 2.683901 -1.55874 2.12132 -2.12132 
C 1.55874 -2.683901 0.795609 -3 0 -3 
C -0.795609 -3 -1.55874 -2.683901 -2.12132 -2.12132 
C -2.683901 -1.55874 -3 -0.795609 -3 0 
C -3 0.795609 -2.683901 1.55874 -2.12132 2.12132 
C -1.55874 2.683901 -0.795609 3 0 3 
z
" id="m5a4133a9ef" style="stroke:#ff7f0e;"/>
    </defs>
    <g clip-path="url(#p00240cdfef)">
     <use style="fill:#ff7f0e;stroke:#ff7f0e;" x="103.457727" xlink:href="#m5a4133a9ef" y="229.928524"/>
     <use style="fill:#ff7f0e;stroke:#ff7f0e;" x="182.796364" xlink:href="#m5a4133a9ef" y="179.723797"/>
     <use style="fill:#ff7f0e;stroke:#ff7f0e;" x="262.135" xlink:href="#m5a4133a9ef" y="133.728629"/>
     <use style="fill:#ff7f0e;stroke:#ff7f0e;" x="341.473636" xlink:href="#m5a4133a9ef" y="105.118345"/>
     <use style="fill:#ff7f0e;stroke:#ff7f0e;" x="420.812273" xlink:href="#m5a4133a9ef" y="90.863315"/>
    </g>
   </g>
   <g id="line2d_13">
    <path clip-path="url(#p00240cdfef)" d="M 103.457727 218.075666 
L 182.796364 166.692552 
L 262.135 136.203502 
L 341.473636 113.521331 
L 420.812273 99.882843 
" style="fill:none;stroke:#2ca02c;stroke-linecap:square;stroke-width:1.5;"/>
    <defs>
     <path d="M 0 3 
C 0.795609 3 1.55874 2.683901 2.12132 2.12132 
C 2.683901 1.55874 3 0.795609 3 0 
C 3 -0.795609 2.683901 -1.55874 2.12132 -2.12132 
C 1.55874 -2.683901 0.795609 -3 0 -3 
C -0.795609 -3 -1.55874 -2.683901 -2.12132 -2.12132 
C -2.683901 -1.55874 -3 -0.795609 -3 0 
C -3 0.795609 -2.683901 1.55874 -2.12132 2.12132 
C -1.55874 2.683901 -0.795609 3 0 3 
z
" id="m4b176a5112" style="stroke:#2ca02c;"/>
    </defs>
    <g clip-path="url(#p00240cdfef)">
     <use style="fill:#2ca02c;stroke:#2ca02c;" x="103.457727" xlink:href="#m4b176a5112" y="218.075666"/>
     <use style="fill:#2ca02c;stroke:#2ca02c;" x="182.796364" xlink:href="#m4b176a5112" y="166.692552"/>
     <use style="fill:#2ca02c;stroke:#2ca02c;" x="262.135" xlink:href="#m4b176a5112" y="136.203502"/>
     <use style="fill:#2ca02c;stroke:#2ca02c;" x="341.473636" xlink:href="#m4b176a5112" y="113.521331"/>
     <use style="fill:#2ca02c;stroke:#2ca02c;" x="420.812273" xlink:href="#m4b176a5112" y="99.882843"/>
    </g>
   </g>
   <g id="line2d_14">
    <path clip-path="url(#p00240cdfef)" d="M 103.457727 203.024592 
L 182.796364 146.399211 
L 262.135 111.88761 
L 341.473636 95.247659 
L 420.812273 89.475788 
" style="fill:none;stroke:#d62728;stroke-linecap:square;stroke-width:1.5;"/>
    <defs>
     <path d="M 0 3 
C 0.795609 3 1.55874 2.683901 2.12132 2.12132 
C 2.683901 1.55874 3 0.795609 3 0 
C 3 -0.795609 2.683901 -1.55874 2.12132 -2.12132 
C 1.55874 -2.683901 0.795609 -3 0 -3 
C -0.795609 -3 -1.55874 -2.683901 -2.12132 -2.12132 
C -2.683901 -1.55874 -3 -0.795609 -3 0 
C -3 0.795609 -2.683901 1.55874 -2.12132 2.12132 
C -1.55874 2.683901 -0.795609 3 0 3 
z
" id="mc5f3803be8" style="stroke:#d62728;"/>
    </defs>
    <g clip-path="url(#p00240cdfef)">
     <use style="fill:#d62728;stroke:#d62728;" x="103.457727" xlink:href="#mc5f3803be8" y="203.024592"/>
     <use style="fill:#d62728;stroke:#d62728;" x="182.796364" xlink:href="#mc5f3803be8" y="146.399211"/>
     <use style="fill:#d62728;stroke:#d62728;" x="262.135" xlink:href="#mc5f3803be8" y="111.88761"/>
     <use style="fill:#d62728;stroke:#d62728;" x="341.473636" xlink:href="#mc5f3803be8" y="95.247659"/>
     <use style="fill:#d62728;stroke:#d62728;" x="420.812273" xlink:href="#mc5f3803be8" y="89.475788"/>
    </g>
   </g>
   <g id="line2d_15">
    <path clip-path="url(#p00240cdfef)" d="M 103.457727 224.160473 
L 182.796364 172.150703 
L 262.135 132.509751 
L 341.473636 105.891542 
L 420.812273 88.923548 
" style="fill:none;stroke:#9467bd;stroke-linecap:square;stroke-width:1.5;"/>
    <defs>
     <path d="M 0 3 
C 0.795609 3 1.55874 2.683901 2.12132 2.12132 
C 2.683901 1.55874 3 0.795609 3 0 
C 3 -0.795609 2.683901 -1.55874 2.12132 -2.12132 
C 1.55874 -2.683901 0.795609 -3 0 -3 
C -0.795609 -3 -1.55874 -2.683901 -2.12132 -2.12132 
C -2.683901 -1.55874 -3 -0.795609 -3 0 
C -3 0.795609 -2.683901 1.55874 -2.12132 2.12132 
C -1.55874 2.683901 -0.795609 3 0 3 
z
" id="m599db90927" style="stroke:#9467bd;"/>
    </defs>
    <g clip-path="url(#p00240cdfef)">
     <use style="fill:#9467bd;stroke:#9467bd;" x="103.457727" xlink:href="#m599db90927" y="224.160473"/>
     <use style="fill:#9467bd;stroke:#9467bd;" x="182.796364" xlink:href="#m599db90927" y="172.150703"/>
     <use style="fill:#9467bd;stroke:#9467bd;" x="262.135" xlink:href="#m599db90927" y="132.509751"/>
     <use style="fill:#9467bd;stroke:#9467bd;" x="341.473636" xlink:href="#m599db90927" y="105.891542"/>
     <use style="fill:#9467bd;stroke:#9467bd;" x="420.812273" xlink:href="#m599db90927" y="88.923548"/>
    </g>
   </g>
   <g id="line2d_16">
    <path clip-path="url(#p00240cdfef)" d="M 103.457727 214.733036 
L 182.796364 170.129302 
L 262.135 151.636681 
L 341.473636 126.751235 
L 420.812273 113.853928 
" style="fill:none;stroke:#8c564b;stroke-linecap:square;stroke-width:1.5;"/>
    <defs>
     <path d="M 0 3 
C 0.795609 3 1.55874 2.683901 2.12132 2.12132 
C 2.683901 1.55874 3 0.795609 3 0 
C 3 -0.795609 2.683901 -1.55874 2.12132 -2.12132 
C 1.55874 -2.683901 0.795609 -3 0 -3 
C -0.795609 -3 -1.55874 -2.683901 -2.12132 -2.12132 
C -2.683901 -1.55874 -3 -0.795609 -3 0 
C -3 0.795609 -2.683901 1.55874 -2.12132 2.12132 
C -1.55874 2.683901 -0.795609 3 0 3 
z
" id="m6bf952105c" style="stroke:#8c564b;"/>
    </defs>
    <g clip-path="url(#p00240cdfef)">
     <use style="fill:#8c564b;stroke:#8c564b;" x="103.457727" xlink:href="#m6bf952105c" y="214.733036"/>
     <use style="fill:#8c564b;stroke:#8c564b;" x="182.796364" xlink:href="#m6bf952105c" y="170.129302"/>
     <use style="fill:#8c564b;stroke:#8c564b;" x="262.135" xlink:href="#m6bf952105c" y="151.636681"/>
     <use style="fill:#8c564b;stroke:#8c564b;" x="341.473636" xlink:href="#m6bf952105c" y="126.751235"/>
     <use style="fill:#8c564b;stroke:#8c564b;" x="420.812273" xlink:href="#m6bf952105c" y="113.853928"/>
    </g>
   </g>
   <g id="line2d_17">
    <path clip-path="url(#p00240cdfef)" d="M 103.457727 226.695624 
L 182.796364 174.352067 
L 262.135 132.429886 
L 341.473636 97.845279 
L 420.812273 87.60543 
" style="fill:none;stroke:#e377c2;stroke-linecap:square;stroke-width:1.5;"/>
    <defs>
     <path d="M 0 3 
C 0.795609 3 1.55874 2.683901 2.12132 2.12132 
C 2.683901 1.55874 3 0.795609 3 0 
C 3 -0.795609 2.683901 -1.55874 2.12132 -2.12132 
C 1.55874 -2.683901 0.795609 -3 0 -3 
C -0.795609 -3 -1.55874 -2.683901 -2.12132 -2.12132 
C -2.683901 -1.55874 -3 -0.795609 -3 0 
C -3 0.795609 -2.683901 1.55874 -2.12132 2.12132 
C -1.55874 2.683901 -0.795609 3 0 3 
z
" id="m3274ecd73b" style="stroke:#e377c2;"/>
    </defs>
    <g clip-path="url(#p00240cdfef)">
     <use style="fill:#e377c2;stroke:#e377c2;" x="103.457727" xlink:href="#m3274ecd73b" y="226.695624"/>
     <use style="fill:#e377c2;stroke:#e377c2;" x="182.796364" xlink:href="#m3274ecd73b" y="174.352067"/>
     <use style="fill:#e377c2;stroke:#e377c2;" x="262.135" xlink:href="#m3274ecd73b" y="132.429886"/>
     <use style="fill:#e377c2;stroke:#e377c2;" x="341.473636" xlink:href="#m3274ecd73b" y="97.845279"/>
     <use style="fill:#e377c2;stroke:#e377c2;" x="420.812273" xlink:href="#m3274ecd73b" y="87.60543"/>
    </g>
   </g>
   <g id="line2d_18">
    <path clip-path="url(#p00240cdfef)" d="M 103.457727 230.438077 
L 182.796364 186.118805 
L 262.135 142.479304 
L 341.473636 107.957732 
L 420.812273 100.015036 
" style="fill:none;stroke:#7f7f7f;stroke-linecap:square;stroke-width:1.5;"/>
    <defs>
     <path d="M 0 3 
C 0.795609 3 1.55874 2.683901 2.12132 2.12132 
C 2.683901 1.55874 3 0.795609 3 0 
C 3 -0.795609 2.683901 -1.55874 2.12132 -2.12132 
C 1.55874 -2.683901 0.795609 -3 0 -3 
C -0.795609 -3 -1.55874 -2.683901 -2.12132 -2.12132 
C -2.683901 -1.55874 -3 -0.795609 -3 0 
C -3 0.795609 -2.683901 1.55874 -2.12132 2.12132 
C -1.55874 2.683901 -0.795609 3 0 3 
z
" id="me4c7a6ebf7" style="stroke:#7f7f7f;"/>
    </defs>
    <g clip-path="url(#p00240cdfef)">
     <use style="fill:#7f7f7f;stroke:#7f7f7f;" x="103.457727" xlink:href="#me4c7a6ebf7" y="230.438077"/>
     <use style="fill:#7f7f7f;stroke:#7f7f7f;" x="182.796364" xlink:href="#me4c7a6ebf7" y="186.118805"/>
     <use style="fill:#7f7f7f;stroke:#7f7f7f;" x="262.135" xlink:href="#me4c7a6ebf7" y="142.479304"/>
     <use style="fill:#7f7f7f;stroke:#7f7f7f;" x="341.473636" xlink:href="#me4c7a6ebf7" y="107.957732"/>
     <use style="fill:#7f7f7f;stroke:#7f7f7f;" x="420.812273" xlink:href="#me4c7a6ebf7" y="100.015036"/>
    </g>
   </g>
   <g id="line2d_19">
    <path clip-path="url(#p00240cdfef)" d="M 103.457727 218.709251 
L 182.796364 180.314425 
L 262.135 148.082916 
L 341.473636 109.374968 
L 420.812273 75.11573 
" style="fill:none;stroke:#bcbd22;stroke-linecap:square;stroke-width:1.5;"/>
    <defs>
     <path d="M 0 3 
C 0.795609 3 1.55874 2.683901 2.12132 2.12132 
C 2.683901 1.55874 3 0.795609 3 0 
C 3 -0.795609 2.683901 -1.55874 2.12132 -2.12132 
C 1.55874 -2.683901 0.795609 -3 0 -3 
C -0.795609 -3 -1.55874 -2.683901 -2.12132 -2.12132 
C -2.683901 -1.55874 -3 -0.795609 -3 0 
C -3 0.795609 -2.683901 1.55874 -2.12132 2.12132 
C -1.55874 2.683901 -0.795609 3 0 3 
z
" id="m56c04c6739" style="stroke:#bcbd22;"/>
    </defs>
    <g clip-path="url(#p00240cdfef)">
     <use style="fill:#bcbd22;stroke:#bcbd22;" x="103.457727" xlink:href="#m56c04c6739" y="218.709251"/>
     <use style="fill:#bcbd22;stroke:#bcbd22;" x="182.796364" xlink:href="#m56c04c6739" y="180.314425"/>
     <use style="fill:#bcbd22;stroke:#bcbd22;" x="262.135" xlink:href="#m56c04c6739" y="148.082916"/>
     <use style="fill:#bcbd22;stroke:#bcbd22;" x="341.473636" xlink:href="#m56c04c6739" y="109.374968"/>
     <use style="fill:#bcbd22;stroke:#bcbd22;" x="420.812273" xlink:href="#m56c04c6739" y="75.11573"/>
    </g>
   </g>
   <g id="line2d_20">
    <path clip-path="url(#p00240cdfef)" d="M 103.457727 230.292663 
L 182.796364 176.387681 
L 262.135 142.29542 
L 341.473636 114.839685 
L 420.812273 88.824998 
" style="fill:none;stroke:#17becf;stroke-linecap:square;stroke-width:1.5;"/>
    <defs>
     <path d="M 0 3 
C 0.795609 3 1.55874 2.683901 2.12132 2.12132 
C 2.683901 1.55874 3 0.795609 3 0 
C 3 -0.795609 2.683901 -1.55874 2.12132 -2.12132 
C 1.55874 -2.683901 0.795609 -3 0 -3 
C -0.795609 -3 -1.55874 -2.683901 -2.12132 -2.12132 
C -2.683901 -1.55874 -3 -0.795609 -3 0 
C -3 0.795609 -2.683901 1.55874 -2.12132 2.12132 
C -1.55874 2.683901 -0.795609 3 0 3 
z
" id="ma15deab6b5" style="stroke:#17becf;"/>
    </defs>
    <g clip-path="url(#p00240cdfef)">
     <use style="fill:#17becf;stroke:#17becf;" x="103.457727" xlink:href="#ma15deab6b5" y="230.292663"/>
     <use style="fill:#17becf;stroke:#17becf;" x="182.796364" xlink:href="#ma15deab6b5" y="176.387681"/>
     <use style="fill:#17becf;stroke:#17becf;" x="262.135" xlink:href="#ma15deab6b5" y="142.29542"/>
     <use style="fill:#17becf;stroke:#17becf;" x="341.473636" xlink:href="#ma15deab6b5" y="114.839685"/>
     <use style="fill:#17becf;stroke:#17becf;" x="420.812273" xlink:href="#ma15deab6b5" y="88.824998"/>
    </g>
   </g>
   <g id="line2d_21">
    <path clip-path="url(#p00240cdfef)" d="M 103.457727 226.274222 
L 182.796364 176.124349 
L 262.135 137.029609 
L 341.473636 112.839718 
L 420.812273 95.984316 
" style="fill:none;stroke:#1f77b4;stroke-linecap:square;stroke-width:1.5;"/>
    <g clip-path="url(#p00240cdfef)">
     <use style="fill:#1f77b4;stroke:#1f77b4;" x="103.457727" xlink:href="#md8e93a71fb" y="226.274222"/>
     <use style="fill:#1f77b4;stroke:#1f77b4;" x="182.796364" xlink:href="#md8e93a71fb" y="176.124349"/>
     <use style="fill:#1f77b4;stroke:#1f77b4;" x="262.135" xlink:href="#md8e93a71fb" y="137.029609"/>
     <use style="fill:#1f77b4;stroke:#1f77b4;" x="341.473636" xlink:href="#md8e93a71fb" y="112.839718"/>
     <use style="fill:#1f77b4;stroke:#1f77b4;" x="420.812273" xlink:href="#md8e93a71fb" y="95.984316"/>
    </g>
   </g>
   <g id="line2d_22">
    <path clip-path="url(#p00240cdfef)" d="M 103.457727 232.659716 
L 182.796364 183.240016 
L 262.135 142.520226 
L 341.473636 114.039822 
L 420.812273 89.13978 
" style="fill:none;stroke:#ff7f0e;stroke-linecap:square;stroke-width:1.5;"/>
    <g clip-path="url(#p00240cdfef)">
     <use style="fill:#ff7f0e;stroke:#ff7f0e;" x="103.457727" xlink:href="#m5a4133a9ef" y="232.659716"/>
     <use style="fill:#ff7f0e;stroke:#ff7f0e;" x="182.796364" xlink:href="#m5a4133a9ef" y="183.240016"/>
     <use style="fill:#ff7f0e;stroke:#ff7f0e;" x="262.135" xlink:href="#m5a4133a9ef" y="142.520226"/>
     <use style="fill:#ff7f0e;stroke:#ff7f0e;" x="341.473636" xlink:href="#m5a4133a9ef" y="114.039822"/>
     <use style="fill:#ff7f0e;stroke:#ff7f0e;" x="420.812273" xlink:href="#m5a4133a9ef" y="89.13978"/>
    </g>
   </g>
   <g id="line2d_23">
    <path clip-path="url(#p00240cdfef)" d="M 103.457727 223.164557 
L 182.796364 167.954756 
L 262.135 134.95691 
L 341.473636 109.632962 
L 420.812273 97.650484 
" style="fill:none;stroke:#2ca02c;stroke-linecap:square;stroke-width:1.5;"/>
    <g clip-path="url(#p00240cdfef)">
     <use style="fill:#2ca02c;stroke:#2ca02c;" x="103.457727" xlink:href="#m4b176a5112" y="223.164557"/>
     <use style="fill:#2ca02c;stroke:#2ca02c;" x="182.796364" xlink:href="#m4b176a5112" y="167.954756"/>
     <use style="fill:#2ca02c;stroke:#2ca02c;" x="262.135" xlink:href="#m4b176a5112" y="134.95691"/>
     <use style="fill:#2ca02c;stroke:#2ca02c;" x="341.473636" xlink:href="#m4b176a5112" y="109.632962"/>
     <use style="fill:#2ca02c;stroke:#2ca02c;" x="420.812273" xlink:href="#m4b176a5112" y="97.650484"/>
    </g>
   </g>
   <g id="line2d_24">
    <path clip-path="url(#p00240cdfef)" d="M 103.457727 204.266014 
L 182.796364 143.210945 
L 262.135 109.474228 
L 341.473636 93.696232 
L 420.812273 95.298336 
" style="fill:none;stroke:#d62728;stroke-linecap:square;stroke-width:1.5;"/>
    <g clip-path="url(#p00240cdfef)">
     <use style="fill:#d62728;stroke:#d62728;" x="103.457727" xlink:href="#mc5f3803be8" y="204.266014"/>
     <use style="fill:#d62728;stroke:#d62728;" x="182.796364" xlink:href="#mc5f3803be8" y="143.210945"/>
     <use style="fill:#d62728;stroke:#d62728;" x="262.135" xlink:href="#mc5f3803be8" y="109.474228"/>
     <use style="fill:#d62728;stroke:#d62728;" x="341.473636" xlink:href="#mc5f3803be8" y="93.696232"/>
     <use style="fill:#d62728;stroke:#d62728;" x="420.812273" xlink:href="#mc5f3803be8" y="95.298336"/>
    </g>
   </g>
   <g id="line2d_25">
    <path clip-path="url(#p00240cdfef)" d="M 103.457727 217.536927 
L 182.796364 172.910081 
L 262.135 131.139711 
L 341.473636 110.034547 
L 420.812273 96.024929 
" style="fill:none;stroke:#9467bd;stroke-linecap:square;stroke-width:1.5;"/>
    <g clip-path="url(#p00240cdfef)">
     <use style="fill:#9467bd;stroke:#9467bd;" x="103.457727" xlink:href="#m599db90927" y="217.536927"/>
     <use style="fill:#9467bd;stroke:#9467bd;" x="182.796364" xlink:href="#m599db90927" y="172.910081"/>
     <use style="fill:#9467bd;stroke:#9467bd;" x="262.135" xlink:href="#m599db90927" y="131.139711"/>
     <use style="fill:#9467bd;stroke:#9467bd;" x="341.473636" xlink:href="#m599db90927" y="110.034547"/>
     <use style="fill:#9467bd;stroke:#9467bd;" x="420.812273" xlink:href="#m599db90927" y="96.024929"/>
    </g>
   </g>
   <g id="line2d_26">
    <path clip-path="url(#p00240cdfef)" d="M 103.457727 218.046916 
L 182.796364 172.022753 
L 262.135 143.474983 
L 341.473636 111.331948 
L 420.812273 81.147775 
" style="fill:none;stroke:#8c564b;stroke-linecap:square;stroke-width:1.5;"/>
    <g clip-path="url(#p00240cdfef)">
     <use style="fill:#8c564b;stroke:#8c564b;" x="103.457727" xlink:href="#m6bf952105c" y="218.046916"/>
     <use style="fill:#8c564b;stroke:#8c564b;" x="182.796364" xlink:href="#m6bf952105c" y="172.022753"/>
     <use style="fill:#8c564b;stroke:#8c564b;" x="262.135" xlink:href="#m6bf952105c" y="143.474983"/>
     <use style="fill:#8c564b;stroke:#8c564b;" x="341.473636" xlink:href="#m6bf952105c" y="111.331948"/>
     <use style="fill:#8c564b;stroke:#8c564b;" x="420.812273" xlink:href="#m6bf952105c" y="81.147775"/>
    </g>
   </g>
   <g id="line2d_27">
    <path clip-path="url(#p00240cdfef)" d="M 103.457727 239.042148 
L 182.796364 177.608518 
L 262.135 126.259446 
L 341.473636 103.741141 
L 420.812273 93.480776 
" style="fill:none;stroke:#e377c2;stroke-linecap:square;stroke-width:1.5;"/>
    <g clip-path="url(#p00240cdfef)">
     <use style="fill:#e377c2;stroke:#e377c2;" x="103.457727" xlink:href="#m3274ecd73b" y="239.042148"/>
     <use style="fill:#e377c2;stroke:#e377c2;" x="182.796364" xlink:href="#m3274ecd73b" y="177.608518"/>
     <use style="fill:#e377c2;stroke:#e377c2;" x="262.135" xlink:href="#m3274ecd73b" y="126.259446"/>
     <use style="fill:#e377c2;stroke:#e377c2;" x="341.473636" xlink:href="#m3274ecd73b" y="103.741141"/>
     <use style="fill:#e377c2;stroke:#e377c2;" x="420.812273" xlink:href="#m3274ecd73b" y="93.480776"/>
    </g>
   </g>
   <g id="line2d_28">
    <path clip-path="url(#p00240cdfef)" d="M 103.457727 232.001598 
L 182.796364 183.03875 
L 262.135 135.752997 
L 341.473636 102.302488 
L 420.812273 86.198246 
" style="fill:none;stroke:#7f7f7f;stroke-linecap:square;stroke-width:1.5;"/>
    <g clip-path="url(#p00240cdfef)">
     <use style="fill:#7f7f7f;stroke:#7f7f7f;" x="103.457727" xlink:href="#me4c7a6ebf7" y="232.001598"/>
     <use style="fill:#7f7f7f;stroke:#7f7f7f;" x="182.796364" xlink:href="#me4c7a6ebf7" y="183.03875"/>
     <use style="fill:#7f7f7f;stroke:#7f7f7f;" x="262.135" xlink:href="#me4c7a6ebf7" y="135.752997"/>
     <use style="fill:#7f7f7f;stroke:#7f7f7f;" x="341.473636" xlink:href="#me4c7a6ebf7" y="102.302488"/>
     <use style="fill:#7f7f7f;stroke:#7f7f7f;" x="420.812273" xlink:href="#me4c7a6ebf7" y="86.198246"/>
    </g>
   </g>
   <g id="line2d_29">
    <path clip-path="url(#p00240cdfef)" d="M 103.457727 227.772678 
L 182.796364 172.516574 
L 262.135 138.758359 
L 341.473636 115.491464 
L 420.812273 86.387194 
" style="fill:none;stroke:#bcbd22;stroke-linecap:square;stroke-width:1.5;"/>
    <g clip-path="url(#p00240cdfef)">
     <use style="fill:#bcbd22;stroke:#bcbd22;" x="103.457727" xlink:href="#m56c04c6739" y="227.772678"/>
     <use style="fill:#bcbd22;stroke:#bcbd22;" x="182.796364" xlink:href="#m56c04c6739" y="172.516574"/>
     <use style="fill:#bcbd22;stroke:#bcbd22;" x="262.135" xlink:href="#m56c04c6739" y="138.758359"/>
     <use style="fill:#bcbd22;stroke:#bcbd22;" x="341.473636" xlink:href="#m56c04c6739" y="115.491464"/>
     <use style="fill:#bcbd22;stroke:#bcbd22;" x="420.812273" xlink:href="#m56c04c6739" y="86.387194"/>
    </g>
   </g>
   <g id="line2d_30">
    <path clip-path="url(#p00240cdfef)" d="M 103.457727 222.775901 
L 182.796364 159.722689 
L 262.135 125.749807 
L 341.473636 106.074062 
L 420.812273 105.713838 
" style="fill:none;stroke:#17becf;stroke-linecap:square;stroke-width:1.5;"/>
    <g clip-path="url(#p00240cdfef)">
     <use style="fill:#17becf;stroke:#17becf;" x="103.457727" xlink:href="#ma15deab6b5" y="222.775901"/>
     <use style="fill:#17becf;stroke:#17becf;" x="182.796364" xlink:href="#ma15deab6b5" y="159.722689"/>
     <use style="fill:#17becf;stroke:#17becf;" x="262.135" xlink:href="#ma15deab6b5" y="125.749807"/>
     <use style="fill:#17becf;stroke:#17becf;" x="341.473636" xlink:href="#ma15deab6b5" y="106.074062"/>
     <use style="fill:#17becf;stroke:#17becf;" x="420.812273" xlink:href="#ma15deab6b5" y="105.713838"/>
    </g>
   </g>
   <g id="line2d_31">
    <path clip-path="url(#p00240cdfef)" d="M 103.457727 210.636874 
L 182.796364 150.126633 
L 262.135 111.722583 
L 341.473636 104.551745 
L 420.812273 79.616593 
" style="fill:none;stroke:#1f77b4;stroke-linecap:square;stroke-width:1.5;"/>
    <g clip-path="url(#p00240cdfef)">
     <use style="fill:#1f77b4;stroke:#1f77b4;" x="103.457727" xlink:href="#md8e93a71fb" y="210.636874"/>
     <use style="fill:#1f77b4;stroke:#1f77b4;" x="182.796364" xlink:href="#md8e93a71fb" y="150.126633"/>
     <use style="fill:#1f77b4;stroke:#1f77b4;" x="262.135" xlink:href="#md8e93a71fb" y="111.722583"/>
     <use style="fill:#1f77b4;stroke:#1f77b4;" x="341.473636" xlink:href="#md8e93a71fb" y="104.551745"/>
     <use style="fill:#1f77b4;stroke:#1f77b4;" x="420.812273" xlink:href="#md8e93a71fb" y="79.616593"/>
    </g>
   </g>
   <g id="line2d_32">
    <path clip-path="url(#p00240cdfef)" d="M 103.457727 228.226169 
L 182.796364 176.381384 
L 262.135 143.093775 
L 341.473636 114.15902 
L 420.812273 83.807192 
" style="fill:none;stroke:#ff7f0e;stroke-linecap:square;stroke-width:1.5;"/>
    <g clip-path="url(#p00240cdfef)">
     <use style="fill:#ff7f0e;stroke:#ff7f0e;" x="103.457727" xlink:href="#m5a4133a9ef" y="228.226169"/>
     <use style="fill:#ff7f0e;stroke:#ff7f0e;" x="182.796364" xlink:href="#m5a4133a9ef" y="176.381384"/>
     <use style="fill:#ff7f0e;stroke:#ff7f0e;" x="262.135" xlink:href="#m5a4133a9ef" y="143.093775"/>
     <use style="fill:#ff7f0e;stroke:#ff7f0e;" x="341.473636" xlink:href="#m5a4133a9ef" y="114.15902"/>
     <use style="fill:#ff7f0e;stroke:#ff7f0e;" x="420.812273" xlink:href="#m5a4133a9ef" y="83.807192"/>
    </g>
   </g>
   <g id="line2d_33">
    <path clip-path="url(#p00240cdfef)" d="M 103.457727 213.541293 
L 182.796364 151.017901 
L 262.135 107.291413 
L 341.473636 94.407407 
L 420.812273 89.75699 
" style="fill:none;stroke:#2ca02c;stroke-linecap:square;stroke-width:1.5;"/>
    <g clip-path="url(#p00240cdfef)">
     <use style="fill:#2ca02c;stroke:#2ca02c;" x="103.457727" xlink:href="#m4b176a5112" y="213.541293"/>
     <use style="fill:#2ca02c;stroke:#2ca02c;" x="182.796364" xlink:href="#m4b176a5112" y="151.017901"/>
     <use style="fill:#2ca02c;stroke:#2ca02c;" x="262.135" xlink:href="#m4b176a5112" y="107.291413"/>
     <use style="fill:#2ca02c;stroke:#2ca02c;" x="341.473636" xlink:href="#m4b176a5112" y="94.407407"/>
     <use style="fill:#2ca02c;stroke:#2ca02c;" x="420.812273" xlink:href="#m4b176a5112" y="89.75699"/>
    </g>
   </g>
   <g id="patch_3">
    <path d="M 87.59 272.68 
L 87.59 24.12 
" style="fill:none;stroke:#000000;stroke-linecap:square;stroke-linejoin:miter;stroke-width:0.8;"/>
   </g>
   <g id="patch_4">
    <path d="M 436.68 272.68 
L 436.68 24.12 
" style="fill:none;stroke:#000000;stroke-linecap:square;stroke-linejoin:miter;stroke-width:0.8;"/>
   </g>
   <g id="patch_5">
    <path d="M 87.59 272.68 
L 436.68 272.68 
" style="fill:none;stroke:#000000;stroke-linecap:square;stroke-linejoin:miter;stroke-width:0.8;"/>
   </g>
   <g id="patch_6">
    <path d="M 87.59 24.12 
L 436.68 24.12 
" style="fill:none;stroke:#000000;stroke-linecap:square;stroke-linejoin:miter;stroke-width:0.8;"/>
   </g>
   <g id="text_13">
    <!-- $p=$5 -->
    <defs>
     <path d="M 49.609375 33.6875 
Q 49.609375 40.875 46.484375 44.671875 
Q 43.359375 48.484375 37.5 48.484375 
Q 33.5 48.484375 29.859375 46.4375 
Q 26.21875 44.390625 23.390625 40.484375 
Q 20.609375 36.625 18.9375 31.15625 
Q 17.28125 25.6875 17.28125 20.3125 
Q 17.28125 13.484375 20.40625 9.796875 
Q 23.53125 6.109375 29.296875 6.109375 
Q 33.546875 6.109375 37.1875 8.109375 
Q 40.828125 10.109375 43.40625 13.921875 
Q 46.1875 17.921875 47.890625 23.34375 
Q 49.609375 28.765625 49.609375 33.6875 
z
M 21.78125 46.390625 
Q 25.390625 51.125 30.296875 53.5625 
Q 35.203125 56 41.21875 56 
Q 49.609375 56 54.25 50.5 
Q 58.890625 45.015625 58.890625 35.109375 
Q 58.890625 27 56 19.65625 
Q 53.125 12.3125 47.703125 6.5 
Q 44.09375 2.640625 39.546875 0.609375 
Q 35.015625 -1.421875 29.984375 -1.421875 
Q 24.171875 -1.421875 20.21875 1 
Q 16.265625 3.421875 14.3125 8.203125 
L 8.6875 -20.796875 
L -0.296875 -20.796875 
L 14.40625 54.6875 
L 23.390625 54.6875 
z
" id="DejaVuSans-Oblique-112"/>
     <path d="M 10.59375 45.40625 
L 73.1875 45.40625 
L 73.1875 37.203125 
L 10.59375 37.203125 
z
M 10.59375 25.484375 
L 73.1875 25.484375 
L 73.1875 17.1875 
L 10.59375 17.1875 
z
" id="DejaVuSans-61"/>
    </defs>
    <g transform="translate(237.135 18.12)scale(0.2 -0.2)">
     <use transform="translate(0 0.09375)" xlink:href="#DejaVuSans-Oblique-112"/>
     <use transform="translate(82.958984 0.09375)" xlink:href="#DejaVuSans-61"/>
     <use transform="translate(186.230469 0.09375)" xlink:href="#DejaVuSans-53"/>
    </g>
   </g>
  </g>
 </g>
 <defs>
  <clipPath id="p00240cdfef">
   <rect height="248.56" width="349.09" x="87.59" y="24.12"/>
  </clipPath>
 </defs>
</svg>
