<?xml version="1.0" encoding="utf-8" standalone="no"?>
<!DOCTYPE svg PUBLIC "-//W3C//DTD SVG 1.1//EN"
  "http://www.w3.org/Graphics/SVG/1.1/DTD/svg11.dtd">
<!-- Created with matplotlib (https://matplotlib.org/) -->
<svg height="345.6pt" version="1.1" viewBox="0 0 460.8 345.6" width="460.8pt" xmlns="http://www.w3.org/2000/svg" xmlns:xlink="http://www.w3.org/1999/xlink">
 <defs>
  <style type="text/css">
*{stroke-linecap:butt;stroke-linejoin:round;}
  </style>
 </defs>
 <g id="figure_1">
  <g id="patch_1">
   <path d="M 0 345.6 
L 460.8 345.6 
L 460.8 0 
L 0 0 
z
" style="fill:#ffffff;"/>
  </g>
  <g id="axes_1">
   <g id="patch_2">
    <path d="M 87.59 272.68 
L 436.68 272.68 
L 436.68 24.12 
L 87.59 24.12 
z
" style="fill:#ffffff;"/>
   </g>
   <g id="matplotlib.axis_1">
    <g id="xtick_1">
     <g id="line2d_1">
      <defs>
       <path d="M 0 0 
L 0 3.5 
" id="m30ac853f62" style="stroke:#000000;stroke-width:0.8;"/>
      </defs>
      <g>
       <use style="stroke:#000000;stroke-width:0.8;" x="103.457727" xlink:href="#m30ac853f62" y="272.68"/>
      </g>
     </g>
     <g id="text_1">
      <!-- 1 -->
      <defs>
       <path d="M 12.40625 8.296875 
L 28.515625 8.296875 
L 28.515625 63.921875 
L 10.984375 60.40625 
L 10.984375 69.390625 
L 28.421875 72.90625 
L 38.28125 72.90625 
L 38.28125 8.296875 
L 54.390625 8.296875 
L 54.390625 0 
L 12.40625 0 
z
" id="DejaVuSans-49"/>
      </defs>
      <g transform="translate(97.095227 294.876875)scale(0.2 -0.2)">
       <use xlink:href="#DejaVuSans-49"/>
      </g>
     </g>
    </g>
    <g id="xtick_2">
     <g id="line2d_2">
      <g>
       <use style="stroke:#000000;stroke-width:0.8;" x="166.928636" xlink:href="#m30ac853f62" y="272.68"/>
      </g>
     </g>
     <g id="text_2">
      <!-- 2 -->
      <defs>
       <path d="M 19.1875 8.296875 
L 53.609375 8.296875 
L 53.609375 0 
L 7.328125 0 
L 7.328125 8.296875 
Q 12.9375 14.109375 22.625 23.890625 
Q 32.328125 33.6875 34.8125 36.53125 
Q 39.546875 41.84375 41.421875 45.53125 
Q 43.3125 49.21875 43.3125 52.78125 
Q 43.3125 58.59375 39.234375 62.25 
Q 35.15625 65.921875 28.609375 65.921875 
Q 23.96875 65.921875 18.8125 64.3125 
Q 13.671875 62.703125 7.8125 59.421875 
L 7.8125 69.390625 
Q 13.765625 71.78125 18.9375 73 
Q 24.125 74.21875 28.421875 74.21875 
Q 39.75 74.21875 46.484375 68.546875 
Q 53.21875 62.890625 53.21875 53.421875 
Q 53.21875 48.921875 51.53125 44.890625 
Q 49.859375 40.875 45.40625 35.40625 
Q 44.1875 33.984375 37.640625 27.21875 
Q 31.109375 20.453125 19.1875 8.296875 
z
" id="DejaVuSans-50"/>
      </defs>
      <g transform="translate(160.566136 294.876875)scale(0.2 -0.2)">
       <use xlink:href="#DejaVuSans-50"/>
      </g>
     </g>
    </g>
    <g id="xtick_3">
     <g id="line2d_3">
      <g>
       <use style="stroke:#000000;stroke-width:0.8;" x="230.399545" xlink:href="#m30ac853f62" y="272.68"/>
      </g>
     </g>
     <g id="text_3">
      <!-- 3 -->
      <defs>
       <path d="M 40.578125 39.3125 
Q 47.65625 37.796875 51.625 33 
Q 55.609375 28.21875 55.609375 21.1875 
Q 55.609375 10.40625 48.1875 4.484375 
Q 40.765625 -1.421875 27.09375 -1.421875 
Q 22.515625 -1.421875 17.65625 -0.515625 
Q 12.796875 0.390625 7.625 2.203125 
L 7.625 11.71875 
Q 11.71875 9.328125 16.59375 8.109375 
Q 21.484375 6.890625 26.8125 6.890625 
Q 36.078125 6.890625 40.9375 10.546875 
Q 45.796875 14.203125 45.796875 21.1875 
Q 45.796875 27.640625 41.28125 31.265625 
Q 36.765625 34.90625 28.71875 34.90625 
L 20.21875 34.90625 
L 20.21875 43.015625 
L 29.109375 43.015625 
Q 36.375 43.015625 40.234375 45.921875 
Q 44.09375 48.828125 44.09375 54.296875 
Q 44.09375 59.90625 40.109375 62.90625 
Q 36.140625 65.921875 28.71875 65.921875 
Q 24.65625 65.921875 20.015625 65.03125 
Q 15.375 64.15625 9.8125 62.3125 
L 9.8125 71.09375 
Q 15.4375 72.65625 20.34375 73.4375 
Q 25.25 74.21875 29.59375 74.21875 
Q 40.828125 74.21875 47.359375 69.109375 
Q 53.90625 64.015625 53.90625 55.328125 
Q 53.90625 49.265625 50.4375 45.09375 
Q 46.96875 40.921875 40.578125 39.3125 
z
" id="DejaVuSans-51"/>
      </defs>
      <g transform="translate(224.037045 294.876875)scale(0.2 -0.2)">
       <use xlink:href="#DejaVuSans-51"/>
      </g>
     </g>
    </g>
    <g id="xtick_4">
     <g id="line2d_4">
      <g>
       <use style="stroke:#000000;stroke-width:0.8;" x="293.870455" xlink:href="#m30ac853f62" y="272.68"/>
      </g>
     </g>
     <g id="text_4">
      <!-- 4 -->
      <defs>
       <path d="M 37.796875 64.3125 
L 12.890625 25.390625 
L 37.796875 25.390625 
z
M 35.203125 72.90625 
L 47.609375 72.90625 
L 47.609375 25.390625 
L 58.015625 25.390625 
L 58.015625 17.1875 
L 47.609375 17.1875 
L 47.609375 0 
L 37.796875 0 
L 37.796875 17.1875 
L 4.890625 17.1875 
L 4.890625 26.703125 
z
" id="DejaVuSans-52"/>
      </defs>
      <g transform="translate(287.507955 294.876875)scale(0.2 -0.2)">
       <use xlink:href="#DejaVuSans-52"/>
      </g>
     </g>
    </g>
    <g id="xtick_5">
     <g id="line2d_5">
      <g>
       <use style="stroke:#000000;stroke-width:0.8;" x="357.341364" xlink:href="#m30ac853f62" y="272.68"/>
      </g>
     </g>
     <g id="text_5">
      <!-- 5 -->
      <defs>
       <path d="M 10.796875 72.90625 
L 49.515625 72.90625 
L 49.515625 64.59375 
L 19.828125 64.59375 
L 19.828125 46.734375 
Q 21.96875 47.46875 24.109375 47.828125 
Q 26.265625 48.1875 28.421875 48.1875 
Q 40.625 48.1875 47.75 41.5 
Q 54.890625 34.8125 54.890625 23.390625 
Q 54.890625 11.625 47.5625 5.09375 
Q 40.234375 -1.421875 26.90625 -1.421875 
Q 22.3125 -1.421875 17.546875 -0.640625 
Q 12.796875 0.140625 7.71875 1.703125 
L 7.71875 11.625 
Q 12.109375 9.234375 16.796875 8.0625 
Q 21.484375 6.890625 26.703125 6.890625 
Q 35.15625 6.890625 40.078125 11.328125 
Q 45.015625 15.765625 45.015625 23.390625 
Q 45.015625 31 40.078125 35.4375 
Q 35.15625 39.890625 26.703125 39.890625 
Q 22.75 39.890625 18.8125 39.015625 
Q 14.890625 38.140625 10.796875 36.28125 
z
" id="DejaVuSans-53"/>
      </defs>
      <g transform="translate(350.978864 294.876875)scale(0.2 -0.2)">
       <use xlink:href="#DejaVuSans-53"/>
      </g>
     </g>
    </g>
    <g id="xtick_6">
     <g id="line2d_6">
      <g>
       <use style="stroke:#000000;stroke-width:0.8;" x="420.812273" xlink:href="#m30ac853f62" y="272.68"/>
      </g>
     </g>
     <g id="text_6">
      <!-- 6 -->
      <defs>
       <path d="M 33.015625 40.375 
Q 26.375 40.375 22.484375 35.828125 
Q 18.609375 31.296875 18.609375 23.390625 
Q 18.609375 15.53125 22.484375 10.953125 
Q 26.375 6.390625 33.015625 6.390625 
Q 39.65625 6.390625 43.53125 10.953125 
Q 47.40625 15.53125 47.40625 23.390625 
Q 47.40625 31.296875 43.53125 35.828125 
Q 39.65625 40.375 33.015625 40.375 
z
M 52.59375 71.296875 
L 52.59375 62.3125 
Q 48.875 64.0625 45.09375 64.984375 
Q 41.3125 65.921875 37.59375 65.921875 
Q 27.828125 65.921875 22.671875 59.328125 
Q 17.53125 52.734375 16.796875 39.40625 
Q 19.671875 43.65625 24.015625 45.921875 
Q 28.375 48.1875 33.59375 48.1875 
Q 44.578125 48.1875 50.953125 41.515625 
Q 57.328125 34.859375 57.328125 23.390625 
Q 57.328125 12.15625 50.6875 5.359375 
Q 44.046875 -1.421875 33.015625 -1.421875 
Q 20.359375 -1.421875 13.671875 8.265625 
Q 6.984375 17.96875 6.984375 36.375 
Q 6.984375 53.65625 15.1875 63.9375 
Q 23.390625 74.21875 37.203125 74.21875 
Q 40.921875 74.21875 44.703125 73.484375 
Q 48.484375 72.75 52.59375 71.296875 
z
" id="DejaVuSans-54"/>
      </defs>
      <g transform="translate(414.449773 294.876875)scale(0.2 -0.2)">
       <use xlink:href="#DejaVuSans-54"/>
      </g>
     </g>
    </g>
    <g id="text_7">
     <!-- $\gamma_i$ -->
     <defs>
      <path d="M 23.296875 46.09375 
L 28.71875 12.3125 
L 54 54.6875 
L 63.53125 54.6875 
L 30.8125 0 
L 26.765625 -20.796875 
L 17.78125 -20.796875 
L 21.828125 0 
L 15.4375 40.828125 
Q 14.453125 46.96875 9.8125 46.96875 
L 7.421875 46.96875 
L 8.890625 54.6875 
L 12.3125 54.6875 
Q 21.921875 54.6875 23.296875 46.09375 
z
" id="DejaVuSans-Oblique-947"/>
      <path d="M 18.3125 75.984375 
L 27.296875 75.984375 
L 25.09375 64.59375 
L 16.109375 64.59375 
z
M 14.203125 54.6875 
L 23.1875 54.6875 
L 12.5 0 
L 3.515625 0 
z
" id="DejaVuSans-Oblique-105"/>
     </defs>
     <g transform="translate(253.935 318.1925)scale(0.2 -0.2)">
      <use transform="translate(0 0.3125)" xlink:href="#DejaVuSans-Oblique-947"/>
      <use transform="translate(59.179688 -16.09375)scale(0.7)" xlink:href="#DejaVuSans-Oblique-105"/>
     </g>
    </g>
   </g>
   <g id="matplotlib.axis_2">
    <g id="ytick_1">
     <g id="line2d_7">
      <defs>
       <path d="M 0 0 
L -3.5 0 
" id="m89d40e021c" style="stroke:#000000;stroke-width:0.8;"/>
      </defs>
      <g>
       <use style="stroke:#000000;stroke-width:0.8;" x="87.59" xlink:href="#m89d40e021c" y="272.68"/>
      </g>
     </g>
     <g id="text_8">
      <!-- 0.0 -->
      <defs>
       <path d="M 31.78125 66.40625 
Q 24.171875 66.40625 20.328125 58.90625 
Q 16.5 51.421875 16.5 36.375 
Q 16.5 21.390625 20.328125 13.890625 
Q 24.171875 6.390625 31.78125 6.390625 
Q 39.453125 6.390625 43.28125 13.890625 
Q 47.125 21.390625 47.125 36.375 
Q 47.125 51.421875 43.28125 58.90625 
Q 39.453125 66.40625 31.78125 66.40625 
z
M 31.78125 74.21875 
Q 44.046875 74.21875 50.515625 64.515625 
Q 56.984375 54.828125 56.984375 36.375 
Q 56.984375 17.96875 50.515625 8.265625 
Q 44.046875 -1.421875 31.78125 -1.421875 
Q 19.53125 -1.421875 13.0625 8.265625 
Q 6.59375 17.96875 6.59375 36.375 
Q 6.59375 54.828125 13.0625 64.515625 
Q 19.53125 74.21875 31.78125 74.21875 
z
" id="DejaVuSans-48"/>
       <path d="M 10.6875 12.40625 
L 21 12.40625 
L 21 0 
L 10.6875 0 
z
" id="DejaVuSans-46"/>
      </defs>
      <g transform="translate(48.78375 280.278437)scale(0.2 -0.2)">
       <use xlink:href="#DejaVuSans-48"/>
       <use x="63.623047" xlink:href="#DejaVuSans-46"/>
       <use x="95.410156" xlink:href="#DejaVuSans-48"/>
      </g>
     </g>
    </g>
    <g id="ytick_2">
     <g id="line2d_8">
      <g>
       <use style="stroke:#000000;stroke-width:0.8;" x="87.59" xlink:href="#m89d40e021c" y="217.444444"/>
      </g>
     </g>
     <g id="text_9">
      <!-- 0.1 -->
      <g transform="translate(48.78375 225.042882)scale(0.2 -0.2)">
       <use xlink:href="#DejaVuSans-48"/>
       <use x="63.623047" xlink:href="#DejaVuSans-46"/>
       <use x="95.410156" xlink:href="#DejaVuSans-49"/>
      </g>
     </g>
    </g>
    <g id="ytick_3">
     <g id="line2d_9">
      <g>
       <use style="stroke:#000000;stroke-width:0.8;" x="87.59" xlink:href="#m89d40e021c" y="162.208889"/>
      </g>
     </g>
     <g id="text_10">
      <!-- 0.2 -->
      <g transform="translate(48.78375 169.807326)scale(0.2 -0.2)">
       <use xlink:href="#DejaVuSans-48"/>
       <use x="63.623047" xlink:href="#DejaVuSans-46"/>
       <use x="95.410156" xlink:href="#DejaVuSans-50"/>
      </g>
     </g>
    </g>
    <g id="ytick_4">
     <g id="line2d_10">
      <g>
       <use style="stroke:#000000;stroke-width:0.8;" x="87.59" xlink:href="#m89d40e021c" y="106.973333"/>
      </g>
     </g>
     <g id="text_11">
      <!-- 0.3 -->
      <g transform="translate(48.78375 114.571771)scale(0.2 -0.2)">
       <use xlink:href="#DejaVuSans-48"/>
       <use x="63.623047" xlink:href="#DejaVuSans-46"/>
       <use x="95.410156" xlink:href="#DejaVuSans-51"/>
      </g>
     </g>
    </g>
    <g id="ytick_5">
     <g id="line2d_11">
      <g>
       <use style="stroke:#000000;stroke-width:0.8;" x="87.59" xlink:href="#m89d40e021c" y="51.737778"/>
      </g>
     </g>
     <g id="text_12">
      <!-- 0.4 -->
      <g transform="translate(48.78375 59.336215)scale(0.2 -0.2)">
       <use xlink:href="#DejaVuSans-48"/>
       <use x="63.623047" xlink:href="#DejaVuSans-46"/>
       <use x="95.410156" xlink:href="#DejaVuSans-52"/>
      </g>
     </g>
    </g>
    <g id="text_13">
     <!-- Value of $\gamma_i$ -->
     <defs>
      <path d="M 28.609375 0 
L 0.78125 72.90625 
L 11.078125 72.90625 
L 34.1875 11.53125 
L 57.328125 72.90625 
L 67.578125 72.90625 
L 39.796875 0 
z
" id="DejaVuSans-86"/>
      <path d="M 34.28125 27.484375 
Q 23.390625 27.484375 19.1875 25 
Q 14.984375 22.515625 14.984375 16.5 
Q 14.984375 11.71875 18.140625 8.90625 
Q 21.296875 6.109375 26.703125 6.109375 
Q 34.1875 6.109375 38.703125 11.40625 
Q 43.21875 16.703125 43.21875 25.484375 
L 43.21875 27.484375 
z
M 52.203125 31.203125 
L 52.203125 0 
L 43.21875 0 
L 43.21875 8.296875 
Q 40.140625 3.328125 35.546875 0.953125 
Q 30.953125 -1.421875 24.3125 -1.421875 
Q 15.921875 -1.421875 10.953125 3.296875 
Q 6 8.015625 6 15.921875 
Q 6 25.140625 12.171875 29.828125 
Q 18.359375 34.515625 30.609375 34.515625 
L 43.21875 34.515625 
L 43.21875 35.40625 
Q 43.21875 41.609375 39.140625 45 
Q 35.0625 48.390625 27.6875 48.390625 
Q 23 48.390625 18.546875 47.265625 
Q 14.109375 46.140625 10.015625 43.890625 
L 10.015625 52.203125 
Q 14.9375 54.109375 19.578125 55.046875 
Q 24.21875 56 28.609375 56 
Q 40.484375 56 46.34375 49.84375 
Q 52.203125 43.703125 52.203125 31.203125 
z
" id="DejaVuSans-97"/>
      <path d="M 9.421875 75.984375 
L 18.40625 75.984375 
L 18.40625 0 
L 9.421875 0 
z
" id="DejaVuSans-108"/>
      <path d="M 8.5 21.578125 
L 8.5 54.6875 
L 17.484375 54.6875 
L 17.484375 21.921875 
Q 17.484375 14.15625 20.5 10.265625 
Q 23.53125 6.390625 29.59375 6.390625 
Q 36.859375 6.390625 41.078125 11.03125 
Q 45.3125 15.671875 45.3125 23.6875 
L 45.3125 54.6875 
L 54.296875 54.6875 
L 54.296875 0 
L 45.3125 0 
L 45.3125 8.40625 
Q 42.046875 3.421875 37.71875 1 
Q 33.40625 -1.421875 27.6875 -1.421875 
Q 18.265625 -1.421875 13.375 4.4375 
Q 8.5 10.296875 8.5 21.578125 
z
M 31.109375 56 
z
" id="DejaVuSans-117"/>
      <path d="M 56.203125 29.59375 
L 56.203125 25.203125 
L 14.890625 25.203125 
Q 15.484375 15.921875 20.484375 11.0625 
Q 25.484375 6.203125 34.421875 6.203125 
Q 39.59375 6.203125 44.453125 7.46875 
Q 49.3125 8.734375 54.109375 11.28125 
L 54.109375 2.78125 
Q 49.265625 0.734375 44.1875 -0.34375 
Q 39.109375 -1.421875 33.890625 -1.421875 
Q 20.796875 -1.421875 13.15625 6.1875 
Q 5.515625 13.8125 5.515625 26.8125 
Q 5.515625 40.234375 12.765625 48.109375 
Q 20.015625 56 32.328125 56 
Q 43.359375 56 49.78125 48.890625 
Q 56.203125 41.796875 56.203125 29.59375 
z
M 47.21875 32.234375 
Q 47.125 39.59375 43.09375 43.984375 
Q 39.0625 48.390625 32.421875 48.390625 
Q 24.90625 48.390625 20.390625 44.140625 
Q 15.875 39.890625 15.1875 32.171875 
z
" id="DejaVuSans-101"/>
      <path id="DejaVuSans-32"/>
      <path d="M 30.609375 48.390625 
Q 23.390625 48.390625 19.1875 42.75 
Q 14.984375 37.109375 14.984375 27.296875 
Q 14.984375 17.484375 19.15625 11.84375 
Q 23.34375 6.203125 30.609375 6.203125 
Q 37.796875 6.203125 41.984375 11.859375 
Q 46.1875 17.53125 46.1875 27.296875 
Q 46.1875 37.015625 41.984375 42.703125 
Q 37.796875 48.390625 30.609375 48.390625 
z
M 30.609375 56 
Q 42.328125 56 49.015625 48.375 
Q 55.71875 40.765625 55.71875 27.296875 
Q 55.71875 13.875 49.015625 6.21875 
Q 42.328125 -1.421875 30.609375 -1.421875 
Q 18.84375 -1.421875 12.171875 6.21875 
Q 5.515625 13.875 5.515625 27.296875 
Q 5.515625 40.765625 12.171875 48.375 
Q 18.84375 56 30.609375 56 
z
" id="DejaVuSans-111"/>
      <path d="M 37.109375 75.984375 
L 37.109375 68.5 
L 28.515625 68.5 
Q 23.6875 68.5 21.796875 66.546875 
Q 19.921875 64.59375 19.921875 59.515625 
L 19.921875 54.6875 
L 34.71875 54.6875 
L 34.71875 47.703125 
L 19.921875 47.703125 
L 19.921875 0 
L 10.890625 0 
L 10.890625 47.703125 
L 2.296875 47.703125 
L 2.296875 54.6875 
L 10.890625 54.6875 
L 10.890625 58.5 
Q 10.890625 67.625 15.140625 71.796875 
Q 19.390625 75.984375 28.609375 75.984375 
z
" id="DejaVuSans-102"/>
     </defs>
     <g transform="translate(40.58375 200.8)rotate(-90)scale(0.2 -0.2)">
      <use transform="translate(0 0.015625)" xlink:href="#DejaVuSans-86"/>
      <use transform="translate(68.408203 0.015625)" xlink:href="#DejaVuSans-97"/>
      <use transform="translate(129.6875 0.015625)" xlink:href="#DejaVuSans-108"/>
      <use transform="translate(157.470703 0.015625)" xlink:href="#DejaVuSans-117"/>
      <use transform="translate(220.849609 0.015625)" xlink:href="#DejaVuSans-101"/>
      <use transform="translate(282.373047 0.015625)" xlink:href="#DejaVuSans-32"/>
      <use transform="translate(314.160156 0.015625)" xlink:href="#DejaVuSans-111"/>
      <use transform="translate(375.341797 0.015625)" xlink:href="#DejaVuSans-102"/>
      <use transform="translate(410.546875 0.015625)" xlink:href="#DejaVuSans-32"/>
      <use transform="translate(442.333984 0.015625)" xlink:href="#DejaVuSans-Oblique-947"/>
      <use transform="translate(501.513672 -16.390625)scale(0.7)" xlink:href="#DejaVuSans-Oblique-105"/>
     </g>
    </g>
   </g>
   <g id="line2d_12">
    <path clip-path="url(#pdd2b83e035)" d="M 103.457727 231.236959 
L 166.928636 175.090715 
L 230.399545 141.059984 
L 293.870455 121.676812 
L 357.341364 87.916357 
L 420.812273 44.456093 
" style="fill:none;stroke:#1f77b4;stroke-linecap:square;stroke-width:1.5;"/>
    <defs>
     <path d="M 0 3 
C 0.795609 3 1.55874 2.683901 2.12132 2.12132 
C 2.683901 1.55874 3 0.795609 3 0 
C 3 -0.795609 2.683901 -1.55874 2.12132 -2.12132 
C 1.55874 -2.683901 0.795609 -3 0 -3 
C -0.795609 -3 -1.55874 -2.683901 -2.12132 -2.12132 
C -2.683901 -1.55874 -3 -0.795609 -3 0 
C -3 0.795609 -2.683901 1.55874 -2.12132 2.12132 
C -1.55874 2.683901 -0.795609 3 0 3 
z
" id="m83ee13ae54" style="stroke:#1f77b4;"/>
    </defs>
    <g clip-path="url(#pdd2b83e035)">
     <use style="fill:#1f77b4;stroke:#1f77b4;" x="103.457727" xlink:href="#m83ee13ae54" y="231.236959"/>
     <use style="fill:#1f77b4;stroke:#1f77b4;" x="166.928636" xlink:href="#m83ee13ae54" y="175.090715"/>
     <use style="fill:#1f77b4;stroke:#1f77b4;" x="230.399545" xlink:href="#m83ee13ae54" y="141.059984"/>
     <use style="fill:#1f77b4;stroke:#1f77b4;" x="293.870455" xlink:href="#m83ee13ae54" y="121.676812"/>
     <use style="fill:#1f77b4;stroke:#1f77b4;" x="357.341364" xlink:href="#m83ee13ae54" y="87.916357"/>
     <use style="fill:#1f77b4;stroke:#1f77b4;" x="420.812273" xlink:href="#m83ee13ae54" y="44.456093"/>
    </g>
   </g>
   <g id="line2d_13">
    <path clip-path="url(#pdd2b83e035)" d="M 103.457727 238.733608 
L 166.928636 193.38766 
L 230.399545 155.765712 
L 293.870455 126.766806 
L 357.341364 109.908808 
L 420.812273 102.813147 
" style="fill:none;stroke:#ff7f0e;stroke-linecap:square;stroke-width:1.5;"/>
    <defs>
     <path d="M 0 3 
C 0.795609 3 1.55874 2.683901 2.12132 2.12132 
C 2.683901 1.55874 3 0.795609 3 0 
C 3 -0.795609 2.683901 -1.55874 2.12132 -2.12132 
C 1.55874 -2.683901 0.795609 -3 0 -3 
C -0.795609 -3 -1.55874 -2.683901 -2.12132 -2.12132 
C -2.683901 -1.55874 -3 -0.795609 -3 0 
C -3 0.795609 -2.683901 1.55874 -2.12132 2.12132 
C -1.55874 2.683901 -0.795609 3 0 3 
z
" id="m68291b466e" style="stroke:#ff7f0e;"/>
    </defs>
    <g clip-path="url(#pdd2b83e035)">
     <use style="fill:#ff7f0e;stroke:#ff7f0e;" x="103.457727" xlink:href="#m68291b466e" y="238.733608"/>
     <use style="fill:#ff7f0e;stroke:#ff7f0e;" x="166.928636" xlink:href="#m68291b466e" y="193.38766"/>
     <use style="fill:#ff7f0e;stroke:#ff7f0e;" x="230.399545" xlink:href="#m68291b466e" y="155.765712"/>
     <use style="fill:#ff7f0e;stroke:#ff7f0e;" x="293.870455" xlink:href="#m68291b466e" y="126.766806"/>
     <use style="fill:#ff7f0e;stroke:#ff7f0e;" x="357.341364" xlink:href="#m68291b466e" y="109.908808"/>
     <use style="fill:#ff7f0e;stroke:#ff7f0e;" x="420.812273" xlink:href="#m68291b466e" y="102.813147"/>
    </g>
   </g>
   <g id="line2d_14">
    <path clip-path="url(#pdd2b83e035)" d="M 103.457727 238.857481 
L 166.928636 193.59458 
L 230.399545 155.947382 
L 293.870455 126.857026 
L 357.341364 109.889107 
L 420.812273 102.582588 
" style="fill:none;stroke:#2ca02c;stroke-linecap:square;stroke-width:1.5;"/>
    <defs>
     <path d="M 0 3 
C 0.795609 3 1.55874 2.683901 2.12132 2.12132 
C 2.683901 1.55874 3 0.795609 3 0 
C 3 -0.795609 2.683901 -1.55874 2.12132 -2.12132 
C 1.55874 -2.683901 0.795609 -3 0 -3 
C -0.795609 -3 -1.55874 -2.683901 -2.12132 -2.12132 
C -2.683901 -1.55874 -3 -0.795609 -3 0 
C -3 0.795609 -2.683901 1.55874 -2.12132 2.12132 
C -1.55874 2.683901 -0.795609 3 0 3 
z
" id="me2474525f4" style="stroke:#2ca02c;"/>
    </defs>
    <g clip-path="url(#pdd2b83e035)">
     <use style="fill:#2ca02c;stroke:#2ca02c;" x="103.457727" xlink:href="#me2474525f4" y="238.857481"/>
     <use style="fill:#2ca02c;stroke:#2ca02c;" x="166.928636" xlink:href="#me2474525f4" y="193.59458"/>
     <use style="fill:#2ca02c;stroke:#2ca02c;" x="230.399545" xlink:href="#me2474525f4" y="155.947382"/>
     <use style="fill:#2ca02c;stroke:#2ca02c;" x="293.870455" xlink:href="#me2474525f4" y="126.857026"/>
     <use style="fill:#2ca02c;stroke:#2ca02c;" x="357.341364" xlink:href="#me2474525f4" y="109.889107"/>
     <use style="fill:#2ca02c;stroke:#2ca02c;" x="420.812273" xlink:href="#me2474525f4" y="102.582588"/>
    </g>
   </g>
   <g id="line2d_15">
    <path clip-path="url(#pdd2b83e035)" d="M 103.457727 229.474407 
L 166.928636 175.487601 
L 230.399545 145.473386 
L 293.870455 120.698208 
L 357.341364 105.770867 
L 420.812273 86.765153 
" style="fill:none;stroke:#d62728;stroke-linecap:square;stroke-width:1.5;"/>
    <defs>
     <path d="M 0 3 
C 0.795609 3 1.55874 2.683901 2.12132 2.12132 
C 2.683901 1.55874 3 0.795609 3 0 
C 3 -0.795609 2.683901 -1.55874 2.12132 -2.12132 
C 1.55874 -2.683901 0.795609 -3 0 -3 
C -0.795609 -3 -1.55874 -2.683901 -2.12132 -2.12132 
C -2.683901 -1.55874 -3 -0.795609 -3 0 
C -3 0.795609 -2.683901 1.55874 -2.12132 2.12132 
C -1.55874 2.683901 -0.795609 3 0 3 
z
" id="me86b96f86c" style="stroke:#d62728;"/>
    </defs>
    <g clip-path="url(#pdd2b83e035)">
     <use style="fill:#d62728;stroke:#d62728;" x="103.457727" xlink:href="#me86b96f86c" y="229.474407"/>
     <use style="fill:#d62728;stroke:#d62728;" x="166.928636" xlink:href="#me86b96f86c" y="175.487601"/>
     <use style="fill:#d62728;stroke:#d62728;" x="230.399545" xlink:href="#me86b96f86c" y="145.473386"/>
     <use style="fill:#d62728;stroke:#d62728;" x="293.870455" xlink:href="#me86b96f86c" y="120.698208"/>
     <use style="fill:#d62728;stroke:#d62728;" x="357.341364" xlink:href="#me86b96f86c" y="105.770867"/>
     <use style="fill:#d62728;stroke:#d62728;" x="420.812273" xlink:href="#me86b96f86c" y="86.765153"/>
    </g>
   </g>
   <g id="line2d_16">
    <path clip-path="url(#pdd2b83e035)" d="M 103.457727 224.058205 
L 166.928636 159.608289 
L 230.399545 130.138969 
L 293.870455 101.306386 
L 357.341364 93.246047 
L 420.812273 85.322911 
" style="fill:none;stroke:#9467bd;stroke-linecap:square;stroke-width:1.5;"/>
    <defs>
     <path d="M 0 3 
C 0.795609 3 1.55874 2.683901 2.12132 2.12132 
C 2.683901 1.55874 3 0.795609 3 0 
C 3 -0.795609 2.683901 -1.55874 2.12132 -2.12132 
C 1.55874 -2.683901 0.795609 -3 0 -3 
C -0.795609 -3 -1.55874 -2.683901 -2.12132 -2.12132 
C -2.683901 -1.55874 -3 -0.795609 -3 0 
C -3 0.795609 -2.683901 1.55874 -2.12132 2.12132 
C -1.55874 2.683901 -0.795609 3 0 3 
z
" id="m20f694ad1a" style="stroke:#9467bd;"/>
    </defs>
    <g clip-path="url(#pdd2b83e035)">
     <use style="fill:#9467bd;stroke:#9467bd;" x="103.457727" xlink:href="#m20f694ad1a" y="224.058205"/>
     <use style="fill:#9467bd;stroke:#9467bd;" x="166.928636" xlink:href="#m20f694ad1a" y="159.608289"/>
     <use style="fill:#9467bd;stroke:#9467bd;" x="230.399545" xlink:href="#m20f694ad1a" y="130.138969"/>
     <use style="fill:#9467bd;stroke:#9467bd;" x="293.870455" xlink:href="#m20f694ad1a" y="101.306386"/>
     <use style="fill:#9467bd;stroke:#9467bd;" x="357.341364" xlink:href="#m20f694ad1a" y="93.246047"/>
     <use style="fill:#9467bd;stroke:#9467bd;" x="420.812273" xlink:href="#m20f694ad1a" y="85.322911"/>
    </g>
   </g>
   <g id="line2d_17">
    <path clip-path="url(#pdd2b83e035)" d="M 103.457727 236.135005 
L 166.928636 181.127134 
L 230.399545 148.279886 
L 293.870455 116.127596 
L 357.341364 94.379459 
L 420.812273 71.374554 
" style="fill:none;stroke:#8c564b;stroke-linecap:square;stroke-width:1.5;"/>
    <defs>
     <path d="M 0 3 
C 0.795609 3 1.55874 2.683901 2.12132 2.12132 
C 2.683901 1.55874 3 0.795609 3 0 
C 3 -0.795609 2.683901 -1.55874 2.12132 -2.12132 
C 1.55874 -2.683901 0.795609 -3 0 -3 
C -0.795609 -3 -1.55874 -2.683901 -2.12132 -2.12132 
C -2.683901 -1.55874 -3 -0.795609 -3 0 
C -3 0.795609 -2.683901 1.55874 -2.12132 2.12132 
C -1.55874 2.683901 -0.795609 3 0 3 
z
" id="m5f61e992a1" style="stroke:#8c564b;"/>
    </defs>
    <g clip-path="url(#pdd2b83e035)">
     <use style="fill:#8c564b;stroke:#8c564b;" x="103.457727" xlink:href="#m5f61e992a1" y="236.135005"/>
     <use style="fill:#8c564b;stroke:#8c564b;" x="166.928636" xlink:href="#m5f61e992a1" y="181.127134"/>
     <use style="fill:#8c564b;stroke:#8c564b;" x="230.399545" xlink:href="#m5f61e992a1" y="148.279886"/>
     <use style="fill:#8c564b;stroke:#8c564b;" x="293.870455" xlink:href="#m5f61e992a1" y="116.127596"/>
     <use style="fill:#8c564b;stroke:#8c564b;" x="357.341364" xlink:href="#m5f61e992a1" y="94.379459"/>
     <use style="fill:#8c564b;stroke:#8c564b;" x="420.812273" xlink:href="#m5f61e992a1" y="71.374554"/>
    </g>
   </g>
   <g id="line2d_18">
    <path clip-path="url(#pdd2b83e035)" d="M 103.457727 228.03581 
L 166.928636 179.129015 
L 230.399545 155.846877 
L 293.870455 142.8147 
L 357.341364 122.377103 
L 420.812273 109.456468 
" style="fill:none;stroke:#e377c2;stroke-linecap:square;stroke-width:1.5;"/>
    <defs>
     <path d="M 0 3 
C 0.795609 3 1.55874 2.683901 2.12132 2.12132 
C 2.683901 1.55874 3 0.795609 3 0 
C 3 -0.795609 2.683901 -1.55874 2.12132 -2.12132 
C 1.55874 -2.683901 0.795609 -3 0 -3 
C -0.795609 -3 -1.55874 -2.683901 -2.12132 -2.12132 
C -2.683901 -1.55874 -3 -0.795609 -3 0 
C -3 0.795609 -2.683901 1.55874 -2.12132 2.12132 
C -1.55874 2.683901 -0.795609 3 0 3 
z
" id="m90f452dd82" style="stroke:#e377c2;"/>
    </defs>
    <g clip-path="url(#pdd2b83e035)">
     <use style="fill:#e377c2;stroke:#e377c2;" x="103.457727" xlink:href="#m90f452dd82" y="228.03581"/>
     <use style="fill:#e377c2;stroke:#e377c2;" x="166.928636" xlink:href="#m90f452dd82" y="179.129015"/>
     <use style="fill:#e377c2;stroke:#e377c2;" x="230.399545" xlink:href="#m90f452dd82" y="155.846877"/>
     <use style="fill:#e377c2;stroke:#e377c2;" x="293.870455" xlink:href="#m90f452dd82" y="142.8147"/>
     <use style="fill:#e377c2;stroke:#e377c2;" x="357.341364" xlink:href="#m90f452dd82" y="122.377103"/>
     <use style="fill:#e377c2;stroke:#e377c2;" x="420.812273" xlink:href="#m90f452dd82" y="109.456468"/>
    </g>
   </g>
   <g id="line2d_19">
    <path clip-path="url(#pdd2b83e035)" d="M 103.457727 234.766237 
L 166.928636 182.613908 
L 230.399545 148.392685 
L 293.870455 112.279283 
L 357.341364 87.611745 
L 420.812273 75.161065 
" style="fill:none;stroke:#7f7f7f;stroke-linecap:square;stroke-width:1.5;"/>
    <defs>
     <path d="M 0 3 
C 0.795609 3 1.55874 2.683901 2.12132 2.12132 
C 2.683901 1.55874 3 0.795609 3 0 
C 3 -0.795609 2.683901 -1.55874 2.12132 -2.12132 
C 1.55874 -2.683901 0.795609 -3 0 -3 
C -0.795609 -3 -1.55874 -2.683901 -2.12132 -2.12132 
C -2.683901 -1.55874 -3 -0.795609 -3 0 
C -3 0.795609 -2.683901 1.55874 -2.12132 2.12132 
C -1.55874 2.683901 -0.795609 3 0 3 
z
" id="m0d865aa23c" style="stroke:#7f7f7f;"/>
    </defs>
    <g clip-path="url(#pdd2b83e035)">
     <use style="fill:#7f7f7f;stroke:#7f7f7f;" x="103.457727" xlink:href="#m0d865aa23c" y="234.766237"/>
     <use style="fill:#7f7f7f;stroke:#7f7f7f;" x="166.928636" xlink:href="#m0d865aa23c" y="182.613908"/>
     <use style="fill:#7f7f7f;stroke:#7f7f7f;" x="230.399545" xlink:href="#m0d865aa23c" y="148.392685"/>
     <use style="fill:#7f7f7f;stroke:#7f7f7f;" x="293.870455" xlink:href="#m0d865aa23c" y="112.279283"/>
     <use style="fill:#7f7f7f;stroke:#7f7f7f;" x="357.341364" xlink:href="#m0d865aa23c" y="87.611745"/>
     <use style="fill:#7f7f7f;stroke:#7f7f7f;" x="420.812273" xlink:href="#m0d865aa23c" y="75.161065"/>
    </g>
   </g>
   <g id="line2d_20">
    <path clip-path="url(#pdd2b83e035)" d="M 103.457727 238.127423 
L 166.928636 193.841201 
L 230.399545 159.141238 
L 293.870455 121.750452 
L 357.341364 98.64461 
L 420.812273 87.587152 
" style="fill:none;stroke:#bcbd22;stroke-linecap:square;stroke-width:1.5;"/>
    <defs>
     <path d="M 0 3 
C 0.795609 3 1.55874 2.683901 2.12132 2.12132 
C 2.683901 1.55874 3 0.795609 3 0 
C 3 -0.795609 2.683901 -1.55874 2.12132 -2.12132 
C 1.55874 -2.683901 0.795609 -3 0 -3 
C -0.795609 -3 -1.55874 -2.683901 -2.12132 -2.12132 
C -2.683901 -1.55874 -3 -0.795609 -3 0 
C -3 0.795609 -2.683901 1.55874 -2.12132 2.12132 
C -1.55874 2.683901 -0.795609 3 0 3 
z
" id="me3c1403fa9" style="stroke:#bcbd22;"/>
    </defs>
    <g clip-path="url(#pdd2b83e035)">
     <use style="fill:#bcbd22;stroke:#bcbd22;" x="103.457727" xlink:href="#me3c1403fa9" y="238.127423"/>
     <use style="fill:#bcbd22;stroke:#bcbd22;" x="166.928636" xlink:href="#me3c1403fa9" y="193.841201"/>
     <use style="fill:#bcbd22;stroke:#bcbd22;" x="230.399545" xlink:href="#me3c1403fa9" y="159.141238"/>
     <use style="fill:#bcbd22;stroke:#bcbd22;" x="293.870455" xlink:href="#me3c1403fa9" y="121.750452"/>
     <use style="fill:#bcbd22;stroke:#bcbd22;" x="357.341364" xlink:href="#me3c1403fa9" y="98.64461"/>
     <use style="fill:#bcbd22;stroke:#bcbd22;" x="420.812273" xlink:href="#me3c1403fa9" y="87.587152"/>
    </g>
   </g>
   <g id="line2d_21">
    <path clip-path="url(#pdd2b83e035)" d="M 103.457727 233.933221 
L 166.928636 189.983899 
L 230.399545 159.822268 
L 293.870455 142.558275 
L 357.341364 111.288995 
L 420.812273 93.999627 
" style="fill:none;stroke:#17becf;stroke-linecap:square;stroke-width:1.5;"/>
    <defs>
     <path d="M 0 3 
C 0.795609 3 1.55874 2.683901 2.12132 2.12132 
C 2.683901 1.55874 3 0.795609 3 0 
C 3 -0.795609 2.683901 -1.55874 2.12132 -2.12132 
C 1.55874 -2.683901 0.795609 -3 0 -3 
C -0.795609 -3 -1.55874 -2.683901 -2.12132 -2.12132 
C -2.683901 -1.55874 -3 -0.795609 -3 0 
C -3 0.795609 -2.683901 1.55874 -2.12132 2.12132 
C -1.55874 2.683901 -0.795609 3 0 3 
z
" id="m005642a3ab" style="stroke:#17becf;"/>
    </defs>
    <g clip-path="url(#pdd2b83e035)">
     <use style="fill:#17becf;stroke:#17becf;" x="103.457727" xlink:href="#m005642a3ab" y="233.933221"/>
     <use style="fill:#17becf;stroke:#17becf;" x="166.928636" xlink:href="#m005642a3ab" y="189.983899"/>
     <use style="fill:#17becf;stroke:#17becf;" x="230.399545" xlink:href="#m005642a3ab" y="159.822268"/>
     <use style="fill:#17becf;stroke:#17becf;" x="293.870455" xlink:href="#m005642a3ab" y="142.558275"/>
     <use style="fill:#17becf;stroke:#17becf;" x="357.341364" xlink:href="#m005642a3ab" y="111.288995"/>
     <use style="fill:#17becf;stroke:#17becf;" x="420.812273" xlink:href="#m005642a3ab" y="93.999627"/>
    </g>
   </g>
   <g id="line2d_22">
    <path clip-path="url(#pdd2b83e035)" d="M 103.457727 239.689651 
L 166.928636 191.655189 
L 230.399545 154.955587 
L 293.870455 130.03169 
L 357.341364 116.173631 
L 420.812273 92.728304 
" style="fill:none;stroke:#1f77b4;stroke-linecap:square;stroke-width:1.5;"/>
    <g clip-path="url(#pdd2b83e035)">
     <use style="fill:#1f77b4;stroke:#1f77b4;" x="103.457727" xlink:href="#m83ee13ae54" y="239.689651"/>
     <use style="fill:#1f77b4;stroke:#1f77b4;" x="166.928636" xlink:href="#m83ee13ae54" y="191.655189"/>
     <use style="fill:#1f77b4;stroke:#1f77b4;" x="230.399545" xlink:href="#m83ee13ae54" y="154.955587"/>
     <use style="fill:#1f77b4;stroke:#1f77b4;" x="293.870455" xlink:href="#m83ee13ae54" y="130.03169"/>
     <use style="fill:#1f77b4;stroke:#1f77b4;" x="357.341364" xlink:href="#m83ee13ae54" y="116.173631"/>
     <use style="fill:#1f77b4;stroke:#1f77b4;" x="420.812273" xlink:href="#m83ee13ae54" y="92.728304"/>
    </g>
   </g>
   <g id="line2d_23">
    <path clip-path="url(#pdd2b83e035)" d="M 103.457727 227.562948 
L 166.928636 180.002817 
L 230.399545 150.246615 
L 293.870455 114.710263 
L 357.341364 99.641836 
L 420.812273 77.77275 
" style="fill:none;stroke:#ff7f0e;stroke-linecap:square;stroke-width:1.5;"/>
    <g clip-path="url(#pdd2b83e035)">
     <use style="fill:#ff7f0e;stroke:#ff7f0e;" x="103.457727" xlink:href="#m68291b466e" y="227.562948"/>
     <use style="fill:#ff7f0e;stroke:#ff7f0e;" x="166.928636" xlink:href="#m68291b466e" y="180.002817"/>
     <use style="fill:#ff7f0e;stroke:#ff7f0e;" x="230.399545" xlink:href="#m68291b466e" y="150.246615"/>
     <use style="fill:#ff7f0e;stroke:#ff7f0e;" x="293.870455" xlink:href="#m68291b466e" y="114.710263"/>
     <use style="fill:#ff7f0e;stroke:#ff7f0e;" x="357.341364" xlink:href="#m68291b466e" y="99.641836"/>
     <use style="fill:#ff7f0e;stroke:#ff7f0e;" x="420.812273" xlink:href="#m68291b466e" y="77.77275"/>
    </g>
   </g>
   <g id="line2d_24">
    <path clip-path="url(#pdd2b83e035)" d="M 103.457727 250.804812 
L 166.928636 204.866374 
L 230.399545 163.944898 
L 293.870455 130.193846 
L 357.341364 105.422902 
L 420.812273 85.609817 
" style="fill:none;stroke:#2ca02c;stroke-linecap:square;stroke-width:1.5;"/>
    <g clip-path="url(#pdd2b83e035)">
     <use style="fill:#2ca02c;stroke:#2ca02c;" x="103.457727" xlink:href="#me2474525f4" y="250.804812"/>
     <use style="fill:#2ca02c;stroke:#2ca02c;" x="166.928636" xlink:href="#me2474525f4" y="204.866374"/>
     <use style="fill:#2ca02c;stroke:#2ca02c;" x="230.399545" xlink:href="#me2474525f4" y="163.944898"/>
     <use style="fill:#2ca02c;stroke:#2ca02c;" x="293.870455" xlink:href="#me2474525f4" y="130.193846"/>
     <use style="fill:#2ca02c;stroke:#2ca02c;" x="357.341364" xlink:href="#me2474525f4" y="105.422902"/>
     <use style="fill:#2ca02c;stroke:#2ca02c;" x="420.812273" xlink:href="#me2474525f4" y="85.609817"/>
    </g>
   </g>
   <g id="line2d_25">
    <path clip-path="url(#pdd2b83e035)" d="M 103.457727 250.711958 
L 166.928636 204.750976 
L 230.399545 163.875967 
L 293.870455 130.115524 
L 357.341364 105.332103 
L 420.812273 85.541998 
" style="fill:none;stroke:#d62728;stroke-linecap:square;stroke-width:1.5;"/>
    <g clip-path="url(#pdd2b83e035)">
     <use style="fill:#d62728;stroke:#d62728;" x="103.457727" xlink:href="#me86b96f86c" y="250.711958"/>
     <use style="fill:#d62728;stroke:#d62728;" x="166.928636" xlink:href="#me86b96f86c" y="204.750976"/>
     <use style="fill:#d62728;stroke:#d62728;" x="230.399545" xlink:href="#me86b96f86c" y="163.875967"/>
     <use style="fill:#d62728;stroke:#d62728;" x="293.870455" xlink:href="#me86b96f86c" y="130.115524"/>
     <use style="fill:#d62728;stroke:#d62728;" x="357.341364" xlink:href="#me86b96f86c" y="105.332103"/>
     <use style="fill:#d62728;stroke:#d62728;" x="420.812273" xlink:href="#me86b96f86c" y="85.541998"/>
    </g>
   </g>
   <g id="line2d_26">
    <path clip-path="url(#pdd2b83e035)" d="M 103.457727 250.869736 
L 166.928636 204.940351 
L 230.399545 164.014411 
L 293.870455 130.33971 
L 357.341364 105.565662 
L 420.812273 85.733096 
" style="fill:none;stroke:#9467bd;stroke-linecap:square;stroke-width:1.5;"/>
    <g clip-path="url(#pdd2b83e035)">
     <use style="fill:#9467bd;stroke:#9467bd;" x="103.457727" xlink:href="#m20f694ad1a" y="250.869736"/>
     <use style="fill:#9467bd;stroke:#9467bd;" x="166.928636" xlink:href="#m20f694ad1a" y="204.940351"/>
     <use style="fill:#9467bd;stroke:#9467bd;" x="230.399545" xlink:href="#m20f694ad1a" y="164.014411"/>
     <use style="fill:#9467bd;stroke:#9467bd;" x="293.870455" xlink:href="#m20f694ad1a" y="130.33971"/>
     <use style="fill:#9467bd;stroke:#9467bd;" x="357.341364" xlink:href="#m20f694ad1a" y="105.565662"/>
     <use style="fill:#9467bd;stroke:#9467bd;" x="420.812273" xlink:href="#m20f694ad1a" y="85.733096"/>
    </g>
   </g>
   <g id="line2d_27">
    <path clip-path="url(#pdd2b83e035)" d="M 103.457727 236.019827 
L 166.928636 183.215352 
L 230.399545 151.114587 
L 293.870455 125.373895 
L 357.341364 108.524586 
L 420.812273 98.830255 
" style="fill:none;stroke:#8c564b;stroke-linecap:square;stroke-width:1.5;"/>
    <g clip-path="url(#pdd2b83e035)">
     <use style="fill:#8c564b;stroke:#8c564b;" x="103.457727" xlink:href="#m5f61e992a1" y="236.019827"/>
     <use style="fill:#8c564b;stroke:#8c564b;" x="166.928636" xlink:href="#m5f61e992a1" y="183.215352"/>
     <use style="fill:#8c564b;stroke:#8c564b;" x="230.399545" xlink:href="#m5f61e992a1" y="151.114587"/>
     <use style="fill:#8c564b;stroke:#8c564b;" x="293.870455" xlink:href="#m5f61e992a1" y="125.373895"/>
     <use style="fill:#8c564b;stroke:#8c564b;" x="357.341364" xlink:href="#m5f61e992a1" y="108.524586"/>
     <use style="fill:#8c564b;stroke:#8c564b;" x="420.812273" xlink:href="#m5f61e992a1" y="98.830255"/>
    </g>
   </g>
   <g id="line2d_28">
    <path clip-path="url(#pdd2b83e035)" d="M 103.457727 215.525865 
L 166.928636 158.723869 
L 230.399545 120.458261 
L 293.870455 105.856693 
L 357.341364 100.37303 
L 420.812273 103.416499 
" style="fill:none;stroke:#e377c2;stroke-linecap:square;stroke-width:1.5;"/>
    <g clip-path="url(#pdd2b83e035)">
     <use style="fill:#e377c2;stroke:#e377c2;" x="103.457727" xlink:href="#m90f452dd82" y="215.525865"/>
     <use style="fill:#e377c2;stroke:#e377c2;" x="166.928636" xlink:href="#m90f452dd82" y="158.723869"/>
     <use style="fill:#e377c2;stroke:#e377c2;" x="230.399545" xlink:href="#m90f452dd82" y="120.458261"/>
     <use style="fill:#e377c2;stroke:#e377c2;" x="293.870455" xlink:href="#m90f452dd82" y="105.856693"/>
     <use style="fill:#e377c2;stroke:#e377c2;" x="357.341364" xlink:href="#m90f452dd82" y="100.37303"/>
     <use style="fill:#e377c2;stroke:#e377c2;" x="420.812273" xlink:href="#m90f452dd82" y="103.416499"/>
    </g>
   </g>
   <g id="line2d_29">
    <path clip-path="url(#pdd2b83e035)" d="M 103.457727 235.320889 
L 166.928636 188.137011 
L 230.399545 151.336694 
L 293.870455 136.011697 
L 357.341364 116.780892 
L 420.812273 111.765437 
" style="fill:none;stroke:#7f7f7f;stroke-linecap:square;stroke-width:1.5;"/>
    <g clip-path="url(#pdd2b83e035)">
     <use style="fill:#7f7f7f;stroke:#7f7f7f;" x="103.457727" xlink:href="#m0d865aa23c" y="235.320889"/>
     <use style="fill:#7f7f7f;stroke:#7f7f7f;" x="166.928636" xlink:href="#m0d865aa23c" y="188.137011"/>
     <use style="fill:#7f7f7f;stroke:#7f7f7f;" x="230.399545" xlink:href="#m0d865aa23c" y="151.336694"/>
     <use style="fill:#7f7f7f;stroke:#7f7f7f;" x="293.870455" xlink:href="#m0d865aa23c" y="136.011697"/>
     <use style="fill:#7f7f7f;stroke:#7f7f7f;" x="357.341364" xlink:href="#m0d865aa23c" y="116.780892"/>
     <use style="fill:#7f7f7f;stroke:#7f7f7f;" x="420.812273" xlink:href="#m0d865aa23c" y="111.765437"/>
    </g>
   </g>
   <g id="line2d_30">
    <path clip-path="url(#pdd2b83e035)" d="M 103.457727 241.945405 
L 166.928636 189.036063 
L 230.399545 156.153069 
L 293.870455 131.272641 
L 357.341364 105.055126 
L 420.812273 89.249528 
" style="fill:none;stroke:#bcbd22;stroke-linecap:square;stroke-width:1.5;"/>
    <g clip-path="url(#pdd2b83e035)">
     <use style="fill:#bcbd22;stroke:#bcbd22;" x="103.457727" xlink:href="#me3c1403fa9" y="241.945405"/>
     <use style="fill:#bcbd22;stroke:#bcbd22;" x="166.928636" xlink:href="#me3c1403fa9" y="189.036063"/>
     <use style="fill:#bcbd22;stroke:#bcbd22;" x="230.399545" xlink:href="#me3c1403fa9" y="156.153069"/>
     <use style="fill:#bcbd22;stroke:#bcbd22;" x="293.870455" xlink:href="#me3c1403fa9" y="131.272641"/>
     <use style="fill:#bcbd22;stroke:#bcbd22;" x="357.341364" xlink:href="#me3c1403fa9" y="105.055126"/>
     <use style="fill:#bcbd22;stroke:#bcbd22;" x="420.812273" xlink:href="#me3c1403fa9" y="89.249528"/>
    </g>
   </g>
   <g id="line2d_31">
    <path clip-path="url(#pdd2b83e035)" d="M 103.457727 247.10056 
L 166.928636 194.996697 
L 230.399545 145.987036 
L 293.870455 112.41598 
L 357.341364 97.954684 
L 420.812273 82.944043 
" style="fill:none;stroke:#17becf;stroke-linecap:square;stroke-width:1.5;"/>
    <g clip-path="url(#pdd2b83e035)">
     <use style="fill:#17becf;stroke:#17becf;" x="103.457727" xlink:href="#m005642a3ab" y="247.10056"/>
     <use style="fill:#17becf;stroke:#17becf;" x="166.928636" xlink:href="#m005642a3ab" y="194.996697"/>
     <use style="fill:#17becf;stroke:#17becf;" x="230.399545" xlink:href="#m005642a3ab" y="145.987036"/>
     <use style="fill:#17becf;stroke:#17becf;" x="293.870455" xlink:href="#m005642a3ab" y="112.41598"/>
     <use style="fill:#17becf;stroke:#17becf;" x="357.341364" xlink:href="#m005642a3ab" y="97.954684"/>
     <use style="fill:#17becf;stroke:#17becf;" x="420.812273" xlink:href="#m005642a3ab" y="82.944043"/>
    </g>
   </g>
   <g id="line2d_32">
    <path clip-path="url(#pdd2b83e035)" d="M 103.457727 235.663896 
L 166.928636 190.950907 
L 230.399545 152.756751 
L 293.870455 113.606758 
L 357.341364 96.929442 
L 420.812273 65.116024 
" style="fill:none;stroke:#1f77b4;stroke-linecap:square;stroke-width:1.5;"/>
    <g clip-path="url(#pdd2b83e035)">
     <use style="fill:#1f77b4;stroke:#1f77b4;" x="103.457727" xlink:href="#m83ee13ae54" y="235.663896"/>
     <use style="fill:#1f77b4;stroke:#1f77b4;" x="166.928636" xlink:href="#m83ee13ae54" y="190.950907"/>
     <use style="fill:#1f77b4;stroke:#1f77b4;" x="230.399545" xlink:href="#m83ee13ae54" y="152.756751"/>
     <use style="fill:#1f77b4;stroke:#1f77b4;" x="293.870455" xlink:href="#m83ee13ae54" y="113.606758"/>
     <use style="fill:#1f77b4;stroke:#1f77b4;" x="357.341364" xlink:href="#m83ee13ae54" y="96.929442"/>
     <use style="fill:#1f77b4;stroke:#1f77b4;" x="420.812273" xlink:href="#m83ee13ae54" y="65.116024"/>
    </g>
   </g>
   <g id="line2d_33">
    <path clip-path="url(#pdd2b83e035)" d="M 103.457727 233.656325 
L 166.928636 176.819733 
L 230.399545 143.709595 
L 293.870455 123.90664 
L 357.341364 85.748423 
L 420.812273 33.258467 
" style="fill:none;stroke:#ff7f0e;stroke-linecap:square;stroke-width:1.5;"/>
    <g clip-path="url(#pdd2b83e035)">
     <use style="fill:#ff7f0e;stroke:#ff7f0e;" x="103.457727" xlink:href="#m68291b466e" y="233.656325"/>
     <use style="fill:#ff7f0e;stroke:#ff7f0e;" x="166.928636" xlink:href="#m68291b466e" y="176.819733"/>
     <use style="fill:#ff7f0e;stroke:#ff7f0e;" x="230.399545" xlink:href="#m68291b466e" y="143.709595"/>
     <use style="fill:#ff7f0e;stroke:#ff7f0e;" x="293.870455" xlink:href="#m68291b466e" y="123.90664"/>
     <use style="fill:#ff7f0e;stroke:#ff7f0e;" x="357.341364" xlink:href="#m68291b466e" y="85.748423"/>
     <use style="fill:#ff7f0e;stroke:#ff7f0e;" x="420.812273" xlink:href="#m68291b466e" y="33.258467"/>
    </g>
   </g>
   <g id="line2d_34">
    <path clip-path="url(#pdd2b83e035)" d="M 103.457727 240.964897 
L 166.928636 186.9615 
L 230.399545 142.502559 
L 293.870455 125.810288 
L 357.341364 111.71558 
L 420.812273 115.013677 
" style="fill:none;stroke:#2ca02c;stroke-linecap:square;stroke-width:1.5;"/>
    <g clip-path="url(#pdd2b83e035)">
     <use style="fill:#2ca02c;stroke:#2ca02c;" x="103.457727" xlink:href="#me2474525f4" y="240.964897"/>
     <use style="fill:#2ca02c;stroke:#2ca02c;" x="166.928636" xlink:href="#me2474525f4" y="186.9615"/>
     <use style="fill:#2ca02c;stroke:#2ca02c;" x="230.399545" xlink:href="#me2474525f4" y="142.502559"/>
     <use style="fill:#2ca02c;stroke:#2ca02c;" x="293.870455" xlink:href="#me2474525f4" y="125.810288"/>
     <use style="fill:#2ca02c;stroke:#2ca02c;" x="357.341364" xlink:href="#me2474525f4" y="111.71558"/>
     <use style="fill:#2ca02c;stroke:#2ca02c;" x="420.812273" xlink:href="#me2474525f4" y="115.013677"/>
    </g>
   </g>
   <g id="line2d_35">
    <path clip-path="url(#pdd2b83e035)" d="M 103.457727 240.84915 
L 166.928636 186.789249 
L 230.399545 142.418054 
L 293.870455 125.798276 
L 357.341364 111.819707 
L 420.812273 115.188052 
" style="fill:none;stroke:#d62728;stroke-linecap:square;stroke-width:1.5;"/>
    <g clip-path="url(#pdd2b83e035)">
     <use style="fill:#d62728;stroke:#d62728;" x="103.457727" xlink:href="#me86b96f86c" y="240.84915"/>
     <use style="fill:#d62728;stroke:#d62728;" x="166.928636" xlink:href="#me86b96f86c" y="186.789249"/>
     <use style="fill:#d62728;stroke:#d62728;" x="230.399545" xlink:href="#me86b96f86c" y="142.418054"/>
     <use style="fill:#d62728;stroke:#d62728;" x="293.870455" xlink:href="#me86b96f86c" y="125.798276"/>
     <use style="fill:#d62728;stroke:#d62728;" x="357.341364" xlink:href="#me86b96f86c" y="111.819707"/>
     <use style="fill:#d62728;stroke:#d62728;" x="420.812273" xlink:href="#me86b96f86c" y="115.188052"/>
    </g>
   </g>
   <g id="line2d_36">
    <path clip-path="url(#pdd2b83e035)" d="M 103.457727 223.230969 
L 166.928636 161.981652 
L 230.399545 126.508793 
L 293.870455 107.563816 
L 357.341364 98.413727 
L 420.812273 59.968217 
" style="fill:none;stroke:#9467bd;stroke-linecap:square;stroke-width:1.5;"/>
    <g clip-path="url(#pdd2b83e035)">
     <use style="fill:#9467bd;stroke:#9467bd;" x="103.457727" xlink:href="#m20f694ad1a" y="223.230969"/>
     <use style="fill:#9467bd;stroke:#9467bd;" x="166.928636" xlink:href="#m20f694ad1a" y="161.981652"/>
     <use style="fill:#9467bd;stroke:#9467bd;" x="230.399545" xlink:href="#m20f694ad1a" y="126.508793"/>
     <use style="fill:#9467bd;stroke:#9467bd;" x="293.870455" xlink:href="#m20f694ad1a" y="107.563816"/>
     <use style="fill:#9467bd;stroke:#9467bd;" x="357.341364" xlink:href="#m20f694ad1a" y="98.413727"/>
     <use style="fill:#9467bd;stroke:#9467bd;" x="420.812273" xlink:href="#m20f694ad1a" y="59.968217"/>
    </g>
   </g>
   <g id="line2d_37">
    <path clip-path="url(#pdd2b83e035)" d="M 103.457727 240.234505 
L 166.928636 190.60417 
L 230.399545 153.345933 
L 293.870455 126.745581 
L 357.341364 101.896078 
L 420.812273 69.531657 
" style="fill:none;stroke:#8c564b;stroke-linecap:square;stroke-width:1.5;"/>
    <g clip-path="url(#pdd2b83e035)">
     <use style="fill:#8c564b;stroke:#8c564b;" x="103.457727" xlink:href="#m5f61e992a1" y="240.234505"/>
     <use style="fill:#8c564b;stroke:#8c564b;" x="166.928636" xlink:href="#m5f61e992a1" y="190.60417"/>
     <use style="fill:#8c564b;stroke:#8c564b;" x="230.399545" xlink:href="#m5f61e992a1" y="153.345933"/>
     <use style="fill:#8c564b;stroke:#8c564b;" x="293.870455" xlink:href="#m5f61e992a1" y="126.745581"/>
     <use style="fill:#8c564b;stroke:#8c564b;" x="357.341364" xlink:href="#m5f61e992a1" y="101.896078"/>
     <use style="fill:#8c564b;stroke:#8c564b;" x="420.812273" xlink:href="#m5f61e992a1" y="69.531657"/>
    </g>
   </g>
   <g id="line2d_38">
    <path clip-path="url(#pdd2b83e035)" d="M 103.457727 231.224289 
L 166.928636 170.068014 
L 230.399545 129.081152 
L 293.870455 97.15439 
L 357.341364 91.689351 
L 420.812273 78.221618 
" style="fill:none;stroke:#e377c2;stroke-linecap:square;stroke-width:1.5;"/>
    <g clip-path="url(#pdd2b83e035)">
     <use style="fill:#e377c2;stroke:#e377c2;" x="103.457727" xlink:href="#m90f452dd82" y="231.224289"/>
     <use style="fill:#e377c2;stroke:#e377c2;" x="166.928636" xlink:href="#m90f452dd82" y="170.068014"/>
     <use style="fill:#e377c2;stroke:#e377c2;" x="230.399545" xlink:href="#m90f452dd82" y="129.081152"/>
     <use style="fill:#e377c2;stroke:#e377c2;" x="293.870455" xlink:href="#m90f452dd82" y="97.15439"/>
     <use style="fill:#e377c2;stroke:#e377c2;" x="357.341364" xlink:href="#m90f452dd82" y="91.689351"/>
     <use style="fill:#e377c2;stroke:#e377c2;" x="420.812273" xlink:href="#m90f452dd82" y="78.221618"/>
    </g>
   </g>
   <g id="patch_3">
    <path d="M 87.59 272.68 
L 87.59 24.12 
" style="fill:none;stroke:#000000;stroke-linecap:square;stroke-linejoin:miter;stroke-width:0.8;"/>
   </g>
   <g id="patch_4">
    <path d="M 436.68 272.68 
L 436.68 24.12 
" style="fill:none;stroke:#000000;stroke-linecap:square;stroke-linejoin:miter;stroke-width:0.8;"/>
   </g>
   <g id="patch_5">
    <path d="M 87.59 272.68 
L 436.68 272.68 
" style="fill:none;stroke:#000000;stroke-linecap:square;stroke-linejoin:miter;stroke-width:0.8;"/>
   </g>
   <g id="patch_6">
    <path d="M 87.59 24.12 
L 436.68 24.12 
" style="fill:none;stroke:#000000;stroke-linecap:square;stroke-linejoin:miter;stroke-width:0.8;"/>
   </g>
   <g id="text_14">
    <!-- $p=$6 -->
    <defs>
     <path d="M 49.609375 33.6875 
Q 49.609375 40.875 46.484375 44.671875 
Q 43.359375 48.484375 37.5 48.484375 
Q 33.5 48.484375 29.859375 46.4375 
Q 26.21875 44.390625 23.390625 40.484375 
Q 20.609375 36.625 18.9375 31.15625 
Q 17.28125 25.6875 17.28125 20.3125 
Q 17.28125 13.484375 20.40625 9.796875 
Q 23.53125 6.109375 29.296875 6.109375 
Q 33.546875 6.109375 37.1875 8.109375 
Q 40.828125 10.109375 43.40625 13.921875 
Q 46.1875 17.921875 47.890625 23.34375 
Q 49.609375 28.765625 49.609375 33.6875 
z
M 21.78125 46.390625 
Q 25.390625 51.125 30.296875 53.5625 
Q 35.203125 56 41.21875 56 
Q 49.609375 56 54.25 50.5 
Q 58.890625 45.015625 58.890625 35.109375 
Q 58.890625 27 56 19.65625 
Q 53.125 12.3125 47.703125 6.5 
Q 44.09375 2.640625 39.546875 0.609375 
Q 35.015625 -1.421875 29.984375 -1.421875 
Q 24.171875 -1.421875 20.21875 1 
Q 16.265625 3.421875 14.3125 8.203125 
L 8.6875 -20.796875 
L -0.296875 -20.796875 
L 14.40625 54.6875 
L 23.390625 54.6875 
z
" id="DejaVuSans-Oblique-112"/>
     <path d="M 10.59375 45.40625 
L 73.1875 45.40625 
L 73.1875 37.203125 
L 10.59375 37.203125 
z
M 10.59375 25.484375 
L 73.1875 25.484375 
L 73.1875 17.1875 
L 10.59375 17.1875 
z
" id="DejaVuSans-61"/>
    </defs>
    <g transform="translate(237.135 18.12)scale(0.2 -0.2)">
     <use transform="translate(0 0.78125)" xlink:href="#DejaVuSans-Oblique-112"/>
     <use transform="translate(82.958984 0.78125)" xlink:href="#DejaVuSans-61"/>
     <use transform="translate(186.230469 0.78125)" xlink:href="#DejaVuSans-54"/>
    </g>
   </g>
  </g>
 </g>
 <defs>
  <clipPath id="pdd2b83e035">
   <rect height="248.56" width="349.09" x="87.59" y="24.12"/>
  </clipPath>
 </defs>
</svg>
