<?xml version="1.0" encoding="utf-8" standalone="no"?>
<!DOCTYPE svg PUBLIC "-//W3C//DTD SVG 1.1//EN"
  "http://www.w3.org/Graphics/SVG/1.1/DTD/svg11.dtd">
<!-- Created with matplotlib (https://matplotlib.org/) -->
<svg height="345.6pt" version="1.1" viewBox="0 0 460.8 345.6" width="460.8pt" xmlns="http://www.w3.org/2000/svg" xmlns:xlink="http://www.w3.org/1999/xlink">
 <defs>
  <style type="text/css">
*{stroke-linecap:butt;stroke-linejoin:round;}
  </style>
 </defs>
 <g id="figure_1">
  <g id="patch_1">
   <path d="M 0 345.6 
L 460.8 345.6 
L 460.8 0 
L 0 0 
z
" style="fill:#ffffff;"/>
  </g>
  <g id="axes_1">
   <g id="patch_2">
    <path d="M 95.57 283.48 
L 447.48 283.48 
L 447.48 18.72 
L 95.57 18.72 
z
" style="fill:#ffffff;"/>
   </g>
   <g id="matplotlib.axis_1">
    <g id="xtick_1">
     <g id="line2d_1">
      <defs>
       <path d="M 0 0 
L 0 3.5 
" id="m2f9e39f733" style="stroke:#000000;stroke-width:0.8;"/>
      </defs>
      <g>
       <use style="stroke:#000000;stroke-width:0.8;" x="111.565909" xlink:href="#m2f9e39f733" y="283.48"/>
      </g>
     </g>
     <g id="text_1">
      <!-- 1 -->
      <defs>
       <path d="M 12.40625 8.296875 
L 28.515625 8.296875 
L 28.515625 63.921875 
L 10.984375 60.40625 
L 10.984375 69.390625 
L 28.421875 72.90625 
L 38.28125 72.90625 
L 38.28125 8.296875 
L 54.390625 8.296875 
L 54.390625 0 
L 12.40625 0 
z
" id="DejaVuSans-49"/>
      </defs>
      <g transform="translate(105.203409 305.676875)scale(0.2 -0.2)">
       <use xlink:href="#DejaVuSans-49"/>
      </g>
     </g>
    </g>
    <g id="xtick_2">
     <g id="line2d_2">
      <g>
       <use style="stroke:#000000;stroke-width:0.8;" x="164.885606" xlink:href="#m2f9e39f733" y="283.48"/>
      </g>
     </g>
     <g id="text_2">
      <!-- 2 -->
      <defs>
       <path d="M 19.1875 8.296875 
L 53.609375 8.296875 
L 53.609375 0 
L 7.328125 0 
L 7.328125 8.296875 
Q 12.9375 14.109375 22.625 23.890625 
Q 32.328125 33.6875 34.8125 36.53125 
Q 39.546875 41.84375 41.421875 45.53125 
Q 43.3125 49.21875 43.3125 52.78125 
Q 43.3125 58.59375 39.234375 62.25 
Q 35.15625 65.921875 28.609375 65.921875 
Q 23.96875 65.921875 18.8125 64.3125 
Q 13.671875 62.703125 7.8125 59.421875 
L 7.8125 69.390625 
Q 13.765625 71.78125 18.9375 73 
Q 24.125 74.21875 28.421875 74.21875 
Q 39.75 74.21875 46.484375 68.546875 
Q 53.21875 62.890625 53.21875 53.421875 
Q 53.21875 48.921875 51.53125 44.890625 
Q 49.859375 40.875 45.40625 35.40625 
Q 44.1875 33.984375 37.640625 27.21875 
Q 31.109375 20.453125 19.1875 8.296875 
z
" id="DejaVuSans-50"/>
      </defs>
      <g transform="translate(158.523106 305.676875)scale(0.2 -0.2)">
       <use xlink:href="#DejaVuSans-50"/>
      </g>
     </g>
    </g>
    <g id="xtick_3">
     <g id="line2d_3">
      <g>
       <use style="stroke:#000000;stroke-width:0.8;" x="218.205303" xlink:href="#m2f9e39f733" y="283.48"/>
      </g>
     </g>
     <g id="text_3">
      <!-- 3 -->
      <defs>
       <path d="M 40.578125 39.3125 
Q 47.65625 37.796875 51.625 33 
Q 55.609375 28.21875 55.609375 21.1875 
Q 55.609375 10.40625 48.1875 4.484375 
Q 40.765625 -1.421875 27.09375 -1.421875 
Q 22.515625 -1.421875 17.65625 -0.515625 
Q 12.796875 0.390625 7.625 2.203125 
L 7.625 11.71875 
Q 11.71875 9.328125 16.59375 8.109375 
Q 21.484375 6.890625 26.8125 6.890625 
Q 36.078125 6.890625 40.9375 10.546875 
Q 45.796875 14.203125 45.796875 21.1875 
Q 45.796875 27.640625 41.28125 31.265625 
Q 36.765625 34.90625 28.71875 34.90625 
L 20.21875 34.90625 
L 20.21875 43.015625 
L 29.109375 43.015625 
Q 36.375 43.015625 40.234375 45.921875 
Q 44.09375 48.828125 44.09375 54.296875 
Q 44.09375 59.90625 40.109375 62.90625 
Q 36.140625 65.921875 28.71875 65.921875 
Q 24.65625 65.921875 20.015625 65.03125 
Q 15.375 64.15625 9.8125 62.3125 
L 9.8125 71.09375 
Q 15.4375 72.65625 20.34375 73.4375 
Q 25.25 74.21875 29.59375 74.21875 
Q 40.828125 74.21875 47.359375 69.109375 
Q 53.90625 64.015625 53.90625 55.328125 
Q 53.90625 49.265625 50.4375 45.09375 
Q 46.96875 40.921875 40.578125 39.3125 
z
" id="DejaVuSans-51"/>
      </defs>
      <g transform="translate(211.842803 305.676875)scale(0.2 -0.2)">
       <use xlink:href="#DejaVuSans-51"/>
      </g>
     </g>
    </g>
    <g id="xtick_4">
     <g id="line2d_4">
      <g>
       <use style="stroke:#000000;stroke-width:0.8;" x="271.525" xlink:href="#m2f9e39f733" y="283.48"/>
      </g>
     </g>
     <g id="text_4">
      <!-- 4 -->
      <defs>
       <path d="M 37.796875 64.3125 
L 12.890625 25.390625 
L 37.796875 25.390625 
z
M 35.203125 72.90625 
L 47.609375 72.90625 
L 47.609375 25.390625 
L 58.015625 25.390625 
L 58.015625 17.1875 
L 47.609375 17.1875 
L 47.609375 0 
L 37.796875 0 
L 37.796875 17.1875 
L 4.890625 17.1875 
L 4.890625 26.703125 
z
" id="DejaVuSans-52"/>
      </defs>
      <g transform="translate(265.1625 305.676875)scale(0.2 -0.2)">
       <use xlink:href="#DejaVuSans-52"/>
      </g>
     </g>
    </g>
    <g id="xtick_5">
     <g id="line2d_5">
      <g>
       <use style="stroke:#000000;stroke-width:0.8;" x="324.844697" xlink:href="#m2f9e39f733" y="283.48"/>
      </g>
     </g>
     <g id="text_5">
      <!-- 5 -->
      <defs>
       <path d="M 10.796875 72.90625 
L 49.515625 72.90625 
L 49.515625 64.59375 
L 19.828125 64.59375 
L 19.828125 46.734375 
Q 21.96875 47.46875 24.109375 47.828125 
Q 26.265625 48.1875 28.421875 48.1875 
Q 40.625 48.1875 47.75 41.5 
Q 54.890625 34.8125 54.890625 23.390625 
Q 54.890625 11.625 47.5625 5.09375 
Q 40.234375 -1.421875 26.90625 -1.421875 
Q 22.3125 -1.421875 17.546875 -0.640625 
Q 12.796875 0.140625 7.71875 1.703125 
L 7.71875 11.625 
Q 12.109375 9.234375 16.796875 8.0625 
Q 21.484375 6.890625 26.703125 6.890625 
Q 35.15625 6.890625 40.078125 11.328125 
Q 45.015625 15.765625 45.015625 23.390625 
Q 45.015625 31 40.078125 35.4375 
Q 35.15625 39.890625 26.703125 39.890625 
Q 22.75 39.890625 18.8125 39.015625 
Q 14.890625 38.140625 10.796875 36.28125 
z
" id="DejaVuSans-53"/>
      </defs>
      <g transform="translate(318.482197 305.676875)scale(0.2 -0.2)">
       <use xlink:href="#DejaVuSans-53"/>
      </g>
     </g>
    </g>
    <g id="xtick_6">
     <g id="line2d_6">
      <g>
       <use style="stroke:#000000;stroke-width:0.8;" x="378.164394" xlink:href="#m2f9e39f733" y="283.48"/>
      </g>
     </g>
     <g id="text_6">
      <!-- 6 -->
      <defs>
       <path d="M 33.015625 40.375 
Q 26.375 40.375 22.484375 35.828125 
Q 18.609375 31.296875 18.609375 23.390625 
Q 18.609375 15.53125 22.484375 10.953125 
Q 26.375 6.390625 33.015625 6.390625 
Q 39.65625 6.390625 43.53125 10.953125 
Q 47.40625 15.53125 47.40625 23.390625 
Q 47.40625 31.296875 43.53125 35.828125 
Q 39.65625 40.375 33.015625 40.375 
z
M 52.59375 71.296875 
L 52.59375 62.3125 
Q 48.875 64.0625 45.09375 64.984375 
Q 41.3125 65.921875 37.59375 65.921875 
Q 27.828125 65.921875 22.671875 59.328125 
Q 17.53125 52.734375 16.796875 39.40625 
Q 19.671875 43.65625 24.015625 45.921875 
Q 28.375 48.1875 33.59375 48.1875 
Q 44.578125 48.1875 50.953125 41.515625 
Q 57.328125 34.859375 57.328125 23.390625 
Q 57.328125 12.15625 50.6875 5.359375 
Q 44.046875 -1.421875 33.015625 -1.421875 
Q 20.359375 -1.421875 13.671875 8.265625 
Q 6.984375 17.96875 6.984375 36.375 
Q 6.984375 53.65625 15.1875 63.9375 
Q 23.390625 74.21875 37.203125 74.21875 
Q 40.921875 74.21875 44.703125 73.484375 
Q 48.484375 72.75 52.59375 71.296875 
z
" id="DejaVuSans-54"/>
      </defs>
      <g transform="translate(371.801894 305.676875)scale(0.2 -0.2)">
       <use xlink:href="#DejaVuSans-54"/>
      </g>
     </g>
    </g>
    <g id="xtick_7">
     <g id="line2d_7">
      <g>
       <use style="stroke:#000000;stroke-width:0.8;" x="431.484091" xlink:href="#m2f9e39f733" y="283.48"/>
      </g>
     </g>
     <g id="text_7">
      <!-- 7 -->
      <defs>
       <path d="M 8.203125 72.90625 
L 55.078125 72.90625 
L 55.078125 68.703125 
L 28.609375 0 
L 18.3125 0 
L 43.21875 64.59375 
L 8.203125 64.59375 
z
" id="DejaVuSans-55"/>
      </defs>
      <g transform="translate(425.121591 305.676875)scale(0.2 -0.2)">
       <use xlink:href="#DejaVuSans-55"/>
      </g>
     </g>
    </g>
    <g id="text_8">
     <!-- $i$ -->
     <defs>
      <path d="M 18.3125 75.984375 
L 27.296875 75.984375 
L 25.09375 64.59375 
L 16.109375 64.59375 
z
M 14.203125 54.6875 
L 23.1875 54.6875 
L 12.5 0 
L 3.515625 0 
z
" id="DejaVuSans-Oblique-105"/>
     </defs>
     <g transform="translate(268.725 329.033125)scale(0.2 -0.2)">
      <use transform="translate(0 0.015625)" xlink:href="#DejaVuSans-Oblique-105"/>
     </g>
    </g>
   </g>
   <g id="matplotlib.axis_2">
    <g id="ytick_1">
     <g id="line2d_8">
      <defs>
       <path d="M 0 0 
L -3.5 0 
" id="m7c3b55e51a" style="stroke:#000000;stroke-width:0.8;"/>
      </defs>
      <g>
       <use style="stroke:#000000;stroke-width:0.8;" x="95.57" xlink:href="#m7c3b55e51a" y="283.48"/>
      </g>
     </g>
     <g id="text_9">
      <!-- 0.00 -->
      <defs>
       <path d="M 31.78125 66.40625 
Q 24.171875 66.40625 20.328125 58.90625 
Q 16.5 51.421875 16.5 36.375 
Q 16.5 21.390625 20.328125 13.890625 
Q 24.171875 6.390625 31.78125 6.390625 
Q 39.453125 6.390625 43.28125 13.890625 
Q 47.125 21.390625 47.125 36.375 
Q 47.125 51.421875 43.28125 58.90625 
Q 39.453125 66.40625 31.78125 66.40625 
z
M 31.78125 74.21875 
Q 44.046875 74.21875 50.515625 64.515625 
Q 56.984375 54.828125 56.984375 36.375 
Q 56.984375 17.96875 50.515625 8.265625 
Q 44.046875 -1.421875 31.78125 -1.421875 
Q 19.53125 -1.421875 13.0625 8.265625 
Q 6.59375 17.96875 6.59375 36.375 
Q 6.59375 54.828125 13.0625 64.515625 
Q 19.53125 74.21875 31.78125 74.21875 
z
" id="DejaVuSans-48"/>
       <path d="M 10.6875 12.40625 
L 21 12.40625 
L 21 0 
L 10.6875 0 
z
" id="DejaVuSans-46"/>
      </defs>
      <g transform="translate(44.03875 291.078438)scale(0.2 -0.2)">
       <use xlink:href="#DejaVuSans-48"/>
       <use x="63.623047" xlink:href="#DejaVuSans-46"/>
       <use x="95.410156" xlink:href="#DejaVuSans-48"/>
       <use x="159.033203" xlink:href="#DejaVuSans-48"/>
      </g>
     </g>
    </g>
    <g id="ytick_2">
     <g id="line2d_9">
      <g>
       <use style="stroke:#000000;stroke-width:0.8;" x="95.57" xlink:href="#m7c3b55e51a" y="217.29"/>
      </g>
     </g>
     <g id="text_10">
      <!-- 0.05 -->
      <g transform="translate(44.03875 224.888438)scale(0.2 -0.2)">
       <use xlink:href="#DejaVuSans-48"/>
       <use x="63.623047" xlink:href="#DejaVuSans-46"/>
       <use x="95.410156" xlink:href="#DejaVuSans-48"/>
       <use x="159.033203" xlink:href="#DejaVuSans-53"/>
      </g>
     </g>
    </g>
    <g id="ytick_3">
     <g id="line2d_10">
      <g>
       <use style="stroke:#000000;stroke-width:0.8;" x="95.57" xlink:href="#m7c3b55e51a" y="151.1"/>
      </g>
     </g>
     <g id="text_11">
      <!-- 0.10 -->
      <g transform="translate(44.03875 158.698437)scale(0.2 -0.2)">
       <use xlink:href="#DejaVuSans-48"/>
       <use x="63.623047" xlink:href="#DejaVuSans-46"/>
       <use x="95.410156" xlink:href="#DejaVuSans-49"/>
       <use x="159.033203" xlink:href="#DejaVuSans-48"/>
      </g>
     </g>
    </g>
    <g id="ytick_4">
     <g id="line2d_11">
      <g>
       <use style="stroke:#000000;stroke-width:0.8;" x="95.57" xlink:href="#m7c3b55e51a" y="84.91"/>
      </g>
     </g>
     <g id="text_12">
      <!-- 0.15 -->
      <g transform="translate(44.03875 92.508437)scale(0.2 -0.2)">
       <use xlink:href="#DejaVuSans-48"/>
       <use x="63.623047" xlink:href="#DejaVuSans-46"/>
       <use x="95.410156" xlink:href="#DejaVuSans-49"/>
       <use x="159.033203" xlink:href="#DejaVuSans-53"/>
      </g>
     </g>
    </g>
    <g id="ytick_5">
     <g id="line2d_12">
      <g>
       <use style="stroke:#000000;stroke-width:0.8;" x="95.57" xlink:href="#m7c3b55e51a" y="18.72"/>
      </g>
     </g>
     <g id="text_13">
      <!-- 0.20 -->
      <g transform="translate(44.03875 26.318437)scale(0.2 -0.2)">
       <use xlink:href="#DejaVuSans-48"/>
       <use x="63.623047" xlink:href="#DejaVuSans-46"/>
       <use x="95.410156" xlink:href="#DejaVuSans-50"/>
       <use x="159.033203" xlink:href="#DejaVuSans-48"/>
      </g>
     </g>
    </g>
    <g id="text_14">
     <!-- Value of $\beta_i$ -->
     <defs>
      <path d="M 28.609375 0 
L 0.78125 72.90625 
L 11.078125 72.90625 
L 34.1875 11.53125 
L 57.328125 72.90625 
L 67.578125 72.90625 
L 39.796875 0 
z
" id="DejaVuSans-86"/>
      <path d="M 34.28125 27.484375 
Q 23.390625 27.484375 19.1875 25 
Q 14.984375 22.515625 14.984375 16.5 
Q 14.984375 11.71875 18.140625 8.90625 
Q 21.296875 6.109375 26.703125 6.109375 
Q 34.1875 6.109375 38.703125 11.40625 
Q 43.21875 16.703125 43.21875 25.484375 
L 43.21875 27.484375 
z
M 52.203125 31.203125 
L 52.203125 0 
L 43.21875 0 
L 43.21875 8.296875 
Q 40.140625 3.328125 35.546875 0.953125 
Q 30.953125 -1.421875 24.3125 -1.421875 
Q 15.921875 -1.421875 10.953125 3.296875 
Q 6 8.015625 6 15.921875 
Q 6 25.140625 12.171875 29.828125 
Q 18.359375 34.515625 30.609375 34.515625 
L 43.21875 34.515625 
L 43.21875 35.40625 
Q 43.21875 41.609375 39.140625 45 
Q 35.0625 48.390625 27.6875 48.390625 
Q 23 48.390625 18.546875 47.265625 
Q 14.109375 46.140625 10.015625 43.890625 
L 10.015625 52.203125 
Q 14.9375 54.109375 19.578125 55.046875 
Q 24.21875 56 28.609375 56 
Q 40.484375 56 46.34375 49.84375 
Q 52.203125 43.703125 52.203125 31.203125 
z
" id="DejaVuSans-97"/>
      <path d="M 9.421875 75.984375 
L 18.40625 75.984375 
L 18.40625 0 
L 9.421875 0 
z
" id="DejaVuSans-108"/>
      <path d="M 8.5 21.578125 
L 8.5 54.6875 
L 17.484375 54.6875 
L 17.484375 21.921875 
Q 17.484375 14.15625 20.5 10.265625 
Q 23.53125 6.390625 29.59375 6.390625 
Q 36.859375 6.390625 41.078125 11.03125 
Q 45.3125 15.671875 45.3125 23.6875 
L 45.3125 54.6875 
L 54.296875 54.6875 
L 54.296875 0 
L 45.3125 0 
L 45.3125 8.40625 
Q 42.046875 3.421875 37.71875 1 
Q 33.40625 -1.421875 27.6875 -1.421875 
Q 18.265625 -1.421875 13.375 4.4375 
Q 8.5 10.296875 8.5 21.578125 
z
M 31.109375 56 
z
" id="DejaVuSans-117"/>
      <path d="M 56.203125 29.59375 
L 56.203125 25.203125 
L 14.890625 25.203125 
Q 15.484375 15.921875 20.484375 11.0625 
Q 25.484375 6.203125 34.421875 6.203125 
Q 39.59375 6.203125 44.453125 7.46875 
Q 49.3125 8.734375 54.109375 11.28125 
L 54.109375 2.78125 
Q 49.265625 0.734375 44.1875 -0.34375 
Q 39.109375 -1.421875 33.890625 -1.421875 
Q 20.796875 -1.421875 13.15625 6.1875 
Q 5.515625 13.8125 5.515625 26.8125 
Q 5.515625 40.234375 12.765625 48.109375 
Q 20.015625 56 32.328125 56 
Q 43.359375 56 49.78125 48.890625 
Q 56.203125 41.796875 56.203125 29.59375 
z
M 47.21875 32.234375 
Q 47.125 39.59375 43.09375 43.984375 
Q 39.0625 48.390625 32.421875 48.390625 
Q 24.90625 48.390625 20.390625 44.140625 
Q 15.875 39.890625 15.1875 32.171875 
z
" id="DejaVuSans-101"/>
      <path id="DejaVuSans-32"/>
      <path d="M 30.609375 48.390625 
Q 23.390625 48.390625 19.1875 42.75 
Q 14.984375 37.109375 14.984375 27.296875 
Q 14.984375 17.484375 19.15625 11.84375 
Q 23.34375 6.203125 30.609375 6.203125 
Q 37.796875 6.203125 41.984375 11.859375 
Q 46.1875 17.53125 46.1875 27.296875 
Q 46.1875 37.015625 41.984375 42.703125 
Q 37.796875 48.390625 30.609375 48.390625 
z
M 30.609375 56 
Q 42.328125 56 49.015625 48.375 
Q 55.71875 40.765625 55.71875 27.296875 
Q 55.71875 13.875 49.015625 6.21875 
Q 42.328125 -1.421875 30.609375 -1.421875 
Q 18.84375 -1.421875 12.171875 6.21875 
Q 5.515625 13.875 5.515625 27.296875 
Q 5.515625 40.765625 12.171875 48.375 
Q 18.84375 56 30.609375 56 
z
" id="DejaVuSans-111"/>
      <path d="M 37.109375 75.984375 
L 37.109375 68.5 
L 28.515625 68.5 
Q 23.6875 68.5 21.796875 66.546875 
Q 19.921875 64.59375 19.921875 59.515625 
L 19.921875 54.6875 
L 34.71875 54.6875 
L 34.71875 47.703125 
L 19.921875 47.703125 
L 19.921875 0 
L 10.890625 0 
L 10.890625 47.703125 
L 2.296875 47.703125 
L 2.296875 54.6875 
L 10.890625 54.6875 
L 10.890625 58.5 
Q 10.890625 67.625 15.140625 71.796875 
Q 19.390625 75.984375 28.609375 75.984375 
z
" id="DejaVuSans-102"/>
      <path d="M 13.625 3.375 
L 8.9375 -20.796875 
L -0.09375 -20.796875 
L 14.5 54.34375 
Q 18.84375 76.609375 39.65625 76.609375 
Q 60.75 76.609375 57.171875 57.8125 
Q 54.734375 44.4375 45.21875 39.546875 
Q 58.015625 35.15625 55.515625 22.125 
Q 51.125 -1.078125 27.484375 -1.03125 
Q 17.140625 -0.984375 13.625 3.375 
z
M 15.921875 15.09375 
Q 19.671875 6.59375 29.296875 6.640625 
Q 43.359375 6.640625 46.34375 21.96875 
Q 49.03125 35.75 26.171875 34.671875 
L 27.78125 42.96875 
Q 45.453125 42.671875 48.53125 58.59375 
Q 50.640625 69.34375 39.203125 69.28125 
Q 26.421875 69.28125 23.484375 54.046875 
z
" id="DejaVuSans-Oblique-946"/>
     </defs>
     <g transform="translate(29.83875 204)rotate(-90)scale(0.2 -0.2)">
      <use transform="translate(0 0.390625)" xlink:href="#DejaVuSans-86"/>
      <use transform="translate(68.408203 0.390625)" xlink:href="#DejaVuSans-97"/>
      <use transform="translate(129.6875 0.390625)" xlink:href="#DejaVuSans-108"/>
      <use transform="translate(157.470703 0.390625)" xlink:href="#DejaVuSans-117"/>
      <use transform="translate(220.849609 0.390625)" xlink:href="#DejaVuSans-101"/>
      <use transform="translate(282.373047 0.390625)" xlink:href="#DejaVuSans-32"/>
      <use transform="translate(314.160156 0.390625)" xlink:href="#DejaVuSans-111"/>
      <use transform="translate(375.341797 0.390625)" xlink:href="#DejaVuSans-102"/>
      <use transform="translate(410.546875 0.390625)" xlink:href="#DejaVuSans-32"/>
      <use transform="translate(442.333984 0.390625)" xlink:href="#DejaVuSans-Oblique-946"/>
      <use transform="translate(506.152344 -16.015625)scale(0.7)" xlink:href="#DejaVuSans-Oblique-105"/>
     </g>
    </g>
   </g>
   <g id="line2d_13">
    <path clip-path="url(#p7a99709522)" d="M 111.565909 68.420485 
L 164.885606 91.313214 
L 218.205303 120.027699 
L 271.525 146.956963 
L 324.844697 180.531549 
L 378.164394 216.975485 
L 431.484091 258.62578 
" style="fill:none;stroke:#d3d3d3;stroke-linecap:square;stroke-width:1.5;"/>
    <defs>
     <path d="M 0 3 
C 0.795609 3 1.55874 2.683901 2.12132 2.12132 
C 2.683901 1.55874 3 0.795609 3 0 
C 3 -0.795609 2.683901 -1.55874 2.12132 -2.12132 
C 1.55874 -2.683901 0.795609 -3 0 -3 
C -0.795609 -3 -1.55874 -2.683901 -2.12132 -2.12132 
C -2.683901 -1.55874 -3 -0.795609 -3 0 
C -3 0.795609 -2.683901 1.55874 -2.12132 2.12132 
C -1.55874 2.683901 -0.795609 3 0 3 
z
" id="m9d105d3c07" style="stroke:#d3d3d3;"/>
    </defs>
    <g clip-path="url(#p7a99709522)">
     <use style="fill:#d3d3d3;stroke:#d3d3d3;" x="111.565909" xlink:href="#m9d105d3c07" y="68.420485"/>
     <use style="fill:#d3d3d3;stroke:#d3d3d3;" x="164.885606" xlink:href="#m9d105d3c07" y="91.313214"/>
     <use style="fill:#d3d3d3;stroke:#d3d3d3;" x="218.205303" xlink:href="#m9d105d3c07" y="120.027699"/>
     <use style="fill:#d3d3d3;stroke:#d3d3d3;" x="271.525" xlink:href="#m9d105d3c07" y="146.956963"/>
     <use style="fill:#d3d3d3;stroke:#d3d3d3;" x="324.844697" xlink:href="#m9d105d3c07" y="180.531549"/>
     <use style="fill:#d3d3d3;stroke:#d3d3d3;" x="378.164394" xlink:href="#m9d105d3c07" y="216.975485"/>
     <use style="fill:#d3d3d3;stroke:#d3d3d3;" x="431.484091" xlink:href="#m9d105d3c07" y="258.62578"/>
    </g>
   </g>
   <g id="line2d_14">
    <path clip-path="url(#p7a99709522)" d="M 111.565909 47.545903 
L 164.885606 82.893525 
L 218.205303 117.49608 
L 271.525 138.532768 
L 324.844697 145.087286 
L 378.164394 191.235703 
L 431.484091 239.136969 
" style="fill:none;stroke:#d3d3d3;stroke-linecap:square;stroke-width:1.5;"/>
    <g clip-path="url(#p7a99709522)">
     <use style="fill:#d3d3d3;stroke:#d3d3d3;" x="111.565909" xlink:href="#m9d105d3c07" y="47.545903"/>
     <use style="fill:#d3d3d3;stroke:#d3d3d3;" x="164.885606" xlink:href="#m9d105d3c07" y="82.893525"/>
     <use style="fill:#d3d3d3;stroke:#d3d3d3;" x="218.205303" xlink:href="#m9d105d3c07" y="117.49608"/>
     <use style="fill:#d3d3d3;stroke:#d3d3d3;" x="271.525" xlink:href="#m9d105d3c07" y="138.532768"/>
     <use style="fill:#d3d3d3;stroke:#d3d3d3;" x="324.844697" xlink:href="#m9d105d3c07" y="145.087286"/>
     <use style="fill:#d3d3d3;stroke:#d3d3d3;" x="378.164394" xlink:href="#m9d105d3c07" y="191.235703"/>
     <use style="fill:#d3d3d3;stroke:#d3d3d3;" x="431.484091" xlink:href="#m9d105d3c07" y="239.136969"/>
    </g>
   </g>
   <g id="line2d_15">
    <path clip-path="url(#p7a99709522)" d="M 111.565909 55.489017 
L 164.885606 74.288335 
L 218.205303 98.30584 
L 271.525 112.516778 
L 324.844697 137.746826 
L 378.164394 183.503962 
L 431.484091 246.84743 
" style="fill:none;stroke:#d3d3d3;stroke-linecap:square;stroke-width:1.5;"/>
    <g clip-path="url(#p7a99709522)">
     <use style="fill:#d3d3d3;stroke:#d3d3d3;" x="111.565909" xlink:href="#m9d105d3c07" y="55.489017"/>
     <use style="fill:#d3d3d3;stroke:#d3d3d3;" x="164.885606" xlink:href="#m9d105d3c07" y="74.288335"/>
     <use style="fill:#d3d3d3;stroke:#d3d3d3;" x="218.205303" xlink:href="#m9d105d3c07" y="98.30584"/>
     <use style="fill:#d3d3d3;stroke:#d3d3d3;" x="271.525" xlink:href="#m9d105d3c07" y="112.516778"/>
     <use style="fill:#d3d3d3;stroke:#d3d3d3;" x="324.844697" xlink:href="#m9d105d3c07" y="137.746826"/>
     <use style="fill:#d3d3d3;stroke:#d3d3d3;" x="378.164394" xlink:href="#m9d105d3c07" y="183.503962"/>
     <use style="fill:#d3d3d3;stroke:#d3d3d3;" x="431.484091" xlink:href="#m9d105d3c07" y="246.84743"/>
    </g>
   </g>
   <g id="line2d_16">
    <path clip-path="url(#p7a99709522)" d="M 111.565909 61.132456 
L 164.885606 85.24969 
L 218.205303 121.171248 
L 271.525 153.957016 
L 324.844697 186.047871 
L 378.164394 226.001277 
L 431.484091 262.135384 
" style="fill:none;stroke:#d3d3d3;stroke-linecap:square;stroke-width:1.5;"/>
    <g clip-path="url(#p7a99709522)">
     <use style="fill:#d3d3d3;stroke:#d3d3d3;" x="111.565909" xlink:href="#m9d105d3c07" y="61.132456"/>
     <use style="fill:#d3d3d3;stroke:#d3d3d3;" x="164.885606" xlink:href="#m9d105d3c07" y="85.24969"/>
     <use style="fill:#d3d3d3;stroke:#d3d3d3;" x="218.205303" xlink:href="#m9d105d3c07" y="121.171248"/>
     <use style="fill:#d3d3d3;stroke:#d3d3d3;" x="271.525" xlink:href="#m9d105d3c07" y="153.957016"/>
     <use style="fill:#d3d3d3;stroke:#d3d3d3;" x="324.844697" xlink:href="#m9d105d3c07" y="186.047871"/>
     <use style="fill:#d3d3d3;stroke:#d3d3d3;" x="378.164394" xlink:href="#m9d105d3c07" y="226.001277"/>
     <use style="fill:#d3d3d3;stroke:#d3d3d3;" x="431.484091" xlink:href="#m9d105d3c07" y="262.135384"/>
    </g>
   </g>
   <g id="line2d_17">
    <path clip-path="url(#p7a99709522)" d="M 111.565909 65.351933 
L 164.885606 80.814527 
L 218.205303 101.210213 
L 271.525 122.324721 
L 324.844697 149.740455 
L 378.164394 200.173982 
L 431.484091 250.002267 
" style="fill:none;stroke:#d3d3d3;stroke-linecap:square;stroke-width:1.5;"/>
    <g clip-path="url(#p7a99709522)">
     <use style="fill:#d3d3d3;stroke:#d3d3d3;" x="111.565909" xlink:href="#m9d105d3c07" y="65.351933"/>
     <use style="fill:#d3d3d3;stroke:#d3d3d3;" x="164.885606" xlink:href="#m9d105d3c07" y="80.814527"/>
     <use style="fill:#d3d3d3;stroke:#d3d3d3;" x="218.205303" xlink:href="#m9d105d3c07" y="101.210213"/>
     <use style="fill:#d3d3d3;stroke:#d3d3d3;" x="271.525" xlink:href="#m9d105d3c07" y="122.324721"/>
     <use style="fill:#d3d3d3;stroke:#d3d3d3;" x="324.844697" xlink:href="#m9d105d3c07" y="149.740455"/>
     <use style="fill:#d3d3d3;stroke:#d3d3d3;" x="378.164394" xlink:href="#m9d105d3c07" y="200.173982"/>
     <use style="fill:#d3d3d3;stroke:#d3d3d3;" x="431.484091" xlink:href="#m9d105d3c07" y="250.002267"/>
    </g>
   </g>
   <g id="line2d_18">
    <path clip-path="url(#p7a99709522)" d="M 111.565909 49.676786 
L 164.885606 78.906487 
L 218.205303 115.42426 
L 271.525 145.819538 
L 324.844697 166.313725 
L 378.164394 210.121957 
L 431.484091 250.767282 
" style="fill:none;stroke:#d3d3d3;stroke-linecap:square;stroke-width:1.5;"/>
    <g clip-path="url(#p7a99709522)">
     <use style="fill:#d3d3d3;stroke:#d3d3d3;" x="111.565909" xlink:href="#m9d105d3c07" y="49.676786"/>
     <use style="fill:#d3d3d3;stroke:#d3d3d3;" x="164.885606" xlink:href="#m9d105d3c07" y="78.906487"/>
     <use style="fill:#d3d3d3;stroke:#d3d3d3;" x="218.205303" xlink:href="#m9d105d3c07" y="115.42426"/>
     <use style="fill:#d3d3d3;stroke:#d3d3d3;" x="271.525" xlink:href="#m9d105d3c07" y="145.819538"/>
     <use style="fill:#d3d3d3;stroke:#d3d3d3;" x="324.844697" xlink:href="#m9d105d3c07" y="166.313725"/>
     <use style="fill:#d3d3d3;stroke:#d3d3d3;" x="378.164394" xlink:href="#m9d105d3c07" y="210.121957"/>
     <use style="fill:#d3d3d3;stroke:#d3d3d3;" x="431.484091" xlink:href="#m9d105d3c07" y="250.767282"/>
    </g>
   </g>
   <g id="line2d_19">
    <path clip-path="url(#p7a99709522)" d="M 111.565909 73.191738 
L 164.885606 83.886942 
L 218.205303 105.065023 
L 271.525 127.349731 
L 324.844697 153.377317 
L 378.164394 193.858714 
L 431.484091 251.658001 
" style="fill:none;stroke:#d3d3d3;stroke-linecap:square;stroke-width:1.5;"/>
    <g clip-path="url(#p7a99709522)">
     <use style="fill:#d3d3d3;stroke:#d3d3d3;" x="111.565909" xlink:href="#m9d105d3c07" y="73.191738"/>
     <use style="fill:#d3d3d3;stroke:#d3d3d3;" x="164.885606" xlink:href="#m9d105d3c07" y="83.886942"/>
     <use style="fill:#d3d3d3;stroke:#d3d3d3;" x="218.205303" xlink:href="#m9d105d3c07" y="105.065023"/>
     <use style="fill:#d3d3d3;stroke:#d3d3d3;" x="271.525" xlink:href="#m9d105d3c07" y="127.349731"/>
     <use style="fill:#d3d3d3;stroke:#d3d3d3;" x="324.844697" xlink:href="#m9d105d3c07" y="153.377317"/>
     <use style="fill:#d3d3d3;stroke:#d3d3d3;" x="378.164394" xlink:href="#m9d105d3c07" y="193.858714"/>
     <use style="fill:#d3d3d3;stroke:#d3d3d3;" x="431.484091" xlink:href="#m9d105d3c07" y="251.658001"/>
    </g>
   </g>
   <g id="line2d_20">
    <path clip-path="url(#p7a99709522)" d="M 111.565909 49.582257 
L 164.885606 78.870616 
L 218.205303 115.47558 
L 271.525 145.825469 
L 324.844697 166.279604 
L 378.164394 210.164949 
L 431.484091 250.802886 
" style="fill:none;stroke:#d3d3d3;stroke-linecap:square;stroke-width:1.5;"/>
    <g clip-path="url(#p7a99709522)">
     <use style="fill:#d3d3d3;stroke:#d3d3d3;" x="111.565909" xlink:href="#m9d105d3c07" y="49.582257"/>
     <use style="fill:#d3d3d3;stroke:#d3d3d3;" x="164.885606" xlink:href="#m9d105d3c07" y="78.870616"/>
     <use style="fill:#d3d3d3;stroke:#d3d3d3;" x="218.205303" xlink:href="#m9d105d3c07" y="115.47558"/>
     <use style="fill:#d3d3d3;stroke:#d3d3d3;" x="271.525" xlink:href="#m9d105d3c07" y="145.825469"/>
     <use style="fill:#d3d3d3;stroke:#d3d3d3;" x="324.844697" xlink:href="#m9d105d3c07" y="166.279604"/>
     <use style="fill:#d3d3d3;stroke:#d3d3d3;" x="378.164394" xlink:href="#m9d105d3c07" y="210.164949"/>
     <use style="fill:#d3d3d3;stroke:#d3d3d3;" x="431.484091" xlink:href="#m9d105d3c07" y="250.802886"/>
    </g>
   </g>
   <g id="line2d_21">
    <path clip-path="url(#p7a99709522)" d="M 111.565909 58.103805 
L 164.885606 81.090369 
L 218.205303 106.513575 
L 271.525 127.526468 
L 324.844697 148.886789 
L 378.164394 183.602295 
L 431.484091 238.427552 
" style="fill:none;stroke:#d3d3d3;stroke-linecap:square;stroke-width:1.5;"/>
    <g clip-path="url(#p7a99709522)">
     <use style="fill:#d3d3d3;stroke:#d3d3d3;" x="111.565909" xlink:href="#m9d105d3c07" y="58.103805"/>
     <use style="fill:#d3d3d3;stroke:#d3d3d3;" x="164.885606" xlink:href="#m9d105d3c07" y="81.090369"/>
     <use style="fill:#d3d3d3;stroke:#d3d3d3;" x="218.205303" xlink:href="#m9d105d3c07" y="106.513575"/>
     <use style="fill:#d3d3d3;stroke:#d3d3d3;" x="271.525" xlink:href="#m9d105d3c07" y="127.526468"/>
     <use style="fill:#d3d3d3;stroke:#d3d3d3;" x="324.844697" xlink:href="#m9d105d3c07" y="148.886789"/>
     <use style="fill:#d3d3d3;stroke:#d3d3d3;" x="378.164394" xlink:href="#m9d105d3c07" y="183.602295"/>
     <use style="fill:#d3d3d3;stroke:#d3d3d3;" x="431.484091" xlink:href="#m9d105d3c07" y="238.427552"/>
    </g>
   </g>
   <g id="line2d_22">
    <path clip-path="url(#p7a99709522)" d="M 111.565909 47.57814 
L 164.885606 82.885054 
L 218.205303 117.504637 
L 271.525 138.514642 
L 324.844697 145.105649 
L 378.164394 191.235412 
L 431.484091 239.125464 
" style="fill:none;stroke:#d3d3d3;stroke-linecap:square;stroke-width:1.5;"/>
    <g clip-path="url(#p7a99709522)">
     <use style="fill:#d3d3d3;stroke:#d3d3d3;" x="111.565909" xlink:href="#m9d105d3c07" y="47.57814"/>
     <use style="fill:#d3d3d3;stroke:#d3d3d3;" x="164.885606" xlink:href="#m9d105d3c07" y="82.885054"/>
     <use style="fill:#d3d3d3;stroke:#d3d3d3;" x="218.205303" xlink:href="#m9d105d3c07" y="117.504637"/>
     <use style="fill:#d3d3d3;stroke:#d3d3d3;" x="271.525" xlink:href="#m9d105d3c07" y="138.514642"/>
     <use style="fill:#d3d3d3;stroke:#d3d3d3;" x="324.844697" xlink:href="#m9d105d3c07" y="145.105649"/>
     <use style="fill:#d3d3d3;stroke:#d3d3d3;" x="378.164394" xlink:href="#m9d105d3c07" y="191.235412"/>
     <use style="fill:#d3d3d3;stroke:#d3d3d3;" x="431.484091" xlink:href="#m9d105d3c07" y="239.125464"/>
    </g>
   </g>
   <g id="line2d_23">
    <path clip-path="url(#p7a99709522)" d="M 111.565909 60.03971 
L 164.885606 80.118578 
L 218.205303 112.573119 
L 271.525 140.541975 
L 324.844697 172.536767 
L 378.164394 218.764264 
L 431.484091 260.278223 
" style="fill:none;stroke:#d3d3d3;stroke-linecap:square;stroke-width:1.5;"/>
    <g clip-path="url(#p7a99709522)">
     <use style="fill:#d3d3d3;stroke:#d3d3d3;" x="111.565909" xlink:href="#m9d105d3c07" y="60.03971"/>
     <use style="fill:#d3d3d3;stroke:#d3d3d3;" x="164.885606" xlink:href="#m9d105d3c07" y="80.118578"/>
     <use style="fill:#d3d3d3;stroke:#d3d3d3;" x="218.205303" xlink:href="#m9d105d3c07" y="112.573119"/>
     <use style="fill:#d3d3d3;stroke:#d3d3d3;" x="271.525" xlink:href="#m9d105d3c07" y="140.541975"/>
     <use style="fill:#d3d3d3;stroke:#d3d3d3;" x="324.844697" xlink:href="#m9d105d3c07" y="172.536767"/>
     <use style="fill:#d3d3d3;stroke:#d3d3d3;" x="378.164394" xlink:href="#m9d105d3c07" y="218.764264"/>
     <use style="fill:#d3d3d3;stroke:#d3d3d3;" x="431.484091" xlink:href="#m9d105d3c07" y="260.278223"/>
    </g>
   </g>
   <g id="line2d_24">
    <path clip-path="url(#p7a99709522)" d="M 111.565909 37.116198 
L 164.885606 67.899199 
L 218.205303 109.9385 
L 271.525 130.254857 
L 324.844697 145.479685 
L 378.164394 191.128521 
L 431.484091 242.447679 
" style="fill:none;stroke:#d3d3d3;stroke-linecap:square;stroke-width:1.5;"/>
    <g clip-path="url(#p7a99709522)">
     <use style="fill:#d3d3d3;stroke:#d3d3d3;" x="111.565909" xlink:href="#m9d105d3c07" y="37.116198"/>
     <use style="fill:#d3d3d3;stroke:#d3d3d3;" x="164.885606" xlink:href="#m9d105d3c07" y="67.899199"/>
     <use style="fill:#d3d3d3;stroke:#d3d3d3;" x="218.205303" xlink:href="#m9d105d3c07" y="109.9385"/>
     <use style="fill:#d3d3d3;stroke:#d3d3d3;" x="271.525" xlink:href="#m9d105d3c07" y="130.254857"/>
     <use style="fill:#d3d3d3;stroke:#d3d3d3;" x="324.844697" xlink:href="#m9d105d3c07" y="145.479685"/>
     <use style="fill:#d3d3d3;stroke:#d3d3d3;" x="378.164394" xlink:href="#m9d105d3c07" y="191.128521"/>
     <use style="fill:#d3d3d3;stroke:#d3d3d3;" x="431.484091" xlink:href="#m9d105d3c07" y="242.447679"/>
    </g>
   </g>
   <g id="line2d_25">
    <path clip-path="url(#p7a99709522)" d="M 111.565909 65.816834 
L 164.885606 80.301842 
L 218.205303 107.36797 
L 271.525 119.457162 
L 324.844697 136.341054 
L 378.164394 181.402378 
L 431.484091 244.7171 
" style="fill:none;stroke:#d3d3d3;stroke-linecap:square;stroke-width:1.5;"/>
    <g clip-path="url(#p7a99709522)">
     <use style="fill:#d3d3d3;stroke:#d3d3d3;" x="111.565909" xlink:href="#m9d105d3c07" y="65.816834"/>
     <use style="fill:#d3d3d3;stroke:#d3d3d3;" x="164.885606" xlink:href="#m9d105d3c07" y="80.301842"/>
     <use style="fill:#d3d3d3;stroke:#d3d3d3;" x="218.205303" xlink:href="#m9d105d3c07" y="107.36797"/>
     <use style="fill:#d3d3d3;stroke:#d3d3d3;" x="271.525" xlink:href="#m9d105d3c07" y="119.457162"/>
     <use style="fill:#d3d3d3;stroke:#d3d3d3;" x="324.844697" xlink:href="#m9d105d3c07" y="136.341054"/>
     <use style="fill:#d3d3d3;stroke:#d3d3d3;" x="378.164394" xlink:href="#m9d105d3c07" y="181.402378"/>
     <use style="fill:#d3d3d3;stroke:#d3d3d3;" x="431.484091" xlink:href="#m9d105d3c07" y="244.7171"/>
    </g>
   </g>
   <g id="line2d_26">
    <path clip-path="url(#p7a99709522)" d="M 111.565909 62.909189 
L 164.885606 85.416874 
L 218.205303 116.662626 
L 271.525 148.554578 
L 324.844697 183.759037 
L 378.164394 221.970841 
L 431.484091 259.431746 
" style="fill:none;stroke:#d3d3d3;stroke-linecap:square;stroke-width:1.5;"/>
    <g clip-path="url(#p7a99709522)">
     <use style="fill:#d3d3d3;stroke:#d3d3d3;" x="111.565909" xlink:href="#m9d105d3c07" y="62.909189"/>
     <use style="fill:#d3d3d3;stroke:#d3d3d3;" x="164.885606" xlink:href="#m9d105d3c07" y="85.416874"/>
     <use style="fill:#d3d3d3;stroke:#d3d3d3;" x="218.205303" xlink:href="#m9d105d3c07" y="116.662626"/>
     <use style="fill:#d3d3d3;stroke:#d3d3d3;" x="271.525" xlink:href="#m9d105d3c07" y="148.554578"/>
     <use style="fill:#d3d3d3;stroke:#d3d3d3;" x="324.844697" xlink:href="#m9d105d3c07" y="183.759037"/>
     <use style="fill:#d3d3d3;stroke:#d3d3d3;" x="378.164394" xlink:href="#m9d105d3c07" y="221.970841"/>
     <use style="fill:#d3d3d3;stroke:#d3d3d3;" x="431.484091" xlink:href="#m9d105d3c07" y="259.431746"/>
    </g>
   </g>
   <g id="line2d_27">
    <path clip-path="url(#p7a99709522)" d="M 111.565909 72.790671 
L 164.885606 83.057598 
L 218.205303 103.784922 
L 271.525 125.586632 
L 324.844697 150.789367 
L 378.164394 192.231193 
L 431.484091 251.385559 
" style="fill:none;stroke:#d3d3d3;stroke-linecap:square;stroke-width:1.5;"/>
    <g clip-path="url(#p7a99709522)">
     <use style="fill:#d3d3d3;stroke:#d3d3d3;" x="111.565909" xlink:href="#m9d105d3c07" y="72.790671"/>
     <use style="fill:#d3d3d3;stroke:#d3d3d3;" x="164.885606" xlink:href="#m9d105d3c07" y="83.057598"/>
     <use style="fill:#d3d3d3;stroke:#d3d3d3;" x="218.205303" xlink:href="#m9d105d3c07" y="103.784922"/>
     <use style="fill:#d3d3d3;stroke:#d3d3d3;" x="271.525" xlink:href="#m9d105d3c07" y="125.586632"/>
     <use style="fill:#d3d3d3;stroke:#d3d3d3;" x="324.844697" xlink:href="#m9d105d3c07" y="150.789367"/>
     <use style="fill:#d3d3d3;stroke:#d3d3d3;" x="378.164394" xlink:href="#m9d105d3c07" y="192.231193"/>
     <use style="fill:#d3d3d3;stroke:#d3d3d3;" x="431.484091" xlink:href="#m9d105d3c07" y="251.385559"/>
    </g>
   </g>
   <g id="line2d_28">
    <path clip-path="url(#p7a99709522)" d="M 111.565909 65.929171 
L 164.885606 80.383281 
L 218.205303 107.404187 
L 271.525 119.513303 
L 324.844697 136.55515 
L 378.164394 181.434454 
L 431.484091 244.716123 
" style="fill:none;stroke:#d3d3d3;stroke-linecap:square;stroke-width:1.5;"/>
    <g clip-path="url(#p7a99709522)">
     <use style="fill:#d3d3d3;stroke:#d3d3d3;" x="111.565909" xlink:href="#m9d105d3c07" y="65.929171"/>
     <use style="fill:#d3d3d3;stroke:#d3d3d3;" x="164.885606" xlink:href="#m9d105d3c07" y="80.383281"/>
     <use style="fill:#d3d3d3;stroke:#d3d3d3;" x="218.205303" xlink:href="#m9d105d3c07" y="107.404187"/>
     <use style="fill:#d3d3d3;stroke:#d3d3d3;" x="271.525" xlink:href="#m9d105d3c07" y="119.513303"/>
     <use style="fill:#d3d3d3;stroke:#d3d3d3;" x="324.844697" xlink:href="#m9d105d3c07" y="136.55515"/>
     <use style="fill:#d3d3d3;stroke:#d3d3d3;" x="378.164394" xlink:href="#m9d105d3c07" y="181.434454"/>
     <use style="fill:#d3d3d3;stroke:#d3d3d3;" x="431.484091" xlink:href="#m9d105d3c07" y="244.716123"/>
    </g>
   </g>
   <g id="line2d_29">
    <path clip-path="url(#p7a99709522)" d="M 111.565909 60.55456 
L 164.885606 74.189117 
L 218.205303 95.74681 
L 271.525 110.694411 
L 324.844697 133.811042 
L 378.164394 173.922133 
L 431.484091 235.946967 
" style="fill:none;stroke:#d3d3d3;stroke-linecap:square;stroke-width:1.5;"/>
    <g clip-path="url(#p7a99709522)">
     <use style="fill:#d3d3d3;stroke:#d3d3d3;" x="111.565909" xlink:href="#m9d105d3c07" y="60.55456"/>
     <use style="fill:#d3d3d3;stroke:#d3d3d3;" x="164.885606" xlink:href="#m9d105d3c07" y="74.189117"/>
     <use style="fill:#d3d3d3;stroke:#d3d3d3;" x="218.205303" xlink:href="#m9d105d3c07" y="95.74681"/>
     <use style="fill:#d3d3d3;stroke:#d3d3d3;" x="271.525" xlink:href="#m9d105d3c07" y="110.694411"/>
     <use style="fill:#d3d3d3;stroke:#d3d3d3;" x="324.844697" xlink:href="#m9d105d3c07" y="133.811042"/>
     <use style="fill:#d3d3d3;stroke:#d3d3d3;" x="378.164394" xlink:href="#m9d105d3c07" y="173.922133"/>
     <use style="fill:#d3d3d3;stroke:#d3d3d3;" x="431.484091" xlink:href="#m9d105d3c07" y="235.946967"/>
    </g>
   </g>
   <g id="line2d_30">
    <path clip-path="url(#p7a99709522)" d="M 111.565909 60.565689 
L 164.885606 74.205793 
L 218.205303 95.782374 
L 271.525 110.731993 
L 324.844697 133.801831 
L 378.164394 173.943357 
L 431.484091 235.959527 
" style="fill:none;stroke:#d3d3d3;stroke-linecap:square;stroke-width:1.5;"/>
    <g clip-path="url(#p7a99709522)">
     <use style="fill:#d3d3d3;stroke:#d3d3d3;" x="111.565909" xlink:href="#m9d105d3c07" y="60.565689"/>
     <use style="fill:#d3d3d3;stroke:#d3d3d3;" x="164.885606" xlink:href="#m9d105d3c07" y="74.205793"/>
     <use style="fill:#d3d3d3;stroke:#d3d3d3;" x="218.205303" xlink:href="#m9d105d3c07" y="95.782374"/>
     <use style="fill:#d3d3d3;stroke:#d3d3d3;" x="271.525" xlink:href="#m9d105d3c07" y="110.731993"/>
     <use style="fill:#d3d3d3;stroke:#d3d3d3;" x="324.844697" xlink:href="#m9d105d3c07" y="133.801831"/>
     <use style="fill:#d3d3d3;stroke:#d3d3d3;" x="378.164394" xlink:href="#m9d105d3c07" y="173.943357"/>
     <use style="fill:#d3d3d3;stroke:#d3d3d3;" x="431.484091" xlink:href="#m9d105d3c07" y="235.959527"/>
    </g>
   </g>
   <g id="line2d_31">
    <path clip-path="url(#p7a99709522)" d="M 111.565909 37.045652 
L 164.885606 68.025467 
L 218.205303 110.000063 
L 271.525 130.29406 
L 324.844697 145.646781 
L 378.164394 191.292315 
L 431.484091 242.586947 
" style="fill:none;stroke:#d3d3d3;stroke-linecap:square;stroke-width:1.5;"/>
    <g clip-path="url(#p7a99709522)">
     <use style="fill:#d3d3d3;stroke:#d3d3d3;" x="111.565909" xlink:href="#m9d105d3c07" y="37.045652"/>
     <use style="fill:#d3d3d3;stroke:#d3d3d3;" x="164.885606" xlink:href="#m9d105d3c07" y="68.025467"/>
     <use style="fill:#d3d3d3;stroke:#d3d3d3;" x="218.205303" xlink:href="#m9d105d3c07" y="110.000063"/>
     <use style="fill:#d3d3d3;stroke:#d3d3d3;" x="271.525" xlink:href="#m9d105d3c07" y="130.29406"/>
     <use style="fill:#d3d3d3;stroke:#d3d3d3;" x="324.844697" xlink:href="#m9d105d3c07" y="145.646781"/>
     <use style="fill:#d3d3d3;stroke:#d3d3d3;" x="378.164394" xlink:href="#m9d105d3c07" y="191.292315"/>
     <use style="fill:#d3d3d3;stroke:#d3d3d3;" x="431.484091" xlink:href="#m9d105d3c07" y="242.586947"/>
    </g>
   </g>
   <g id="line2d_32">
    <path clip-path="url(#p7a99709522)" d="M 111.565909 73.277306 
L 164.885606 88.123017 
L 218.205303 103.171634 
L 271.525 124.877112 
L 324.844697 157.848258 
L 378.164394 212.853489 
L 431.484091 256.750035 
" style="fill:none;stroke:#d3d3d3;stroke-linecap:square;stroke-width:1.5;"/>
    <g clip-path="url(#p7a99709522)">
     <use style="fill:#d3d3d3;stroke:#d3d3d3;" x="111.565909" xlink:href="#m9d105d3c07" y="73.277306"/>
     <use style="fill:#d3d3d3;stroke:#d3d3d3;" x="164.885606" xlink:href="#m9d105d3c07" y="88.123017"/>
     <use style="fill:#d3d3d3;stroke:#d3d3d3;" x="218.205303" xlink:href="#m9d105d3c07" y="103.171634"/>
     <use style="fill:#d3d3d3;stroke:#d3d3d3;" x="271.525" xlink:href="#m9d105d3c07" y="124.877112"/>
     <use style="fill:#d3d3d3;stroke:#d3d3d3;" x="324.844697" xlink:href="#m9d105d3c07" y="157.848258"/>
     <use style="fill:#d3d3d3;stroke:#d3d3d3;" x="378.164394" xlink:href="#m9d105d3c07" y="212.853489"/>
     <use style="fill:#d3d3d3;stroke:#d3d3d3;" x="431.484091" xlink:href="#m9d105d3c07" y="256.750035"/>
    </g>
   </g>
   <g id="line2d_33">
    <path clip-path="url(#p7a99709522)" d="M 111.565909 50.450041 
L 164.885606 73.477744 
L 218.205303 102.155185 
L 271.525 134.445976 
L 324.844697 175.467797 
L 378.164394 226.903739 
L 431.484091 263.809439 
" style="fill:none;stroke:#d3d3d3;stroke-linecap:square;stroke-width:1.5;"/>
    <g clip-path="url(#p7a99709522)">
     <use style="fill:#d3d3d3;stroke:#d3d3d3;" x="111.565909" xlink:href="#m9d105d3c07" y="50.450041"/>
     <use style="fill:#d3d3d3;stroke:#d3d3d3;" x="164.885606" xlink:href="#m9d105d3c07" y="73.477744"/>
     <use style="fill:#d3d3d3;stroke:#d3d3d3;" x="218.205303" xlink:href="#m9d105d3c07" y="102.155185"/>
     <use style="fill:#d3d3d3;stroke:#d3d3d3;" x="271.525" xlink:href="#m9d105d3c07" y="134.445976"/>
     <use style="fill:#d3d3d3;stroke:#d3d3d3;" x="324.844697" xlink:href="#m9d105d3c07" y="175.467797"/>
     <use style="fill:#d3d3d3;stroke:#d3d3d3;" x="378.164394" xlink:href="#m9d105d3c07" y="226.903739"/>
     <use style="fill:#d3d3d3;stroke:#d3d3d3;" x="431.484091" xlink:href="#m9d105d3c07" y="263.809439"/>
    </g>
   </g>
   <g id="patch_3">
    <path d="M 95.57 283.48 
L 95.57 18.72 
" style="fill:none;stroke:#000000;stroke-linecap:square;stroke-linejoin:miter;stroke-width:0.8;"/>
   </g>
   <g id="patch_4">
    <path d="M 447.48 283.48 
L 447.48 18.72 
" style="fill:none;stroke:#000000;stroke-linecap:square;stroke-linejoin:miter;stroke-width:0.8;"/>
   </g>
   <g id="patch_5">
    <path d="M 95.57 283.48 
L 447.48 283.48 
" style="fill:none;stroke:#000000;stroke-linecap:square;stroke-linejoin:miter;stroke-width:0.8;"/>
   </g>
   <g id="patch_6">
    <path d="M 95.57 18.72 
L 447.48 18.72 
" style="fill:none;stroke:#000000;stroke-linecap:square;stroke-linejoin:miter;stroke-width:0.8;"/>
   </g>
   <g id="LineCollection_1">
    <path clip-path="url(#p7a99709522)" d="M 111.565909 68.719933 
L 111.565909 47.715071 
" style="fill:none;stroke:#ff0000;stroke-width:2;"/>
    <path clip-path="url(#p7a99709522)" d="M 164.885606 85.668319 
L 164.885606 73.893325 
" style="fill:none;stroke:#ff0000;stroke-width:2;"/>
    <path clip-path="url(#p7a99709522)" d="M 218.205303 116.354846 
L 218.205303 101.05292 
" style="fill:none;stroke:#ff0000;stroke-width:2;"/>
    <path clip-path="url(#p7a99709522)" d="M 271.525 143.773586 
L 271.525 118.538428 
" style="fill:none;stroke:#ff0000;stroke-width:2;"/>
    <path clip-path="url(#p7a99709522)" d="M 324.844697 171.40151 
L 324.844697 138.232189 
" style="fill:none;stroke:#ff0000;stroke-width:2;"/>
    <path clip-path="url(#p7a99709522)" d="M 378.164394 215.398894 
L 378.164394 182.003051 
" style="fill:none;stroke:#ff0000;stroke-width:2;"/>
    <path clip-path="url(#p7a99709522)" d="M 431.484091 257.489636 
L 431.484091 240.182589 
" style="fill:none;stroke:#ff0000;stroke-width:2;"/>
   </g>
   <g id="line2d_34">
    <defs>
     <path d="M 5 0 
L -5 -0 
" id="ma4917f9622" style="stroke:#ff0000;"/>
    </defs>
    <g clip-path="url(#p7a99709522)">
     <use style="fill:#ff0000;stroke:#ff0000;" x="111.565909" xlink:href="#ma4917f9622" y="68.719933"/>
     <use style="fill:#ff0000;stroke:#ff0000;" x="164.885606" xlink:href="#ma4917f9622" y="85.668319"/>
     <use style="fill:#ff0000;stroke:#ff0000;" x="218.205303" xlink:href="#ma4917f9622" y="116.354846"/>
     <use style="fill:#ff0000;stroke:#ff0000;" x="271.525" xlink:href="#ma4917f9622" y="143.773586"/>
     <use style="fill:#ff0000;stroke:#ff0000;" x="324.844697" xlink:href="#ma4917f9622" y="171.40151"/>
     <use style="fill:#ff0000;stroke:#ff0000;" x="378.164394" xlink:href="#ma4917f9622" y="215.398894"/>
     <use style="fill:#ff0000;stroke:#ff0000;" x="431.484091" xlink:href="#ma4917f9622" y="257.489636"/>
    </g>
   </g>
   <g id="line2d_35">
    <g clip-path="url(#p7a99709522)">
     <use style="fill:#ff0000;stroke:#ff0000;" x="111.565909" xlink:href="#ma4917f9622" y="47.715071"/>
     <use style="fill:#ff0000;stroke:#ff0000;" x="164.885606" xlink:href="#ma4917f9622" y="73.893325"/>
     <use style="fill:#ff0000;stroke:#ff0000;" x="218.205303" xlink:href="#ma4917f9622" y="101.05292"/>
     <use style="fill:#ff0000;stroke:#ff0000;" x="271.525" xlink:href="#ma4917f9622" y="118.538428"/>
     <use style="fill:#ff0000;stroke:#ff0000;" x="324.844697" xlink:href="#ma4917f9622" y="138.232189"/>
     <use style="fill:#ff0000;stroke:#ff0000;" x="378.164394" xlink:href="#ma4917f9622" y="182.003051"/>
     <use style="fill:#ff0000;stroke:#ff0000;" x="431.484091" xlink:href="#ma4917f9622" y="240.182589"/>
    </g>
   </g>
   <g id="line2d_36">
    <path clip-path="url(#p7a99709522)" d="M 111.565909 58.217502 
L 164.885606 79.780822 
L 218.205303 108.703883 
L 271.525 131.156007 
L 324.844697 154.81685 
L 378.164394 198.700973 
L 431.484091 248.836112 
" style="fill:none;stroke:#ff0000;stroke-linecap:square;stroke-width:2;"/>
    <defs>
     <path d="M 0 3 
C 0.795609 3 1.55874 2.683901 2.12132 2.12132 
C 2.683901 1.55874 3 0.795609 3 0 
C 3 -0.795609 2.683901 -1.55874 2.12132 -2.12132 
C 1.55874 -2.683901 0.795609 -3 0 -3 
C -0.795609 -3 -1.55874 -2.683901 -2.12132 -2.12132 
C -2.683901 -1.55874 -3 -0.795609 -3 0 
C -3 0.795609 -2.683901 1.55874 -2.12132 2.12132 
C -1.55874 2.683901 -0.795609 3 0 3 
z
" id="mea7b95d874" style="stroke:#ff0000;"/>
    </defs>
    <g clip-path="url(#p7a99709522)">
     <use style="fill:#ff0000;stroke:#ff0000;" x="111.565909" xlink:href="#mea7b95d874" y="58.217502"/>
     <use style="fill:#ff0000;stroke:#ff0000;" x="164.885606" xlink:href="#mea7b95d874" y="79.780822"/>
     <use style="fill:#ff0000;stroke:#ff0000;" x="218.205303" xlink:href="#mea7b95d874" y="108.703883"/>
     <use style="fill:#ff0000;stroke:#ff0000;" x="271.525" xlink:href="#mea7b95d874" y="131.156007"/>
     <use style="fill:#ff0000;stroke:#ff0000;" x="324.844697" xlink:href="#mea7b95d874" y="154.81685"/>
     <use style="fill:#ff0000;stroke:#ff0000;" x="378.164394" xlink:href="#mea7b95d874" y="198.700973"/>
     <use style="fill:#ff0000;stroke:#ff0000;" x="431.484091" xlink:href="#mea7b95d874" y="248.836112"/>
    </g>
   </g>
  </g>
 </g>
 <defs>
  <clipPath id="p7a99709522">
   <rect height="264.76" width="351.91" x="95.57" y="18.72"/>
  </clipPath>
 </defs>
</svg>
