<?xml version="1.0" encoding="utf-8" standalone="no"?>
<!DOCTYPE svg PUBLIC "-//W3C//DTD SVG 1.1//EN"
  "http://www.w3.org/Graphics/SVG/1.1/DTD/svg11.dtd">
<!-- Created with matplotlib (https://matplotlib.org/) -->
<svg height="345.6pt" version="1.1" viewBox="0 0 460.8 345.6" width="460.8pt" xmlns="http://www.w3.org/2000/svg" xmlns:xlink="http://www.w3.org/1999/xlink">
 <defs>
  <style type="text/css">
*{stroke-linecap:butt;stroke-linejoin:round;}
  </style>
 </defs>
 <g id="figure_1">
  <g id="patch_1">
   <path d="M 0 345.6 
L 460.8 345.6 
L 460.8 0 
L 0 0 
z
" style="fill:#ffffff;"/>
  </g>
  <g id="axes_1">
   <g id="patch_2">
    <path d="M 75.05 289.24 
L 447.48 289.24 
L 447.48 13.32 
L 75.05 13.32 
z
" style="fill:#ffffff;"/>
   </g>
   <g id="matplotlib.axis_1">
    <g id="xtick_1">
     <g id="line2d_1">
      <defs>
       <path d="M 0 0 
L 0 3.5 
" id="mc0274e281b" style="stroke:#000000;stroke-width:0.8;"/>
      </defs>
      <g>
       <use style="stroke:#000000;stroke-width:0.8;" x="91.978636" xlink:href="#mc0274e281b" y="289.24"/>
      </g>
     </g>
     <g id="text_1">
      <!-- 1 -->
      <defs>
       <path d="M 12.40625 8.296875 
L 28.515625 8.296875 
L 28.515625 63.921875 
L 10.984375 60.40625 
L 10.984375 69.390625 
L 28.421875 72.90625 
L 38.28125 72.90625 
L 38.28125 8.296875 
L 54.390625 8.296875 
L 54.390625 0 
L 12.40625 0 
z
" id="DejaVuSans-49"/>
      </defs>
      <g transform="translate(86.570511 309.157344)scale(0.17 -0.17)">
       <use xlink:href="#DejaVuSans-49"/>
      </g>
     </g>
    </g>
    <g id="xtick_2">
     <g id="line2d_2">
      <g>
       <use style="stroke:#000000;stroke-width:0.8;" x="176.621818" xlink:href="#mc0274e281b" y="289.24"/>
      </g>
     </g>
     <g id="text_2">
      <!-- 2 -->
      <defs>
       <path d="M 19.1875 8.296875 
L 53.609375 8.296875 
L 53.609375 0 
L 7.328125 0 
L 7.328125 8.296875 
Q 12.9375 14.109375 22.625 23.890625 
Q 32.328125 33.6875 34.8125 36.53125 
Q 39.546875 41.84375 41.421875 45.53125 
Q 43.3125 49.21875 43.3125 52.78125 
Q 43.3125 58.59375 39.234375 62.25 
Q 35.15625 65.921875 28.609375 65.921875 
Q 23.96875 65.921875 18.8125 64.3125 
Q 13.671875 62.703125 7.8125 59.421875 
L 7.8125 69.390625 
Q 13.765625 71.78125 18.9375 73 
Q 24.125 74.21875 28.421875 74.21875 
Q 39.75 74.21875 46.484375 68.546875 
Q 53.21875 62.890625 53.21875 53.421875 
Q 53.21875 48.921875 51.53125 44.890625 
Q 49.859375 40.875 45.40625 35.40625 
Q 44.1875 33.984375 37.640625 27.21875 
Q 31.109375 20.453125 19.1875 8.296875 
z
" id="DejaVuSans-50"/>
      </defs>
      <g transform="translate(171.213693 309.157344)scale(0.17 -0.17)">
       <use xlink:href="#DejaVuSans-50"/>
      </g>
     </g>
    </g>
    <g id="xtick_3">
     <g id="line2d_3">
      <g>
       <use style="stroke:#000000;stroke-width:0.8;" x="261.265" xlink:href="#mc0274e281b" y="289.24"/>
      </g>
     </g>
     <g id="text_3">
      <!-- 3 -->
      <defs>
       <path d="M 40.578125 39.3125 
Q 47.65625 37.796875 51.625 33 
Q 55.609375 28.21875 55.609375 21.1875 
Q 55.609375 10.40625 48.1875 4.484375 
Q 40.765625 -1.421875 27.09375 -1.421875 
Q 22.515625 -1.421875 17.65625 -0.515625 
Q 12.796875 0.390625 7.625 2.203125 
L 7.625 11.71875 
Q 11.71875 9.328125 16.59375 8.109375 
Q 21.484375 6.890625 26.8125 6.890625 
Q 36.078125 6.890625 40.9375 10.546875 
Q 45.796875 14.203125 45.796875 21.1875 
Q 45.796875 27.640625 41.28125 31.265625 
Q 36.765625 34.90625 28.71875 34.90625 
L 20.21875 34.90625 
L 20.21875 43.015625 
L 29.109375 43.015625 
Q 36.375 43.015625 40.234375 45.921875 
Q 44.09375 48.828125 44.09375 54.296875 
Q 44.09375 59.90625 40.109375 62.90625 
Q 36.140625 65.921875 28.71875 65.921875 
Q 24.65625 65.921875 20.015625 65.03125 
Q 15.375 64.15625 9.8125 62.3125 
L 9.8125 71.09375 
Q 15.4375 72.65625 20.34375 73.4375 
Q 25.25 74.21875 29.59375 74.21875 
Q 40.828125 74.21875 47.359375 69.109375 
Q 53.90625 64.015625 53.90625 55.328125 
Q 53.90625 49.265625 50.4375 45.09375 
Q 46.96875 40.921875 40.578125 39.3125 
z
" id="DejaVuSans-51"/>
      </defs>
      <g transform="translate(255.856875 309.157344)scale(0.17 -0.17)">
       <use xlink:href="#DejaVuSans-51"/>
      </g>
     </g>
    </g>
    <g id="xtick_4">
     <g id="line2d_4">
      <g>
       <use style="stroke:#000000;stroke-width:0.8;" x="345.908182" xlink:href="#mc0274e281b" y="289.24"/>
      </g>
     </g>
     <g id="text_4">
      <!-- 4 -->
      <defs>
       <path d="M 37.796875 64.3125 
L 12.890625 25.390625 
L 37.796875 25.390625 
z
M 35.203125 72.90625 
L 47.609375 72.90625 
L 47.609375 25.390625 
L 58.015625 25.390625 
L 58.015625 17.1875 
L 47.609375 17.1875 
L 47.609375 0 
L 37.796875 0 
L 37.796875 17.1875 
L 4.890625 17.1875 
L 4.890625 26.703125 
z
" id="DejaVuSans-52"/>
      </defs>
      <g transform="translate(340.500057 309.157344)scale(0.17 -0.17)">
       <use xlink:href="#DejaVuSans-52"/>
      </g>
     </g>
    </g>
    <g id="xtick_5">
     <g id="line2d_5">
      <g>
       <use style="stroke:#000000;stroke-width:0.8;" x="430.551364" xlink:href="#mc0274e281b" y="289.24"/>
      </g>
     </g>
     <g id="text_5">
      <!-- 5 -->
      <defs>
       <path d="M 10.796875 72.90625 
L 49.515625 72.90625 
L 49.515625 64.59375 
L 19.828125 64.59375 
L 19.828125 46.734375 
Q 21.96875 47.46875 24.109375 47.828125 
Q 26.265625 48.1875 28.421875 48.1875 
Q 40.625 48.1875 47.75 41.5 
Q 54.890625 34.8125 54.890625 23.390625 
Q 54.890625 11.625 47.5625 5.09375 
Q 40.234375 -1.421875 26.90625 -1.421875 
Q 22.3125 -1.421875 17.546875 -0.640625 
Q 12.796875 0.140625 7.71875 1.703125 
L 7.71875 11.625 
Q 12.109375 9.234375 16.796875 8.0625 
Q 21.484375 6.890625 26.703125 6.890625 
Q 35.15625 6.890625 40.078125 11.328125 
Q 45.015625 15.765625 45.015625 23.390625 
Q 45.015625 31 40.078125 35.4375 
Q 35.15625 39.890625 26.703125 39.890625 
Q 22.75 39.890625 18.8125 39.015625 
Q 14.890625 38.140625 10.796875 36.28125 
z
" id="DejaVuSans-53"/>
      </defs>
      <g transform="translate(425.143239 309.157344)scale(0.17 -0.17)">
       <use xlink:href="#DejaVuSans-53"/>
      </g>
     </g>
    </g>
    <g id="text_6">
     <!-- $i$ -->
     <defs>
      <path d="M 18.3125 75.984375 
L 27.296875 75.984375 
L 25.09375 64.59375 
L 16.109375 64.59375 
z
M 14.203125 54.6875 
L 23.1875 54.6875 
L 12.5 0 
L 3.515625 0 
z
" id="DejaVuSans-Oblique-105"/>
     </defs>
     <g transform="translate(258.885 329.610156)scale(0.17 -0.17)">
      <use transform="translate(0 0.015625)" xlink:href="#DejaVuSans-Oblique-105"/>
     </g>
    </g>
   </g>
   <g id="matplotlib.axis_2">
    <g id="ytick_1">
     <g id="line2d_6">
      <defs>
       <path d="M 0 0 
L -3.5 0 
" id="m0905733bc2" style="stroke:#000000;stroke-width:0.8;"/>
      </defs>
      <g>
       <use style="stroke:#000000;stroke-width:0.8;" x="75.05" xlink:href="#m0905733bc2" y="289.24"/>
      </g>
     </g>
     <g id="text_7">
      <!-- 0.0 -->
      <defs>
       <path d="M 31.78125 66.40625 
Q 24.171875 66.40625 20.328125 58.90625 
Q 16.5 51.421875 16.5 36.375 
Q 16.5 21.390625 20.328125 13.890625 
Q 24.171875 6.390625 31.78125 6.390625 
Q 39.453125 6.390625 43.28125 13.890625 
Q 47.125 21.390625 47.125 36.375 
Q 47.125 51.421875 43.28125 58.90625 
Q 39.453125 66.40625 31.78125 66.40625 
z
M 31.78125 74.21875 
Q 44.046875 74.21875 50.515625 64.515625 
Q 56.984375 54.828125 56.984375 36.375 
Q 56.984375 17.96875 50.515625 8.265625 
Q 44.046875 -1.421875 31.78125 -1.421875 
Q 19.53125 -1.421875 13.0625 8.265625 
Q 6.59375 17.96875 6.59375 36.375 
Q 6.59375 54.828125 13.0625 64.515625 
Q 19.53125 74.21875 31.78125 74.21875 
z
" id="DejaVuSans-48"/>
       <path d="M 10.6875 12.40625 
L 21 12.40625 
L 21 0 
L 10.6875 0 
z
" id="DejaVuSans-46"/>
      </defs>
      <g transform="translate(41.014688 295.698672)scale(0.17 -0.17)">
       <use xlink:href="#DejaVuSans-48"/>
       <use x="63.623047" xlink:href="#DejaVuSans-46"/>
       <use x="95.410156" xlink:href="#DejaVuSans-48"/>
      </g>
     </g>
    </g>
    <g id="ytick_2">
     <g id="line2d_7">
      <g>
       <use style="stroke:#000000;stroke-width:0.8;" x="75.05" xlink:href="#m0905733bc2" y="223.075903"/>
      </g>
     </g>
     <g id="text_8">
      <!-- 0.5 -->
      <g transform="translate(41.014688 229.534575)scale(0.17 -0.17)">
       <use xlink:href="#DejaVuSans-48"/>
       <use x="63.623047" xlink:href="#DejaVuSans-46"/>
       <use x="95.410156" xlink:href="#DejaVuSans-53"/>
      </g>
     </g>
    </g>
    <g id="ytick_3">
     <g id="line2d_8">
      <g>
       <use style="stroke:#000000;stroke-width:0.8;" x="75.05" xlink:href="#m0905733bc2" y="156.911806"/>
      </g>
     </g>
     <g id="text_9">
      <!-- 1.0 -->
      <g transform="translate(41.014688 163.370478)scale(0.17 -0.17)">
       <use xlink:href="#DejaVuSans-49"/>
       <use x="63.623047" xlink:href="#DejaVuSans-46"/>
       <use x="95.410156" xlink:href="#DejaVuSans-48"/>
      </g>
     </g>
    </g>
    <g id="ytick_4">
     <g id="line2d_9">
      <g>
       <use style="stroke:#000000;stroke-width:0.8;" x="75.05" xlink:href="#m0905733bc2" y="90.747709"/>
      </g>
     </g>
     <g id="text_10">
      <!-- 1.5 -->
      <g transform="translate(41.014688 97.20638)scale(0.17 -0.17)">
       <use xlink:href="#DejaVuSans-49"/>
       <use x="63.623047" xlink:href="#DejaVuSans-46"/>
       <use x="95.410156" xlink:href="#DejaVuSans-53"/>
      </g>
     </g>
    </g>
    <g id="ytick_5">
     <g id="line2d_10">
      <g>
       <use style="stroke:#000000;stroke-width:0.8;" x="75.05" xlink:href="#m0905733bc2" y="24.583611"/>
      </g>
     </g>
     <g id="text_11">
      <!-- 2.0 -->
      <g transform="translate(41.014688 31.042283)scale(0.17 -0.17)">
       <use xlink:href="#DejaVuSans-50"/>
       <use x="63.623047" xlink:href="#DejaVuSans-46"/>
       <use x="95.410156" xlink:href="#DejaVuSans-48"/>
      </g>
     </g>
    </g>
    <g id="text_12">
     <!-- Value of $\gamma_i$ -->
     <defs>
      <path d="M 28.609375 0 
L 0.78125 72.90625 
L 11.078125 72.90625 
L 34.1875 11.53125 
L 57.328125 72.90625 
L 67.578125 72.90625 
L 39.796875 0 
z
" id="DejaVuSans-86"/>
      <path d="M 34.28125 27.484375 
Q 23.390625 27.484375 19.1875 25 
Q 14.984375 22.515625 14.984375 16.5 
Q 14.984375 11.71875 18.140625 8.90625 
Q 21.296875 6.109375 26.703125 6.109375 
Q 34.1875 6.109375 38.703125 11.40625 
Q 43.21875 16.703125 43.21875 25.484375 
L 43.21875 27.484375 
z
M 52.203125 31.203125 
L 52.203125 0 
L 43.21875 0 
L 43.21875 8.296875 
Q 40.140625 3.328125 35.546875 0.953125 
Q 30.953125 -1.421875 24.3125 -1.421875 
Q 15.921875 -1.421875 10.953125 3.296875 
Q 6 8.015625 6 15.921875 
Q 6 25.140625 12.171875 29.828125 
Q 18.359375 34.515625 30.609375 34.515625 
L 43.21875 34.515625 
L 43.21875 35.40625 
Q 43.21875 41.609375 39.140625 45 
Q 35.0625 48.390625 27.6875 48.390625 
Q 23 48.390625 18.546875 47.265625 
Q 14.109375 46.140625 10.015625 43.890625 
L 10.015625 52.203125 
Q 14.9375 54.109375 19.578125 55.046875 
Q 24.21875 56 28.609375 56 
Q 40.484375 56 46.34375 49.84375 
Q 52.203125 43.703125 52.203125 31.203125 
z
" id="DejaVuSans-97"/>
      <path d="M 9.421875 75.984375 
L 18.40625 75.984375 
L 18.40625 0 
L 9.421875 0 
z
" id="DejaVuSans-108"/>
      <path d="M 8.5 21.578125 
L 8.5 54.6875 
L 17.484375 54.6875 
L 17.484375 21.921875 
Q 17.484375 14.15625 20.5 10.265625 
Q 23.53125 6.390625 29.59375 6.390625 
Q 36.859375 6.390625 41.078125 11.03125 
Q 45.3125 15.671875 45.3125 23.6875 
L 45.3125 54.6875 
L 54.296875 54.6875 
L 54.296875 0 
L 45.3125 0 
L 45.3125 8.40625 
Q 42.046875 3.421875 37.71875 1 
Q 33.40625 -1.421875 27.6875 -1.421875 
Q 18.265625 -1.421875 13.375 4.4375 
Q 8.5 10.296875 8.5 21.578125 
z
M 31.109375 56 
z
" id="DejaVuSans-117"/>
      <path d="M 56.203125 29.59375 
L 56.203125 25.203125 
L 14.890625 25.203125 
Q 15.484375 15.921875 20.484375 11.0625 
Q 25.484375 6.203125 34.421875 6.203125 
Q 39.59375 6.203125 44.453125 7.46875 
Q 49.3125 8.734375 54.109375 11.28125 
L 54.109375 2.78125 
Q 49.265625 0.734375 44.1875 -0.34375 
Q 39.109375 -1.421875 33.890625 -1.421875 
Q 20.796875 -1.421875 13.15625 6.1875 
Q 5.515625 13.8125 5.515625 26.8125 
Q 5.515625 40.234375 12.765625 48.109375 
Q 20.015625 56 32.328125 56 
Q 43.359375 56 49.78125 48.890625 
Q 56.203125 41.796875 56.203125 29.59375 
z
M 47.21875 32.234375 
Q 47.125 39.59375 43.09375 43.984375 
Q 39.0625 48.390625 32.421875 48.390625 
Q 24.90625 48.390625 20.390625 44.140625 
Q 15.875 39.890625 15.1875 32.171875 
z
" id="DejaVuSans-101"/>
      <path id="DejaVuSans-32"/>
      <path d="M 30.609375 48.390625 
Q 23.390625 48.390625 19.1875 42.75 
Q 14.984375 37.109375 14.984375 27.296875 
Q 14.984375 17.484375 19.15625 11.84375 
Q 23.34375 6.203125 30.609375 6.203125 
Q 37.796875 6.203125 41.984375 11.859375 
Q 46.1875 17.53125 46.1875 27.296875 
Q 46.1875 37.015625 41.984375 42.703125 
Q 37.796875 48.390625 30.609375 48.390625 
z
M 30.609375 56 
Q 42.328125 56 49.015625 48.375 
Q 55.71875 40.765625 55.71875 27.296875 
Q 55.71875 13.875 49.015625 6.21875 
Q 42.328125 -1.421875 30.609375 -1.421875 
Q 18.84375 -1.421875 12.171875 6.21875 
Q 5.515625 13.875 5.515625 27.296875 
Q 5.515625 40.765625 12.171875 48.375 
Q 18.84375 56 30.609375 56 
z
" id="DejaVuSans-111"/>
      <path d="M 37.109375 75.984375 
L 37.109375 68.5 
L 28.515625 68.5 
Q 23.6875 68.5 21.796875 66.546875 
Q 19.921875 64.59375 19.921875 59.515625 
L 19.921875 54.6875 
L 34.71875 54.6875 
L 34.71875 47.703125 
L 19.921875 47.703125 
L 19.921875 0 
L 10.890625 0 
L 10.890625 47.703125 
L 2.296875 47.703125 
L 2.296875 54.6875 
L 10.890625 54.6875 
L 10.890625 58.5 
Q 10.890625 67.625 15.140625 71.796875 
Q 19.390625 75.984375 28.609375 75.984375 
z
" id="DejaVuSans-102"/>
      <path d="M 23.296875 46.09375 
L 28.71875 12.3125 
L 54 54.6875 
L 63.53125 54.6875 
L 30.8125 0 
L 26.765625 -20.796875 
L 17.78125 -20.796875 
L 21.828125 0 
L 15.4375 40.828125 
Q 14.453125 46.96875 9.8125 46.96875 
L 7.421875 46.96875 
L 8.890625 54.6875 
L 12.3125 54.6875 
Q 21.921875 54.6875 23.296875 46.09375 
z
" id="DejaVuSans-Oblique-947"/>
     </defs>
     <g transform="translate(27.444688 195.82)rotate(-90)scale(0.17 -0.17)">
      <use transform="translate(0 0.015625)" xlink:href="#DejaVuSans-86"/>
      <use transform="translate(68.408203 0.015625)" xlink:href="#DejaVuSans-97"/>
      <use transform="translate(129.6875 0.015625)" xlink:href="#DejaVuSans-108"/>
      <use transform="translate(157.470703 0.015625)" xlink:href="#DejaVuSans-117"/>
      <use transform="translate(220.849609 0.015625)" xlink:href="#DejaVuSans-101"/>
      <use transform="translate(282.373047 0.015625)" xlink:href="#DejaVuSans-32"/>
      <use transform="translate(314.160156 0.015625)" xlink:href="#DejaVuSans-111"/>
      <use transform="translate(375.341797 0.015625)" xlink:href="#DejaVuSans-102"/>
      <use transform="translate(410.546875 0.015625)" xlink:href="#DejaVuSans-32"/>
      <use transform="translate(442.333984 0.015625)" xlink:href="#DejaVuSans-Oblique-947"/>
      <use transform="translate(501.513672 -16.390625)scale(0.7)" xlink:href="#DejaVuSans-Oblique-105"/>
     </g>
    </g>
   </g>
   <g id="line2d_11">
    <path clip-path="url(#p7e4da75a94)" d="M 91.978636 242.926331 
L 176.621818 178.451552 
L 261.265 133.383724 
L 345.908182 89.372675 
L 430.551364 65.113952 
" style="fill:none;stroke:#d3d3d3;stroke-linecap:square;stroke-width:1.5;"/>
    <defs>
     <path d="M 0 3 
C 0.795609 3 1.55874 2.683901 2.12132 2.12132 
C 2.683901 1.55874 3 0.795609 3 0 
C 3 -0.795609 2.683901 -1.55874 2.12132 -2.12132 
C 1.55874 -2.683901 0.795609 -3 0 -3 
C -0.795609 -3 -1.55874 -2.683901 -2.12132 -2.12132 
C -2.683901 -1.55874 -3 -0.795609 -3 0 
C -3 0.795609 -2.683901 1.55874 -2.12132 2.12132 
C -1.55874 2.683901 -0.795609 3 0 3 
z
" id="m18af5ada07" style="stroke:#d3d3d3;"/>
    </defs>
    <g clip-path="url(#p7e4da75a94)">
     <use style="fill:#d3d3d3;stroke:#d3d3d3;" x="91.978636" xlink:href="#m18af5ada07" y="242.926331"/>
     <use style="fill:#d3d3d3;stroke:#d3d3d3;" x="176.621818" xlink:href="#m18af5ada07" y="178.451552"/>
     <use style="fill:#d3d3d3;stroke:#d3d3d3;" x="261.265" xlink:href="#m18af5ada07" y="133.383724"/>
     <use style="fill:#d3d3d3;stroke:#d3d3d3;" x="345.908182" xlink:href="#m18af5ada07" y="89.372675"/>
     <use style="fill:#d3d3d3;stroke:#d3d3d3;" x="430.551364" xlink:href="#m18af5ada07" y="65.113952"/>
    </g>
   </g>
   <g id="line2d_12">
    <path clip-path="url(#p7e4da75a94)" d="M 91.978636 216.293098 
L 176.621818 129.388789 
L 261.265 112.14588 
L 345.908182 78.131972 
L 430.551364 55.525394 
" style="fill:none;stroke:#d3d3d3;stroke-linecap:square;stroke-width:1.5;"/>
    <g clip-path="url(#p7e4da75a94)">
     <use style="fill:#d3d3d3;stroke:#d3d3d3;" x="91.978636" xlink:href="#m18af5ada07" y="216.293098"/>
     <use style="fill:#d3d3d3;stroke:#d3d3d3;" x="176.621818" xlink:href="#m18af5ada07" y="129.388789"/>
     <use style="fill:#d3d3d3;stroke:#d3d3d3;" x="261.265" xlink:href="#m18af5ada07" y="112.14588"/>
     <use style="fill:#d3d3d3;stroke:#d3d3d3;" x="345.908182" xlink:href="#m18af5ada07" y="78.131972"/>
     <use style="fill:#d3d3d3;stroke:#d3d3d3;" x="430.551364" xlink:href="#m18af5ada07" y="55.525394"/>
    </g>
   </g>
   <g id="line2d_13">
    <path clip-path="url(#p7e4da75a94)" d="M 91.978636 246.258005 
L 176.621818 182.655697 
L 261.265 133.160133 
L 345.908182 83.020279 
L 430.551364 52.347964 
" style="fill:none;stroke:#d3d3d3;stroke-linecap:square;stroke-width:1.5;"/>
    <g clip-path="url(#p7e4da75a94)">
     <use style="fill:#d3d3d3;stroke:#d3d3d3;" x="91.978636" xlink:href="#m18af5ada07" y="246.258005"/>
     <use style="fill:#d3d3d3;stroke:#d3d3d3;" x="176.621818" xlink:href="#m18af5ada07" y="182.655697"/>
     <use style="fill:#d3d3d3;stroke:#d3d3d3;" x="261.265" xlink:href="#m18af5ada07" y="133.160133"/>
     <use style="fill:#d3d3d3;stroke:#d3d3d3;" x="345.908182" xlink:href="#m18af5ada07" y="83.020279"/>
     <use style="fill:#d3d3d3;stroke:#d3d3d3;" x="430.551364" xlink:href="#m18af5ada07" y="52.347964"/>
    </g>
   </g>
   <g id="line2d_14">
    <path clip-path="url(#p7e4da75a94)" d="M 91.978636 224.97552 
L 176.621818 143.486788 
L 261.265 89.994989 
L 345.908182 71.161547 
L 430.551364 72.995317 
" style="fill:none;stroke:#d3d3d3;stroke-linecap:square;stroke-width:1.5;"/>
    <g clip-path="url(#p7e4da75a94)">
     <use style="fill:#d3d3d3;stroke:#d3d3d3;" x="91.978636" xlink:href="#m18af5ada07" y="224.97552"/>
     <use style="fill:#d3d3d3;stroke:#d3d3d3;" x="176.621818" xlink:href="#m18af5ada07" y="143.486788"/>
     <use style="fill:#d3d3d3;stroke:#d3d3d3;" x="261.265" xlink:href="#m18af5ada07" y="89.994989"/>
     <use style="fill:#d3d3d3;stroke:#d3d3d3;" x="345.908182" xlink:href="#m18af5ada07" y="71.161547"/>
     <use style="fill:#d3d3d3;stroke:#d3d3d3;" x="430.551364" xlink:href="#m18af5ada07" y="72.995317"/>
    </g>
   </g>
   <g id="line2d_15">
    <path clip-path="url(#p7e4da75a94)" d="M 91.978636 255.234908 
L 176.621818 188.290054 
L 261.265 143.658537 
L 345.908182 80.747156 
L 430.551364 39.761932 
" style="fill:none;stroke:#d3d3d3;stroke-linecap:square;stroke-width:1.5;"/>
    <g clip-path="url(#p7e4da75a94)">
     <use style="fill:#d3d3d3;stroke:#d3d3d3;" x="91.978636" xlink:href="#m18af5ada07" y="255.234908"/>
     <use style="fill:#d3d3d3;stroke:#d3d3d3;" x="176.621818" xlink:href="#m18af5ada07" y="188.290054"/>
     <use style="fill:#d3d3d3;stroke:#d3d3d3;" x="261.265" xlink:href="#m18af5ada07" y="143.658537"/>
     <use style="fill:#d3d3d3;stroke:#d3d3d3;" x="345.908182" xlink:href="#m18af5ada07" y="80.747156"/>
     <use style="fill:#d3d3d3;stroke:#d3d3d3;" x="430.551364" xlink:href="#m18af5ada07" y="39.761932"/>
    </g>
   </g>
   <g id="line2d_16">
    <path clip-path="url(#p7e4da75a94)" d="M 91.978636 222.325862 
L 176.621818 156.369932 
L 261.265 117.382195 
L 345.908182 86.854458 
L 430.551364 70.60882 
" style="fill:none;stroke:#d3d3d3;stroke-linecap:square;stroke-width:1.5;"/>
    <g clip-path="url(#p7e4da75a94)">
     <use style="fill:#d3d3d3;stroke:#d3d3d3;" x="91.978636" xlink:href="#m18af5ada07" y="222.325862"/>
     <use style="fill:#d3d3d3;stroke:#d3d3d3;" x="176.621818" xlink:href="#m18af5ada07" y="156.369932"/>
     <use style="fill:#d3d3d3;stroke:#d3d3d3;" x="261.265" xlink:href="#m18af5ada07" y="117.382195"/>
     <use style="fill:#d3d3d3;stroke:#d3d3d3;" x="345.908182" xlink:href="#m18af5ada07" y="86.854458"/>
     <use style="fill:#d3d3d3;stroke:#d3d3d3;" x="430.551364" xlink:href="#m18af5ada07" y="70.60882"/>
    </g>
   </g>
   <g id="line2d_17">
    <path clip-path="url(#p7e4da75a94)" d="M 91.978636 237.810984 
L 176.621818 164.127732 
L 261.265 126.500211 
L 345.908182 80.121291 
L 430.551364 37.160772 
" style="fill:none;stroke:#d3d3d3;stroke-linecap:square;stroke-width:1.5;"/>
    <g clip-path="url(#p7e4da75a94)">
     <use style="fill:#d3d3d3;stroke:#d3d3d3;" x="91.978636" xlink:href="#m18af5ada07" y="237.810984"/>
     <use style="fill:#d3d3d3;stroke:#d3d3d3;" x="176.621818" xlink:href="#m18af5ada07" y="164.127732"/>
     <use style="fill:#d3d3d3;stroke:#d3d3d3;" x="261.265" xlink:href="#m18af5ada07" y="126.500211"/>
     <use style="fill:#d3d3d3;stroke:#d3d3d3;" x="345.908182" xlink:href="#m18af5ada07" y="80.121291"/>
     <use style="fill:#d3d3d3;stroke:#d3d3d3;" x="430.551364" xlink:href="#m18af5ada07" y="37.160772"/>
    </g>
   </g>
   <g id="line2d_18">
    <path clip-path="url(#p7e4da75a94)" d="M 91.978636 243.041037 
L 176.621818 181.591128 
L 261.265 129.884256 
L 345.908182 90.588635 
L 430.551364 82.85228 
" style="fill:none;stroke:#d3d3d3;stroke-linecap:square;stroke-width:1.5;"/>
    <g clip-path="url(#p7e4da75a94)">
     <use style="fill:#d3d3d3;stroke:#d3d3d3;" x="91.978636" xlink:href="#m18af5ada07" y="243.041037"/>
     <use style="fill:#d3d3d3;stroke:#d3d3d3;" x="176.621818" xlink:href="#m18af5ada07" y="181.591128"/>
     <use style="fill:#d3d3d3;stroke:#d3d3d3;" x="261.265" xlink:href="#m18af5ada07" y="129.884256"/>
     <use style="fill:#d3d3d3;stroke:#d3d3d3;" x="345.908182" xlink:href="#m18af5ada07" y="90.588635"/>
     <use style="fill:#d3d3d3;stroke:#d3d3d3;" x="430.551364" xlink:href="#m18af5ada07" y="82.85228"/>
    </g>
   </g>
   <g id="line2d_19">
    <path clip-path="url(#p7e4da75a94)" d="M 91.978636 254.469936 
L 176.621818 185.656676 
L 261.265 120.767528 
L 345.908182 75.248575 
L 430.551364 45.976931 
" style="fill:none;stroke:#d3d3d3;stroke-linecap:square;stroke-width:1.5;"/>
    <g clip-path="url(#p7e4da75a94)">
     <use style="fill:#d3d3d3;stroke:#d3d3d3;" x="91.978636" xlink:href="#m18af5ada07" y="254.469936"/>
     <use style="fill:#d3d3d3;stroke:#d3d3d3;" x="176.621818" xlink:href="#m18af5ada07" y="185.656676"/>
     <use style="fill:#d3d3d3;stroke:#d3d3d3;" x="261.265" xlink:href="#m18af5ada07" y="120.767528"/>
     <use style="fill:#d3d3d3;stroke:#d3d3d3;" x="345.908182" xlink:href="#m18af5ada07" y="75.248575"/>
     <use style="fill:#d3d3d3;stroke:#d3d3d3;" x="430.551364" xlink:href="#m18af5ada07" y="45.976931"/>
    </g>
   </g>
   <g id="line2d_20">
    <path clip-path="url(#p7e4da75a94)" d="M 91.978636 237.822563 
L 176.621818 164.132711 
L 261.265 126.50447 
L 345.908182 80.123021 
L 430.551364 37.166011 
" style="fill:none;stroke:#d3d3d3;stroke-linecap:square;stroke-width:1.5;"/>
    <g clip-path="url(#p7e4da75a94)">
     <use style="fill:#d3d3d3;stroke:#d3d3d3;" x="91.978636" xlink:href="#m18af5ada07" y="237.822563"/>
     <use style="fill:#d3d3d3;stroke:#d3d3d3;" x="176.621818" xlink:href="#m18af5ada07" y="164.132711"/>
     <use style="fill:#d3d3d3;stroke:#d3d3d3;" x="261.265" xlink:href="#m18af5ada07" y="126.50447"/>
     <use style="fill:#d3d3d3;stroke:#d3d3d3;" x="345.908182" xlink:href="#m18af5ada07" y="80.123021"/>
     <use style="fill:#d3d3d3;stroke:#d3d3d3;" x="430.551364" xlink:href="#m18af5ada07" y="37.166011"/>
    </g>
   </g>
   <g id="line2d_21">
    <path clip-path="url(#p7e4da75a94)" d="M 91.978636 230.624739 
L 176.621818 159.34148 
L 261.265 114.612261 
L 345.908182 62.656656 
L 430.551364 42.449796 
" style="fill:none;stroke:#d3d3d3;stroke-linecap:square;stroke-width:1.5;"/>
    <g clip-path="url(#p7e4da75a94)">
     <use style="fill:#d3d3d3;stroke:#d3d3d3;" x="91.978636" xlink:href="#m18af5ada07" y="230.624739"/>
     <use style="fill:#d3d3d3;stroke:#d3d3d3;" x="176.621818" xlink:href="#m18af5ada07" y="159.34148"/>
     <use style="fill:#d3d3d3;stroke:#d3d3d3;" x="261.265" xlink:href="#m18af5ada07" y="114.612261"/>
     <use style="fill:#d3d3d3;stroke:#d3d3d3;" x="345.908182" xlink:href="#m18af5ada07" y="62.656656"/>
     <use style="fill:#d3d3d3;stroke:#d3d3d3;" x="430.551364" xlink:href="#m18af5ada07" y="42.449796"/>
    </g>
   </g>
   <g id="line2d_22">
    <path clip-path="url(#p7e4da75a94)" d="M 91.978636 216.299846 
L 176.621818 129.398596 
L 261.265 112.147022 
L 345.908182 78.136344 
L 430.551364 55.52403 
" style="fill:none;stroke:#d3d3d3;stroke-linecap:square;stroke-width:1.5;"/>
    <g clip-path="url(#p7e4da75a94)">
     <use style="fill:#d3d3d3;stroke:#d3d3d3;" x="91.978636" xlink:href="#m18af5ada07" y="216.299846"/>
     <use style="fill:#d3d3d3;stroke:#d3d3d3;" x="176.621818" xlink:href="#m18af5ada07" y="129.398596"/>
     <use style="fill:#d3d3d3;stroke:#d3d3d3;" x="261.265" xlink:href="#m18af5ada07" y="112.147022"/>
     <use style="fill:#d3d3d3;stroke:#d3d3d3;" x="345.908182" xlink:href="#m18af5ada07" y="78.136344"/>
     <use style="fill:#d3d3d3;stroke:#d3d3d3;" x="430.551364" xlink:href="#m18af5ada07" y="55.52403"/>
    </g>
   </g>
   <g id="line2d_23">
    <path clip-path="url(#p7e4da75a94)" d="M 91.978636 246.256335 
L 176.621818 182.66318 
L 261.265 133.175385 
L 345.908182 83.033891 
L 430.551364 52.355385 
" style="fill:none;stroke:#d3d3d3;stroke-linecap:square;stroke-width:1.5;"/>
    <g clip-path="url(#p7e4da75a94)">
     <use style="fill:#d3d3d3;stroke:#d3d3d3;" x="91.978636" xlink:href="#m18af5ada07" y="246.256335"/>
     <use style="fill:#d3d3d3;stroke:#d3d3d3;" x="176.621818" xlink:href="#m18af5ada07" y="182.66318"/>
     <use style="fill:#d3d3d3;stroke:#d3d3d3;" x="261.265" xlink:href="#m18af5ada07" y="133.175385"/>
     <use style="fill:#d3d3d3;stroke:#d3d3d3;" x="345.908182" xlink:href="#m18af5ada07" y="83.033891"/>
     <use style="fill:#d3d3d3;stroke:#d3d3d3;" x="430.551364" xlink:href="#m18af5ada07" y="52.355385"/>
    </g>
   </g>
   <g id="line2d_24">
    <path clip-path="url(#p7e4da75a94)" d="M 91.978636 224.121516 
L 176.621818 148.092307 
L 261.265 109.831474 
L 345.908182 60.428232 
L 430.551364 50.985764 
" style="fill:none;stroke:#d3d3d3;stroke-linecap:square;stroke-width:1.5;"/>
    <g clip-path="url(#p7e4da75a94)">
     <use style="fill:#d3d3d3;stroke:#d3d3d3;" x="91.978636" xlink:href="#m18af5ada07" y="224.121516"/>
     <use style="fill:#d3d3d3;stroke:#d3d3d3;" x="176.621818" xlink:href="#m18af5ada07" y="148.092307"/>
     <use style="fill:#d3d3d3;stroke:#d3d3d3;" x="261.265" xlink:href="#m18af5ada07" y="109.831474"/>
     <use style="fill:#d3d3d3;stroke:#d3d3d3;" x="345.908182" xlink:href="#m18af5ada07" y="60.428232"/>
     <use style="fill:#d3d3d3;stroke:#d3d3d3;" x="430.551364" xlink:href="#m18af5ada07" y="50.985764"/>
    </g>
   </g>
   <g id="line2d_25">
    <path clip-path="url(#p7e4da75a94)" d="M 91.978636 207.593738 
L 176.621818 138.287829 
L 261.265 102.064192 
L 345.908182 58.14322 
L 430.551364 24.855352 
" style="fill:none;stroke:#d3d3d3;stroke-linecap:square;stroke-width:1.5;"/>
    <g clip-path="url(#p7e4da75a94)">
     <use style="fill:#d3d3d3;stroke:#d3d3d3;" x="91.978636" xlink:href="#m18af5ada07" y="207.593738"/>
     <use style="fill:#d3d3d3;stroke:#d3d3d3;" x="176.621818" xlink:href="#m18af5ada07" y="138.287829"/>
     <use style="fill:#d3d3d3;stroke:#d3d3d3;" x="261.265" xlink:href="#m18af5ada07" y="102.064192"/>
     <use style="fill:#d3d3d3;stroke:#d3d3d3;" x="345.908182" xlink:href="#m18af5ada07" y="58.14322"/>
     <use style="fill:#d3d3d3;stroke:#d3d3d3;" x="430.551364" xlink:href="#m18af5ada07" y="24.855352"/>
    </g>
   </g>
   <g id="line2d_26">
    <path clip-path="url(#p7e4da75a94)" d="M 91.978636 255.550896 
L 176.621818 189.307131 
L 261.265 127.070068 
L 345.908182 77.554997 
L 430.551364 46.566681 
" style="fill:none;stroke:#d3d3d3;stroke-linecap:square;stroke-width:1.5;"/>
    <g clip-path="url(#p7e4da75a94)">
     <use style="fill:#d3d3d3;stroke:#d3d3d3;" x="91.978636" xlink:href="#m18af5ada07" y="255.550896"/>
     <use style="fill:#d3d3d3;stroke:#d3d3d3;" x="176.621818" xlink:href="#m18af5ada07" y="189.307131"/>
     <use style="fill:#d3d3d3;stroke:#d3d3d3;" x="261.265" xlink:href="#m18af5ada07" y="127.070068"/>
     <use style="fill:#d3d3d3;stroke:#d3d3d3;" x="345.908182" xlink:href="#m18af5ada07" y="77.554997"/>
     <use style="fill:#d3d3d3;stroke:#d3d3d3;" x="430.551364" xlink:href="#m18af5ada07" y="46.566681"/>
    </g>
   </g>
   <g id="line2d_27">
    <path clip-path="url(#p7e4da75a94)" d="M 91.978636 202.591834 
L 176.621818 127.80086 
L 261.265 79.804477 
L 345.908182 69.353801 
L 430.551364 69.783329 
" style="fill:none;stroke:#d3d3d3;stroke-linecap:square;stroke-width:1.5;"/>
    <g clip-path="url(#p7e4da75a94)">
     <use style="fill:#d3d3d3;stroke:#d3d3d3;" x="91.978636" xlink:href="#m18af5ada07" y="202.591834"/>
     <use style="fill:#d3d3d3;stroke:#d3d3d3;" x="176.621818" xlink:href="#m18af5ada07" y="127.80086"/>
     <use style="fill:#d3d3d3;stroke:#d3d3d3;" x="261.265" xlink:href="#m18af5ada07" y="79.804477"/>
     <use style="fill:#d3d3d3;stroke:#d3d3d3;" x="345.908182" xlink:href="#m18af5ada07" y="69.353801"/>
     <use style="fill:#d3d3d3;stroke:#d3d3d3;" x="430.551364" xlink:href="#m18af5ada07" y="69.783329"/>
    </g>
   </g>
   <g id="line2d_28">
    <path clip-path="url(#p7e4da75a94)" d="M 91.978636 244.339326 
L 176.621818 178.374832 
L 261.265 132.257387 
L 345.908182 81.965076 
L 430.551364 37.575379 
" style="fill:none;stroke:#d3d3d3;stroke-linecap:square;stroke-width:1.5;"/>
    <g clip-path="url(#p7e4da75a94)">
     <use style="fill:#d3d3d3;stroke:#d3d3d3;" x="91.978636" xlink:href="#m18af5ada07" y="244.339326"/>
     <use style="fill:#d3d3d3;stroke:#d3d3d3;" x="176.621818" xlink:href="#m18af5ada07" y="178.374832"/>
     <use style="fill:#d3d3d3;stroke:#d3d3d3;" x="261.265" xlink:href="#m18af5ada07" y="132.257387"/>
     <use style="fill:#d3d3d3;stroke:#d3d3d3;" x="345.908182" xlink:href="#m18af5ada07" y="81.965076"/>
     <use style="fill:#d3d3d3;stroke:#d3d3d3;" x="430.551364" xlink:href="#m18af5ada07" y="37.575379"/>
    </g>
   </g>
   <g id="line2d_29">
    <path clip-path="url(#p7e4da75a94)" d="M 91.978636 243.045359 
L 176.621818 181.585526 
L 261.265 129.880219 
L 345.908182 90.588988 
L 430.551364 82.843945 
" style="fill:none;stroke:#d3d3d3;stroke-linecap:square;stroke-width:1.5;"/>
    <g clip-path="url(#p7e4da75a94)">
     <use style="fill:#d3d3d3;stroke:#d3d3d3;" x="91.978636" xlink:href="#m18af5ada07" y="243.045359"/>
     <use style="fill:#d3d3d3;stroke:#d3d3d3;" x="176.621818" xlink:href="#m18af5ada07" y="181.585526"/>
     <use style="fill:#d3d3d3;stroke:#d3d3d3;" x="261.265" xlink:href="#m18af5ada07" y="129.880219"/>
     <use style="fill:#d3d3d3;stroke:#d3d3d3;" x="345.908182" xlink:href="#m18af5ada07" y="90.588988"/>
     <use style="fill:#d3d3d3;stroke:#d3d3d3;" x="430.551364" xlink:href="#m18af5ada07" y="82.843945"/>
    </g>
   </g>
   <g id="line2d_30">
    <path clip-path="url(#p7e4da75a94)" d="M 91.978636 243.960157 
L 176.621818 182.045082 
L 261.265 135.028684 
L 345.908182 99.842211 
L 430.551364 89.721051 
" style="fill:none;stroke:#d3d3d3;stroke-linecap:square;stroke-width:1.5;"/>
    <g clip-path="url(#p7e4da75a94)">
     <use style="fill:#d3d3d3;stroke:#d3d3d3;" x="91.978636" xlink:href="#m18af5ada07" y="243.960157"/>
     <use style="fill:#d3d3d3;stroke:#d3d3d3;" x="176.621818" xlink:href="#m18af5ada07" y="182.045082"/>
     <use style="fill:#d3d3d3;stroke:#d3d3d3;" x="261.265" xlink:href="#m18af5ada07" y="135.028684"/>
     <use style="fill:#d3d3d3;stroke:#d3d3d3;" x="345.908182" xlink:href="#m18af5ada07" y="99.842211"/>
     <use style="fill:#d3d3d3;stroke:#d3d3d3;" x="430.551364" xlink:href="#m18af5ada07" y="89.721051"/>
    </g>
   </g>
   <g id="line2d_31">
    <path clip-path="url(#p7e4da75a94)" d="M 91.978636 241.006927 
L 176.621818 157.910034 
L 261.265 102.37429 
L 345.908182 66.445769 
L 430.551364 45.285707 
" style="fill:none;stroke:#d3d3d3;stroke-linecap:square;stroke-width:1.5;"/>
    <g clip-path="url(#p7e4da75a94)">
     <use style="fill:#d3d3d3;stroke:#d3d3d3;" x="91.978636" xlink:href="#m18af5ada07" y="241.006927"/>
     <use style="fill:#d3d3d3;stroke:#d3d3d3;" x="176.621818" xlink:href="#m18af5ada07" y="157.910034"/>
     <use style="fill:#d3d3d3;stroke:#d3d3d3;" x="261.265" xlink:href="#m18af5ada07" y="102.37429"/>
     <use style="fill:#d3d3d3;stroke:#d3d3d3;" x="345.908182" xlink:href="#m18af5ada07" y="66.445769"/>
     <use style="fill:#d3d3d3;stroke:#d3d3d3;" x="430.551364" xlink:href="#m18af5ada07" y="45.285707"/>
    </g>
   </g>
   <g id="line2d_32">
    <path clip-path="url(#p7e4da75a94)" d="M 91.978636 207.594432 
L 176.621818 138.286898 
L 261.265 102.06344 
L 345.908182 58.14495 
L 430.551364 24.854805 
" style="fill:none;stroke:#d3d3d3;stroke-linecap:square;stroke-width:1.5;"/>
    <g clip-path="url(#p7e4da75a94)">
     <use style="fill:#d3d3d3;stroke:#d3d3d3;" x="91.978636" xlink:href="#m18af5ada07" y="207.594432"/>
     <use style="fill:#d3d3d3;stroke:#d3d3d3;" x="176.621818" xlink:href="#m18af5ada07" y="138.286898"/>
     <use style="fill:#d3d3d3;stroke:#d3d3d3;" x="261.265" xlink:href="#m18af5ada07" y="102.06344"/>
     <use style="fill:#d3d3d3;stroke:#d3d3d3;" x="345.908182" xlink:href="#m18af5ada07" y="58.14495"/>
     <use style="fill:#d3d3d3;stroke:#d3d3d3;" x="430.551364" xlink:href="#m18af5ada07" y="24.854805"/>
    </g>
   </g>
   <g id="line2d_33">
    <path clip-path="url(#p7e4da75a94)" d="M 91.978636 228.2967 
L 176.621818 158.328863 
L 261.265 116.187711 
L 345.908182 78.251801 
L 430.551364 73.986244 
" style="fill:none;stroke:#d3d3d3;stroke-linecap:square;stroke-width:1.5;"/>
    <g clip-path="url(#p7e4da75a94)">
     <use style="fill:#d3d3d3;stroke:#d3d3d3;" x="91.978636" xlink:href="#m18af5ada07" y="228.2967"/>
     <use style="fill:#d3d3d3;stroke:#d3d3d3;" x="176.621818" xlink:href="#m18af5ada07" y="158.328863"/>
     <use style="fill:#d3d3d3;stroke:#d3d3d3;" x="261.265" xlink:href="#m18af5ada07" y="116.187711"/>
     <use style="fill:#d3d3d3;stroke:#d3d3d3;" x="345.908182" xlink:href="#m18af5ada07" y="78.251801"/>
     <use style="fill:#d3d3d3;stroke:#d3d3d3;" x="430.551364" xlink:href="#m18af5ada07" y="73.986244"/>
    </g>
   </g>
   <g id="line2d_34">
    <path clip-path="url(#p7e4da75a94)" d="M 91.978636 228.293446 
L 176.621818 158.324945 
L 261.265 116.18325 
L 345.908182 78.246214 
L 430.551364 73.986874 
" style="fill:none;stroke:#d3d3d3;stroke-linecap:square;stroke-width:1.5;"/>
    <g clip-path="url(#p7e4da75a94)">
     <use style="fill:#d3d3d3;stroke:#d3d3d3;" x="91.978636" xlink:href="#m18af5ada07" y="228.293446"/>
     <use style="fill:#d3d3d3;stroke:#d3d3d3;" x="176.621818" xlink:href="#m18af5ada07" y="158.324945"/>
     <use style="fill:#d3d3d3;stroke:#d3d3d3;" x="261.265" xlink:href="#m18af5ada07" y="116.18325"/>
     <use style="fill:#d3d3d3;stroke:#d3d3d3;" x="345.908182" xlink:href="#m18af5ada07" y="78.246214"/>
     <use style="fill:#d3d3d3;stroke:#d3d3d3;" x="430.551364" xlink:href="#m18af5ada07" y="73.986874"/>
    </g>
   </g>
   <g id="line2d_35">
    <path clip-path="url(#p7e4da75a94)" d="M 91.978636 242.927258 
L 176.621818 178.450667 
L 261.265 133.381558 
L 345.908182 89.367874 
L 430.551364 65.114705 
" style="fill:none;stroke:#d3d3d3;stroke-linecap:square;stroke-width:1.5;"/>
    <g clip-path="url(#p7e4da75a94)">
     <use style="fill:#d3d3d3;stroke:#d3d3d3;" x="91.978636" xlink:href="#m18af5ada07" y="242.927258"/>
     <use style="fill:#d3d3d3;stroke:#d3d3d3;" x="176.621818" xlink:href="#m18af5ada07" y="178.450667"/>
     <use style="fill:#d3d3d3;stroke:#d3d3d3;" x="261.265" xlink:href="#m18af5ada07" y="133.381558"/>
     <use style="fill:#d3d3d3;stroke:#d3d3d3;" x="345.908182" xlink:href="#m18af5ada07" y="89.367874"/>
     <use style="fill:#d3d3d3;stroke:#d3d3d3;" x="430.551364" xlink:href="#m18af5ada07" y="65.114705"/>
    </g>
   </g>
   <g id="line2d_36">
    <path clip-path="url(#p7e4da75a94)" d="M 91.978636 224.124129 
L 176.621818 148.097551 
L 261.265 109.838499 
L 345.908182 60.432901 
L 430.551364 50.979144 
" style="fill:none;stroke:#d3d3d3;stroke-linecap:square;stroke-width:1.5;"/>
    <g clip-path="url(#p7e4da75a94)">
     <use style="fill:#d3d3d3;stroke:#d3d3d3;" x="91.978636" xlink:href="#m18af5ada07" y="224.124129"/>
     <use style="fill:#d3d3d3;stroke:#d3d3d3;" x="176.621818" xlink:href="#m18af5ada07" y="148.097551"/>
     <use style="fill:#d3d3d3;stroke:#d3d3d3;" x="261.265" xlink:href="#m18af5ada07" y="109.838499"/>
     <use style="fill:#d3d3d3;stroke:#d3d3d3;" x="345.908182" xlink:href="#m18af5ada07" y="60.432901"/>
     <use style="fill:#d3d3d3;stroke:#d3d3d3;" x="430.551364" xlink:href="#m18af5ada07" y="50.979144"/>
    </g>
   </g>
   <g id="line2d_37">
    <path clip-path="url(#p7e4da75a94)" d="M 91.978636 237.063845 
L 176.621818 162.558143 
L 261.265 96.291449 
L 345.908182 66.593507 
L 430.551364 53.280368 
" style="fill:none;stroke:#d3d3d3;stroke-linecap:square;stroke-width:1.5;"/>
    <g clip-path="url(#p7e4da75a94)">
     <use style="fill:#d3d3d3;stroke:#d3d3d3;" x="91.978636" xlink:href="#m18af5ada07" y="237.063845"/>
     <use style="fill:#d3d3d3;stroke:#d3d3d3;" x="176.621818" xlink:href="#m18af5ada07" y="162.558143"/>
     <use style="fill:#d3d3d3;stroke:#d3d3d3;" x="261.265" xlink:href="#m18af5ada07" y="96.291449"/>
     <use style="fill:#d3d3d3;stroke:#d3d3d3;" x="345.908182" xlink:href="#m18af5ada07" y="66.593507"/>
     <use style="fill:#d3d3d3;stroke:#d3d3d3;" x="430.551364" xlink:href="#m18af5ada07" y="53.280368"/>
    </g>
   </g>
   <g id="line2d_38">
    <path clip-path="url(#p7e4da75a94)" d="M 91.978636 246.564383 
L 176.621818 171.669247 
L 261.265 106.095657 
L 345.908182 61.02319 
L 430.551364 38.153564 
" style="fill:none;stroke:#d3d3d3;stroke-linecap:square;stroke-width:1.5;"/>
    <g clip-path="url(#p7e4da75a94)">
     <use style="fill:#d3d3d3;stroke:#d3d3d3;" x="91.978636" xlink:href="#m18af5ada07" y="246.564383"/>
     <use style="fill:#d3d3d3;stroke:#d3d3d3;" x="176.621818" xlink:href="#m18af5ada07" y="171.669247"/>
     <use style="fill:#d3d3d3;stroke:#d3d3d3;" x="261.265" xlink:href="#m18af5ada07" y="106.095657"/>
     <use style="fill:#d3d3d3;stroke:#d3d3d3;" x="345.908182" xlink:href="#m18af5ada07" y="61.02319"/>
     <use style="fill:#d3d3d3;stroke:#d3d3d3;" x="430.551364" xlink:href="#m18af5ada07" y="38.153564"/>
    </g>
   </g>
   <g id="line2d_39">
    <path clip-path="url(#p7e4da75a94)" d="M 91.978636 241.35436 
L 176.621818 156.922654 
L 261.265 87.939522 
L 345.908182 46.644906 
L 430.551364 29.506352 
" style="fill:none;stroke:#d3d3d3;stroke-linecap:square;stroke-width:1.5;"/>
    <g clip-path="url(#p7e4da75a94)">
     <use style="fill:#d3d3d3;stroke:#d3d3d3;" x="91.978636" xlink:href="#m18af5ada07" y="241.35436"/>
     <use style="fill:#d3d3d3;stroke:#d3d3d3;" x="176.621818" xlink:href="#m18af5ada07" y="156.922654"/>
     <use style="fill:#d3d3d3;stroke:#d3d3d3;" x="261.265" xlink:href="#m18af5ada07" y="87.939522"/>
     <use style="fill:#d3d3d3;stroke:#d3d3d3;" x="345.908182" xlink:href="#m18af5ada07" y="46.644906"/>
     <use style="fill:#d3d3d3;stroke:#d3d3d3;" x="430.551364" xlink:href="#m18af5ada07" y="29.506352"/>
    </g>
   </g>
   <g id="line2d_40">
    <path clip-path="url(#p7e4da75a94)" d="M 91.978636 247.423935 
L 176.621818 168.886379 
L 261.265 108.750157 
L 345.908182 68.599299 
L 430.551364 42.443468 
" style="fill:none;stroke:#d3d3d3;stroke-linecap:square;stroke-width:1.5;"/>
    <g clip-path="url(#p7e4da75a94)">
     <use style="fill:#d3d3d3;stroke:#d3d3d3;" x="91.978636" xlink:href="#m18af5ada07" y="247.423935"/>
     <use style="fill:#d3d3d3;stroke:#d3d3d3;" x="176.621818" xlink:href="#m18af5ada07" y="168.886379"/>
     <use style="fill:#d3d3d3;stroke:#d3d3d3;" x="261.265" xlink:href="#m18af5ada07" y="108.750157"/>
     <use style="fill:#d3d3d3;stroke:#d3d3d3;" x="345.908182" xlink:href="#m18af5ada07" y="68.599299"/>
     <use style="fill:#d3d3d3;stroke:#d3d3d3;" x="430.551364" xlink:href="#m18af5ada07" y="42.443468"/>
    </g>
   </g>
   <g id="patch_3">
    <path d="M 75.05 289.24 
L 75.05 13.32 
" style="fill:none;stroke:#000000;stroke-linecap:square;stroke-linejoin:miter;stroke-width:0.8;"/>
   </g>
   <g id="patch_4">
    <path d="M 447.48 289.24 
L 447.48 13.32 
" style="fill:none;stroke:#000000;stroke-linecap:square;stroke-linejoin:miter;stroke-width:0.8;"/>
   </g>
   <g id="patch_5">
    <path d="M 75.05 289.24 
L 447.48 289.24 
" style="fill:none;stroke:#000000;stroke-linecap:square;stroke-linejoin:miter;stroke-width:0.8;"/>
   </g>
   <g id="patch_6">
    <path d="M 75.05 13.32 
L 447.48 13.32 
" style="fill:none;stroke:#000000;stroke-linecap:square;stroke-linejoin:miter;stroke-width:0.8;"/>
   </g>
   <g id="LineCollection_1">
    <path clip-path="url(#p7e4da75a94)" d="M 91.978636 248.964369 
L 91.978636 220.381725 
" style="fill:none;stroke:#ff0000;stroke-width:2;"/>
    <path clip-path="url(#p7e4da75a94)" d="M 176.621818 181.460857 
L 176.621818 144.571361 
" style="fill:none;stroke:#ff0000;stroke-width:2;"/>
    <path clip-path="url(#p7e4da75a94)" d="M 261.265 131.91054 
L 261.265 100.646702 
" style="fill:none;stroke:#ff0000;stroke-width:2;"/>
    <path clip-path="url(#p7e4da75a94)" d="M 345.908182 87.059116 
L 345.908182 62.995779 
" style="fill:none;stroke:#ff0000;stroke-width:2;"/>
    <path clip-path="url(#p7e4da75a94)" d="M 430.551364 70.930429 
L 430.551364 36.386993 
" style="fill:none;stroke:#ff0000;stroke-width:2;"/>
   </g>
   <g id="line2d_41">
    <defs>
     <path d="M 5 0 
L -5 -0 
" id="m2d464ca794" style="stroke:#ff0000;"/>
    </defs>
    <g clip-path="url(#p7e4da75a94)">
     <use style="fill:#ff0000;stroke:#ff0000;" x="91.978636" xlink:href="#m2d464ca794" y="248.964369"/>
     <use style="fill:#ff0000;stroke:#ff0000;" x="176.621818" xlink:href="#m2d464ca794" y="181.460857"/>
     <use style="fill:#ff0000;stroke:#ff0000;" x="261.265" xlink:href="#m2d464ca794" y="131.91054"/>
     <use style="fill:#ff0000;stroke:#ff0000;" x="345.908182" xlink:href="#m2d464ca794" y="87.059116"/>
     <use style="fill:#ff0000;stroke:#ff0000;" x="430.551364" xlink:href="#m2d464ca794" y="70.930429"/>
    </g>
   </g>
   <g id="line2d_42">
    <g clip-path="url(#p7e4da75a94)">
     <use style="fill:#ff0000;stroke:#ff0000;" x="91.978636" xlink:href="#m2d464ca794" y="220.381725"/>
     <use style="fill:#ff0000;stroke:#ff0000;" x="176.621818" xlink:href="#m2d464ca794" y="144.571361"/>
     <use style="fill:#ff0000;stroke:#ff0000;" x="261.265" xlink:href="#m2d464ca794" y="100.646702"/>
     <use style="fill:#ff0000;stroke:#ff0000;" x="345.908182" xlink:href="#m2d464ca794" y="62.995779"/>
     <use style="fill:#ff0000;stroke:#ff0000;" x="430.551364" xlink:href="#m2d464ca794" y="36.386993"/>
    </g>
   </g>
   <g id="line2d_43">
    <path clip-path="url(#p7e4da75a94)" d="M 91.978636 234.673047 
L 176.621818 163.016109 
L 261.265 116.278621 
L 345.908182 75.027448 
L 430.551364 53.658711 
" style="fill:none;stroke:#ff0000;stroke-linecap:square;stroke-width:2;"/>
    <defs>
     <path d="M 0 3 
C 0.795609 3 1.55874 2.683901 2.12132 2.12132 
C 2.683901 1.55874 3 0.795609 3 0 
C 3 -0.795609 2.683901 -1.55874 2.12132 -2.12132 
C 1.55874 -2.683901 0.795609 -3 0 -3 
C -0.795609 -3 -1.55874 -2.683901 -2.12132 -2.12132 
C -2.683901 -1.55874 -3 -0.795609 -3 0 
C -3 0.795609 -2.683901 1.55874 -2.12132 2.12132 
C -1.55874 2.683901 -0.795609 3 0 3 
z
" id="me4e2c92a58" style="stroke:#ff0000;"/>
    </defs>
    <g clip-path="url(#p7e4da75a94)">
     <use style="fill:#ff0000;stroke:#ff0000;" x="91.978636" xlink:href="#me4e2c92a58" y="234.673047"/>
     <use style="fill:#ff0000;stroke:#ff0000;" x="176.621818" xlink:href="#me4e2c92a58" y="163.016109"/>
     <use style="fill:#ff0000;stroke:#ff0000;" x="261.265" xlink:href="#me4e2c92a58" y="116.278621"/>
     <use style="fill:#ff0000;stroke:#ff0000;" x="345.908182" xlink:href="#me4e2c92a58" y="75.027448"/>
     <use style="fill:#ff0000;stroke:#ff0000;" x="430.551364" xlink:href="#me4e2c92a58" y="53.658711"/>
    </g>
   </g>
  </g>
 </g>
 <defs>
  <clipPath id="p7e4da75a94">
   <rect height="275.92" width="372.43" x="75.05" y="13.32"/>
  </clipPath>
 </defs>
</svg>
