<?xml version="1.0" encoding="utf-8" standalone="no"?>
<!DOCTYPE svg PUBLIC "-//W3C//DTD SVG 1.1//EN"
  "http://www.w3.org/Graphics/SVG/1.1/DTD/svg11.dtd">
<!-- Created with matplotlib (https://matplotlib.org/) -->
<svg height="345.6pt" version="1.1" viewBox="0 0 460.8 345.6" width="460.8pt" xmlns="http://www.w3.org/2000/svg" xmlns:xlink="http://www.w3.org/1999/xlink">
 <defs>
  <style type="text/css">
*{stroke-linecap:butt;stroke-linejoin:round;}
  </style>
 </defs>
 <g id="figure_1">
  <g id="patch_1">
   <path d="M 0 345.6 
L 460.8 345.6 
L 460.8 0 
L 0 0 
z
" style="fill:#ffffff;"/>
  </g>
  <g id="axes_1">
   <g id="patch_2">
    <path d="M 57.6 307.584 
L 414.72 307.584 
L 414.72 41.472 
L 57.6 41.472 
z
" style="fill:#ffffff;"/>
   </g>
   <g id="matplotlib.axis_1">
    <g id="xtick_1">
     <g id="line2d_1">
      <defs>
       <path d="M 0 0 
L 0 3.5 
" id="m39626eda3c" style="stroke:#000000;stroke-width:0.8;"/>
      </defs>
      <g>
       <use style="stroke:#000000;stroke-width:0.8;" x="73.832727" xlink:href="#m39626eda3c" y="307.584"/>
      </g>
     </g>
     <g id="text_1">
      <!-- 1 -->
      <defs>
       <path d="M 12.40625 8.296875 
L 28.515625 8.296875 
L 28.515625 63.921875 
L 10.984375 60.40625 
L 10.984375 69.390625 
L 28.421875 72.90625 
L 38.28125 72.90625 
L 38.28125 8.296875 
L 54.390625 8.296875 
L 54.390625 0 
L 12.40625 0 
z
" id="DejaVuSans-49"/>
      </defs>
      <g transform="translate(70.651477 322.182437)scale(0.1 -0.1)">
       <use xlink:href="#DejaVuSans-49"/>
      </g>
     </g>
    </g>
    <g id="xtick_2">
     <g id="line2d_2">
      <g>
       <use style="stroke:#000000;stroke-width:0.8;" x="138.763636" xlink:href="#m39626eda3c" y="307.584"/>
      </g>
     </g>
     <g id="text_2">
      <!-- 2 -->
      <defs>
       <path d="M 19.1875 8.296875 
L 53.609375 8.296875 
L 53.609375 0 
L 7.328125 0 
L 7.328125 8.296875 
Q 12.9375 14.109375 22.625 23.890625 
Q 32.328125 33.6875 34.8125 36.53125 
Q 39.546875 41.84375 41.421875 45.53125 
Q 43.3125 49.21875 43.3125 52.78125 
Q 43.3125 58.59375 39.234375 62.25 
Q 35.15625 65.921875 28.609375 65.921875 
Q 23.96875 65.921875 18.8125 64.3125 
Q 13.671875 62.703125 7.8125 59.421875 
L 7.8125 69.390625 
Q 13.765625 71.78125 18.9375 73 
Q 24.125 74.21875 28.421875 74.21875 
Q 39.75 74.21875 46.484375 68.546875 
Q 53.21875 62.890625 53.21875 53.421875 
Q 53.21875 48.921875 51.53125 44.890625 
Q 49.859375 40.875 45.40625 35.40625 
Q 44.1875 33.984375 37.640625 27.21875 
Q 31.109375 20.453125 19.1875 8.296875 
z
" id="DejaVuSans-50"/>
      </defs>
      <g transform="translate(135.582386 322.182437)scale(0.1 -0.1)">
       <use xlink:href="#DejaVuSans-50"/>
      </g>
     </g>
    </g>
    <g id="xtick_3">
     <g id="line2d_3">
      <g>
       <use style="stroke:#000000;stroke-width:0.8;" x="203.694545" xlink:href="#m39626eda3c" y="307.584"/>
      </g>
     </g>
     <g id="text_3">
      <!-- 3 -->
      <defs>
       <path d="M 40.578125 39.3125 
Q 47.65625 37.796875 51.625 33 
Q 55.609375 28.21875 55.609375 21.1875 
Q 55.609375 10.40625 48.1875 4.484375 
Q 40.765625 -1.421875 27.09375 -1.421875 
Q 22.515625 -1.421875 17.65625 -0.515625 
Q 12.796875 0.390625 7.625 2.203125 
L 7.625 11.71875 
Q 11.71875 9.328125 16.59375 8.109375 
Q 21.484375 6.890625 26.8125 6.890625 
Q 36.078125 6.890625 40.9375 10.546875 
Q 45.796875 14.203125 45.796875 21.1875 
Q 45.796875 27.640625 41.28125 31.265625 
Q 36.765625 34.90625 28.71875 34.90625 
L 20.21875 34.90625 
L 20.21875 43.015625 
L 29.109375 43.015625 
Q 36.375 43.015625 40.234375 45.921875 
Q 44.09375 48.828125 44.09375 54.296875 
Q 44.09375 59.90625 40.109375 62.90625 
Q 36.140625 65.921875 28.71875 65.921875 
Q 24.65625 65.921875 20.015625 65.03125 
Q 15.375 64.15625 9.8125 62.3125 
L 9.8125 71.09375 
Q 15.4375 72.65625 20.34375 73.4375 
Q 25.25 74.21875 29.59375 74.21875 
Q 40.828125 74.21875 47.359375 69.109375 
Q 53.90625 64.015625 53.90625 55.328125 
Q 53.90625 49.265625 50.4375 45.09375 
Q 46.96875 40.921875 40.578125 39.3125 
z
" id="DejaVuSans-51"/>
      </defs>
      <g transform="translate(200.513295 322.182437)scale(0.1 -0.1)">
       <use xlink:href="#DejaVuSans-51"/>
      </g>
     </g>
    </g>
    <g id="xtick_4">
     <g id="line2d_4">
      <g>
       <use style="stroke:#000000;stroke-width:0.8;" x="268.625455" xlink:href="#m39626eda3c" y="307.584"/>
      </g>
     </g>
     <g id="text_4">
      <!-- 4 -->
      <defs>
       <path d="M 37.796875 64.3125 
L 12.890625 25.390625 
L 37.796875 25.390625 
z
M 35.203125 72.90625 
L 47.609375 72.90625 
L 47.609375 25.390625 
L 58.015625 25.390625 
L 58.015625 17.1875 
L 47.609375 17.1875 
L 47.609375 0 
L 37.796875 0 
L 37.796875 17.1875 
L 4.890625 17.1875 
L 4.890625 26.703125 
z
" id="DejaVuSans-52"/>
      </defs>
      <g transform="translate(265.444205 322.182437)scale(0.1 -0.1)">
       <use xlink:href="#DejaVuSans-52"/>
      </g>
     </g>
    </g>
    <g id="xtick_5">
     <g id="line2d_5">
      <g>
       <use style="stroke:#000000;stroke-width:0.8;" x="333.556364" xlink:href="#m39626eda3c" y="307.584"/>
      </g>
     </g>
     <g id="text_5">
      <!-- 5 -->
      <defs>
       <path d="M 10.796875 72.90625 
L 49.515625 72.90625 
L 49.515625 64.59375 
L 19.828125 64.59375 
L 19.828125 46.734375 
Q 21.96875 47.46875 24.109375 47.828125 
Q 26.265625 48.1875 28.421875 48.1875 
Q 40.625 48.1875 47.75 41.5 
Q 54.890625 34.8125 54.890625 23.390625 
Q 54.890625 11.625 47.5625 5.09375 
Q 40.234375 -1.421875 26.90625 -1.421875 
Q 22.3125 -1.421875 17.546875 -0.640625 
Q 12.796875 0.140625 7.71875 1.703125 
L 7.71875 11.625 
Q 12.109375 9.234375 16.796875 8.0625 
Q 21.484375 6.890625 26.703125 6.890625 
Q 35.15625 6.890625 40.078125 11.328125 
Q 45.015625 15.765625 45.015625 23.390625 
Q 45.015625 31 40.078125 35.4375 
Q 35.15625 39.890625 26.703125 39.890625 
Q 22.75 39.890625 18.8125 39.015625 
Q 14.890625 38.140625 10.796875 36.28125 
z
" id="DejaVuSans-53"/>
      </defs>
      <g transform="translate(330.375114 322.182437)scale(0.1 -0.1)">
       <use xlink:href="#DejaVuSans-53"/>
      </g>
     </g>
    </g>
    <g id="xtick_6">
     <g id="line2d_6">
      <g>
       <use style="stroke:#000000;stroke-width:0.8;" x="398.487273" xlink:href="#m39626eda3c" y="307.584"/>
      </g>
     </g>
     <g id="text_6">
      <!-- 6 -->
      <defs>
       <path d="M 33.015625 40.375 
Q 26.375 40.375 22.484375 35.828125 
Q 18.609375 31.296875 18.609375 23.390625 
Q 18.609375 15.53125 22.484375 10.953125 
Q 26.375 6.390625 33.015625 6.390625 
Q 39.65625 6.390625 43.53125 10.953125 
Q 47.40625 15.53125 47.40625 23.390625 
Q 47.40625 31.296875 43.53125 35.828125 
Q 39.65625 40.375 33.015625 40.375 
z
M 52.59375 71.296875 
L 52.59375 62.3125 
Q 48.875 64.0625 45.09375 64.984375 
Q 41.3125 65.921875 37.59375 65.921875 
Q 27.828125 65.921875 22.671875 59.328125 
Q 17.53125 52.734375 16.796875 39.40625 
Q 19.671875 43.65625 24.015625 45.921875 
Q 28.375 48.1875 33.59375 48.1875 
Q 44.578125 48.1875 50.953125 41.515625 
Q 57.328125 34.859375 57.328125 23.390625 
Q 57.328125 12.15625 50.6875 5.359375 
Q 44.046875 -1.421875 33.015625 -1.421875 
Q 20.359375 -1.421875 13.671875 8.265625 
Q 6.984375 17.96875 6.984375 36.375 
Q 6.984375 53.65625 15.1875 63.9375 
Q 23.390625 74.21875 37.203125 74.21875 
Q 40.921875 74.21875 44.703125 73.484375 
Q 48.484375 72.75 52.59375 71.296875 
z
" id="DejaVuSans-54"/>
      </defs>
      <g transform="translate(395.306023 322.182437)scale(0.1 -0.1)">
       <use xlink:href="#DejaVuSans-54"/>
      </g>
     </g>
    </g>
    <g id="text_7">
     <!-- $\beta_i$ -->
     <defs>
      <path d="M 13.625 3.375 
L 8.9375 -20.796875 
L -0.09375 -20.796875 
L 14.5 54.34375 
Q 18.84375 76.609375 39.65625 76.609375 
Q 60.75 76.609375 57.171875 57.8125 
Q 54.734375 44.4375 45.21875 39.546875 
Q 58.015625 35.15625 55.515625 22.125 
Q 51.125 -1.078125 27.484375 -1.03125 
Q 17.140625 -0.984375 13.625 3.375 
z
M 15.921875 15.09375 
Q 19.671875 6.59375 29.296875 6.640625 
Q 43.359375 6.640625 46.34375 21.96875 
Q 49.03125 35.75 26.171875 34.671875 
L 27.78125 42.96875 
Q 45.453125 42.671875 48.53125 58.59375 
Q 50.640625 69.34375 39.203125 69.28125 
Q 26.421875 69.28125 23.484375 54.046875 
z
" id="DejaVuSans-Oblique-946"/>
      <path d="M 18.3125 75.984375 
L 27.296875 75.984375 
L 25.09375 64.59375 
L 16.109375 64.59375 
z
M 14.203125 54.6875 
L 23.1875 54.6875 
L 12.5 0 
L 3.515625 0 
z
" id="DejaVuSans-Oblique-105"/>
     </defs>
     <g transform="translate(231.81 335.962125)scale(0.1 -0.1)">
      <use transform="translate(0 0.390625)" xlink:href="#DejaVuSans-Oblique-946"/>
      <use transform="translate(63.818359 -16.015625)scale(0.7)" xlink:href="#DejaVuSans-Oblique-105"/>
     </g>
    </g>
   </g>
   <g id="matplotlib.axis_2">
    <g id="ytick_1">
     <g id="line2d_7">
      <defs>
       <path d="M 0 0 
L -3.5 0 
" id="m6021a43dc9" style="stroke:#000000;stroke-width:0.8;"/>
      </defs>
      <g>
       <use style="stroke:#000000;stroke-width:0.8;" x="57.6" xlink:href="#m6021a43dc9" y="286.897423"/>
      </g>
     </g>
     <g id="text_8">
      <!-- 3.00 -->
      <defs>
       <path d="M 10.6875 12.40625 
L 21 12.40625 
L 21 0 
L 10.6875 0 
z
" id="DejaVuSans-46"/>
       <path d="M 31.78125 66.40625 
Q 24.171875 66.40625 20.328125 58.90625 
Q 16.5 51.421875 16.5 36.375 
Q 16.5 21.390625 20.328125 13.890625 
Q 24.171875 6.390625 31.78125 6.390625 
Q 39.453125 6.390625 43.28125 13.890625 
Q 47.125 21.390625 47.125 36.375 
Q 47.125 51.421875 43.28125 58.90625 
Q 39.453125 66.40625 31.78125 66.40625 
z
M 31.78125 74.21875 
Q 44.046875 74.21875 50.515625 64.515625 
Q 56.984375 54.828125 56.984375 36.375 
Q 56.984375 17.96875 50.515625 8.265625 
Q 44.046875 -1.421875 31.78125 -1.421875 
Q 19.53125 -1.421875 13.0625 8.265625 
Q 6.59375 17.96875 6.59375 36.375 
Q 6.59375 54.828125 13.0625 64.515625 
Q 19.53125 74.21875 31.78125 74.21875 
z
" id="DejaVuSans-48"/>
      </defs>
      <g transform="translate(28.334375 290.696641)scale(0.1 -0.1)">
       <use xlink:href="#DejaVuSans-51"/>
       <use x="63.623047" xlink:href="#DejaVuSans-46"/>
       <use x="95.410156" xlink:href="#DejaVuSans-48"/>
       <use x="159.033203" xlink:href="#DejaVuSans-48"/>
      </g>
     </g>
    </g>
    <g id="ytick_2">
     <g id="line2d_8">
      <g>
       <use style="stroke:#000000;stroke-width:0.8;" x="57.6" xlink:href="#m6021a43dc9" y="251.281285"/>
      </g>
     </g>
     <g id="text_9">
      <!-- 3.02 -->
      <g transform="translate(28.334375 255.080504)scale(0.1 -0.1)">
       <use xlink:href="#DejaVuSans-51"/>
       <use x="63.623047" xlink:href="#DejaVuSans-46"/>
       <use x="95.410156" xlink:href="#DejaVuSans-48"/>
       <use x="159.033203" xlink:href="#DejaVuSans-50"/>
      </g>
     </g>
    </g>
    <g id="ytick_3">
     <g id="line2d_9">
      <g>
       <use style="stroke:#000000;stroke-width:0.8;" x="57.6" xlink:href="#m6021a43dc9" y="215.665148"/>
      </g>
     </g>
     <g id="text_10">
      <!-- 3.04 -->
      <g transform="translate(28.334375 219.464366)scale(0.1 -0.1)">
       <use xlink:href="#DejaVuSans-51"/>
       <use x="63.623047" xlink:href="#DejaVuSans-46"/>
       <use x="95.410156" xlink:href="#DejaVuSans-48"/>
       <use x="159.033203" xlink:href="#DejaVuSans-52"/>
      </g>
     </g>
    </g>
    <g id="ytick_4">
     <g id="line2d_10">
      <g>
       <use style="stroke:#000000;stroke-width:0.8;" x="57.6" xlink:href="#m6021a43dc9" y="180.04901"/>
      </g>
     </g>
     <g id="text_11">
      <!-- 3.06 -->
      <g transform="translate(28.334375 183.848229)scale(0.1 -0.1)">
       <use xlink:href="#DejaVuSans-51"/>
       <use x="63.623047" xlink:href="#DejaVuSans-46"/>
       <use x="95.410156" xlink:href="#DejaVuSans-48"/>
       <use x="159.033203" xlink:href="#DejaVuSans-54"/>
      </g>
     </g>
    </g>
    <g id="ytick_5">
     <g id="line2d_11">
      <g>
       <use style="stroke:#000000;stroke-width:0.8;" x="57.6" xlink:href="#m6021a43dc9" y="144.432873"/>
      </g>
     </g>
     <g id="text_12">
      <!-- 3.08 -->
      <defs>
       <path d="M 31.78125 34.625 
Q 24.75 34.625 20.71875 30.859375 
Q 16.703125 27.09375 16.703125 20.515625 
Q 16.703125 13.921875 20.71875 10.15625 
Q 24.75 6.390625 31.78125 6.390625 
Q 38.8125 6.390625 42.859375 10.171875 
Q 46.921875 13.96875 46.921875 20.515625 
Q 46.921875 27.09375 42.890625 30.859375 
Q 38.875 34.625 31.78125 34.625 
z
M 21.921875 38.8125 
Q 15.578125 40.375 12.03125 44.71875 
Q 8.5 49.078125 8.5 55.328125 
Q 8.5 64.0625 14.71875 69.140625 
Q 20.953125 74.21875 31.78125 74.21875 
Q 42.671875 74.21875 48.875 69.140625 
Q 55.078125 64.0625 55.078125 55.328125 
Q 55.078125 49.078125 51.53125 44.71875 
Q 48 40.375 41.703125 38.8125 
Q 48.828125 37.15625 52.796875 32.3125 
Q 56.78125 27.484375 56.78125 20.515625 
Q 56.78125 9.90625 50.3125 4.234375 
Q 43.84375 -1.421875 31.78125 -1.421875 
Q 19.734375 -1.421875 13.25 4.234375 
Q 6.78125 9.90625 6.78125 20.515625 
Q 6.78125 27.484375 10.78125 32.3125 
Q 14.796875 37.15625 21.921875 38.8125 
z
M 18.3125 54.390625 
Q 18.3125 48.734375 21.84375 45.5625 
Q 25.390625 42.390625 31.78125 42.390625 
Q 38.140625 42.390625 41.71875 45.5625 
Q 45.3125 48.734375 45.3125 54.390625 
Q 45.3125 60.0625 41.71875 63.234375 
Q 38.140625 66.40625 31.78125 66.40625 
Q 25.390625 66.40625 21.84375 63.234375 
Q 18.3125 60.0625 18.3125 54.390625 
z
" id="DejaVuSans-56"/>
      </defs>
      <g transform="translate(28.334375 148.232091)scale(0.1 -0.1)">
       <use xlink:href="#DejaVuSans-51"/>
       <use x="63.623047" xlink:href="#DejaVuSans-46"/>
       <use x="95.410156" xlink:href="#DejaVuSans-48"/>
       <use x="159.033203" xlink:href="#DejaVuSans-56"/>
      </g>
     </g>
    </g>
    <g id="ytick_6">
     <g id="line2d_12">
      <g>
       <use style="stroke:#000000;stroke-width:0.8;" x="57.6" xlink:href="#m6021a43dc9" y="108.816735"/>
      </g>
     </g>
     <g id="text_13">
      <!-- 3.10 -->
      <g transform="translate(28.334375 112.615954)scale(0.1 -0.1)">
       <use xlink:href="#DejaVuSans-51"/>
       <use x="63.623047" xlink:href="#DejaVuSans-46"/>
       <use x="95.410156" xlink:href="#DejaVuSans-49"/>
       <use x="159.033203" xlink:href="#DejaVuSans-48"/>
      </g>
     </g>
    </g>
    <g id="ytick_7">
     <g id="line2d_13">
      <g>
       <use style="stroke:#000000;stroke-width:0.8;" x="57.6" xlink:href="#m6021a43dc9" y="73.200598"/>
      </g>
     </g>
     <g id="text_14">
      <!-- 3.12 -->
      <g transform="translate(28.334375 76.999816)scale(0.1 -0.1)">
       <use xlink:href="#DejaVuSans-51"/>
       <use x="63.623047" xlink:href="#DejaVuSans-46"/>
       <use x="95.410156" xlink:href="#DejaVuSans-49"/>
       <use x="159.033203" xlink:href="#DejaVuSans-50"/>
      </g>
     </g>
    </g>
    <g id="text_15">
     <!-- Value of $\beta_i$ -->
     <defs>
      <path d="M 28.609375 0 
L 0.78125 72.90625 
L 11.078125 72.90625 
L 34.1875 11.53125 
L 57.328125 72.90625 
L 67.578125 72.90625 
L 39.796875 0 
z
" id="DejaVuSans-86"/>
      <path d="M 34.28125 27.484375 
Q 23.390625 27.484375 19.1875 25 
Q 14.984375 22.515625 14.984375 16.5 
Q 14.984375 11.71875 18.140625 8.90625 
Q 21.296875 6.109375 26.703125 6.109375 
Q 34.1875 6.109375 38.703125 11.40625 
Q 43.21875 16.703125 43.21875 25.484375 
L 43.21875 27.484375 
z
M 52.203125 31.203125 
L 52.203125 0 
L 43.21875 0 
L 43.21875 8.296875 
Q 40.140625 3.328125 35.546875 0.953125 
Q 30.953125 -1.421875 24.3125 -1.421875 
Q 15.921875 -1.421875 10.953125 3.296875 
Q 6 8.015625 6 15.921875 
Q 6 25.140625 12.171875 29.828125 
Q 18.359375 34.515625 30.609375 34.515625 
L 43.21875 34.515625 
L 43.21875 35.40625 
Q 43.21875 41.609375 39.140625 45 
Q 35.0625 48.390625 27.6875 48.390625 
Q 23 48.390625 18.546875 47.265625 
Q 14.109375 46.140625 10.015625 43.890625 
L 10.015625 52.203125 
Q 14.9375 54.109375 19.578125 55.046875 
Q 24.21875 56 28.609375 56 
Q 40.484375 56 46.34375 49.84375 
Q 52.203125 43.703125 52.203125 31.203125 
z
" id="DejaVuSans-97"/>
      <path d="M 9.421875 75.984375 
L 18.40625 75.984375 
L 18.40625 0 
L 9.421875 0 
z
" id="DejaVuSans-108"/>
      <path d="M 8.5 21.578125 
L 8.5 54.6875 
L 17.484375 54.6875 
L 17.484375 21.921875 
Q 17.484375 14.15625 20.5 10.265625 
Q 23.53125 6.390625 29.59375 6.390625 
Q 36.859375 6.390625 41.078125 11.03125 
Q 45.3125 15.671875 45.3125 23.6875 
L 45.3125 54.6875 
L 54.296875 54.6875 
L 54.296875 0 
L 45.3125 0 
L 45.3125 8.40625 
Q 42.046875 3.421875 37.71875 1 
Q 33.40625 -1.421875 27.6875 -1.421875 
Q 18.265625 -1.421875 13.375 4.4375 
Q 8.5 10.296875 8.5 21.578125 
z
M 31.109375 56 
z
" id="DejaVuSans-117"/>
      <path d="M 56.203125 29.59375 
L 56.203125 25.203125 
L 14.890625 25.203125 
Q 15.484375 15.921875 20.484375 11.0625 
Q 25.484375 6.203125 34.421875 6.203125 
Q 39.59375 6.203125 44.453125 7.46875 
Q 49.3125 8.734375 54.109375 11.28125 
L 54.109375 2.78125 
Q 49.265625 0.734375 44.1875 -0.34375 
Q 39.109375 -1.421875 33.890625 -1.421875 
Q 20.796875 -1.421875 13.15625 6.1875 
Q 5.515625 13.8125 5.515625 26.8125 
Q 5.515625 40.234375 12.765625 48.109375 
Q 20.015625 56 32.328125 56 
Q 43.359375 56 49.78125 48.890625 
Q 56.203125 41.796875 56.203125 29.59375 
z
M 47.21875 32.234375 
Q 47.125 39.59375 43.09375 43.984375 
Q 39.0625 48.390625 32.421875 48.390625 
Q 24.90625 48.390625 20.390625 44.140625 
Q 15.875 39.890625 15.1875 32.171875 
z
" id="DejaVuSans-101"/>
      <path id="DejaVuSans-32"/>
      <path d="M 30.609375 48.390625 
Q 23.390625 48.390625 19.1875 42.75 
Q 14.984375 37.109375 14.984375 27.296875 
Q 14.984375 17.484375 19.15625 11.84375 
Q 23.34375 6.203125 30.609375 6.203125 
Q 37.796875 6.203125 41.984375 11.859375 
Q 46.1875 17.53125 46.1875 27.296875 
Q 46.1875 37.015625 41.984375 42.703125 
Q 37.796875 48.390625 30.609375 48.390625 
z
M 30.609375 56 
Q 42.328125 56 49.015625 48.375 
Q 55.71875 40.765625 55.71875 27.296875 
Q 55.71875 13.875 49.015625 6.21875 
Q 42.328125 -1.421875 30.609375 -1.421875 
Q 18.84375 -1.421875 12.171875 6.21875 
Q 5.515625 13.875 5.515625 27.296875 
Q 5.515625 40.765625 12.171875 48.375 
Q 18.84375 56 30.609375 56 
z
" id="DejaVuSans-111"/>
      <path d="M 37.109375 75.984375 
L 37.109375 68.5 
L 28.515625 68.5 
Q 23.6875 68.5 21.796875 66.546875 
Q 19.921875 64.59375 19.921875 59.515625 
L 19.921875 54.6875 
L 34.71875 54.6875 
L 34.71875 47.703125 
L 19.921875 47.703125 
L 19.921875 0 
L 10.890625 0 
L 10.890625 47.703125 
L 2.296875 47.703125 
L 2.296875 54.6875 
L 10.890625 54.6875 
L 10.890625 58.5 
Q 10.890625 67.625 15.140625 71.796875 
Q 19.390625 75.984375 28.609375 75.984375 
z
" id="DejaVuSans-102"/>
     </defs>
     <g transform="translate(22.234375 200.978)rotate(-90)scale(0.1 -0.1)">
      <use transform="translate(0 0.390625)" xlink:href="#DejaVuSans-86"/>
      <use transform="translate(68.408203 0.390625)" xlink:href="#DejaVuSans-97"/>
      <use transform="translate(129.6875 0.390625)" xlink:href="#DejaVuSans-108"/>
      <use transform="translate(157.470703 0.390625)" xlink:href="#DejaVuSans-117"/>
      <use transform="translate(220.849609 0.390625)" xlink:href="#DejaVuSans-101"/>
      <use transform="translate(282.373047 0.390625)" xlink:href="#DejaVuSans-32"/>
      <use transform="translate(314.160156 0.390625)" xlink:href="#DejaVuSans-111"/>
      <use transform="translate(375.341797 0.390625)" xlink:href="#DejaVuSans-102"/>
      <use transform="translate(410.546875 0.390625)" xlink:href="#DejaVuSans-32"/>
      <use transform="translate(442.333984 0.390625)" xlink:href="#DejaVuSans-Oblique-946"/>
      <use transform="translate(506.152344 -16.015625)scale(0.7)" xlink:href="#DejaVuSans-Oblique-105"/>
     </g>
    </g>
   </g>
   <g id="line2d_14">
    <path clip-path="url(#p9e28344e27)" d="M 73.832727 277.660573 
L 138.763636 233.221756 
L 203.694545 197.901746 
L 268.625455 156.639216 
L 333.556364 145.390766 
L 398.487273 104.634993 
" style="fill:none;stroke:#1f77b4;stroke-linecap:square;stroke-width:1.5;"/>
    <defs>
     <path d="M 0 3 
C 0.795609 3 1.55874 2.683901 2.12132 2.12132 
C 2.683901 1.55874 3 0.795609 3 0 
C 3 -0.795609 2.683901 -1.55874 2.12132 -2.12132 
C 1.55874 -2.683901 0.795609 -3 0 -3 
C -0.795609 -3 -1.55874 -2.683901 -2.12132 -2.12132 
C -2.683901 -1.55874 -3 -0.795609 -3 0 
C -3 0.795609 -2.683901 1.55874 -2.12132 2.12132 
C -1.55874 2.683901 -0.795609 3 0 3 
z
" id="mdcd8bb6b83" style="stroke:#1f77b4;"/>
    </defs>
    <g clip-path="url(#p9e28344e27)">
     <use style="fill:#1f77b4;stroke:#1f77b4;" x="73.832727" xlink:href="#mdcd8bb6b83" y="277.660573"/>
     <use style="fill:#1f77b4;stroke:#1f77b4;" x="138.763636" xlink:href="#mdcd8bb6b83" y="233.221756"/>
     <use style="fill:#1f77b4;stroke:#1f77b4;" x="203.694545" xlink:href="#mdcd8bb6b83" y="197.901746"/>
     <use style="fill:#1f77b4;stroke:#1f77b4;" x="268.625455" xlink:href="#mdcd8bb6b83" y="156.639216"/>
     <use style="fill:#1f77b4;stroke:#1f77b4;" x="333.556364" xlink:href="#mdcd8bb6b83" y="145.390766"/>
     <use style="fill:#1f77b4;stroke:#1f77b4;" x="398.487273" xlink:href="#mdcd8bb6b83" y="104.634993"/>
    </g>
   </g>
   <g id="line2d_15">
    <path clip-path="url(#p9e28344e27)" d="M 73.832727 260.155614 
L 138.763636 222.804276 
L 203.694545 181.962043 
L 268.625455 157.270958 
L 333.556364 124.451033 
L 398.487273 72.637739 
" style="fill:none;stroke:#ff7f0e;stroke-linecap:square;stroke-width:1.5;"/>
    <defs>
     <path d="M 0 3 
C 0.795609 3 1.55874 2.683901 2.12132 2.12132 
C 2.683901 1.55874 3 0.795609 3 0 
C 3 -0.795609 2.683901 -1.55874 2.12132 -2.12132 
C 1.55874 -2.683901 0.795609 -3 0 -3 
C -0.795609 -3 -1.55874 -2.683901 -2.12132 -2.12132 
C -2.683901 -1.55874 -3 -0.795609 -3 0 
C -3 0.795609 -2.683901 1.55874 -2.12132 2.12132 
C -1.55874 2.683901 -0.795609 3 0 3 
z
" id="m107fc83889" style="stroke:#ff7f0e;"/>
    </defs>
    <g clip-path="url(#p9e28344e27)">
     <use style="fill:#ff7f0e;stroke:#ff7f0e;" x="73.832727" xlink:href="#m107fc83889" y="260.155614"/>
     <use style="fill:#ff7f0e;stroke:#ff7f0e;" x="138.763636" xlink:href="#m107fc83889" y="222.804276"/>
     <use style="fill:#ff7f0e;stroke:#ff7f0e;" x="203.694545" xlink:href="#m107fc83889" y="181.962043"/>
     <use style="fill:#ff7f0e;stroke:#ff7f0e;" x="268.625455" xlink:href="#m107fc83889" y="157.270958"/>
     <use style="fill:#ff7f0e;stroke:#ff7f0e;" x="333.556364" xlink:href="#m107fc83889" y="124.451033"/>
     <use style="fill:#ff7f0e;stroke:#ff7f0e;" x="398.487273" xlink:href="#m107fc83889" y="72.637739"/>
    </g>
   </g>
   <g id="line2d_16">
    <path clip-path="url(#p9e28344e27)" d="M 73.832727 264.852321 
L 138.763636 244.463356 
L 203.694545 211.69597 
L 268.625455 183.133247 
L 333.556364 129.81231 
L 398.487273 68.576124 
" style="fill:none;stroke:#2ca02c;stroke-linecap:square;stroke-width:1.5;"/>
    <defs>
     <path d="M 0 3 
C 0.795609 3 1.55874 2.683901 2.12132 2.12132 
C 2.683901 1.55874 3 0.795609 3 0 
C 3 -0.795609 2.683901 -1.55874 2.12132 -2.12132 
C 1.55874 -2.683901 0.795609 -3 0 -3 
C -0.795609 -3 -1.55874 -2.683901 -2.12132 -2.12132 
C -2.683901 -1.55874 -3 -0.795609 -3 0 
C -3 0.795609 -2.683901 1.55874 -2.12132 2.12132 
C -1.55874 2.683901 -0.795609 3 0 3 
z
" id="ma5ce2d6496" style="stroke:#2ca02c;"/>
    </defs>
    <g clip-path="url(#p9e28344e27)">
     <use style="fill:#2ca02c;stroke:#2ca02c;" x="73.832727" xlink:href="#ma5ce2d6496" y="264.852321"/>
     <use style="fill:#2ca02c;stroke:#2ca02c;" x="138.763636" xlink:href="#ma5ce2d6496" y="244.463356"/>
     <use style="fill:#2ca02c;stroke:#2ca02c;" x="203.694545" xlink:href="#ma5ce2d6496" y="211.69597"/>
     <use style="fill:#2ca02c;stroke:#2ca02c;" x="268.625455" xlink:href="#ma5ce2d6496" y="183.133247"/>
     <use style="fill:#2ca02c;stroke:#2ca02c;" x="333.556364" xlink:href="#ma5ce2d6496" y="129.81231"/>
     <use style="fill:#2ca02c;stroke:#2ca02c;" x="398.487273" xlink:href="#ma5ce2d6496" y="68.576124"/>
    </g>
   </g>
   <g id="line2d_17">
    <path clip-path="url(#p9e28344e27)" d="M 73.832727 275.858129 
L 138.763636 255.28503 
L 203.694545 235.916169 
L 268.625455 232.487735 
L 333.556364 196.037698 
L 398.487273 123.867403 
" style="fill:none;stroke:#d62728;stroke-linecap:square;stroke-width:1.5;"/>
    <defs>
     <path d="M 0 3 
C 0.795609 3 1.55874 2.683901 2.12132 2.12132 
C 2.683901 1.55874 3 0.795609 3 0 
C 3 -0.795609 2.683901 -1.55874 2.12132 -2.12132 
C 1.55874 -2.683901 0.795609 -3 0 -3 
C -0.795609 -3 -1.55874 -2.683901 -2.12132 -2.12132 
C -2.683901 -1.55874 -3 -0.795609 -3 0 
C -3 0.795609 -2.683901 1.55874 -2.12132 2.12132 
C -1.55874 2.683901 -0.795609 3 0 3 
z
" id="m5a7f5a75bf" style="stroke:#d62728;"/>
    </defs>
    <g clip-path="url(#p9e28344e27)">
     <use style="fill:#d62728;stroke:#d62728;" x="73.832727" xlink:href="#m5a7f5a75bf" y="275.858129"/>
     <use style="fill:#d62728;stroke:#d62728;" x="138.763636" xlink:href="#m5a7f5a75bf" y="255.28503"/>
     <use style="fill:#d62728;stroke:#d62728;" x="203.694545" xlink:href="#m5a7f5a75bf" y="235.916169"/>
     <use style="fill:#d62728;stroke:#d62728;" x="268.625455" xlink:href="#m5a7f5a75bf" y="232.487735"/>
     <use style="fill:#d62728;stroke:#d62728;" x="333.556364" xlink:href="#m5a7f5a75bf" y="196.037698"/>
     <use style="fill:#d62728;stroke:#d62728;" x="398.487273" xlink:href="#m5a7f5a75bf" y="123.867403"/>
    </g>
   </g>
   <g id="line2d_18">
    <path clip-path="url(#p9e28344e27)" d="M 73.832727 277.158205 
L 138.763636 231.547359 
L 203.694545 191.779224 
L 268.625455 159.04626 
L 333.556364 124.017559 
L 398.487273 80.216206 
" style="fill:none;stroke:#9467bd;stroke-linecap:square;stroke-width:1.5;"/>
    <defs>
     <path d="M 0 3 
C 0.795609 3 1.55874 2.683901 2.12132 2.12132 
C 2.683901 1.55874 3 0.795609 3 0 
C 3 -0.795609 2.683901 -1.55874 2.12132 -2.12132 
C 1.55874 -2.683901 0.795609 -3 0 -3 
C -0.795609 -3 -1.55874 -2.683901 -2.12132 -2.12132 
C -2.683901 -1.55874 -3 -0.795609 -3 0 
C -3 0.795609 -2.683901 1.55874 -2.12132 2.12132 
C -1.55874 2.683901 -0.795609 3 0 3 
z
" id="mb4eb5ba0dc" style="stroke:#9467bd;"/>
    </defs>
    <g clip-path="url(#p9e28344e27)">
     <use style="fill:#9467bd;stroke:#9467bd;" x="73.832727" xlink:href="#mb4eb5ba0dc" y="277.158205"/>
     <use style="fill:#9467bd;stroke:#9467bd;" x="138.763636" xlink:href="#mb4eb5ba0dc" y="231.547359"/>
     <use style="fill:#9467bd;stroke:#9467bd;" x="203.694545" xlink:href="#mb4eb5ba0dc" y="191.779224"/>
     <use style="fill:#9467bd;stroke:#9467bd;" x="268.625455" xlink:href="#mb4eb5ba0dc" y="159.04626"/>
     <use style="fill:#9467bd;stroke:#9467bd;" x="333.556364" xlink:href="#mb4eb5ba0dc" y="124.017559"/>
     <use style="fill:#9467bd;stroke:#9467bd;" x="398.487273" xlink:href="#mb4eb5ba0dc" y="80.216206"/>
    </g>
   </g>
   <g id="line2d_19">
    <path clip-path="url(#p9e28344e27)" d="M 73.832727 275.530996 
L 138.763636 243.746041 
L 203.694545 210.752318 
L 268.625455 202.777578 
L 333.556364 186.912247 
L 398.487273 110.427865 
" style="fill:none;stroke:#8c564b;stroke-linecap:square;stroke-width:1.5;"/>
    <defs>
     <path d="M 0 3 
C 0.795609 3 1.55874 2.683901 2.12132 2.12132 
C 2.683901 1.55874 3 0.795609 3 0 
C 3 -0.795609 2.683901 -1.55874 2.12132 -2.12132 
C 1.55874 -2.683901 0.795609 -3 0 -3 
C -0.795609 -3 -1.55874 -2.683901 -2.12132 -2.12132 
C -2.683901 -1.55874 -3 -0.795609 -3 0 
C -3 0.795609 -2.683901 1.55874 -2.12132 2.12132 
C -1.55874 2.683901 -0.795609 3 0 3 
z
" id="m3ee1e69387" style="stroke:#8c564b;"/>
    </defs>
    <g clip-path="url(#p9e28344e27)">
     <use style="fill:#8c564b;stroke:#8c564b;" x="73.832727" xlink:href="#m3ee1e69387" y="275.530996"/>
     <use style="fill:#8c564b;stroke:#8c564b;" x="138.763636" xlink:href="#m3ee1e69387" y="243.746041"/>
     <use style="fill:#8c564b;stroke:#8c564b;" x="203.694545" xlink:href="#m3ee1e69387" y="210.752318"/>
     <use style="fill:#8c564b;stroke:#8c564b;" x="268.625455" xlink:href="#m3ee1e69387" y="202.777578"/>
     <use style="fill:#8c564b;stroke:#8c564b;" x="333.556364" xlink:href="#m3ee1e69387" y="186.912247"/>
     <use style="fill:#8c564b;stroke:#8c564b;" x="398.487273" xlink:href="#m3ee1e69387" y="110.427865"/>
    </g>
   </g>
   <g id="line2d_20">
    <path clip-path="url(#p9e28344e27)" d="M 73.832727 277.597045 
L 138.763636 232.586176 
L 203.694545 186.628313 
L 268.625455 159.377197 
L 333.556364 124.495818 
L 398.487273 79.43132 
" style="fill:none;stroke:#e377c2;stroke-linecap:square;stroke-width:1.5;"/>
    <defs>
     <path d="M 0 3 
C 0.795609 3 1.55874 2.683901 2.12132 2.12132 
C 2.683901 1.55874 3 0.795609 3 0 
C 3 -0.795609 2.683901 -1.55874 2.12132 -2.12132 
C 1.55874 -2.683901 0.795609 -3 0 -3 
C -0.795609 -3 -1.55874 -2.683901 -2.12132 -2.12132 
C -2.683901 -1.55874 -3 -0.795609 -3 0 
C -3 0.795609 -2.683901 1.55874 -2.12132 2.12132 
C -1.55874 2.683901 -0.795609 3 0 3 
z
" id="mc4dc9f5094" style="stroke:#e377c2;"/>
    </defs>
    <g clip-path="url(#p9e28344e27)">
     <use style="fill:#e377c2;stroke:#e377c2;" x="73.832727" xlink:href="#mc4dc9f5094" y="277.597045"/>
     <use style="fill:#e377c2;stroke:#e377c2;" x="138.763636" xlink:href="#mc4dc9f5094" y="232.586176"/>
     <use style="fill:#e377c2;stroke:#e377c2;" x="203.694545" xlink:href="#mc4dc9f5094" y="186.628313"/>
     <use style="fill:#e377c2;stroke:#e377c2;" x="268.625455" xlink:href="#mc4dc9f5094" y="159.377197"/>
     <use style="fill:#e377c2;stroke:#e377c2;" x="333.556364" xlink:href="#mc4dc9f5094" y="124.495818"/>
     <use style="fill:#e377c2;stroke:#e377c2;" x="398.487273" xlink:href="#mc4dc9f5094" y="79.43132"/>
    </g>
   </g>
   <g id="line2d_21">
    <path clip-path="url(#p9e28344e27)" d="M 73.832727 274.177786 
L 138.763636 236.693326 
L 203.694545 182.503211 
L 268.625455 130.79501 
L 333.556364 89.258207 
L 398.487273 58.689162 
" style="fill:none;stroke:#7f7f7f;stroke-linecap:square;stroke-width:1.5;"/>
    <defs>
     <path d="M 0 3 
C 0.795609 3 1.55874 2.683901 2.12132 2.12132 
C 2.683901 1.55874 3 0.795609 3 0 
C 3 -0.795609 2.683901 -1.55874 2.12132 -2.12132 
C 1.55874 -2.683901 0.795609 -3 0 -3 
C -0.795609 -3 -1.55874 -2.683901 -2.12132 -2.12132 
C -2.683901 -1.55874 -3 -0.795609 -3 0 
C -3 0.795609 -2.683901 1.55874 -2.12132 2.12132 
C -1.55874 2.683901 -0.795609 3 0 3 
z
" id="ma4e7ac2f91" style="stroke:#7f7f7f;"/>
    </defs>
    <g clip-path="url(#p9e28344e27)">
     <use style="fill:#7f7f7f;stroke:#7f7f7f;" x="73.832727" xlink:href="#ma4e7ac2f91" y="274.177786"/>
     <use style="fill:#7f7f7f;stroke:#7f7f7f;" x="138.763636" xlink:href="#ma4e7ac2f91" y="236.693326"/>
     <use style="fill:#7f7f7f;stroke:#7f7f7f;" x="203.694545" xlink:href="#ma4e7ac2f91" y="182.503211"/>
     <use style="fill:#7f7f7f;stroke:#7f7f7f;" x="268.625455" xlink:href="#ma4e7ac2f91" y="130.79501"/>
     <use style="fill:#7f7f7f;stroke:#7f7f7f;" x="333.556364" xlink:href="#ma4e7ac2f91" y="89.258207"/>
     <use style="fill:#7f7f7f;stroke:#7f7f7f;" x="398.487273" xlink:href="#ma4e7ac2f91" y="58.689162"/>
    </g>
   </g>
   <g id="line2d_22">
    <path clip-path="url(#p9e28344e27)" d="M 73.832727 260.163954 
L 138.763636 217.955467 
L 203.694545 180.034602 
L 268.625455 161.781895 
L 333.556364 130.319983 
L 398.487273 78.020669 
" style="fill:none;stroke:#bcbd22;stroke-linecap:square;stroke-width:1.5;"/>
    <defs>
     <path d="M 0 3 
C 0.795609 3 1.55874 2.683901 2.12132 2.12132 
C 2.683901 1.55874 3 0.795609 3 0 
C 3 -0.795609 2.683901 -1.55874 2.12132 -2.12132 
C 1.55874 -2.683901 0.795609 -3 0 -3 
C -0.795609 -3 -1.55874 -2.683901 -2.12132 -2.12132 
C -2.683901 -1.55874 -3 -0.795609 -3 0 
C -3 0.795609 -2.683901 1.55874 -2.12132 2.12132 
C -1.55874 2.683901 -0.795609 3 0 3 
z
" id="mb384a335c7" style="stroke:#bcbd22;"/>
    </defs>
    <g clip-path="url(#p9e28344e27)">
     <use style="fill:#bcbd22;stroke:#bcbd22;" x="73.832727" xlink:href="#mb384a335c7" y="260.163954"/>
     <use style="fill:#bcbd22;stroke:#bcbd22;" x="138.763636" xlink:href="#mb384a335c7" y="217.955467"/>
     <use style="fill:#bcbd22;stroke:#bcbd22;" x="203.694545" xlink:href="#mb384a335c7" y="180.034602"/>
     <use style="fill:#bcbd22;stroke:#bcbd22;" x="268.625455" xlink:href="#mb384a335c7" y="161.781895"/>
     <use style="fill:#bcbd22;stroke:#bcbd22;" x="333.556364" xlink:href="#mb384a335c7" y="130.319983"/>
     <use style="fill:#bcbd22;stroke:#bcbd22;" x="398.487273" xlink:href="#mb384a335c7" y="78.020669"/>
    </g>
   </g>
   <g id="line2d_23">
    <path clip-path="url(#p9e28344e27)" d="M 73.832727 281.237022 
L 138.763636 246.629918 
L 203.694545 218.36497 
L 268.625455 190.057896 
L 333.556364 154.926145 
L 398.487273 110.183447 
" style="fill:none;stroke:#17becf;stroke-linecap:square;stroke-width:1.5;"/>
    <defs>
     <path d="M 0 3 
C 0.795609 3 1.55874 2.683901 2.12132 2.12132 
C 2.683901 1.55874 3 0.795609 3 0 
C 3 -0.795609 2.683901 -1.55874 2.12132 -2.12132 
C 1.55874 -2.683901 0.795609 -3 0 -3 
C -0.795609 -3 -1.55874 -2.683901 -2.12132 -2.12132 
C -2.683901 -1.55874 -3 -0.795609 -3 0 
C -3 0.795609 -2.683901 1.55874 -2.12132 2.12132 
C -1.55874 2.683901 -0.795609 3 0 3 
z
" id="m1a4d4110d7" style="stroke:#17becf;"/>
    </defs>
    <g clip-path="url(#p9e28344e27)">
     <use style="fill:#17becf;stroke:#17becf;" x="73.832727" xlink:href="#m1a4d4110d7" y="281.237022"/>
     <use style="fill:#17becf;stroke:#17becf;" x="138.763636" xlink:href="#m1a4d4110d7" y="246.629918"/>
     <use style="fill:#17becf;stroke:#17becf;" x="203.694545" xlink:href="#m1a4d4110d7" y="218.36497"/>
     <use style="fill:#17becf;stroke:#17becf;" x="268.625455" xlink:href="#m1a4d4110d7" y="190.057896"/>
     <use style="fill:#17becf;stroke:#17becf;" x="333.556364" xlink:href="#m1a4d4110d7" y="154.926145"/>
     <use style="fill:#17becf;stroke:#17becf;" x="398.487273" xlink:href="#m1a4d4110d7" y="110.183447"/>
    </g>
   </g>
   <g id="line2d_24">
    <path clip-path="url(#p9e28344e27)" d="M 73.832727 273.829626 
L 138.763636 248.406912 
L 203.694545 206.992099 
L 268.625455 206.400438 
L 333.556364 160.092318 
L 398.487273 111.682373 
" style="fill:none;stroke:#1f77b4;stroke-linecap:square;stroke-width:1.5;"/>
    <g clip-path="url(#p9e28344e27)">
     <use style="fill:#1f77b4;stroke:#1f77b4;" x="73.832727" xlink:href="#mdcd8bb6b83" y="273.829626"/>
     <use style="fill:#1f77b4;stroke:#1f77b4;" x="138.763636" xlink:href="#mdcd8bb6b83" y="248.406912"/>
     <use style="fill:#1f77b4;stroke:#1f77b4;" x="203.694545" xlink:href="#mdcd8bb6b83" y="206.992099"/>
     <use style="fill:#1f77b4;stroke:#1f77b4;" x="268.625455" xlink:href="#mdcd8bb6b83" y="206.400438"/>
     <use style="fill:#1f77b4;stroke:#1f77b4;" x="333.556364" xlink:href="#mdcd8bb6b83" y="160.092318"/>
     <use style="fill:#1f77b4;stroke:#1f77b4;" x="398.487273" xlink:href="#mdcd8bb6b83" y="111.682373"/>
    </g>
   </g>
   <g id="line2d_25">
    <path clip-path="url(#p9e28344e27)" d="M 73.832727 262.185595 
L 138.763636 233.059031 
L 203.694545 194.062581 
L 268.625455 158.839892 
L 333.556364 126.382457 
L 398.487273 74.908265 
" style="fill:none;stroke:#ff7f0e;stroke-linecap:square;stroke-width:1.5;"/>
    <g clip-path="url(#p9e28344e27)">
     <use style="fill:#ff7f0e;stroke:#ff7f0e;" x="73.832727" xlink:href="#m107fc83889" y="262.185595"/>
     <use style="fill:#ff7f0e;stroke:#ff7f0e;" x="138.763636" xlink:href="#m107fc83889" y="233.059031"/>
     <use style="fill:#ff7f0e;stroke:#ff7f0e;" x="203.694545" xlink:href="#m107fc83889" y="194.062581"/>
     <use style="fill:#ff7f0e;stroke:#ff7f0e;" x="268.625455" xlink:href="#m107fc83889" y="158.839892"/>
     <use style="fill:#ff7f0e;stroke:#ff7f0e;" x="333.556364" xlink:href="#m107fc83889" y="126.382457"/>
     <use style="fill:#ff7f0e;stroke:#ff7f0e;" x="398.487273" xlink:href="#m107fc83889" y="74.908265"/>
    </g>
   </g>
   <g id="line2d_26">
    <path clip-path="url(#p9e28344e27)" d="M 73.832727 277.687061 
L 138.763636 243.750362 
L 203.694545 208.888269 
L 268.625455 183.542154 
L 333.556364 149.560438 
L 398.487273 95.267167 
" style="fill:none;stroke:#2ca02c;stroke-linecap:square;stroke-width:1.5;"/>
    <g clip-path="url(#p9e28344e27)">
     <use style="fill:#2ca02c;stroke:#2ca02c;" x="73.832727" xlink:href="#ma5ce2d6496" y="277.687061"/>
     <use style="fill:#2ca02c;stroke:#2ca02c;" x="138.763636" xlink:href="#ma5ce2d6496" y="243.750362"/>
     <use style="fill:#2ca02c;stroke:#2ca02c;" x="203.694545" xlink:href="#ma5ce2d6496" y="208.888269"/>
     <use style="fill:#2ca02c;stroke:#2ca02c;" x="268.625455" xlink:href="#ma5ce2d6496" y="183.542154"/>
     <use style="fill:#2ca02c;stroke:#2ca02c;" x="333.556364" xlink:href="#ma5ce2d6496" y="149.560438"/>
     <use style="fill:#2ca02c;stroke:#2ca02c;" x="398.487273" xlink:href="#ma5ce2d6496" y="95.267167"/>
    </g>
   </g>
   <g id="line2d_27">
    <path clip-path="url(#p9e28344e27)" d="M 73.832727 270.346701 
L 138.763636 259.214277 
L 203.694545 230.377244 
L 268.625455 205.345105 
L 333.556364 167.663091 
L 398.487273 92.838542 
" style="fill:none;stroke:#d62728;stroke-linecap:square;stroke-width:1.5;"/>
    <g clip-path="url(#p9e28344e27)">
     <use style="fill:#d62728;stroke:#d62728;" x="73.832727" xlink:href="#m5a7f5a75bf" y="270.346701"/>
     <use style="fill:#d62728;stroke:#d62728;" x="138.763636" xlink:href="#m5a7f5a75bf" y="259.214277"/>
     <use style="fill:#d62728;stroke:#d62728;" x="203.694545" xlink:href="#m5a7f5a75bf" y="230.377244"/>
     <use style="fill:#d62728;stroke:#d62728;" x="268.625455" xlink:href="#m5a7f5a75bf" y="205.345105"/>
     <use style="fill:#d62728;stroke:#d62728;" x="333.556364" xlink:href="#m5a7f5a75bf" y="167.663091"/>
     <use style="fill:#d62728;stroke:#d62728;" x="398.487273" xlink:href="#m5a7f5a75bf" y="92.838542"/>
    </g>
   </g>
   <g id="line2d_28">
    <path clip-path="url(#p9e28344e27)" d="M 73.832727 295.488 
L 138.763636 253.759301 
L 203.694545 209.856359 
L 268.625455 178.124208 
L 333.556364 128.650277 
L 398.487273 76.816241 
" style="fill:none;stroke:#9467bd;stroke-linecap:square;stroke-width:1.5;"/>
    <g clip-path="url(#p9e28344e27)">
     <use style="fill:#9467bd;stroke:#9467bd;" x="73.832727" xlink:href="#mb4eb5ba0dc" y="295.488"/>
     <use style="fill:#9467bd;stroke:#9467bd;" x="138.763636" xlink:href="#mb4eb5ba0dc" y="253.759301"/>
     <use style="fill:#9467bd;stroke:#9467bd;" x="203.694545" xlink:href="#mb4eb5ba0dc" y="209.856359"/>
     <use style="fill:#9467bd;stroke:#9467bd;" x="268.625455" xlink:href="#mb4eb5ba0dc" y="178.124208"/>
     <use style="fill:#9467bd;stroke:#9467bd;" x="333.556364" xlink:href="#mb4eb5ba0dc" y="128.650277"/>
     <use style="fill:#9467bd;stroke:#9467bd;" x="398.487273" xlink:href="#mb4eb5ba0dc" y="76.816241"/>
    </g>
   </g>
   <g id="line2d_29">
    <path clip-path="url(#p9e28344e27)" d="M 73.832727 266.589391 
L 138.763636 248.754465 
L 203.694545 218.912206 
L 268.625455 192.471985 
L 333.556364 139.659721 
L 398.487273 73.808966 
" style="fill:none;stroke:#8c564b;stroke-linecap:square;stroke-width:1.5;"/>
    <g clip-path="url(#p9e28344e27)">
     <use style="fill:#8c564b;stroke:#8c564b;" x="73.832727" xlink:href="#m3ee1e69387" y="266.589391"/>
     <use style="fill:#8c564b;stroke:#8c564b;" x="138.763636" xlink:href="#m3ee1e69387" y="248.754465"/>
     <use style="fill:#8c564b;stroke:#8c564b;" x="203.694545" xlink:href="#m3ee1e69387" y="218.912206"/>
     <use style="fill:#8c564b;stroke:#8c564b;" x="268.625455" xlink:href="#m3ee1e69387" y="192.471985"/>
     <use style="fill:#8c564b;stroke:#8c564b;" x="333.556364" xlink:href="#m3ee1e69387" y="139.659721"/>
     <use style="fill:#8c564b;stroke:#8c564b;" x="398.487273" xlink:href="#m3ee1e69387" y="73.808966"/>
    </g>
   </g>
   <g id="line2d_30">
    <path clip-path="url(#p9e28344e27)" d="M 73.832727 272.199915 
L 138.763636 249.815569 
L 203.694545 215.541747 
L 268.625455 210.837779 
L 333.556364 191.656341 
L 398.487273 125.232939 
" style="fill:none;stroke:#e377c2;stroke-linecap:square;stroke-width:1.5;"/>
    <g clip-path="url(#p9e28344e27)">
     <use style="fill:#e377c2;stroke:#e377c2;" x="73.832727" xlink:href="#mc4dc9f5094" y="272.199915"/>
     <use style="fill:#e377c2;stroke:#e377c2;" x="138.763636" xlink:href="#mc4dc9f5094" y="249.815569"/>
     <use style="fill:#e377c2;stroke:#e377c2;" x="203.694545" xlink:href="#mc4dc9f5094" y="215.541747"/>
     <use style="fill:#e377c2;stroke:#e377c2;" x="268.625455" xlink:href="#mc4dc9f5094" y="210.837779"/>
     <use style="fill:#e377c2;stroke:#e377c2;" x="333.556364" xlink:href="#mc4dc9f5094" y="191.656341"/>
     <use style="fill:#e377c2;stroke:#e377c2;" x="398.487273" xlink:href="#mc4dc9f5094" y="125.232939"/>
    </g>
   </g>
   <g id="line2d_31">
    <path clip-path="url(#p9e28344e27)" d="M 73.832727 258.212392 
L 138.763636 233.533457 
L 203.694545 195.533435 
L 268.625455 139.191767 
L 333.556364 89.038032 
L 398.487273 53.568 
" style="fill:none;stroke:#7f7f7f;stroke-linecap:square;stroke-width:1.5;"/>
    <g clip-path="url(#p9e28344e27)">
     <use style="fill:#7f7f7f;stroke:#7f7f7f;" x="73.832727" xlink:href="#ma4e7ac2f91" y="258.212392"/>
     <use style="fill:#7f7f7f;stroke:#7f7f7f;" x="138.763636" xlink:href="#ma4e7ac2f91" y="233.533457"/>
     <use style="fill:#7f7f7f;stroke:#7f7f7f;" x="203.694545" xlink:href="#ma4e7ac2f91" y="195.533435"/>
     <use style="fill:#7f7f7f;stroke:#7f7f7f;" x="268.625455" xlink:href="#ma4e7ac2f91" y="139.191767"/>
     <use style="fill:#7f7f7f;stroke:#7f7f7f;" x="333.556364" xlink:href="#ma4e7ac2f91" y="89.038032"/>
     <use style="fill:#7f7f7f;stroke:#7f7f7f;" x="398.487273" xlink:href="#ma4e7ac2f91" y="53.568"/>
    </g>
   </g>
   <g id="line2d_32">
    <path clip-path="url(#p9e28344e27)" d="M 73.832727 274.014499 
L 138.763636 231.42653 
L 203.694545 195.134058 
L 268.625455 190.324753 
L 333.556364 178.701758 
L 398.487273 115.906832 
" style="fill:none;stroke:#bcbd22;stroke-linecap:square;stroke-width:1.5;"/>
    <g clip-path="url(#p9e28344e27)">
     <use style="fill:#bcbd22;stroke:#bcbd22;" x="73.832727" xlink:href="#mb384a335c7" y="274.014499"/>
     <use style="fill:#bcbd22;stroke:#bcbd22;" x="138.763636" xlink:href="#mb384a335c7" y="231.42653"/>
     <use style="fill:#bcbd22;stroke:#bcbd22;" x="203.694545" xlink:href="#mb384a335c7" y="195.134058"/>
     <use style="fill:#bcbd22;stroke:#bcbd22;" x="268.625455" xlink:href="#mb384a335c7" y="190.324753"/>
     <use style="fill:#bcbd22;stroke:#bcbd22;" x="333.556364" xlink:href="#mb384a335c7" y="178.701758"/>
     <use style="fill:#bcbd22;stroke:#bcbd22;" x="398.487273" xlink:href="#mb384a335c7" y="115.906832"/>
    </g>
   </g>
   <g id="line2d_33">
    <path clip-path="url(#p9e28344e27)" d="M 73.832727 290.809666 
L 138.763636 272.11713 
L 203.694545 235.079761 
L 268.625455 206.051684 
L 333.556364 142.139689 
L 398.487273 82.888672 
" style="fill:none;stroke:#17becf;stroke-linecap:square;stroke-width:1.5;"/>
    <g clip-path="url(#p9e28344e27)">
     <use style="fill:#17becf;stroke:#17becf;" x="73.832727" xlink:href="#m1a4d4110d7" y="290.809666"/>
     <use style="fill:#17becf;stroke:#17becf;" x="138.763636" xlink:href="#m1a4d4110d7" y="272.11713"/>
     <use style="fill:#17becf;stroke:#17becf;" x="203.694545" xlink:href="#m1a4d4110d7" y="235.079761"/>
     <use style="fill:#17becf;stroke:#17becf;" x="268.625455" xlink:href="#m1a4d4110d7" y="206.051684"/>
     <use style="fill:#17becf;stroke:#17becf;" x="333.556364" xlink:href="#m1a4d4110d7" y="142.139689"/>
     <use style="fill:#17becf;stroke:#17becf;" x="398.487273" xlink:href="#m1a4d4110d7" y="82.888672"/>
    </g>
   </g>
   <g id="line2d_34">
    <path clip-path="url(#p9e28344e27)" d="M 73.832727 289.470839 
L 138.763636 254.770606 
L 203.694545 216.709243 
L 268.625455 174.355362 
L 333.556364 116.643001 
L 398.487273 62.365254 
" style="fill:none;stroke:#1f77b4;stroke-linecap:square;stroke-width:1.5;"/>
    <g clip-path="url(#p9e28344e27)">
     <use style="fill:#1f77b4;stroke:#1f77b4;" x="73.832727" xlink:href="#mdcd8bb6b83" y="289.470839"/>
     <use style="fill:#1f77b4;stroke:#1f77b4;" x="138.763636" xlink:href="#mdcd8bb6b83" y="254.770606"/>
     <use style="fill:#1f77b4;stroke:#1f77b4;" x="203.694545" xlink:href="#mdcd8bb6b83" y="216.709243"/>
     <use style="fill:#1f77b4;stroke:#1f77b4;" x="268.625455" xlink:href="#mdcd8bb6b83" y="174.355362"/>
     <use style="fill:#1f77b4;stroke:#1f77b4;" x="333.556364" xlink:href="#mdcd8bb6b83" y="116.643001"/>
     <use style="fill:#1f77b4;stroke:#1f77b4;" x="398.487273" xlink:href="#mdcd8bb6b83" y="62.365254"/>
    </g>
   </g>
   <g id="line2d_35">
    <path clip-path="url(#p9e28344e27)" d="M 73.832727 273.259133 
L 138.763636 231.011411 
L 203.694545 196.673856 
L 268.625455 153.632122 
L 333.556364 114.45828 
L 398.487273 72.816231 
" style="fill:none;stroke:#ff7f0e;stroke-linecap:square;stroke-width:1.5;"/>
    <g clip-path="url(#p9e28344e27)">
     <use style="fill:#ff7f0e;stroke:#ff7f0e;" x="73.832727" xlink:href="#m107fc83889" y="273.259133"/>
     <use style="fill:#ff7f0e;stroke:#ff7f0e;" x="138.763636" xlink:href="#m107fc83889" y="231.011411"/>
     <use style="fill:#ff7f0e;stroke:#ff7f0e;" x="203.694545" xlink:href="#m107fc83889" y="196.673856"/>
     <use style="fill:#ff7f0e;stroke:#ff7f0e;" x="268.625455" xlink:href="#m107fc83889" y="153.632122"/>
     <use style="fill:#ff7f0e;stroke:#ff7f0e;" x="333.556364" xlink:href="#m107fc83889" y="114.45828"/>
     <use style="fill:#ff7f0e;stroke:#ff7f0e;" x="398.487273" xlink:href="#m107fc83889" y="72.816231"/>
    </g>
   </g>
   <g id="line2d_36">
    <path clip-path="url(#p9e28344e27)" d="M 73.832727 250.215641 
L 138.763636 211.413961 
L 203.694545 176.8924 
L 268.625455 145.880787 
L 333.556364 118.6651 
L 398.487273 67.651886 
" style="fill:none;stroke:#2ca02c;stroke-linecap:square;stroke-width:1.5;"/>
    <g clip-path="url(#p9e28344e27)">
     <use style="fill:#2ca02c;stroke:#2ca02c;" x="73.832727" xlink:href="#ma5ce2d6496" y="250.215641"/>
     <use style="fill:#2ca02c;stroke:#2ca02c;" x="138.763636" xlink:href="#ma5ce2d6496" y="211.413961"/>
     <use style="fill:#2ca02c;stroke:#2ca02c;" x="203.694545" xlink:href="#ma5ce2d6496" y="176.8924"/>
     <use style="fill:#2ca02c;stroke:#2ca02c;" x="268.625455" xlink:href="#ma5ce2d6496" y="145.880787"/>
     <use style="fill:#2ca02c;stroke:#2ca02c;" x="333.556364" xlink:href="#ma5ce2d6496" y="118.6651"/>
     <use style="fill:#2ca02c;stroke:#2ca02c;" x="398.487273" xlink:href="#ma5ce2d6496" y="67.651886"/>
    </g>
   </g>
   <g id="line2d_37">
    <path clip-path="url(#p9e28344e27)" d="M 73.832727 287.46253 
L 138.763636 266.065939 
L 203.694545 241.591864 
L 268.625455 205.983836 
L 333.556364 165.596702 
L 398.487273 94.306608 
" style="fill:none;stroke:#d62728;stroke-linecap:square;stroke-width:1.5;"/>
    <g clip-path="url(#p9e28344e27)">
     <use style="fill:#d62728;stroke:#d62728;" x="73.832727" xlink:href="#m5a7f5a75bf" y="287.46253"/>
     <use style="fill:#d62728;stroke:#d62728;" x="138.763636" xlink:href="#m5a7f5a75bf" y="266.065939"/>
     <use style="fill:#d62728;stroke:#d62728;" x="203.694545" xlink:href="#m5a7f5a75bf" y="241.591864"/>
     <use style="fill:#d62728;stroke:#d62728;" x="268.625455" xlink:href="#m5a7f5a75bf" y="205.983836"/>
     <use style="fill:#d62728;stroke:#d62728;" x="333.556364" xlink:href="#m5a7f5a75bf" y="165.596702"/>
     <use style="fill:#d62728;stroke:#d62728;" x="398.487273" xlink:href="#m5a7f5a75bf" y="94.306608"/>
    </g>
   </g>
   <g id="line2d_38">
    <path clip-path="url(#p9e28344e27)" d="M 73.832727 268.18688 
L 138.763636 218.195007 
L 203.694545 189.778467 
L 268.625455 154.992713 
L 333.556364 147.23463 
L 398.487273 112.039533 
" style="fill:none;stroke:#9467bd;stroke-linecap:square;stroke-width:1.5;"/>
    <g clip-path="url(#p9e28344e27)">
     <use style="fill:#9467bd;stroke:#9467bd;" x="73.832727" xlink:href="#mb4eb5ba0dc" y="268.18688"/>
     <use style="fill:#9467bd;stroke:#9467bd;" x="138.763636" xlink:href="#mb4eb5ba0dc" y="218.195007"/>
     <use style="fill:#9467bd;stroke:#9467bd;" x="203.694545" xlink:href="#mb4eb5ba0dc" y="189.778467"/>
     <use style="fill:#9467bd;stroke:#9467bd;" x="268.625455" xlink:href="#mb4eb5ba0dc" y="154.992713"/>
     <use style="fill:#9467bd;stroke:#9467bd;" x="333.556364" xlink:href="#mb4eb5ba0dc" y="147.23463"/>
     <use style="fill:#9467bd;stroke:#9467bd;" x="398.487273" xlink:href="#mb4eb5ba0dc" y="112.039533"/>
    </g>
   </g>
   <g id="line2d_39">
    <path clip-path="url(#p9e28344e27)" d="M 73.832727 276.988254 
L 138.763636 242.091753 
L 203.694545 198.220871 
L 268.625455 161.050326 
L 333.556364 136.325184 
L 398.487273 80.558318 
" style="fill:none;stroke:#8c564b;stroke-linecap:square;stroke-width:1.5;"/>
    <g clip-path="url(#p9e28344e27)">
     <use style="fill:#8c564b;stroke:#8c564b;" x="73.832727" xlink:href="#m3ee1e69387" y="276.988254"/>
     <use style="fill:#8c564b;stroke:#8c564b;" x="138.763636" xlink:href="#m3ee1e69387" y="242.091753"/>
     <use style="fill:#8c564b;stroke:#8c564b;" x="203.694545" xlink:href="#m3ee1e69387" y="198.220871"/>
     <use style="fill:#8c564b;stroke:#8c564b;" x="268.625455" xlink:href="#m3ee1e69387" y="161.050326"/>
     <use style="fill:#8c564b;stroke:#8c564b;" x="333.556364" xlink:href="#m3ee1e69387" y="136.325184"/>
     <use style="fill:#8c564b;stroke:#8c564b;" x="398.487273" xlink:href="#m3ee1e69387" y="80.558318"/>
    </g>
   </g>
   <g id="line2d_40">
    <path clip-path="url(#p9e28344e27)" d="M 73.832727 260.041393 
L 138.763636 238.625375 
L 203.694545 223.693004 
L 268.625455 194.245317 
L 333.556364 149.094194 
L 398.487273 82.521081 
" style="fill:none;stroke:#e377c2;stroke-linecap:square;stroke-width:1.5;"/>
    <g clip-path="url(#p9e28344e27)">
     <use style="fill:#e377c2;stroke:#e377c2;" x="73.832727" xlink:href="#mc4dc9f5094" y="260.041393"/>
     <use style="fill:#e377c2;stroke:#e377c2;" x="138.763636" xlink:href="#mc4dc9f5094" y="238.625375"/>
     <use style="fill:#e377c2;stroke:#e377c2;" x="203.694545" xlink:href="#mc4dc9f5094" y="223.693004"/>
     <use style="fill:#e377c2;stroke:#e377c2;" x="268.625455" xlink:href="#mc4dc9f5094" y="194.245317"/>
     <use style="fill:#e377c2;stroke:#e377c2;" x="333.556364" xlink:href="#mc4dc9f5094" y="149.094194"/>
     <use style="fill:#e377c2;stroke:#e377c2;" x="398.487273" xlink:href="#mc4dc9f5094" y="82.521081"/>
    </g>
   </g>
   <g id="patch_3">
    <path d="M 57.6 307.584 
L 57.6 41.472 
" style="fill:none;stroke:#000000;stroke-linecap:square;stroke-linejoin:miter;stroke-width:0.8;"/>
   </g>
   <g id="patch_4">
    <path d="M 414.72 307.584 
L 414.72 41.472 
" style="fill:none;stroke:#000000;stroke-linecap:square;stroke-linejoin:miter;stroke-width:0.8;"/>
   </g>
   <g id="patch_5">
    <path d="M 57.6 307.584 
L 414.72 307.584 
" style="fill:none;stroke:#000000;stroke-linecap:square;stroke-linejoin:miter;stroke-width:0.8;"/>
   </g>
   <g id="patch_6">
    <path d="M 57.6 41.472 
L 414.72 41.472 
" style="fill:none;stroke:#000000;stroke-linecap:square;stroke-linejoin:miter;stroke-width:0.8;"/>
   </g>
  </g>
 </g>
 <defs>
  <clipPath id="p9e28344e27">
   <rect height="266.112" width="357.12" x="57.6" y="41.472"/>
  </clipPath>
 </defs>
</svg>
