<?xml version="1.0" encoding="utf-8" standalone="no"?>
<!DOCTYPE svg PUBLIC "-//W3C//DTD SVG 1.1//EN"
  "http://www.w3.org/Graphics/SVG/1.1/DTD/svg11.dtd">
<!-- Created with matplotlib (https://matplotlib.org/) -->
<svg height="345.6pt" version="1.1" viewBox="0 0 460.8 345.6" width="460.8pt" xmlns="http://www.w3.org/2000/svg" xmlns:xlink="http://www.w3.org/1999/xlink">
 <defs>
  <style type="text/css">
*{stroke-linecap:butt;stroke-linejoin:round;}
  </style>
 </defs>
 <g id="figure_1">
  <g id="patch_1">
   <path d="M 0 345.6 
L 460.8 345.6 
L 460.8 0 
L 0 0 
z
" style="fill:#ffffff;"/>
  </g>
  <g id="axes_1">
   <g id="patch_2">
    <path d="M 85.85 289.24 
L 447.48 289.24 
L 447.48 17.64 
L 85.85 17.64 
z
" style="fill:#ffffff;"/>
   </g>
   <g id="matplotlib.axis_1">
    <g id="xtick_1">
     <g id="line2d_1">
      <defs>
       <path d="M 0 0 
L 0 3.5 
" id="m42b25e31e2" style="stroke:#000000;stroke-width:0.8;"/>
      </defs>
      <g>
       <use style="stroke:#000000;stroke-width:0.8;" x="102.287727" xlink:href="#m42b25e31e2" y="289.24"/>
      </g>
     </g>
     <g id="text_1">
      <!-- 1 -->
      <defs>
       <path d="M 12.40625 8.296875 
L 28.515625 8.296875 
L 28.515625 63.921875 
L 10.984375 60.40625 
L 10.984375 69.390625 
L 28.421875 72.90625 
L 38.28125 72.90625 
L 38.28125 8.296875 
L 54.390625 8.296875 
L 54.390625 0 
L 12.40625 0 
z
" id="DejaVuSans-49"/>
      </defs>
      <g transform="translate(96.879602 309.157344)scale(0.17 -0.17)">
       <use xlink:href="#DejaVuSans-49"/>
      </g>
     </g>
    </g>
    <g id="xtick_2">
     <g id="line2d_2">
      <g>
       <use style="stroke:#000000;stroke-width:0.8;" x="184.476364" xlink:href="#m42b25e31e2" y="289.24"/>
      </g>
     </g>
     <g id="text_2">
      <!-- 2 -->
      <defs>
       <path d="M 19.1875 8.296875 
L 53.609375 8.296875 
L 53.609375 0 
L 7.328125 0 
L 7.328125 8.296875 
Q 12.9375 14.109375 22.625 23.890625 
Q 32.328125 33.6875 34.8125 36.53125 
Q 39.546875 41.84375 41.421875 45.53125 
Q 43.3125 49.21875 43.3125 52.78125 
Q 43.3125 58.59375 39.234375 62.25 
Q 35.15625 65.921875 28.609375 65.921875 
Q 23.96875 65.921875 18.8125 64.3125 
Q 13.671875 62.703125 7.8125 59.421875 
L 7.8125 69.390625 
Q 13.765625 71.78125 18.9375 73 
Q 24.125 74.21875 28.421875 74.21875 
Q 39.75 74.21875 46.484375 68.546875 
Q 53.21875 62.890625 53.21875 53.421875 
Q 53.21875 48.921875 51.53125 44.890625 
Q 49.859375 40.875 45.40625 35.40625 
Q 44.1875 33.984375 37.640625 27.21875 
Q 31.109375 20.453125 19.1875 8.296875 
z
" id="DejaVuSans-50"/>
      </defs>
      <g transform="translate(179.068239 309.157344)scale(0.17 -0.17)">
       <use xlink:href="#DejaVuSans-50"/>
      </g>
     </g>
    </g>
    <g id="xtick_3">
     <g id="line2d_3">
      <g>
       <use style="stroke:#000000;stroke-width:0.8;" x="266.665" xlink:href="#m42b25e31e2" y="289.24"/>
      </g>
     </g>
     <g id="text_3">
      <!-- 3 -->
      <defs>
       <path d="M 40.578125 39.3125 
Q 47.65625 37.796875 51.625 33 
Q 55.609375 28.21875 55.609375 21.1875 
Q 55.609375 10.40625 48.1875 4.484375 
Q 40.765625 -1.421875 27.09375 -1.421875 
Q 22.515625 -1.421875 17.65625 -0.515625 
Q 12.796875 0.390625 7.625 2.203125 
L 7.625 11.71875 
Q 11.71875 9.328125 16.59375 8.109375 
Q 21.484375 6.890625 26.8125 6.890625 
Q 36.078125 6.890625 40.9375 10.546875 
Q 45.796875 14.203125 45.796875 21.1875 
Q 45.796875 27.640625 41.28125 31.265625 
Q 36.765625 34.90625 28.71875 34.90625 
L 20.21875 34.90625 
L 20.21875 43.015625 
L 29.109375 43.015625 
Q 36.375 43.015625 40.234375 45.921875 
Q 44.09375 48.828125 44.09375 54.296875 
Q 44.09375 59.90625 40.109375 62.90625 
Q 36.140625 65.921875 28.71875 65.921875 
Q 24.65625 65.921875 20.015625 65.03125 
Q 15.375 64.15625 9.8125 62.3125 
L 9.8125 71.09375 
Q 15.4375 72.65625 20.34375 73.4375 
Q 25.25 74.21875 29.59375 74.21875 
Q 40.828125 74.21875 47.359375 69.109375 
Q 53.90625 64.015625 53.90625 55.328125 
Q 53.90625 49.265625 50.4375 45.09375 
Q 46.96875 40.921875 40.578125 39.3125 
z
" id="DejaVuSans-51"/>
      </defs>
      <g transform="translate(261.256875 309.157344)scale(0.17 -0.17)">
       <use xlink:href="#DejaVuSans-51"/>
      </g>
     </g>
    </g>
    <g id="xtick_4">
     <g id="line2d_4">
      <g>
       <use style="stroke:#000000;stroke-width:0.8;" x="348.853636" xlink:href="#m42b25e31e2" y="289.24"/>
      </g>
     </g>
     <g id="text_4">
      <!-- 4 -->
      <defs>
       <path d="M 37.796875 64.3125 
L 12.890625 25.390625 
L 37.796875 25.390625 
z
M 35.203125 72.90625 
L 47.609375 72.90625 
L 47.609375 25.390625 
L 58.015625 25.390625 
L 58.015625 17.1875 
L 47.609375 17.1875 
L 47.609375 0 
L 37.796875 0 
L 37.796875 17.1875 
L 4.890625 17.1875 
L 4.890625 26.703125 
z
" id="DejaVuSans-52"/>
      </defs>
      <g transform="translate(343.445511 309.157344)scale(0.17 -0.17)">
       <use xlink:href="#DejaVuSans-52"/>
      </g>
     </g>
    </g>
    <g id="xtick_5">
     <g id="line2d_5">
      <g>
       <use style="stroke:#000000;stroke-width:0.8;" x="431.042273" xlink:href="#m42b25e31e2" y="289.24"/>
      </g>
     </g>
     <g id="text_5">
      <!-- 5 -->
      <defs>
       <path d="M 10.796875 72.90625 
L 49.515625 72.90625 
L 49.515625 64.59375 
L 19.828125 64.59375 
L 19.828125 46.734375 
Q 21.96875 47.46875 24.109375 47.828125 
Q 26.265625 48.1875 28.421875 48.1875 
Q 40.625 48.1875 47.75 41.5 
Q 54.890625 34.8125 54.890625 23.390625 
Q 54.890625 11.625 47.5625 5.09375 
Q 40.234375 -1.421875 26.90625 -1.421875 
Q 22.3125 -1.421875 17.546875 -0.640625 
Q 12.796875 0.140625 7.71875 1.703125 
L 7.71875 11.625 
Q 12.109375 9.234375 16.796875 8.0625 
Q 21.484375 6.890625 26.703125 6.890625 
Q 35.15625 6.890625 40.078125 11.328125 
Q 45.015625 15.765625 45.015625 23.390625 
Q 45.015625 31 40.078125 35.4375 
Q 35.15625 39.890625 26.703125 39.890625 
Q 22.75 39.890625 18.8125 39.015625 
Q 14.890625 38.140625 10.796875 36.28125 
z
" id="DejaVuSans-53"/>
      </defs>
      <g transform="translate(425.634148 309.157344)scale(0.17 -0.17)">
       <use xlink:href="#DejaVuSans-53"/>
      </g>
     </g>
    </g>
    <g id="text_6">
     <!-- $i$ -->
     <defs>
      <path d="M 18.3125 75.984375 
L 27.296875 75.984375 
L 25.09375 64.59375 
L 16.109375 64.59375 
z
M 14.203125 54.6875 
L 23.1875 54.6875 
L 12.5 0 
L 3.515625 0 
z
" id="DejaVuSans-Oblique-105"/>
     </defs>
     <g transform="translate(264.285 329.610156)scale(0.17 -0.17)">
      <use transform="translate(0 0.015625)" xlink:href="#DejaVuSans-Oblique-105"/>
     </g>
    </g>
   </g>
   <g id="matplotlib.axis_2">
    <g id="ytick_1">
     <g id="line2d_6">
      <defs>
       <path d="M 0 0 
L -3.5 0 
" id="mb416f514e7" style="stroke:#000000;stroke-width:0.8;"/>
      </defs>
      <g>
       <use style="stroke:#000000;stroke-width:0.8;" x="85.85" xlink:href="#mb416f514e7" y="289.24"/>
      </g>
     </g>
     <g id="text_7">
      <!-- 0.00 -->
      <defs>
       <path d="M 31.78125 66.40625 
Q 24.171875 66.40625 20.328125 58.90625 
Q 16.5 51.421875 16.5 36.375 
Q 16.5 21.390625 20.328125 13.890625 
Q 24.171875 6.390625 31.78125 6.390625 
Q 39.453125 6.390625 43.28125 13.890625 
Q 47.125 21.390625 47.125 36.375 
Q 47.125 51.421875 43.28125 58.90625 
Q 39.453125 66.40625 31.78125 66.40625 
z
M 31.78125 74.21875 
Q 44.046875 74.21875 50.515625 64.515625 
Q 56.984375 54.828125 56.984375 36.375 
Q 56.984375 17.96875 50.515625 8.265625 
Q 44.046875 -1.421875 31.78125 -1.421875 
Q 19.53125 -1.421875 13.0625 8.265625 
Q 6.59375 17.96875 6.59375 36.375 
Q 6.59375 54.828125 13.0625 64.515625 
Q 19.53125 74.21875 31.78125 74.21875 
z
" id="DejaVuSans-48"/>
       <path d="M 10.6875 12.40625 
L 21 12.40625 
L 21 0 
L 10.6875 0 
z
" id="DejaVuSans-46"/>
      </defs>
      <g transform="translate(40.998438 295.698672)scale(0.17 -0.17)">
       <use xlink:href="#DejaVuSans-48"/>
       <use x="63.623047" xlink:href="#DejaVuSans-46"/>
       <use x="95.410156" xlink:href="#DejaVuSans-48"/>
       <use x="159.033203" xlink:href="#DejaVuSans-48"/>
      </g>
     </g>
    </g>
    <g id="ytick_2">
     <g id="line2d_7">
      <g>
       <use style="stroke:#000000;stroke-width:0.8;" x="85.85" xlink:href="#mb416f514e7" y="221.34"/>
      </g>
     </g>
     <g id="text_8">
      <!-- 0.05 -->
      <g transform="translate(40.998438 227.798672)scale(0.17 -0.17)">
       <use xlink:href="#DejaVuSans-48"/>
       <use x="63.623047" xlink:href="#DejaVuSans-46"/>
       <use x="95.410156" xlink:href="#DejaVuSans-48"/>
       <use x="159.033203" xlink:href="#DejaVuSans-53"/>
      </g>
     </g>
    </g>
    <g id="ytick_3">
     <g id="line2d_8">
      <g>
       <use style="stroke:#000000;stroke-width:0.8;" x="85.85" xlink:href="#mb416f514e7" y="153.44"/>
      </g>
     </g>
     <g id="text_9">
      <!-- 0.10 -->
      <g transform="translate(40.998438 159.898672)scale(0.17 -0.17)">
       <use xlink:href="#DejaVuSans-48"/>
       <use x="63.623047" xlink:href="#DejaVuSans-46"/>
       <use x="95.410156" xlink:href="#DejaVuSans-49"/>
       <use x="159.033203" xlink:href="#DejaVuSans-48"/>
      </g>
     </g>
    </g>
    <g id="ytick_4">
     <g id="line2d_9">
      <g>
       <use style="stroke:#000000;stroke-width:0.8;" x="85.85" xlink:href="#mb416f514e7" y="85.54"/>
      </g>
     </g>
     <g id="text_10">
      <!-- 0.15 -->
      <g transform="translate(40.998438 91.998672)scale(0.17 -0.17)">
       <use xlink:href="#DejaVuSans-48"/>
       <use x="63.623047" xlink:href="#DejaVuSans-46"/>
       <use x="95.410156" xlink:href="#DejaVuSans-49"/>
       <use x="159.033203" xlink:href="#DejaVuSans-53"/>
      </g>
     </g>
    </g>
    <g id="ytick_5">
     <g id="line2d_10">
      <g>
       <use style="stroke:#000000;stroke-width:0.8;" x="85.85" xlink:href="#mb416f514e7" y="17.64"/>
      </g>
     </g>
     <g id="text_11">
      <!-- 0.20 -->
      <g transform="translate(40.998438 24.098672)scale(0.17 -0.17)">
       <use xlink:href="#DejaVuSans-48"/>
       <use x="63.623047" xlink:href="#DejaVuSans-46"/>
       <use x="95.410156" xlink:href="#DejaVuSans-50"/>
       <use x="159.033203" xlink:href="#DejaVuSans-48"/>
      </g>
     </g>
    </g>
    <g id="text_12">
     <!-- Value of $\beta_i$ -->
     <defs>
      <path d="M 28.609375 0 
L 0.78125 72.90625 
L 11.078125 72.90625 
L 34.1875 11.53125 
L 57.328125 72.90625 
L 67.578125 72.90625 
L 39.796875 0 
z
" id="DejaVuSans-86"/>
      <path d="M 34.28125 27.484375 
Q 23.390625 27.484375 19.1875 25 
Q 14.984375 22.515625 14.984375 16.5 
Q 14.984375 11.71875 18.140625 8.90625 
Q 21.296875 6.109375 26.703125 6.109375 
Q 34.1875 6.109375 38.703125 11.40625 
Q 43.21875 16.703125 43.21875 25.484375 
L 43.21875 27.484375 
z
M 52.203125 31.203125 
L 52.203125 0 
L 43.21875 0 
L 43.21875 8.296875 
Q 40.140625 3.328125 35.546875 0.953125 
Q 30.953125 -1.421875 24.3125 -1.421875 
Q 15.921875 -1.421875 10.953125 3.296875 
Q 6 8.015625 6 15.921875 
Q 6 25.140625 12.171875 29.828125 
Q 18.359375 34.515625 30.609375 34.515625 
L 43.21875 34.515625 
L 43.21875 35.40625 
Q 43.21875 41.609375 39.140625 45 
Q 35.0625 48.390625 27.6875 48.390625 
Q 23 48.390625 18.546875 47.265625 
Q 14.109375 46.140625 10.015625 43.890625 
L 10.015625 52.203125 
Q 14.9375 54.109375 19.578125 55.046875 
Q 24.21875 56 28.609375 56 
Q 40.484375 56 46.34375 49.84375 
Q 52.203125 43.703125 52.203125 31.203125 
z
" id="DejaVuSans-97"/>
      <path d="M 9.421875 75.984375 
L 18.40625 75.984375 
L 18.40625 0 
L 9.421875 0 
z
" id="DejaVuSans-108"/>
      <path d="M 8.5 21.578125 
L 8.5 54.6875 
L 17.484375 54.6875 
L 17.484375 21.921875 
Q 17.484375 14.15625 20.5 10.265625 
Q 23.53125 6.390625 29.59375 6.390625 
Q 36.859375 6.390625 41.078125 11.03125 
Q 45.3125 15.671875 45.3125 23.6875 
L 45.3125 54.6875 
L 54.296875 54.6875 
L 54.296875 0 
L 45.3125 0 
L 45.3125 8.40625 
Q 42.046875 3.421875 37.71875 1 
Q 33.40625 -1.421875 27.6875 -1.421875 
Q 18.265625 -1.421875 13.375 4.4375 
Q 8.5 10.296875 8.5 21.578125 
z
M 31.109375 56 
z
" id="DejaVuSans-117"/>
      <path d="M 56.203125 29.59375 
L 56.203125 25.203125 
L 14.890625 25.203125 
Q 15.484375 15.921875 20.484375 11.0625 
Q 25.484375 6.203125 34.421875 6.203125 
Q 39.59375 6.203125 44.453125 7.46875 
Q 49.3125 8.734375 54.109375 11.28125 
L 54.109375 2.78125 
Q 49.265625 0.734375 44.1875 -0.34375 
Q 39.109375 -1.421875 33.890625 -1.421875 
Q 20.796875 -1.421875 13.15625 6.1875 
Q 5.515625 13.8125 5.515625 26.8125 
Q 5.515625 40.234375 12.765625 48.109375 
Q 20.015625 56 32.328125 56 
Q 43.359375 56 49.78125 48.890625 
Q 56.203125 41.796875 56.203125 29.59375 
z
M 47.21875 32.234375 
Q 47.125 39.59375 43.09375 43.984375 
Q 39.0625 48.390625 32.421875 48.390625 
Q 24.90625 48.390625 20.390625 44.140625 
Q 15.875 39.890625 15.1875 32.171875 
z
" id="DejaVuSans-101"/>
      <path id="DejaVuSans-32"/>
      <path d="M 30.609375 48.390625 
Q 23.390625 48.390625 19.1875 42.75 
Q 14.984375 37.109375 14.984375 27.296875 
Q 14.984375 17.484375 19.15625 11.84375 
Q 23.34375 6.203125 30.609375 6.203125 
Q 37.796875 6.203125 41.984375 11.859375 
Q 46.1875 17.53125 46.1875 27.296875 
Q 46.1875 37.015625 41.984375 42.703125 
Q 37.796875 48.390625 30.609375 48.390625 
z
M 30.609375 56 
Q 42.328125 56 49.015625 48.375 
Q 55.71875 40.765625 55.71875 27.296875 
Q 55.71875 13.875 49.015625 6.21875 
Q 42.328125 -1.421875 30.609375 -1.421875 
Q 18.84375 -1.421875 12.171875 6.21875 
Q 5.515625 13.875 5.515625 27.296875 
Q 5.515625 40.765625 12.171875 48.375 
Q 18.84375 56 30.609375 56 
z
" id="DejaVuSans-111"/>
      <path d="M 37.109375 75.984375 
L 37.109375 68.5 
L 28.515625 68.5 
Q 23.6875 68.5 21.796875 66.546875 
Q 19.921875 64.59375 19.921875 59.515625 
L 19.921875 54.6875 
L 34.71875 54.6875 
L 34.71875 47.703125 
L 19.921875 47.703125 
L 19.921875 0 
L 10.890625 0 
L 10.890625 47.703125 
L 2.296875 47.703125 
L 2.296875 54.6875 
L 10.890625 54.6875 
L 10.890625 58.5 
Q 10.890625 67.625 15.140625 71.796875 
Q 19.390625 75.984375 28.609375 75.984375 
z
" id="DejaVuSans-102"/>
      <path d="M 13.625 3.375 
L 8.9375 -20.796875 
L -0.09375 -20.796875 
L 14.5 54.34375 
Q 18.84375 76.609375 39.65625 76.609375 
Q 60.75 76.609375 57.171875 57.8125 
Q 54.734375 44.4375 45.21875 39.546875 
Q 58.015625 35.15625 55.515625 22.125 
Q 51.125 -1.078125 27.484375 -1.03125 
Q 17.140625 -0.984375 13.625 3.375 
z
M 15.921875 15.09375 
Q 19.671875 6.59375 29.296875 6.640625 
Q 43.359375 6.640625 46.34375 21.96875 
Q 49.03125 35.75 26.171875 34.671875 
L 27.78125 42.96875 
Q 45.453125 42.671875 48.53125 58.59375 
Q 50.640625 69.34375 39.203125 69.28125 
Q 26.421875 69.28125 23.484375 54.046875 
z
" id="DejaVuSans-Oblique-946"/>
     </defs>
     <g transform="translate(27.428438 198.405)rotate(-90)scale(0.17 -0.17)">
      <use transform="translate(0 0.390625)" xlink:href="#DejaVuSans-86"/>
      <use transform="translate(68.408203 0.390625)" xlink:href="#DejaVuSans-97"/>
      <use transform="translate(129.6875 0.390625)" xlink:href="#DejaVuSans-108"/>
      <use transform="translate(157.470703 0.390625)" xlink:href="#DejaVuSans-117"/>
      <use transform="translate(220.849609 0.390625)" xlink:href="#DejaVuSans-101"/>
      <use transform="translate(282.373047 0.390625)" xlink:href="#DejaVuSans-32"/>
      <use transform="translate(314.160156 0.390625)" xlink:href="#DejaVuSans-111"/>
      <use transform="translate(375.341797 0.390625)" xlink:href="#DejaVuSans-102"/>
      <use transform="translate(410.546875 0.390625)" xlink:href="#DejaVuSans-32"/>
      <use transform="translate(442.333984 0.390625)" xlink:href="#DejaVuSans-Oblique-946"/>
      <use transform="translate(506.152344 -16.015625)scale(0.7)" xlink:href="#DejaVuSans-Oblique-105"/>
     </g>
    </g>
   </g>
   <g id="line2d_11">
    <path clip-path="url(#p10960f6901)" d="M 102.287727 75.206307 
L 184.476364 104.844075 
L 266.665 146.355327 
L 348.853636 181.832261 
L 431.042273 242.588766 
" style="fill:none;stroke:#d3d3d3;stroke-linecap:square;stroke-width:1.5;"/>
    <defs>
     <path d="M 0 3 
C 0.795609 3 1.55874 2.683901 2.12132 2.12132 
C 2.683901 1.55874 3 0.795609 3 0 
C 3 -0.795609 2.683901 -1.55874 2.12132 -2.12132 
C 1.55874 -2.683901 0.795609 -3 0 -3 
C -0.795609 -3 -1.55874 -2.683901 -2.12132 -2.12132 
C -2.683901 -1.55874 -3 -0.795609 -3 0 
C -3 0.795609 -2.683901 1.55874 -2.12132 2.12132 
C -1.55874 2.683901 -0.795609 3 0 3 
z
" id="m2d1c57486f" style="stroke:#d3d3d3;"/>
    </defs>
    <g clip-path="url(#p10960f6901)">
     <use style="fill:#d3d3d3;stroke:#d3d3d3;" x="102.287727" xlink:href="#m2d1c57486f" y="75.206307"/>
     <use style="fill:#d3d3d3;stroke:#d3d3d3;" x="184.476364" xlink:href="#m2d1c57486f" y="104.844075"/>
     <use style="fill:#d3d3d3;stroke:#d3d3d3;" x="266.665" xlink:href="#m2d1c57486f" y="146.355327"/>
     <use style="fill:#d3d3d3;stroke:#d3d3d3;" x="348.853636" xlink:href="#m2d1c57486f" y="181.832261"/>
     <use style="fill:#d3d3d3;stroke:#d3d3d3;" x="431.042273" xlink:href="#m2d1c57486f" y="242.588766"/>
    </g>
   </g>
   <g id="line2d_12">
    <path clip-path="url(#p10960f6901)" d="M 102.287727 85.126022 
L 184.476364 118.102238 
L 266.665 153.961402 
L 348.853636 199.24584 
L 431.042273 259.822178 
" style="fill:none;stroke:#d3d3d3;stroke-linecap:square;stroke-width:1.5;"/>
    <g clip-path="url(#p10960f6901)">
     <use style="fill:#d3d3d3;stroke:#d3d3d3;" x="102.287727" xlink:href="#m2d1c57486f" y="85.126022"/>
     <use style="fill:#d3d3d3;stroke:#d3d3d3;" x="184.476364" xlink:href="#m2d1c57486f" y="118.102238"/>
     <use style="fill:#d3d3d3;stroke:#d3d3d3;" x="266.665" xlink:href="#m2d1c57486f" y="153.961402"/>
     <use style="fill:#d3d3d3;stroke:#d3d3d3;" x="348.853636" xlink:href="#m2d1c57486f" y="199.24584"/>
     <use style="fill:#d3d3d3;stroke:#d3d3d3;" x="431.042273" xlink:href="#m2d1c57486f" y="259.822178"/>
    </g>
   </g>
   <g id="line2d_13">
    <path clip-path="url(#p10960f6901)" d="M 102.287727 59.560735 
L 184.476364 110.870874 
L 266.665 149.547584 
L 348.853636 188.912577 
L 431.042273 245.700758 
" style="fill:none;stroke:#d3d3d3;stroke-linecap:square;stroke-width:1.5;"/>
    <g clip-path="url(#p10960f6901)">
     <use style="fill:#d3d3d3;stroke:#d3d3d3;" x="102.287727" xlink:href="#m2d1c57486f" y="59.560735"/>
     <use style="fill:#d3d3d3;stroke:#d3d3d3;" x="184.476364" xlink:href="#m2d1c57486f" y="110.870874"/>
     <use style="fill:#d3d3d3;stroke:#d3d3d3;" x="266.665" xlink:href="#m2d1c57486f" y="149.547584"/>
     <use style="fill:#d3d3d3;stroke:#d3d3d3;" x="348.853636" xlink:href="#m2d1c57486f" y="188.912577"/>
     <use style="fill:#d3d3d3;stroke:#d3d3d3;" x="431.042273" xlink:href="#m2d1c57486f" y="245.700758"/>
    </g>
   </g>
   <g id="line2d_14">
    <path clip-path="url(#p10960f6901)" d="M 102.287727 84.396599 
L 184.476364 101.888157 
L 266.665 132.07655 
L 348.853636 173.893733 
L 431.042273 254.372422 
" style="fill:none;stroke:#d3d3d3;stroke-linecap:square;stroke-width:1.5;"/>
    <g clip-path="url(#p10960f6901)">
     <use style="fill:#d3d3d3;stroke:#d3d3d3;" x="102.287727" xlink:href="#m2d1c57486f" y="84.396599"/>
     <use style="fill:#d3d3d3;stroke:#d3d3d3;" x="184.476364" xlink:href="#m2d1c57486f" y="101.888157"/>
     <use style="fill:#d3d3d3;stroke:#d3d3d3;" x="266.665" xlink:href="#m2d1c57486f" y="132.07655"/>
     <use style="fill:#d3d3d3;stroke:#d3d3d3;" x="348.853636" xlink:href="#m2d1c57486f" y="173.893733"/>
     <use style="fill:#d3d3d3;stroke:#d3d3d3;" x="431.042273" xlink:href="#m2d1c57486f" y="254.372422"/>
    </g>
   </g>
   <g id="line2d_15">
    <path clip-path="url(#p10960f6901)" d="M 102.287727 77.081458 
L 184.476364 122.389601 
L 266.665 145.613082 
L 348.853636 186.589577 
L 431.042273 230.599496 
" style="fill:none;stroke:#d3d3d3;stroke-linecap:square;stroke-width:1.5;"/>
    <g clip-path="url(#p10960f6901)">
     <use style="fill:#d3d3d3;stroke:#d3d3d3;" x="102.287727" xlink:href="#m2d1c57486f" y="77.081458"/>
     <use style="fill:#d3d3d3;stroke:#d3d3d3;" x="184.476364" xlink:href="#m2d1c57486f" y="122.389601"/>
     <use style="fill:#d3d3d3;stroke:#d3d3d3;" x="266.665" xlink:href="#m2d1c57486f" y="145.613082"/>
     <use style="fill:#d3d3d3;stroke:#d3d3d3;" x="348.853636" xlink:href="#m2d1c57486f" y="186.589577"/>
     <use style="fill:#d3d3d3;stroke:#d3d3d3;" x="431.042273" xlink:href="#m2d1c57486f" y="230.599496"/>
    </g>
   </g>
   <g id="line2d_16">
    <path clip-path="url(#p10960f6901)" d="M 102.287727 66.202894 
L 184.476364 90.356378 
L 266.665 118.079844 
L 348.853636 138.8263 
L 431.042273 222.86524 
" style="fill:none;stroke:#d3d3d3;stroke-linecap:square;stroke-width:1.5;"/>
    <g clip-path="url(#p10960f6901)">
     <use style="fill:#d3d3d3;stroke:#d3d3d3;" x="102.287727" xlink:href="#m2d1c57486f" y="66.202894"/>
     <use style="fill:#d3d3d3;stroke:#d3d3d3;" x="184.476364" xlink:href="#m2d1c57486f" y="90.356378"/>
     <use style="fill:#d3d3d3;stroke:#d3d3d3;" x="266.665" xlink:href="#m2d1c57486f" y="118.079844"/>
     <use style="fill:#d3d3d3;stroke:#d3d3d3;" x="348.853636" xlink:href="#m2d1c57486f" y="138.8263"/>
     <use style="fill:#d3d3d3;stroke:#d3d3d3;" x="431.042273" xlink:href="#m2d1c57486f" y="222.86524"/>
    </g>
   </g>
   <g id="line2d_17">
    <path clip-path="url(#p10960f6901)" d="M 102.287727 66.991039 
L 184.476364 105.566135 
L 266.665 145.483483 
L 348.853636 206.182471 
L 431.042273 254.561582 
" style="fill:none;stroke:#d3d3d3;stroke-linecap:square;stroke-width:1.5;"/>
    <g clip-path="url(#p10960f6901)">
     <use style="fill:#d3d3d3;stroke:#d3d3d3;" x="102.287727" xlink:href="#m2d1c57486f" y="66.991039"/>
     <use style="fill:#d3d3d3;stroke:#d3d3d3;" x="184.476364" xlink:href="#m2d1c57486f" y="105.566135"/>
     <use style="fill:#d3d3d3;stroke:#d3d3d3;" x="266.665" xlink:href="#m2d1c57486f" y="145.483483"/>
     <use style="fill:#d3d3d3;stroke:#d3d3d3;" x="348.853636" xlink:href="#m2d1c57486f" y="206.182471"/>
     <use style="fill:#d3d3d3;stroke:#d3d3d3;" x="431.042273" xlink:href="#m2d1c57486f" y="254.561582"/>
    </g>
   </g>
   <g id="line2d_18">
    <path clip-path="url(#p10960f6901)" d="M 102.287727 77.087902 
L 184.476364 122.39017 
L 266.665 145.613871 
L 348.853636 186.592576 
L 431.042273 230.602791 
" style="fill:none;stroke:#d3d3d3;stroke-linecap:square;stroke-width:1.5;"/>
    <g clip-path="url(#p10960f6901)">
     <use style="fill:#d3d3d3;stroke:#d3d3d3;" x="102.287727" xlink:href="#m2d1c57486f" y="77.087902"/>
     <use style="fill:#d3d3d3;stroke:#d3d3d3;" x="184.476364" xlink:href="#m2d1c57486f" y="122.39017"/>
     <use style="fill:#d3d3d3;stroke:#d3d3d3;" x="266.665" xlink:href="#m2d1c57486f" y="145.613871"/>
     <use style="fill:#d3d3d3;stroke:#d3d3d3;" x="348.853636" xlink:href="#m2d1c57486f" y="186.592576"/>
     <use style="fill:#d3d3d3;stroke:#d3d3d3;" x="431.042273" xlink:href="#m2d1c57486f" y="230.602791"/>
    </g>
   </g>
   <g id="line2d_19">
    <path clip-path="url(#p10960f6901)" d="M 102.287727 59.385203 
L 184.476364 96.522717 
L 266.665 117.308307 
L 348.853636 143.440219 
L 431.042273 209.126421 
" style="fill:none;stroke:#d3d3d3;stroke-linecap:square;stroke-width:1.5;"/>
    <g clip-path="url(#p10960f6901)">
     <use style="fill:#d3d3d3;stroke:#d3d3d3;" x="102.287727" xlink:href="#m2d1c57486f" y="59.385203"/>
     <use style="fill:#d3d3d3;stroke:#d3d3d3;" x="184.476364" xlink:href="#m2d1c57486f" y="96.522717"/>
     <use style="fill:#d3d3d3;stroke:#d3d3d3;" x="266.665" xlink:href="#m2d1c57486f" y="117.308307"/>
     <use style="fill:#d3d3d3;stroke:#d3d3d3;" x="348.853636" xlink:href="#m2d1c57486f" y="143.440219"/>
     <use style="fill:#d3d3d3;stroke:#d3d3d3;" x="431.042273" xlink:href="#m2d1c57486f" y="209.126421"/>
    </g>
   </g>
   <g id="line2d_20">
    <path clip-path="url(#p10960f6901)" d="M 102.287727 85.132095 
L 184.476364 118.112538 
L 266.665 153.966441 
L 348.853636 199.242918 
L 431.042273 259.81728 
" style="fill:none;stroke:#d3d3d3;stroke-linecap:square;stroke-width:1.5;"/>
    <g clip-path="url(#p10960f6901)">
     <use style="fill:#d3d3d3;stroke:#d3d3d3;" x="102.287727" xlink:href="#m2d1c57486f" y="85.132095"/>
     <use style="fill:#d3d3d3;stroke:#d3d3d3;" x="184.476364" xlink:href="#m2d1c57486f" y="118.112538"/>
     <use style="fill:#d3d3d3;stroke:#d3d3d3;" x="266.665" xlink:href="#m2d1c57486f" y="153.966441"/>
     <use style="fill:#d3d3d3;stroke:#d3d3d3;" x="348.853636" xlink:href="#m2d1c57486f" y="199.242918"/>
     <use style="fill:#d3d3d3;stroke:#d3d3d3;" x="431.042273" xlink:href="#m2d1c57486f" y="259.81728"/>
    </g>
   </g>
   <g id="line2d_21">
    <path clip-path="url(#p10960f6901)" d="M 102.287727 92.43195 
L 184.476364 121.103832 
L 266.665 145.324537 
L 348.853636 174.043962 
L 431.042273 230.669591 
" style="fill:none;stroke:#d3d3d3;stroke-linecap:square;stroke-width:1.5;"/>
    <g clip-path="url(#p10960f6901)">
     <use style="fill:#d3d3d3;stroke:#d3d3d3;" x="102.287727" xlink:href="#m2d1c57486f" y="92.43195"/>
     <use style="fill:#d3d3d3;stroke:#d3d3d3;" x="184.476364" xlink:href="#m2d1c57486f" y="121.103832"/>
     <use style="fill:#d3d3d3;stroke:#d3d3d3;" x="266.665" xlink:href="#m2d1c57486f" y="145.324537"/>
     <use style="fill:#d3d3d3;stroke:#d3d3d3;" x="348.853636" xlink:href="#m2d1c57486f" y="174.043962"/>
     <use style="fill:#d3d3d3;stroke:#d3d3d3;" x="431.042273" xlink:href="#m2d1c57486f" y="230.669591"/>
    </g>
   </g>
   <g id="line2d_22">
    <path clip-path="url(#p10960f6901)" d="M 102.287727 74.718141 
L 184.476364 102.868464 
L 266.665 108.405325 
L 348.853636 144.381623 
L 431.042273 193.234201 
" style="fill:none;stroke:#d3d3d3;stroke-linecap:square;stroke-width:1.5;"/>
    <g clip-path="url(#p10960f6901)">
     <use style="fill:#d3d3d3;stroke:#d3d3d3;" x="102.287727" xlink:href="#m2d1c57486f" y="74.718141"/>
     <use style="fill:#d3d3d3;stroke:#d3d3d3;" x="184.476364" xlink:href="#m2d1c57486f" y="102.868464"/>
     <use style="fill:#d3d3d3;stroke:#d3d3d3;" x="266.665" xlink:href="#m2d1c57486f" y="108.405325"/>
     <use style="fill:#d3d3d3;stroke:#d3d3d3;" x="348.853636" xlink:href="#m2d1c57486f" y="144.381623"/>
     <use style="fill:#d3d3d3;stroke:#d3d3d3;" x="431.042273" xlink:href="#m2d1c57486f" y="193.234201"/>
    </g>
   </g>
   <g id="line2d_23">
    <path clip-path="url(#p10960f6901)" d="M 102.287727 70.159458 
L 184.476364 102.855339 
L 266.665 153.031404 
L 348.853636 216.700533 
L 431.042273 263.5943 
" style="fill:none;stroke:#d3d3d3;stroke-linecap:square;stroke-width:1.5;"/>
    <g clip-path="url(#p10960f6901)">
     <use style="fill:#d3d3d3;stroke:#d3d3d3;" x="102.287727" xlink:href="#m2d1c57486f" y="70.159458"/>
     <use style="fill:#d3d3d3;stroke:#d3d3d3;" x="184.476364" xlink:href="#m2d1c57486f" y="102.855339"/>
     <use style="fill:#d3d3d3;stroke:#d3d3d3;" x="266.665" xlink:href="#m2d1c57486f" y="153.031404"/>
     <use style="fill:#d3d3d3;stroke:#d3d3d3;" x="348.853636" xlink:href="#m2d1c57486f" y="216.700533"/>
     <use style="fill:#d3d3d3;stroke:#d3d3d3;" x="431.042273" xlink:href="#m2d1c57486f" y="263.5943"/>
    </g>
   </g>
   <g id="line2d_24">
    <path clip-path="url(#p10960f6901)" d="M 102.287727 81.416895 
L 184.476364 121.09928 
L 266.665 158.84072 
L 348.853636 204.058362 
L 431.042273 254.925024 
" style="fill:none;stroke:#d3d3d3;stroke-linecap:square;stroke-width:1.5;"/>
    <g clip-path="url(#p10960f6901)">
     <use style="fill:#d3d3d3;stroke:#d3d3d3;" x="102.287727" xlink:href="#m2d1c57486f" y="81.416895"/>
     <use style="fill:#d3d3d3;stroke:#d3d3d3;" x="184.476364" xlink:href="#m2d1c57486f" y="121.09928"/>
     <use style="fill:#d3d3d3;stroke:#d3d3d3;" x="266.665" xlink:href="#m2d1c57486f" y="158.84072"/>
     <use style="fill:#d3d3d3;stroke:#d3d3d3;" x="348.853636" xlink:href="#m2d1c57486f" y="204.058362"/>
     <use style="fill:#d3d3d3;stroke:#d3d3d3;" x="431.042273" xlink:href="#m2d1c57486f" y="254.925024"/>
    </g>
   </g>
   <g id="line2d_25">
    <path clip-path="url(#p10960f6901)" d="M 102.287727 66.197066 
L 184.476364 90.348685 
L 266.665 118.07917 
L 348.853636 138.827494 
L 431.042273 222.870844 
" style="fill:none;stroke:#d3d3d3;stroke-linecap:square;stroke-width:1.5;"/>
    <g clip-path="url(#p10960f6901)">
     <use style="fill:#d3d3d3;stroke:#d3d3d3;" x="102.287727" xlink:href="#m2d1c57486f" y="66.197066"/>
     <use style="fill:#d3d3d3;stroke:#d3d3d3;" x="184.476364" xlink:href="#m2d1c57486f" y="90.348685"/>
     <use style="fill:#d3d3d3;stroke:#d3d3d3;" x="266.665" xlink:href="#m2d1c57486f" y="118.07917"/>
     <use style="fill:#d3d3d3;stroke:#d3d3d3;" x="348.853636" xlink:href="#m2d1c57486f" y="138.827494"/>
     <use style="fill:#d3d3d3;stroke:#d3d3d3;" x="431.042273" xlink:href="#m2d1c57486f" y="222.870844"/>
    </g>
   </g>
   <g id="line2d_26">
    <path clip-path="url(#p10960f6901)" d="M 102.287727 78.236425 
L 184.476364 83.18978 
L 266.665 103.174898 
L 348.853636 132.241794 
L 431.042273 216.390352 
" style="fill:none;stroke:#d3d3d3;stroke-linecap:square;stroke-width:1.5;"/>
    <g clip-path="url(#p10960f6901)">
     <use style="fill:#d3d3d3;stroke:#d3d3d3;" x="102.287727" xlink:href="#m2d1c57486f" y="78.236425"/>
     <use style="fill:#d3d3d3;stroke:#d3d3d3;" x="184.476364" xlink:href="#m2d1c57486f" y="83.18978"/>
     <use style="fill:#d3d3d3;stroke:#d3d3d3;" x="266.665" xlink:href="#m2d1c57486f" y="103.174898"/>
     <use style="fill:#d3d3d3;stroke:#d3d3d3;" x="348.853636" xlink:href="#m2d1c57486f" y="132.241794"/>
     <use style="fill:#d3d3d3;stroke:#d3d3d3;" x="431.042273" xlink:href="#m2d1c57486f" y="216.390352"/>
    </g>
   </g>
   <g id="line2d_27">
    <path clip-path="url(#p10960f6901)" d="M 102.287727 62.893927 
L 184.476364 82.328017 
L 266.665 118.899695 
L 348.853636 186.888558 
L 431.042273 250.765328 
" style="fill:none;stroke:#d3d3d3;stroke-linecap:square;stroke-width:1.5;"/>
    <g clip-path="url(#p10960f6901)">
     <use style="fill:#d3d3d3;stroke:#d3d3d3;" x="102.287727" xlink:href="#m2d1c57486f" y="62.893927"/>
     <use style="fill:#d3d3d3;stroke:#d3d3d3;" x="184.476364" xlink:href="#m2d1c57486f" y="82.328017"/>
     <use style="fill:#d3d3d3;stroke:#d3d3d3;" x="266.665" xlink:href="#m2d1c57486f" y="118.899695"/>
     <use style="fill:#d3d3d3;stroke:#d3d3d3;" x="348.853636" xlink:href="#m2d1c57486f" y="186.888558"/>
     <use style="fill:#d3d3d3;stroke:#d3d3d3;" x="431.042273" xlink:href="#m2d1c57486f" y="250.765328"/>
    </g>
   </g>
   <g id="line2d_28">
    <path clip-path="url(#p10960f6901)" d="M 102.287727 74.716976 
L 184.476364 102.867458 
L 266.665 108.405382 
L 348.853636 144.383959 
L 431.042273 193.232422 
" style="fill:none;stroke:#d3d3d3;stroke-linecap:square;stroke-width:1.5;"/>
    <g clip-path="url(#p10960f6901)">
     <use style="fill:#d3d3d3;stroke:#d3d3d3;" x="102.287727" xlink:href="#m2d1c57486f" y="74.716976"/>
     <use style="fill:#d3d3d3;stroke:#d3d3d3;" x="184.476364" xlink:href="#m2d1c57486f" y="102.867458"/>
     <use style="fill:#d3d3d3;stroke:#d3d3d3;" x="266.665" xlink:href="#m2d1c57486f" y="108.405382"/>
     <use style="fill:#d3d3d3;stroke:#d3d3d3;" x="348.853636" xlink:href="#m2d1c57486f" y="144.383959"/>
     <use style="fill:#d3d3d3;stroke:#d3d3d3;" x="431.042273" xlink:href="#m2d1c57486f" y="193.232422"/>
    </g>
   </g>
   <g id="line2d_29">
    <path clip-path="url(#p10960f6901)" d="M 102.287727 74.910178 
L 184.476364 91.447081 
L 266.665 115.283836 
L 348.853636 131.46218 
L 431.042273 208.324275 
" style="fill:none;stroke:#d3d3d3;stroke-linecap:square;stroke-width:1.5;"/>
    <g clip-path="url(#p10960f6901)">
     <use style="fill:#d3d3d3;stroke:#d3d3d3;" x="102.287727" xlink:href="#m2d1c57486f" y="74.910178"/>
     <use style="fill:#d3d3d3;stroke:#d3d3d3;" x="184.476364" xlink:href="#m2d1c57486f" y="91.447081"/>
     <use style="fill:#d3d3d3;stroke:#d3d3d3;" x="266.665" xlink:href="#m2d1c57486f" y="115.283836"/>
     <use style="fill:#d3d3d3;stroke:#d3d3d3;" x="348.853636" xlink:href="#m2d1c57486f" y="131.46218"/>
     <use style="fill:#d3d3d3;stroke:#d3d3d3;" x="431.042273" xlink:href="#m2d1c57486f" y="208.324275"/>
    </g>
   </g>
   <g id="line2d_30">
    <path clip-path="url(#p10960f6901)" d="M 102.287727 92.310993 
L 184.476364 104.678007 
L 266.665 104.740043 
L 348.853636 127.132989 
L 431.042273 207.248892 
" style="fill:none;stroke:#d3d3d3;stroke-linecap:square;stroke-width:1.5;"/>
    <g clip-path="url(#p10960f6901)">
     <use style="fill:#d3d3d3;stroke:#d3d3d3;" x="102.287727" xlink:href="#m2d1c57486f" y="92.310993"/>
     <use style="fill:#d3d3d3;stroke:#d3d3d3;" x="184.476364" xlink:href="#m2d1c57486f" y="104.678007"/>
     <use style="fill:#d3d3d3;stroke:#d3d3d3;" x="266.665" xlink:href="#m2d1c57486f" y="104.740043"/>
     <use style="fill:#d3d3d3;stroke:#d3d3d3;" x="348.853636" xlink:href="#m2d1c57486f" y="127.132989"/>
     <use style="fill:#d3d3d3;stroke:#d3d3d3;" x="431.042273" xlink:href="#m2d1c57486f" y="207.248892"/>
    </g>
   </g>
   <g id="line2d_31">
    <path clip-path="url(#p10960f6901)" d="M 102.287727 74.903602 
L 184.476364 91.441216 
L 266.665 115.279756 
L 348.853636 131.461807 
L 431.042273 208.325219 
" style="fill:none;stroke:#d3d3d3;stroke-linecap:square;stroke-width:1.5;"/>
    <g clip-path="url(#p10960f6901)">
     <use style="fill:#d3d3d3;stroke:#d3d3d3;" x="102.287727" xlink:href="#m2d1c57486f" y="74.903602"/>
     <use style="fill:#d3d3d3;stroke:#d3d3d3;" x="184.476364" xlink:href="#m2d1c57486f" y="91.441216"/>
     <use style="fill:#d3d3d3;stroke:#d3d3d3;" x="266.665" xlink:href="#m2d1c57486f" y="115.279756"/>
     <use style="fill:#d3d3d3;stroke:#d3d3d3;" x="348.853636" xlink:href="#m2d1c57486f" y="131.461807"/>
     <use style="fill:#d3d3d3;stroke:#d3d3d3;" x="431.042273" xlink:href="#m2d1c57486f" y="208.325219"/>
    </g>
   </g>
   <g id="line2d_32">
    <path clip-path="url(#p10960f6901)" d="M 102.287727 75.20038 
L 184.476364 104.840785 
L 266.665 146.35277 
L 348.853636 181.830977 
L 431.042273 242.588979 
" style="fill:none;stroke:#d3d3d3;stroke-linecap:square;stroke-width:1.5;"/>
    <g clip-path="url(#p10960f6901)">
     <use style="fill:#d3d3d3;stroke:#d3d3d3;" x="102.287727" xlink:href="#m2d1c57486f" y="75.20038"/>
     <use style="fill:#d3d3d3;stroke:#d3d3d3;" x="184.476364" xlink:href="#m2d1c57486f" y="104.840785"/>
     <use style="fill:#d3d3d3;stroke:#d3d3d3;" x="266.665" xlink:href="#m2d1c57486f" y="146.35277"/>
     <use style="fill:#d3d3d3;stroke:#d3d3d3;" x="348.853636" xlink:href="#m2d1c57486f" y="181.830977"/>
     <use style="fill:#d3d3d3;stroke:#d3d3d3;" x="431.042273" xlink:href="#m2d1c57486f" y="242.588979"/>
    </g>
   </g>
   <g id="line2d_33">
    <path clip-path="url(#p10960f6901)" d="M 102.287727 92.433057 
L 184.476364 121.108039 
L 266.665 145.326223 
L 348.853636 174.041818 
L 431.042273 230.665479 
" style="fill:none;stroke:#d3d3d3;stroke-linecap:square;stroke-width:1.5;"/>
    <g clip-path="url(#p10960f6901)">
     <use style="fill:#d3d3d3;stroke:#d3d3d3;" x="102.287727" xlink:href="#m2d1c57486f" y="92.433057"/>
     <use style="fill:#d3d3d3;stroke:#d3d3d3;" x="184.476364" xlink:href="#m2d1c57486f" y="121.108039"/>
     <use style="fill:#d3d3d3;stroke:#d3d3d3;" x="266.665" xlink:href="#m2d1c57486f" y="145.326223"/>
     <use style="fill:#d3d3d3;stroke:#d3d3d3;" x="348.853636" xlink:href="#m2d1c57486f" y="174.041818"/>
     <use style="fill:#d3d3d3;stroke:#d3d3d3;" x="431.042273" xlink:href="#m2d1c57486f" y="230.665479"/>
    </g>
   </g>
   <g id="line2d_34">
    <path clip-path="url(#p10960f6901)" d="M 102.287727 63.762445 
L 184.476364 90.127014 
L 266.665 134.290529 
L 348.853636 184.708952 
L 431.042273 249.693105 
" style="fill:none;stroke:#d3d3d3;stroke-linecap:square;stroke-width:1.5;"/>
    <g clip-path="url(#p10960f6901)">
     <use style="fill:#d3d3d3;stroke:#d3d3d3;" x="102.287727" xlink:href="#m2d1c57486f" y="63.762445"/>
     <use style="fill:#d3d3d3;stroke:#d3d3d3;" x="184.476364" xlink:href="#m2d1c57486f" y="90.127014"/>
     <use style="fill:#d3d3d3;stroke:#d3d3d3;" x="266.665" xlink:href="#m2d1c57486f" y="134.290529"/>
     <use style="fill:#d3d3d3;stroke:#d3d3d3;" x="348.853636" xlink:href="#m2d1c57486f" y="184.708952"/>
     <use style="fill:#d3d3d3;stroke:#d3d3d3;" x="431.042273" xlink:href="#m2d1c57486f" y="249.693105"/>
    </g>
   </g>
   <g id="line2d_35">
    <path clip-path="url(#p10960f6901)" d="M 102.287727 53.007254 
L 184.476364 93.006671 
L 266.665 135.213999 
L 348.853636 194.331529 
L 431.042273 249.051544 
" style="fill:none;stroke:#d3d3d3;stroke-linecap:square;stroke-width:1.5;"/>
    <g clip-path="url(#p10960f6901)">
     <use style="fill:#d3d3d3;stroke:#d3d3d3;" x="102.287727" xlink:href="#m2d1c57486f" y="53.007254"/>
     <use style="fill:#d3d3d3;stroke:#d3d3d3;" x="184.476364" xlink:href="#m2d1c57486f" y="93.006671"/>
     <use style="fill:#d3d3d3;stroke:#d3d3d3;" x="266.665" xlink:href="#m2d1c57486f" y="135.213999"/>
     <use style="fill:#d3d3d3;stroke:#d3d3d3;" x="348.853636" xlink:href="#m2d1c57486f" y="194.331529"/>
     <use style="fill:#d3d3d3;stroke:#d3d3d3;" x="431.042273" xlink:href="#m2d1c57486f" y="249.051544"/>
    </g>
   </g>
   <g id="line2d_36">
    <path clip-path="url(#p10960f6901)" d="M 102.287727 51.373252 
L 184.476364 80.044994 
L 266.665 115.649695 
L 348.853636 181.618676 
L 431.042273 239.539698 
" style="fill:none;stroke:#d3d3d3;stroke-linecap:square;stroke-width:1.5;"/>
    <g clip-path="url(#p10960f6901)">
     <use style="fill:#d3d3d3;stroke:#d3d3d3;" x="102.287727" xlink:href="#m2d1c57486f" y="51.373252"/>
     <use style="fill:#d3d3d3;stroke:#d3d3d3;" x="184.476364" xlink:href="#m2d1c57486f" y="80.044994"/>
     <use style="fill:#d3d3d3;stroke:#d3d3d3;" x="266.665" xlink:href="#m2d1c57486f" y="115.649695"/>
     <use style="fill:#d3d3d3;stroke:#d3d3d3;" x="348.853636" xlink:href="#m2d1c57486f" y="181.618676"/>
     <use style="fill:#d3d3d3;stroke:#d3d3d3;" x="431.042273" xlink:href="#m2d1c57486f" y="239.539698"/>
    </g>
   </g>
   <g id="line2d_37">
    <path clip-path="url(#p10960f6901)" d="M 102.287727 69.514084 
L 184.476364 100.216417 
L 266.665 136.412665 
L 348.853636 199.836183 
L 431.042273 252.978322 
" style="fill:none;stroke:#d3d3d3;stroke-linecap:square;stroke-width:1.5;"/>
    <g clip-path="url(#p10960f6901)">
     <use style="fill:#d3d3d3;stroke:#d3d3d3;" x="102.287727" xlink:href="#m2d1c57486f" y="69.514084"/>
     <use style="fill:#d3d3d3;stroke:#d3d3d3;" x="184.476364" xlink:href="#m2d1c57486f" y="100.216417"/>
     <use style="fill:#d3d3d3;stroke:#d3d3d3;" x="266.665" xlink:href="#m2d1c57486f" y="136.412665"/>
     <use style="fill:#d3d3d3;stroke:#d3d3d3;" x="348.853636" xlink:href="#m2d1c57486f" y="199.836183"/>
     <use style="fill:#d3d3d3;stroke:#d3d3d3;" x="431.042273" xlink:href="#m2d1c57486f" y="252.978322"/>
    </g>
   </g>
   <g id="patch_3">
    <path d="M 85.85 289.24 
L 85.85 17.64 
" style="fill:none;stroke:#000000;stroke-linecap:square;stroke-linejoin:miter;stroke-width:0.8;"/>
   </g>
   <g id="patch_4">
    <path d="M 447.48 289.24 
L 447.48 17.64 
" style="fill:none;stroke:#000000;stroke-linecap:square;stroke-linejoin:miter;stroke-width:0.8;"/>
   </g>
   <g id="patch_5">
    <path d="M 85.85 289.24 
L 447.48 289.24 
" style="fill:none;stroke:#000000;stroke-linecap:square;stroke-linejoin:miter;stroke-width:0.8;"/>
   </g>
   <g id="patch_6">
    <path d="M 85.85 17.64 
L 447.48 17.64 
" style="fill:none;stroke:#000000;stroke-linecap:square;stroke-linejoin:miter;stroke-width:0.8;"/>
   </g>
   <g id="LineCollection_1">
    <path clip-path="url(#p10960f6901)" d="M 102.287727 84.499483 
L 102.287727 62.489875 
" style="fill:none;stroke:#ff0000;stroke-width:2;"/>
    <path clip-path="url(#p10960f6901)" d="M 184.476364 115.699994 
L 184.476364 89.826966 
" style="fill:none;stroke:#ff0000;stroke-width:2;"/>
    <path clip-path="url(#p10960f6901)" d="M 266.665 149.544981 
L 266.665 114.952541 
" style="fill:none;stroke:#ff0000;stroke-width:2;"/>
    <path clip-path="url(#p10960f6901)" d="M 348.853636 199.37862 
L 348.853636 145.266556 
" style="fill:none;stroke:#ff0000;stroke-width:2;"/>
    <path clip-path="url(#p10960f6901)" d="M 431.042273 254.859162 
L 431.042273 213.596728 
" style="fill:none;stroke:#ff0000;stroke-width:2;"/>
   </g>
   <g id="line2d_38">
    <defs>
     <path d="M 5 0 
L -5 -0 
" id="m9d8bcd4339" style="stroke:#ff0000;"/>
    </defs>
    <g clip-path="url(#p10960f6901)">
     <use style="fill:#ff0000;stroke:#ff0000;" x="102.287727" xlink:href="#m9d8bcd4339" y="84.499483"/>
     <use style="fill:#ff0000;stroke:#ff0000;" x="184.476364" xlink:href="#m9d8bcd4339" y="115.699994"/>
     <use style="fill:#ff0000;stroke:#ff0000;" x="266.665" xlink:href="#m9d8bcd4339" y="149.544981"/>
     <use style="fill:#ff0000;stroke:#ff0000;" x="348.853636" xlink:href="#m9d8bcd4339" y="199.37862"/>
     <use style="fill:#ff0000;stroke:#ff0000;" x="431.042273" xlink:href="#m9d8bcd4339" y="254.859162"/>
    </g>
   </g>
   <g id="line2d_39">
    <g clip-path="url(#p10960f6901)">
     <use style="fill:#ff0000;stroke:#ff0000;" x="102.287727" xlink:href="#m9d8bcd4339" y="62.489875"/>
     <use style="fill:#ff0000;stroke:#ff0000;" x="184.476364" xlink:href="#m9d8bcd4339" y="89.826966"/>
     <use style="fill:#ff0000;stroke:#ff0000;" x="266.665" xlink:href="#m9d8bcd4339" y="114.952541"/>
     <use style="fill:#ff0000;stroke:#ff0000;" x="348.853636" xlink:href="#m9d8bcd4339" y="145.266556"/>
     <use style="fill:#ff0000;stroke:#ff0000;" x="431.042273" xlink:href="#m9d8bcd4339" y="213.596728"/>
    </g>
   </g>
   <g id="line2d_40">
    <path clip-path="url(#p10960f6901)" d="M 102.287727 73.494679 
L 184.476364 102.76348 
L 266.665 132.248761 
L 348.853636 172.322588 
L 431.042273 234.227945 
" style="fill:none;stroke:#ff0000;stroke-linecap:square;stroke-width:2;"/>
    <defs>
     <path d="M 0 3 
C 0.795609 3 1.55874 2.683901 2.12132 2.12132 
C 2.683901 1.55874 3 0.795609 3 0 
C 3 -0.795609 2.683901 -1.55874 2.12132 -2.12132 
C 1.55874 -2.683901 0.795609 -3 0 -3 
C -0.795609 -3 -1.55874 -2.683901 -2.12132 -2.12132 
C -2.683901 -1.55874 -3 -0.795609 -3 0 
C -3 0.795609 -2.683901 1.55874 -2.12132 2.12132 
C -1.55874 2.683901 -0.795609 3 0 3 
z
" id="m69564fa50d" style="stroke:#ff0000;"/>
    </defs>
    <g clip-path="url(#p10960f6901)">
     <use style="fill:#ff0000;stroke:#ff0000;" x="102.287727" xlink:href="#m69564fa50d" y="73.494679"/>
     <use style="fill:#ff0000;stroke:#ff0000;" x="184.476364" xlink:href="#m69564fa50d" y="102.76348"/>
     <use style="fill:#ff0000;stroke:#ff0000;" x="266.665" xlink:href="#m69564fa50d" y="132.248761"/>
     <use style="fill:#ff0000;stroke:#ff0000;" x="348.853636" xlink:href="#m69564fa50d" y="172.322588"/>
     <use style="fill:#ff0000;stroke:#ff0000;" x="431.042273" xlink:href="#m69564fa50d" y="234.227945"/>
    </g>
   </g>
  </g>
 </g>
 <defs>
  <clipPath id="p10960f6901">
   <rect height="271.6" width="361.63" x="85.85" y="17.64"/>
  </clipPath>
 </defs>
</svg>
