<?xml version="1.0" encoding="utf-8" standalone="no"?>
<!DOCTYPE svg PUBLIC "-//W3C//DTD SVG 1.1//EN"
  "http://www.w3.org/Graphics/SVG/1.1/DTD/svg11.dtd">
<!-- Created with matplotlib (https://matplotlib.org/) -->
<svg height="345.6pt" version="1.1" viewBox="0 0 460.8 345.6" width="460.8pt" xmlns="http://www.w3.org/2000/svg" xmlns:xlink="http://www.w3.org/1999/xlink">
 <defs>
  <style type="text/css">
*{stroke-linecap:butt;stroke-linejoin:round;}
  </style>
 </defs>
 <g id="figure_1">
  <g id="patch_1">
   <path d="M 0 345.6 
L 460.8 345.6 
L 460.8 0 
L 0 0 
z
" style="fill:#ffffff;"/>
  </g>
  <g id="axes_1">
   <g id="patch_2">
    <path d="M 85.85 289.24 
L 447.48 289.24 
L 447.48 17.64 
L 85.85 17.64 
z
" style="fill:#ffffff;"/>
   </g>
   <g id="matplotlib.axis_1">
    <g id="xtick_1">
     <g id="line2d_1">
      <defs>
       <path d="M 0 0 
L 0 3.5 
" id="m9c60368cec" style="stroke:#000000;stroke-width:0.8;"/>
      </defs>
      <g>
       <use style="stroke:#000000;stroke-width:0.8;" x="102.287727" xlink:href="#m9c60368cec" y="289.24"/>
      </g>
     </g>
     <g id="text_1">
      <!-- 1 -->
      <defs>
       <path d="M 12.40625 8.296875 
L 28.515625 8.296875 
L 28.515625 63.921875 
L 10.984375 60.40625 
L 10.984375 69.390625 
L 28.421875 72.90625 
L 38.28125 72.90625 
L 38.28125 8.296875 
L 54.390625 8.296875 
L 54.390625 0 
L 12.40625 0 
z
" id="DejaVuSans-49"/>
      </defs>
      <g transform="translate(96.879602 309.157344)scale(0.17 -0.17)">
       <use xlink:href="#DejaVuSans-49"/>
      </g>
     </g>
    </g>
    <g id="xtick_2">
     <g id="line2d_2">
      <g>
       <use style="stroke:#000000;stroke-width:0.8;" x="168.038636" xlink:href="#m9c60368cec" y="289.24"/>
      </g>
     </g>
     <g id="text_2">
      <!-- 2 -->
      <defs>
       <path d="M 19.1875 8.296875 
L 53.609375 8.296875 
L 53.609375 0 
L 7.328125 0 
L 7.328125 8.296875 
Q 12.9375 14.109375 22.625 23.890625 
Q 32.328125 33.6875 34.8125 36.53125 
Q 39.546875 41.84375 41.421875 45.53125 
Q 43.3125 49.21875 43.3125 52.78125 
Q 43.3125 58.59375 39.234375 62.25 
Q 35.15625 65.921875 28.609375 65.921875 
Q 23.96875 65.921875 18.8125 64.3125 
Q 13.671875 62.703125 7.8125 59.421875 
L 7.8125 69.390625 
Q 13.765625 71.78125 18.9375 73 
Q 24.125 74.21875 28.421875 74.21875 
Q 39.75 74.21875 46.484375 68.546875 
Q 53.21875 62.890625 53.21875 53.421875 
Q 53.21875 48.921875 51.53125 44.890625 
Q 49.859375 40.875 45.40625 35.40625 
Q 44.1875 33.984375 37.640625 27.21875 
Q 31.109375 20.453125 19.1875 8.296875 
z
" id="DejaVuSans-50"/>
      </defs>
      <g transform="translate(162.630511 309.157344)scale(0.17 -0.17)">
       <use xlink:href="#DejaVuSans-50"/>
      </g>
     </g>
    </g>
    <g id="xtick_3">
     <g id="line2d_3">
      <g>
       <use style="stroke:#000000;stroke-width:0.8;" x="233.789545" xlink:href="#m9c60368cec" y="289.24"/>
      </g>
     </g>
     <g id="text_3">
      <!-- 3 -->
      <defs>
       <path d="M 40.578125 39.3125 
Q 47.65625 37.796875 51.625 33 
Q 55.609375 28.21875 55.609375 21.1875 
Q 55.609375 10.40625 48.1875 4.484375 
Q 40.765625 -1.421875 27.09375 -1.421875 
Q 22.515625 -1.421875 17.65625 -0.515625 
Q 12.796875 0.390625 7.625 2.203125 
L 7.625 11.71875 
Q 11.71875 9.328125 16.59375 8.109375 
Q 21.484375 6.890625 26.8125 6.890625 
Q 36.078125 6.890625 40.9375 10.546875 
Q 45.796875 14.203125 45.796875 21.1875 
Q 45.796875 27.640625 41.28125 31.265625 
Q 36.765625 34.90625 28.71875 34.90625 
L 20.21875 34.90625 
L 20.21875 43.015625 
L 29.109375 43.015625 
Q 36.375 43.015625 40.234375 45.921875 
Q 44.09375 48.828125 44.09375 54.296875 
Q 44.09375 59.90625 40.109375 62.90625 
Q 36.140625 65.921875 28.71875 65.921875 
Q 24.65625 65.921875 20.015625 65.03125 
Q 15.375 64.15625 9.8125 62.3125 
L 9.8125 71.09375 
Q 15.4375 72.65625 20.34375 73.4375 
Q 25.25 74.21875 29.59375 74.21875 
Q 40.828125 74.21875 47.359375 69.109375 
Q 53.90625 64.015625 53.90625 55.328125 
Q 53.90625 49.265625 50.4375 45.09375 
Q 46.96875 40.921875 40.578125 39.3125 
z
" id="DejaVuSans-51"/>
      </defs>
      <g transform="translate(228.38142 309.157344)scale(0.17 -0.17)">
       <use xlink:href="#DejaVuSans-51"/>
      </g>
     </g>
    </g>
    <g id="xtick_4">
     <g id="line2d_4">
      <g>
       <use style="stroke:#000000;stroke-width:0.8;" x="299.540455" xlink:href="#m9c60368cec" y="289.24"/>
      </g>
     </g>
     <g id="text_4">
      <!-- 4 -->
      <defs>
       <path d="M 37.796875 64.3125 
L 12.890625 25.390625 
L 37.796875 25.390625 
z
M 35.203125 72.90625 
L 47.609375 72.90625 
L 47.609375 25.390625 
L 58.015625 25.390625 
L 58.015625 17.1875 
L 47.609375 17.1875 
L 47.609375 0 
L 37.796875 0 
L 37.796875 17.1875 
L 4.890625 17.1875 
L 4.890625 26.703125 
z
" id="DejaVuSans-52"/>
      </defs>
      <g transform="translate(294.13233 309.157344)scale(0.17 -0.17)">
       <use xlink:href="#DejaVuSans-52"/>
      </g>
     </g>
    </g>
    <g id="xtick_5">
     <g id="line2d_5">
      <g>
       <use style="stroke:#000000;stroke-width:0.8;" x="365.291364" xlink:href="#m9c60368cec" y="289.24"/>
      </g>
     </g>
     <g id="text_5">
      <!-- 5 -->
      <defs>
       <path d="M 10.796875 72.90625 
L 49.515625 72.90625 
L 49.515625 64.59375 
L 19.828125 64.59375 
L 19.828125 46.734375 
Q 21.96875 47.46875 24.109375 47.828125 
Q 26.265625 48.1875 28.421875 48.1875 
Q 40.625 48.1875 47.75 41.5 
Q 54.890625 34.8125 54.890625 23.390625 
Q 54.890625 11.625 47.5625 5.09375 
Q 40.234375 -1.421875 26.90625 -1.421875 
Q 22.3125 -1.421875 17.546875 -0.640625 
Q 12.796875 0.140625 7.71875 1.703125 
L 7.71875 11.625 
Q 12.109375 9.234375 16.796875 8.0625 
Q 21.484375 6.890625 26.703125 6.890625 
Q 35.15625 6.890625 40.078125 11.328125 
Q 45.015625 15.765625 45.015625 23.390625 
Q 45.015625 31 40.078125 35.4375 
Q 35.15625 39.890625 26.703125 39.890625 
Q 22.75 39.890625 18.8125 39.015625 
Q 14.890625 38.140625 10.796875 36.28125 
z
" id="DejaVuSans-53"/>
      </defs>
      <g transform="translate(359.883239 309.157344)scale(0.17 -0.17)">
       <use xlink:href="#DejaVuSans-53"/>
      </g>
     </g>
    </g>
    <g id="xtick_6">
     <g id="line2d_6">
      <g>
       <use style="stroke:#000000;stroke-width:0.8;" x="431.042273" xlink:href="#m9c60368cec" y="289.24"/>
      </g>
     </g>
     <g id="text_6">
      <!-- 6 -->
      <defs>
       <path d="M 33.015625 40.375 
Q 26.375 40.375 22.484375 35.828125 
Q 18.609375 31.296875 18.609375 23.390625 
Q 18.609375 15.53125 22.484375 10.953125 
Q 26.375 6.390625 33.015625 6.390625 
Q 39.65625 6.390625 43.53125 10.953125 
Q 47.40625 15.53125 47.40625 23.390625 
Q 47.40625 31.296875 43.53125 35.828125 
Q 39.65625 40.375 33.015625 40.375 
z
M 52.59375 71.296875 
L 52.59375 62.3125 
Q 48.875 64.0625 45.09375 64.984375 
Q 41.3125 65.921875 37.59375 65.921875 
Q 27.828125 65.921875 22.671875 59.328125 
Q 17.53125 52.734375 16.796875 39.40625 
Q 19.671875 43.65625 24.015625 45.921875 
Q 28.375 48.1875 33.59375 48.1875 
Q 44.578125 48.1875 50.953125 41.515625 
Q 57.328125 34.859375 57.328125 23.390625 
Q 57.328125 12.15625 50.6875 5.359375 
Q 44.046875 -1.421875 33.015625 -1.421875 
Q 20.359375 -1.421875 13.671875 8.265625 
Q 6.984375 17.96875 6.984375 36.375 
Q 6.984375 53.65625 15.1875 63.9375 
Q 23.390625 74.21875 37.203125 74.21875 
Q 40.921875 74.21875 44.703125 73.484375 
Q 48.484375 72.75 52.59375 71.296875 
z
" id="DejaVuSans-54"/>
      </defs>
      <g transform="translate(425.634148 309.157344)scale(0.17 -0.17)">
       <use xlink:href="#DejaVuSans-54"/>
      </g>
     </g>
    </g>
    <g id="text_7">
     <!-- $i$ -->
     <defs>
      <path d="M 18.3125 75.984375 
L 27.296875 75.984375 
L 25.09375 64.59375 
L 16.109375 64.59375 
z
M 14.203125 54.6875 
L 23.1875 54.6875 
L 12.5 0 
L 3.515625 0 
z
" id="DejaVuSans-Oblique-105"/>
     </defs>
     <g transform="translate(264.285 329.610156)scale(0.17 -0.17)">
      <use transform="translate(0 0.015625)" xlink:href="#DejaVuSans-Oblique-105"/>
     </g>
    </g>
   </g>
   <g id="matplotlib.axis_2">
    <g id="ytick_1">
     <g id="line2d_7">
      <defs>
       <path d="M 0 0 
L -3.5 0 
" id="m6bf6e434dc" style="stroke:#000000;stroke-width:0.8;"/>
      </defs>
      <g>
       <use style="stroke:#000000;stroke-width:0.8;" x="85.85" xlink:href="#m6bf6e434dc" y="289.24"/>
      </g>
     </g>
     <g id="text_8">
      <!-- 0.00 -->
      <defs>
       <path d="M 31.78125 66.40625 
Q 24.171875 66.40625 20.328125 58.90625 
Q 16.5 51.421875 16.5 36.375 
Q 16.5 21.390625 20.328125 13.890625 
Q 24.171875 6.390625 31.78125 6.390625 
Q 39.453125 6.390625 43.28125 13.890625 
Q 47.125 21.390625 47.125 36.375 
Q 47.125 51.421875 43.28125 58.90625 
Q 39.453125 66.40625 31.78125 66.40625 
z
M 31.78125 74.21875 
Q 44.046875 74.21875 50.515625 64.515625 
Q 56.984375 54.828125 56.984375 36.375 
Q 56.984375 17.96875 50.515625 8.265625 
Q 44.046875 -1.421875 31.78125 -1.421875 
Q 19.53125 -1.421875 13.0625 8.265625 
Q 6.59375 17.96875 6.59375 36.375 
Q 6.59375 54.828125 13.0625 64.515625 
Q 19.53125 74.21875 31.78125 74.21875 
z
" id="DejaVuSans-48"/>
       <path d="M 10.6875 12.40625 
L 21 12.40625 
L 21 0 
L 10.6875 0 
z
" id="DejaVuSans-46"/>
      </defs>
      <g transform="translate(40.998438 295.698672)scale(0.17 -0.17)">
       <use xlink:href="#DejaVuSans-48"/>
       <use x="63.623047" xlink:href="#DejaVuSans-46"/>
       <use x="95.410156" xlink:href="#DejaVuSans-48"/>
       <use x="159.033203" xlink:href="#DejaVuSans-48"/>
      </g>
     </g>
    </g>
    <g id="ytick_2">
     <g id="line2d_8">
      <g>
       <use style="stroke:#000000;stroke-width:0.8;" x="85.85" xlink:href="#m6bf6e434dc" y="221.34"/>
      </g>
     </g>
     <g id="text_9">
      <!-- 0.05 -->
      <g transform="translate(40.998438 227.798672)scale(0.17 -0.17)">
       <use xlink:href="#DejaVuSans-48"/>
       <use x="63.623047" xlink:href="#DejaVuSans-46"/>
       <use x="95.410156" xlink:href="#DejaVuSans-48"/>
       <use x="159.033203" xlink:href="#DejaVuSans-53"/>
      </g>
     </g>
    </g>
    <g id="ytick_3">
     <g id="line2d_9">
      <g>
       <use style="stroke:#000000;stroke-width:0.8;" x="85.85" xlink:href="#m6bf6e434dc" y="153.44"/>
      </g>
     </g>
     <g id="text_10">
      <!-- 0.10 -->
      <g transform="translate(40.998438 159.898672)scale(0.17 -0.17)">
       <use xlink:href="#DejaVuSans-48"/>
       <use x="63.623047" xlink:href="#DejaVuSans-46"/>
       <use x="95.410156" xlink:href="#DejaVuSans-49"/>
       <use x="159.033203" xlink:href="#DejaVuSans-48"/>
      </g>
     </g>
    </g>
    <g id="ytick_4">
     <g id="line2d_10">
      <g>
       <use style="stroke:#000000;stroke-width:0.8;" x="85.85" xlink:href="#m6bf6e434dc" y="85.54"/>
      </g>
     </g>
     <g id="text_11">
      <!-- 0.15 -->
      <g transform="translate(40.998438 91.998672)scale(0.17 -0.17)">
       <use xlink:href="#DejaVuSans-48"/>
       <use x="63.623047" xlink:href="#DejaVuSans-46"/>
       <use x="95.410156" xlink:href="#DejaVuSans-49"/>
       <use x="159.033203" xlink:href="#DejaVuSans-53"/>
      </g>
     </g>
    </g>
    <g id="ytick_5">
     <g id="line2d_11">
      <g>
       <use style="stroke:#000000;stroke-width:0.8;" x="85.85" xlink:href="#m6bf6e434dc" y="17.64"/>
      </g>
     </g>
     <g id="text_12">
      <!-- 0.20 -->
      <g transform="translate(40.998438 24.098672)scale(0.17 -0.17)">
       <use xlink:href="#DejaVuSans-48"/>
       <use x="63.623047" xlink:href="#DejaVuSans-46"/>
       <use x="95.410156" xlink:href="#DejaVuSans-50"/>
       <use x="159.033203" xlink:href="#DejaVuSans-48"/>
      </g>
     </g>
    </g>
    <g id="text_13">
     <!-- Value of $\beta_i$ -->
     <defs>
      <path d="M 28.609375 0 
L 0.78125 72.90625 
L 11.078125 72.90625 
L 34.1875 11.53125 
L 57.328125 72.90625 
L 67.578125 72.90625 
L 39.796875 0 
z
" id="DejaVuSans-86"/>
      <path d="M 34.28125 27.484375 
Q 23.390625 27.484375 19.1875 25 
Q 14.984375 22.515625 14.984375 16.5 
Q 14.984375 11.71875 18.140625 8.90625 
Q 21.296875 6.109375 26.703125 6.109375 
Q 34.1875 6.109375 38.703125 11.40625 
Q 43.21875 16.703125 43.21875 25.484375 
L 43.21875 27.484375 
z
M 52.203125 31.203125 
L 52.203125 0 
L 43.21875 0 
L 43.21875 8.296875 
Q 40.140625 3.328125 35.546875 0.953125 
Q 30.953125 -1.421875 24.3125 -1.421875 
Q 15.921875 -1.421875 10.953125 3.296875 
Q 6 8.015625 6 15.921875 
Q 6 25.140625 12.171875 29.828125 
Q 18.359375 34.515625 30.609375 34.515625 
L 43.21875 34.515625 
L 43.21875 35.40625 
Q 43.21875 41.609375 39.140625 45 
Q 35.0625 48.390625 27.6875 48.390625 
Q 23 48.390625 18.546875 47.265625 
Q 14.109375 46.140625 10.015625 43.890625 
L 10.015625 52.203125 
Q 14.9375 54.109375 19.578125 55.046875 
Q 24.21875 56 28.609375 56 
Q 40.484375 56 46.34375 49.84375 
Q 52.203125 43.703125 52.203125 31.203125 
z
" id="DejaVuSans-97"/>
      <path d="M 9.421875 75.984375 
L 18.40625 75.984375 
L 18.40625 0 
L 9.421875 0 
z
" id="DejaVuSans-108"/>
      <path d="M 8.5 21.578125 
L 8.5 54.6875 
L 17.484375 54.6875 
L 17.484375 21.921875 
Q 17.484375 14.15625 20.5 10.265625 
Q 23.53125 6.390625 29.59375 6.390625 
Q 36.859375 6.390625 41.078125 11.03125 
Q 45.3125 15.671875 45.3125 23.6875 
L 45.3125 54.6875 
L 54.296875 54.6875 
L 54.296875 0 
L 45.3125 0 
L 45.3125 8.40625 
Q 42.046875 3.421875 37.71875 1 
Q 33.40625 -1.421875 27.6875 -1.421875 
Q 18.265625 -1.421875 13.375 4.4375 
Q 8.5 10.296875 8.5 21.578125 
z
M 31.109375 56 
z
" id="DejaVuSans-117"/>
      <path d="M 56.203125 29.59375 
L 56.203125 25.203125 
L 14.890625 25.203125 
Q 15.484375 15.921875 20.484375 11.0625 
Q 25.484375 6.203125 34.421875 6.203125 
Q 39.59375 6.203125 44.453125 7.46875 
Q 49.3125 8.734375 54.109375 11.28125 
L 54.109375 2.78125 
Q 49.265625 0.734375 44.1875 -0.34375 
Q 39.109375 -1.421875 33.890625 -1.421875 
Q 20.796875 -1.421875 13.15625 6.1875 
Q 5.515625 13.8125 5.515625 26.8125 
Q 5.515625 40.234375 12.765625 48.109375 
Q 20.015625 56 32.328125 56 
Q 43.359375 56 49.78125 48.890625 
Q 56.203125 41.796875 56.203125 29.59375 
z
M 47.21875 32.234375 
Q 47.125 39.59375 43.09375 43.984375 
Q 39.0625 48.390625 32.421875 48.390625 
Q 24.90625 48.390625 20.390625 44.140625 
Q 15.875 39.890625 15.1875 32.171875 
z
" id="DejaVuSans-101"/>
      <path id="DejaVuSans-32"/>
      <path d="M 30.609375 48.390625 
Q 23.390625 48.390625 19.1875 42.75 
Q 14.984375 37.109375 14.984375 27.296875 
Q 14.984375 17.484375 19.15625 11.84375 
Q 23.34375 6.203125 30.609375 6.203125 
Q 37.796875 6.203125 41.984375 11.859375 
Q 46.1875 17.53125 46.1875 27.296875 
Q 46.1875 37.015625 41.984375 42.703125 
Q 37.796875 48.390625 30.609375 48.390625 
z
M 30.609375 56 
Q 42.328125 56 49.015625 48.375 
Q 55.71875 40.765625 55.71875 27.296875 
Q 55.71875 13.875 49.015625 6.21875 
Q 42.328125 -1.421875 30.609375 -1.421875 
Q 18.84375 -1.421875 12.171875 6.21875 
Q 5.515625 13.875 5.515625 27.296875 
Q 5.515625 40.765625 12.171875 48.375 
Q 18.84375 56 30.609375 56 
z
" id="DejaVuSans-111"/>
      <path d="M 37.109375 75.984375 
L 37.109375 68.5 
L 28.515625 68.5 
Q 23.6875 68.5 21.796875 66.546875 
Q 19.921875 64.59375 19.921875 59.515625 
L 19.921875 54.6875 
L 34.71875 54.6875 
L 34.71875 47.703125 
L 19.921875 47.703125 
L 19.921875 0 
L 10.890625 0 
L 10.890625 47.703125 
L 2.296875 47.703125 
L 2.296875 54.6875 
L 10.890625 54.6875 
L 10.890625 58.5 
Q 10.890625 67.625 15.140625 71.796875 
Q 19.390625 75.984375 28.609375 75.984375 
z
" id="DejaVuSans-102"/>
      <path d="M 13.625 3.375 
L 8.9375 -20.796875 
L -0.09375 -20.796875 
L 14.5 54.34375 
Q 18.84375 76.609375 39.65625 76.609375 
Q 60.75 76.609375 57.171875 57.8125 
Q 54.734375 44.4375 45.21875 39.546875 
Q 58.015625 35.15625 55.515625 22.125 
Q 51.125 -1.078125 27.484375 -1.03125 
Q 17.140625 -0.984375 13.625 3.375 
z
M 15.921875 15.09375 
Q 19.671875 6.59375 29.296875 6.640625 
Q 43.359375 6.640625 46.34375 21.96875 
Q 49.03125 35.75 26.171875 34.671875 
L 27.78125 42.96875 
Q 45.453125 42.671875 48.53125 58.59375 
Q 50.640625 69.34375 39.203125 69.28125 
Q 26.421875 69.28125 23.484375 54.046875 
z
" id="DejaVuSans-Oblique-946"/>
     </defs>
     <g transform="translate(27.428438 198.405)rotate(-90)scale(0.17 -0.17)">
      <use transform="translate(0 0.390625)" xlink:href="#DejaVuSans-86"/>
      <use transform="translate(68.408203 0.390625)" xlink:href="#DejaVuSans-97"/>
      <use transform="translate(129.6875 0.390625)" xlink:href="#DejaVuSans-108"/>
      <use transform="translate(157.470703 0.390625)" xlink:href="#DejaVuSans-117"/>
      <use transform="translate(220.849609 0.390625)" xlink:href="#DejaVuSans-101"/>
      <use transform="translate(282.373047 0.390625)" xlink:href="#DejaVuSans-32"/>
      <use transform="translate(314.160156 0.390625)" xlink:href="#DejaVuSans-111"/>
      <use transform="translate(375.341797 0.390625)" xlink:href="#DejaVuSans-102"/>
      <use transform="translate(410.546875 0.390625)" xlink:href="#DejaVuSans-32"/>
      <use transform="translate(442.333984 0.390625)" xlink:href="#DejaVuSans-Oblique-946"/>
      <use transform="translate(506.152344 -16.015625)scale(0.7)" xlink:href="#DejaVuSans-Oblique-105"/>
     </g>
    </g>
   </g>
   <g id="line2d_12">
    <path clip-path="url(#pd92fdb1ba1)" d="M 102.287727 67.437939 
L 168.038636 93.87386 
L 233.789545 126.876233 
L 299.540455 162.689592 
L 365.291364 201.962167 
L 431.042273 252.066106 
" style="fill:none;stroke:#d3d3d3;stroke-linecap:square;stroke-width:1.5;"/>
    <defs>
     <path d="M 0 3 
C 0.795609 3 1.55874 2.683901 2.12132 2.12132 
C 2.683901 1.55874 3 0.795609 3 0 
C 3 -0.795609 2.683901 -1.55874 2.12132 -2.12132 
C 1.55874 -2.683901 0.795609 -3 0 -3 
C -0.795609 -3 -1.55874 -2.683901 -2.12132 -2.12132 
C -2.683901 -1.55874 -3 -0.795609 -3 0 
C -3 0.795609 -2.683901 1.55874 -2.12132 2.12132 
C -1.55874 2.683901 -0.795609 3 0 3 
z
" id="m9b28b08867" style="stroke:#d3d3d3;"/>
    </defs>
    <g clip-path="url(#pd92fdb1ba1)">
     <use style="fill:#d3d3d3;stroke:#d3d3d3;" x="102.287727" xlink:href="#m9b28b08867" y="67.437939"/>
     <use style="fill:#d3d3d3;stroke:#d3d3d3;" x="168.038636" xlink:href="#m9b28b08867" y="93.87386"/>
     <use style="fill:#d3d3d3;stroke:#d3d3d3;" x="233.789545" xlink:href="#m9b28b08867" y="126.876233"/>
     <use style="fill:#d3d3d3;stroke:#d3d3d3;" x="299.540455" xlink:href="#m9b28b08867" y="162.689592"/>
     <use style="fill:#d3d3d3;stroke:#d3d3d3;" x="365.291364" xlink:href="#m9b28b08867" y="201.962167"/>
     <use style="fill:#d3d3d3;stroke:#d3d3d3;" x="431.042273" xlink:href="#m9b28b08867" y="252.066106"/>
    </g>
   </g>
   <g id="line2d_13">
    <path clip-path="url(#pd92fdb1ba1)" d="M 102.287727 65.632896 
L 168.038636 108.114636 
L 233.789545 136.917708 
L 299.540455 143.997354 
L 365.291364 180.207485 
L 431.042273 227.470733 
" style="fill:none;stroke:#d3d3d3;stroke-linecap:square;stroke-width:1.5;"/>
    <g clip-path="url(#pd92fdb1ba1)">
     <use style="fill:#d3d3d3;stroke:#d3d3d3;" x="102.287727" xlink:href="#m9b28b08867" y="65.632896"/>
     <use style="fill:#d3d3d3;stroke:#d3d3d3;" x="168.038636" xlink:href="#m9b28b08867" y="108.114636"/>
     <use style="fill:#d3d3d3;stroke:#d3d3d3;" x="233.789545" xlink:href="#m9b28b08867" y="136.917708"/>
     <use style="fill:#d3d3d3;stroke:#d3d3d3;" x="299.540455" xlink:href="#m9b28b08867" y="143.997354"/>
     <use style="fill:#d3d3d3;stroke:#d3d3d3;" x="365.291364" xlink:href="#m9b28b08867" y="180.207485"/>
     <use style="fill:#d3d3d3;stroke:#d3d3d3;" x="431.042273" xlink:href="#m9b28b08867" y="227.470733"/>
    </g>
   </g>
   <g id="line2d_14">
    <path clip-path="url(#pd92fdb1ba1)" d="M 102.287727 64.489847 
L 168.038636 96.230059 
L 233.789545 130.838524 
L 299.540455 159.439453 
L 365.291364 209.098064 
L 431.042273 258.385323 
" style="fill:none;stroke:#d3d3d3;stroke-linecap:square;stroke-width:1.5;"/>
    <g clip-path="url(#pd92fdb1ba1)">
     <use style="fill:#d3d3d3;stroke:#d3d3d3;" x="102.287727" xlink:href="#m9b28b08867" y="64.489847"/>
     <use style="fill:#d3d3d3;stroke:#d3d3d3;" x="168.038636" xlink:href="#m9b28b08867" y="96.230059"/>
     <use style="fill:#d3d3d3;stroke:#d3d3d3;" x="233.789545" xlink:href="#m9b28b08867" y="130.838524"/>
     <use style="fill:#d3d3d3;stroke:#d3d3d3;" x="299.540455" xlink:href="#m9b28b08867" y="159.439453"/>
     <use style="fill:#d3d3d3;stroke:#d3d3d3;" x="365.291364" xlink:href="#m9b28b08867" y="209.098064"/>
     <use style="fill:#d3d3d3;stroke:#d3d3d3;" x="431.042273" xlink:href="#m9b28b08867" y="258.385323"/>
    </g>
   </g>
   <g id="line2d_15">
    <path clip-path="url(#pd92fdb1ba1)" d="M 102.287727 54.728144 
L 168.038636 75.626825 
L 233.789545 101.357201 
L 299.540455 115.373444 
L 365.291364 148.009423 
L 431.042273 223.187189 
" style="fill:none;stroke:#d3d3d3;stroke-linecap:square;stroke-width:1.5;"/>
    <g clip-path="url(#pd92fdb1ba1)">
     <use style="fill:#d3d3d3;stroke:#d3d3d3;" x="102.287727" xlink:href="#m9b28b08867" y="54.728144"/>
     <use style="fill:#d3d3d3;stroke:#d3d3d3;" x="168.038636" xlink:href="#m9b28b08867" y="75.626825"/>
     <use style="fill:#d3d3d3;stroke:#d3d3d3;" x="233.789545" xlink:href="#m9b28b08867" y="101.357201"/>
     <use style="fill:#d3d3d3;stroke:#d3d3d3;" x="299.540455" xlink:href="#m9b28b08867" y="115.373444"/>
     <use style="fill:#d3d3d3;stroke:#d3d3d3;" x="365.291364" xlink:href="#m9b28b08867" y="148.009423"/>
     <use style="fill:#d3d3d3;stroke:#d3d3d3;" x="431.042273" xlink:href="#m9b28b08867" y="223.187189"/>
    </g>
   </g>
   <g id="line2d_16">
    <path clip-path="url(#pd92fdb1ba1)" d="M 102.287727 53.525192 
L 168.038636 93.579903 
L 233.789545 137.650068 
L 299.540455 169.458086 
L 365.291364 214.113859 
L 431.042273 260.739173 
" style="fill:none;stroke:#d3d3d3;stroke-linecap:square;stroke-width:1.5;"/>
    <g clip-path="url(#pd92fdb1ba1)">
     <use style="fill:#d3d3d3;stroke:#d3d3d3;" x="102.287727" xlink:href="#m9b28b08867" y="53.525192"/>
     <use style="fill:#d3d3d3;stroke:#d3d3d3;" x="168.038636" xlink:href="#m9b28b08867" y="93.579903"/>
     <use style="fill:#d3d3d3;stroke:#d3d3d3;" x="233.789545" xlink:href="#m9b28b08867" y="137.650068"/>
     <use style="fill:#d3d3d3;stroke:#d3d3d3;" x="299.540455" xlink:href="#m9b28b08867" y="169.458086"/>
     <use style="fill:#d3d3d3;stroke:#d3d3d3;" x="365.291364" xlink:href="#m9b28b08867" y="214.113859"/>
     <use style="fill:#d3d3d3;stroke:#d3d3d3;" x="431.042273" xlink:href="#m9b28b08867" y="260.739173"/>
    </g>
   </g>
   <g id="line2d_17">
    <path clip-path="url(#pd92fdb1ba1)" d="M 102.287727 81.98658 
L 168.038636 96.583488 
L 233.789545 122.868926 
L 299.540455 144.118274 
L 365.291364 204.038437 
L 431.042273 256.733848 
" style="fill:none;stroke:#d3d3d3;stroke-linecap:square;stroke-width:1.5;"/>
    <g clip-path="url(#pd92fdb1ba1)">
     <use style="fill:#d3d3d3;stroke:#d3d3d3;" x="102.287727" xlink:href="#m9b28b08867" y="81.98658"/>
     <use style="fill:#d3d3d3;stroke:#d3d3d3;" x="168.038636" xlink:href="#m9b28b08867" y="96.583488"/>
     <use style="fill:#d3d3d3;stroke:#d3d3d3;" x="233.789545" xlink:href="#m9b28b08867" y="122.868926"/>
     <use style="fill:#d3d3d3;stroke:#d3d3d3;" x="299.540455" xlink:href="#m9b28b08867" y="144.118274"/>
     <use style="fill:#d3d3d3;stroke:#d3d3d3;" x="365.291364" xlink:href="#m9b28b08867" y="204.038437"/>
     <use style="fill:#d3d3d3;stroke:#d3d3d3;" x="431.042273" xlink:href="#m9b28b08867" y="256.733848"/>
    </g>
   </g>
   <g id="line2d_18">
    <path clip-path="url(#pd92fdb1ba1)" d="M 102.287727 65.422125 
L 168.038636 98.679144 
L 233.789545 138.455164 
L 299.540455 160.02501 
L 365.291364 200.372587 
L 431.042273 246.286287 
" style="fill:none;stroke:#d3d3d3;stroke-linecap:square;stroke-width:1.5;"/>
    <g clip-path="url(#pd92fdb1ba1)">
     <use style="fill:#d3d3d3;stroke:#d3d3d3;" x="102.287727" xlink:href="#m9b28b08867" y="65.422125"/>
     <use style="fill:#d3d3d3;stroke:#d3d3d3;" x="168.038636" xlink:href="#m9b28b08867" y="98.679144"/>
     <use style="fill:#d3d3d3;stroke:#d3d3d3;" x="233.789545" xlink:href="#m9b28b08867" y="138.455164"/>
     <use style="fill:#d3d3d3;stroke:#d3d3d3;" x="299.540455" xlink:href="#m9b28b08867" y="160.02501"/>
     <use style="fill:#d3d3d3;stroke:#d3d3d3;" x="365.291364" xlink:href="#m9b28b08867" y="200.372587"/>
     <use style="fill:#d3d3d3;stroke:#d3d3d3;" x="431.042273" xlink:href="#m9b28b08867" y="246.286287"/>
    </g>
   </g>
   <g id="line2d_19">
    <path clip-path="url(#pd92fdb1ba1)" d="M 102.287727 67.572747 
L 168.038636 85.815448 
L 233.789545 114.268236 
L 299.540455 137.134755 
L 365.291364 181.535411 
L 431.042273 251.815572 
" style="fill:none;stroke:#d3d3d3;stroke-linecap:square;stroke-width:1.5;"/>
    <g clip-path="url(#pd92fdb1ba1)">
     <use style="fill:#d3d3d3;stroke:#d3d3d3;" x="102.287727" xlink:href="#m9b28b08867" y="67.572747"/>
     <use style="fill:#d3d3d3;stroke:#d3d3d3;" x="168.038636" xlink:href="#m9b28b08867" y="85.815448"/>
     <use style="fill:#d3d3d3;stroke:#d3d3d3;" x="233.789545" xlink:href="#m9b28b08867" y="114.268236"/>
     <use style="fill:#d3d3d3;stroke:#d3d3d3;" x="299.540455" xlink:href="#m9b28b08867" y="137.134755"/>
     <use style="fill:#d3d3d3;stroke:#d3d3d3;" x="365.291364" xlink:href="#m9b28b08867" y="181.535411"/>
     <use style="fill:#d3d3d3;stroke:#d3d3d3;" x="431.042273" xlink:href="#m9b28b08867" y="251.815572"/>
    </g>
   </g>
   <g id="line2d_20">
    <path clip-path="url(#pd92fdb1ba1)" d="M 102.287727 65.394077 
L 168.038636 98.669667 
L 233.789545 138.465825 
L 299.540455 159.991623 
L 365.291364 200.375213 
L 431.042273 246.332051 
" style="fill:none;stroke:#d3d3d3;stroke-linecap:square;stroke-width:1.5;"/>
    <g clip-path="url(#pd92fdb1ba1)">
     <use style="fill:#d3d3d3;stroke:#d3d3d3;" x="102.287727" xlink:href="#m9b28b08867" y="65.394077"/>
     <use style="fill:#d3d3d3;stroke:#d3d3d3;" x="168.038636" xlink:href="#m9b28b08867" y="98.669667"/>
     <use style="fill:#d3d3d3;stroke:#d3d3d3;" x="233.789545" xlink:href="#m9b28b08867" y="138.465825"/>
     <use style="fill:#d3d3d3;stroke:#d3d3d3;" x="299.540455" xlink:href="#m9b28b08867" y="159.991623"/>
     <use style="fill:#d3d3d3;stroke:#d3d3d3;" x="365.291364" xlink:href="#m9b28b08867" y="200.375213"/>
     <use style="fill:#d3d3d3;stroke:#d3d3d3;" x="431.042273" xlink:href="#m9b28b08867" y="246.332051"/>
    </g>
   </g>
   <g id="line2d_21">
    <path clip-path="url(#pd92fdb1ba1)" d="M 102.287727 60.818332 
L 168.038636 88.8683 
L 233.789545 114.637043 
L 299.540455 138.330395 
L 365.291364 174.375764 
L 431.042273 230.982309 
" style="fill:none;stroke:#d3d3d3;stroke-linecap:square;stroke-width:1.5;"/>
    <g clip-path="url(#pd92fdb1ba1)">
     <use style="fill:#d3d3d3;stroke:#d3d3d3;" x="102.287727" xlink:href="#m9b28b08867" y="60.818332"/>
     <use style="fill:#d3d3d3;stroke:#d3d3d3;" x="168.038636" xlink:href="#m9b28b08867" y="88.8683"/>
     <use style="fill:#d3d3d3;stroke:#d3d3d3;" x="233.789545" xlink:href="#m9b28b08867" y="114.637043"/>
     <use style="fill:#d3d3d3;stroke:#d3d3d3;" x="299.540455" xlink:href="#m9b28b08867" y="138.330395"/>
     <use style="fill:#d3d3d3;stroke:#d3d3d3;" x="365.291364" xlink:href="#m9b28b08867" y="174.375764"/>
     <use style="fill:#d3d3d3;stroke:#d3d3d3;" x="431.042273" xlink:href="#m9b28b08867" y="230.982309"/>
    </g>
   </g>
   <g id="line2d_22">
    <path clip-path="url(#pd92fdb1ba1)" d="M 102.287727 65.53601 
L 168.038636 108.062347 
L 233.789545 136.91819 
L 299.540455 143.967333 
L 365.291364 180.165459 
L 431.042273 227.404702 
" style="fill:none;stroke:#d3d3d3;stroke-linecap:square;stroke-width:1.5;"/>
    <g clip-path="url(#pd92fdb1ba1)">
     <use style="fill:#d3d3d3;stroke:#d3d3d3;" x="102.287727" xlink:href="#m9b28b08867" y="65.53601"/>
     <use style="fill:#d3d3d3;stroke:#d3d3d3;" x="168.038636" xlink:href="#m9b28b08867" y="108.062347"/>
     <use style="fill:#d3d3d3;stroke:#d3d3d3;" x="233.789545" xlink:href="#m9b28b08867" y="136.91819"/>
     <use style="fill:#d3d3d3;stroke:#d3d3d3;" x="299.540455" xlink:href="#m9b28b08867" y="143.967333"/>
     <use style="fill:#d3d3d3;stroke:#d3d3d3;" x="365.291364" xlink:href="#m9b28b08867" y="180.165459"/>
     <use style="fill:#d3d3d3;stroke:#d3d3d3;" x="431.042273" xlink:href="#m9b28b08867" y="227.404702"/>
    </g>
   </g>
   <g id="line2d_23">
    <path clip-path="url(#pd92fdb1ba1)" d="M 102.287727 64.574846 
L 168.038636 96.287896 
L 233.789545 130.855219 
L 299.540455 159.47983 
L 365.291364 209.211945 
L 431.042273 258.459822 
" style="fill:none;stroke:#d3d3d3;stroke-linecap:square;stroke-width:1.5;"/>
    <g clip-path="url(#pd92fdb1ba1)">
     <use style="fill:#d3d3d3;stroke:#d3d3d3;" x="102.287727" xlink:href="#m9b28b08867" y="64.574846"/>
     <use style="fill:#d3d3d3;stroke:#d3d3d3;" x="168.038636" xlink:href="#m9b28b08867" y="96.287896"/>
     <use style="fill:#d3d3d3;stroke:#d3d3d3;" x="233.789545" xlink:href="#m9b28b08867" y="130.855219"/>
     <use style="fill:#d3d3d3;stroke:#d3d3d3;" x="299.540455" xlink:href="#m9b28b08867" y="159.47983"/>
     <use style="fill:#d3d3d3;stroke:#d3d3d3;" x="365.291364" xlink:href="#m9b28b08867" y="209.211945"/>
     <use style="fill:#d3d3d3;stroke:#d3d3d3;" x="431.042273" xlink:href="#m9b28b08867" y="258.459822"/>
    </g>
   </g>
   <g id="line2d_24">
    <path clip-path="url(#pd92fdb1ba1)" d="M 102.287727 34.52187 
L 168.038636 86.504343 
L 233.789545 122.722102 
L 299.540455 140.103198 
L 365.291364 175.14972 
L 431.042273 230.160301 
" style="fill:none;stroke:#d3d3d3;stroke-linecap:square;stroke-width:1.5;"/>
    <g clip-path="url(#pd92fdb1ba1)">
     <use style="fill:#d3d3d3;stroke:#d3d3d3;" x="102.287727" xlink:href="#m9b28b08867" y="34.52187"/>
     <use style="fill:#d3d3d3;stroke:#d3d3d3;" x="168.038636" xlink:href="#m9b28b08867" y="86.504343"/>
     <use style="fill:#d3d3d3;stroke:#d3d3d3;" x="233.789545" xlink:href="#m9b28b08867" y="122.722102"/>
     <use style="fill:#d3d3d3;stroke:#d3d3d3;" x="299.540455" xlink:href="#m9b28b08867" y="140.103198"/>
     <use style="fill:#d3d3d3;stroke:#d3d3d3;" x="365.291364" xlink:href="#m9b28b08867" y="175.14972"/>
     <use style="fill:#d3d3d3;stroke:#d3d3d3;" x="431.042273" xlink:href="#m9b28b08867" y="230.160301"/>
    </g>
   </g>
   <g id="line2d_25">
    <path clip-path="url(#pd92fdb1ba1)" d="M 102.287727 70.693355 
L 168.038636 89.650631 
L 233.789545 113.528833 
L 299.540455 123.369731 
L 365.291364 162.707593 
L 431.042273 213.177598 
" style="fill:none;stroke:#d3d3d3;stroke-linecap:square;stroke-width:1.5;"/>
    <g clip-path="url(#pd92fdb1ba1)">
     <use style="fill:#d3d3d3;stroke:#d3d3d3;" x="102.287727" xlink:href="#m9b28b08867" y="70.693355"/>
     <use style="fill:#d3d3d3;stroke:#d3d3d3;" x="168.038636" xlink:href="#m9b28b08867" y="89.650631"/>
     <use style="fill:#d3d3d3;stroke:#d3d3d3;" x="233.789545" xlink:href="#m9b28b08867" y="113.528833"/>
     <use style="fill:#d3d3d3;stroke:#d3d3d3;" x="299.540455" xlink:href="#m9b28b08867" y="123.369731"/>
     <use style="fill:#d3d3d3;stroke:#d3d3d3;" x="365.291364" xlink:href="#m9b28b08867" y="162.707593"/>
     <use style="fill:#d3d3d3;stroke:#d3d3d3;" x="431.042273" xlink:href="#m9b28b08867" y="213.177598"/>
    </g>
   </g>
   <g id="line2d_26">
    <path clip-path="url(#pd92fdb1ba1)" d="M 102.287727 65.713143 
L 168.038636 97.564998 
L 233.789545 134.588641 
L 299.540455 170.689617 
L 365.291364 214.577264 
L 431.042273 257.9239 
" style="fill:none;stroke:#d3d3d3;stroke-linecap:square;stroke-width:1.5;"/>
    <g clip-path="url(#pd92fdb1ba1)">
     <use style="fill:#d3d3d3;stroke:#d3d3d3;" x="102.287727" xlink:href="#m9b28b08867" y="65.713143"/>
     <use style="fill:#d3d3d3;stroke:#d3d3d3;" x="168.038636" xlink:href="#m9b28b08867" y="97.564998"/>
     <use style="fill:#d3d3d3;stroke:#d3d3d3;" x="233.789545" xlink:href="#m9b28b08867" y="134.588641"/>
     <use style="fill:#d3d3d3;stroke:#d3d3d3;" x="299.540455" xlink:href="#m9b28b08867" y="170.689617"/>
     <use style="fill:#d3d3d3;stroke:#d3d3d3;" x="365.291364" xlink:href="#m9b28b08867" y="214.577264"/>
     <use style="fill:#d3d3d3;stroke:#d3d3d3;" x="431.042273" xlink:href="#m9b28b08867" y="257.9239"/>
    </g>
   </g>
   <g id="line2d_27">
    <path clip-path="url(#pd92fdb1ba1)" d="M 102.287727 67.67358 
L 168.038636 85.870508 
L 233.789545 114.147562 
L 299.540455 136.965328 
L 365.291364 181.514429 
L 431.042273 251.86086 
" style="fill:none;stroke:#d3d3d3;stroke-linecap:square;stroke-width:1.5;"/>
    <g clip-path="url(#pd92fdb1ba1)">
     <use style="fill:#d3d3d3;stroke:#d3d3d3;" x="102.287727" xlink:href="#m9b28b08867" y="67.67358"/>
     <use style="fill:#d3d3d3;stroke:#d3d3d3;" x="168.038636" xlink:href="#m9b28b08867" y="85.870508"/>
     <use style="fill:#d3d3d3;stroke:#d3d3d3;" x="233.789545" xlink:href="#m9b28b08867" y="114.147562"/>
     <use style="fill:#d3d3d3;stroke:#d3d3d3;" x="299.540455" xlink:href="#m9b28b08867" y="136.965328"/>
     <use style="fill:#d3d3d3;stroke:#d3d3d3;" x="365.291364" xlink:href="#m9b28b08867" y="181.514429"/>
     <use style="fill:#d3d3d3;stroke:#d3d3d3;" x="431.042273" xlink:href="#m9b28b08867" y="251.86086"/>
    </g>
   </g>
   <g id="line2d_28">
    <path clip-path="url(#pd92fdb1ba1)" d="M 102.287727 59.032012 
L 168.038636 79.724491 
L 233.789545 99.522804 
L 299.540455 124.01718 
L 365.291364 162.568371 
L 431.042273 230.510033 
" style="fill:none;stroke:#d3d3d3;stroke-linecap:square;stroke-width:1.5;"/>
    <g clip-path="url(#pd92fdb1ba1)">
     <use style="fill:#d3d3d3;stroke:#d3d3d3;" x="102.287727" xlink:href="#m9b28b08867" y="59.032012"/>
     <use style="fill:#d3d3d3;stroke:#d3d3d3;" x="168.038636" xlink:href="#m9b28b08867" y="79.724491"/>
     <use style="fill:#d3d3d3;stroke:#d3d3d3;" x="233.789545" xlink:href="#m9b28b08867" y="99.522804"/>
     <use style="fill:#d3d3d3;stroke:#d3d3d3;" x="299.540455" xlink:href="#m9b28b08867" y="124.01718"/>
     <use style="fill:#d3d3d3;stroke:#d3d3d3;" x="365.291364" xlink:href="#m9b28b08867" y="162.568371"/>
     <use style="fill:#d3d3d3;stroke:#d3d3d3;" x="431.042273" xlink:href="#m9b28b08867" y="230.510033"/>
    </g>
   </g>
   <g id="line2d_29">
    <path clip-path="url(#pd92fdb1ba1)" d="M 102.287727 63.490182 
L 168.038636 82.940619 
L 233.789545 115.386964 
L 299.540455 160.654956 
L 365.291364 219.912948 
L 431.042273 267.674538 
" style="fill:none;stroke:#d3d3d3;stroke-linecap:square;stroke-width:1.5;"/>
    <g clip-path="url(#pd92fdb1ba1)">
     <use style="fill:#d3d3d3;stroke:#d3d3d3;" x="102.287727" xlink:href="#m9b28b08867" y="63.490182"/>
     <use style="fill:#d3d3d3;stroke:#d3d3d3;" x="168.038636" xlink:href="#m9b28b08867" y="82.940619"/>
     <use style="fill:#d3d3d3;stroke:#d3d3d3;" x="233.789545" xlink:href="#m9b28b08867" y="115.386964"/>
     <use style="fill:#d3d3d3;stroke:#d3d3d3;" x="299.540455" xlink:href="#m9b28b08867" y="160.654956"/>
     <use style="fill:#d3d3d3;stroke:#d3d3d3;" x="365.291364" xlink:href="#m9b28b08867" y="219.912948"/>
     <use style="fill:#d3d3d3;stroke:#d3d3d3;" x="431.042273" xlink:href="#m9b28b08867" y="267.674538"/>
    </g>
   </g>
   <g id="line2d_30">
    <path clip-path="url(#pd92fdb1ba1)" d="M 102.287727 70.703415 
L 168.038636 89.652973 
L 233.789545 113.531315 
L 299.540455 123.361483 
L 365.291364 162.704005 
L 431.042273 213.195176 
" style="fill:none;stroke:#d3d3d3;stroke-linecap:square;stroke-width:1.5;"/>
    <g clip-path="url(#pd92fdb1ba1)">
     <use style="fill:#d3d3d3;stroke:#d3d3d3;" x="102.287727" xlink:href="#m9b28b08867" y="70.703415"/>
     <use style="fill:#d3d3d3;stroke:#d3d3d3;" x="168.038636" xlink:href="#m9b28b08867" y="89.652973"/>
     <use style="fill:#d3d3d3;stroke:#d3d3d3;" x="233.789545" xlink:href="#m9b28b08867" y="113.531315"/>
     <use style="fill:#d3d3d3;stroke:#d3d3d3;" x="299.540455" xlink:href="#m9b28b08867" y="123.361483"/>
     <use style="fill:#d3d3d3;stroke:#d3d3d3;" x="365.291364" xlink:href="#m9b28b08867" y="162.704005"/>
     <use style="fill:#d3d3d3;stroke:#d3d3d3;" x="431.042273" xlink:href="#m9b28b08867" y="213.195176"/>
    </g>
   </g>
   <g id="line2d_31">
    <path clip-path="url(#pd92fdb1ba1)" d="M 102.287727 65.168173 
L 168.038636 80.357041 
L 233.789545 102.886649 
L 299.540455 119.859215 
L 365.291364 154.123976 
L 431.042273 234.147591 
" style="fill:none;stroke:#d3d3d3;stroke-linecap:square;stroke-width:1.5;"/>
    <g clip-path="url(#pd92fdb1ba1)">
     <use style="fill:#d3d3d3;stroke:#d3d3d3;" x="102.287727" xlink:href="#m9b28b08867" y="65.168173"/>
     <use style="fill:#d3d3d3;stroke:#d3d3d3;" x="168.038636" xlink:href="#m9b28b08867" y="80.357041"/>
     <use style="fill:#d3d3d3;stroke:#d3d3d3;" x="233.789545" xlink:href="#m9b28b08867" y="102.886649"/>
     <use style="fill:#d3d3d3;stroke:#d3d3d3;" x="299.540455" xlink:href="#m9b28b08867" y="119.859215"/>
     <use style="fill:#d3d3d3;stroke:#d3d3d3;" x="365.291364" xlink:href="#m9b28b08867" y="154.123976"/>
     <use style="fill:#d3d3d3;stroke:#d3d3d3;" x="431.042273" xlink:href="#m9b28b08867" y="234.147591"/>
    </g>
   </g>
   <g id="line2d_32">
    <path clip-path="url(#pd92fdb1ba1)" d="M 102.287727 65.175357 
L 168.038636 80.365627 
L 233.789545 102.885654 
L 299.540455 119.856005 
L 365.291364 154.127188 
L 431.042273 234.158461 
" style="fill:none;stroke:#d3d3d3;stroke-linecap:square;stroke-width:1.5;"/>
    <g clip-path="url(#pd92fdb1ba1)">
     <use style="fill:#d3d3d3;stroke:#d3d3d3;" x="102.287727" xlink:href="#m9b28b08867" y="65.175357"/>
     <use style="fill:#d3d3d3;stroke:#d3d3d3;" x="168.038636" xlink:href="#m9b28b08867" y="80.365627"/>
     <use style="fill:#d3d3d3;stroke:#d3d3d3;" x="233.789545" xlink:href="#m9b28b08867" y="102.885654"/>
     <use style="fill:#d3d3d3;stroke:#d3d3d3;" x="299.540455" xlink:href="#m9b28b08867" y="119.856005"/>
     <use style="fill:#d3d3d3;stroke:#d3d3d3;" x="365.291364" xlink:href="#m9b28b08867" y="154.127188"/>
     <use style="fill:#d3d3d3;stroke:#d3d3d3;" x="431.042273" xlink:href="#m9b28b08867" y="234.158461"/>
    </g>
   </g>
   <g id="line2d_33">
    <path clip-path="url(#pd92fdb1ba1)" d="M 102.287727 67.32764 
L 168.038636 93.833038 
L 233.789545 126.851019 
L 299.540455 162.644124 
L 365.291364 201.92256 
L 431.042273 252.041301 
" style="fill:none;stroke:#d3d3d3;stroke-linecap:square;stroke-width:1.5;"/>
    <g clip-path="url(#pd92fdb1ba1)">
     <use style="fill:#d3d3d3;stroke:#d3d3d3;" x="102.287727" xlink:href="#m9b28b08867" y="67.32764"/>
     <use style="fill:#d3d3d3;stroke:#d3d3d3;" x="168.038636" xlink:href="#m9b28b08867" y="93.833038"/>
     <use style="fill:#d3d3d3;stroke:#d3d3d3;" x="233.789545" xlink:href="#m9b28b08867" y="126.851019"/>
     <use style="fill:#d3d3d3;stroke:#d3d3d3;" x="299.540455" xlink:href="#m9b28b08867" y="162.644124"/>
     <use style="fill:#d3d3d3;stroke:#d3d3d3;" x="365.291364" xlink:href="#m9b28b08867" y="201.92256"/>
     <use style="fill:#d3d3d3;stroke:#d3d3d3;" x="431.042273" xlink:href="#m9b28b08867" y="252.041301"/>
    </g>
   </g>
   <g id="line2d_34">
    <path clip-path="url(#pd92fdb1ba1)" d="M 102.287727 34.52768 
L 168.038636 86.510405 
L 233.789545 122.72458 
L 299.540455 140.098245 
L 365.291364 175.132504 
L 431.042273 230.150834 
" style="fill:none;stroke:#d3d3d3;stroke-linecap:square;stroke-width:1.5;"/>
    <g clip-path="url(#pd92fdb1ba1)">
     <use style="fill:#d3d3d3;stroke:#d3d3d3;" x="102.287727" xlink:href="#m9b28b08867" y="34.52768"/>
     <use style="fill:#d3d3d3;stroke:#d3d3d3;" x="168.038636" xlink:href="#m9b28b08867" y="86.510405"/>
     <use style="fill:#d3d3d3;stroke:#d3d3d3;" x="233.789545" xlink:href="#m9b28b08867" y="122.72458"/>
     <use style="fill:#d3d3d3;stroke:#d3d3d3;" x="299.540455" xlink:href="#m9b28b08867" y="140.098245"/>
     <use style="fill:#d3d3d3;stroke:#d3d3d3;" x="365.291364" xlink:href="#m9b28b08867" y="175.132504"/>
     <use style="fill:#d3d3d3;stroke:#d3d3d3;" x="431.042273" xlink:href="#m9b28b08867" y="230.150834"/>
    </g>
   </g>
   <g id="line2d_35">
    <path clip-path="url(#pd92fdb1ba1)" d="M 102.287727 73.803456 
L 168.038636 86.819257 
L 233.789545 114.046736 
L 299.540455 143.267849 
L 365.291364 190.789024 
L 431.042273 245.554836 
" style="fill:none;stroke:#d3d3d3;stroke-linecap:square;stroke-width:1.5;"/>
    <g clip-path="url(#pd92fdb1ba1)">
     <use style="fill:#d3d3d3;stroke:#d3d3d3;" x="102.287727" xlink:href="#m9b28b08867" y="73.803456"/>
     <use style="fill:#d3d3d3;stroke:#d3d3d3;" x="168.038636" xlink:href="#m9b28b08867" y="86.819257"/>
     <use style="fill:#d3d3d3;stroke:#d3d3d3;" x="233.789545" xlink:href="#m9b28b08867" y="114.046736"/>
     <use style="fill:#d3d3d3;stroke:#d3d3d3;" x="299.540455" xlink:href="#m9b28b08867" y="143.267849"/>
     <use style="fill:#d3d3d3;stroke:#d3d3d3;" x="365.291364" xlink:href="#m9b28b08867" y="190.789024"/>
     <use style="fill:#d3d3d3;stroke:#d3d3d3;" x="431.042273" xlink:href="#m9b28b08867" y="245.554836"/>
    </g>
   </g>
   <g id="line2d_36">
    <path clip-path="url(#pd92fdb1ba1)" d="M 102.287727 67.132202 
L 168.038636 95.24352 
L 233.789545 132.157028 
L 299.540455 169.116295 
L 365.291364 219.504291 
L 431.042273 263.403392 
" style="fill:none;stroke:#d3d3d3;stroke-linecap:square;stroke-width:1.5;"/>
    <g clip-path="url(#pd92fdb1ba1)">
     <use style="fill:#d3d3d3;stroke:#d3d3d3;" x="102.287727" xlink:href="#m9b28b08867" y="67.132202"/>
     <use style="fill:#d3d3d3;stroke:#d3d3d3;" x="168.038636" xlink:href="#m9b28b08867" y="95.24352"/>
     <use style="fill:#d3d3d3;stroke:#d3d3d3;" x="233.789545" xlink:href="#m9b28b08867" y="132.157028"/>
     <use style="fill:#d3d3d3;stroke:#d3d3d3;" x="299.540455" xlink:href="#m9b28b08867" y="169.116295"/>
     <use style="fill:#d3d3d3;stroke:#d3d3d3;" x="365.291364" xlink:href="#m9b28b08867" y="219.504291"/>
     <use style="fill:#d3d3d3;stroke:#d3d3d3;" x="431.042273" xlink:href="#m9b28b08867" y="263.403392"/>
    </g>
   </g>
   <g id="line2d_37">
    <path clip-path="url(#pd92fdb1ba1)" d="M 102.287727 66.97936 
L 168.038636 84.333445 
L 233.789545 113.54861 
L 299.540455 148.25912 
L 365.291364 204.168132 
L 431.042273 255.89334 
" style="fill:none;stroke:#d3d3d3;stroke-linecap:square;stroke-width:1.5;"/>
    <g clip-path="url(#pd92fdb1ba1)">
     <use style="fill:#d3d3d3;stroke:#d3d3d3;" x="102.287727" xlink:href="#m9b28b08867" y="66.97936"/>
     <use style="fill:#d3d3d3;stroke:#d3d3d3;" x="168.038636" xlink:href="#m9b28b08867" y="84.333445"/>
     <use style="fill:#d3d3d3;stroke:#d3d3d3;" x="233.789545" xlink:href="#m9b28b08867" y="113.54861"/>
     <use style="fill:#d3d3d3;stroke:#d3d3d3;" x="299.540455" xlink:href="#m9b28b08867" y="148.25912"/>
     <use style="fill:#d3d3d3;stroke:#d3d3d3;" x="365.291364" xlink:href="#m9b28b08867" y="204.168132"/>
     <use style="fill:#d3d3d3;stroke:#d3d3d3;" x="431.042273" xlink:href="#m9b28b08867" y="255.89334"/>
    </g>
   </g>
   <g id="line2d_38">
    <path clip-path="url(#pd92fdb1ba1)" d="M 102.287727 57.544459 
L 168.038636 79.611342 
L 233.789545 113.142045 
L 299.540455 150.06479 
L 365.291364 210.784033 
L 431.042273 259.444067 
" style="fill:none;stroke:#d3d3d3;stroke-linecap:square;stroke-width:1.5;"/>
    <g clip-path="url(#pd92fdb1ba1)">
     <use style="fill:#d3d3d3;stroke:#d3d3d3;" x="102.287727" xlink:href="#m9b28b08867" y="57.544459"/>
     <use style="fill:#d3d3d3;stroke:#d3d3d3;" x="168.038636" xlink:href="#m9b28b08867" y="79.611342"/>
     <use style="fill:#d3d3d3;stroke:#d3d3d3;" x="233.789545" xlink:href="#m9b28b08867" y="113.142045"/>
     <use style="fill:#d3d3d3;stroke:#d3d3d3;" x="299.540455" xlink:href="#m9b28b08867" y="150.06479"/>
     <use style="fill:#d3d3d3;stroke:#d3d3d3;" x="365.291364" xlink:href="#m9b28b08867" y="210.784033"/>
     <use style="fill:#d3d3d3;stroke:#d3d3d3;" x="431.042273" xlink:href="#m9b28b08867" y="259.444067"/>
    </g>
   </g>
   <g id="patch_3">
    <path d="M 85.85 289.24 
L 85.85 17.64 
" style="fill:none;stroke:#000000;stroke-linecap:square;stroke-linejoin:miter;stroke-width:0.8;"/>
   </g>
   <g id="patch_4">
    <path d="M 447.48 289.24 
L 447.48 17.64 
" style="fill:none;stroke:#000000;stroke-linecap:square;stroke-linejoin:miter;stroke-width:0.8;"/>
   </g>
   <g id="patch_5">
    <path d="M 85.85 289.24 
L 447.48 289.24 
" style="fill:none;stroke:#000000;stroke-linecap:square;stroke-linejoin:miter;stroke-width:0.8;"/>
   </g>
   <g id="patch_6">
    <path d="M 85.85 17.64 
L 447.48 17.64 
" style="fill:none;stroke:#000000;stroke-linecap:square;stroke-linejoin:miter;stroke-width:0.8;"/>
   </g>
   <g id="LineCollection_1">
    <path clip-path="url(#pd92fdb1ba1)" d="M 102.287727 72.993234 
L 102.287727 53.421923 
" style="fill:none;stroke:#ff0000;stroke-width:2;"/>
    <path clip-path="url(#pd92fdb1ba1)" d="M 168.038636 98.532549 
L 168.038636 82.161807 
" style="fill:none;stroke:#ff0000;stroke-width:2;"/>
    <path clip-path="url(#pd92fdb1ba1)" d="M 233.789545 133.224656 
L 233.789545 109.129335 
" style="fill:none;stroke:#ff0000;stroke-width:2;"/>
    <path clip-path="url(#pd92fdb1ba1)" d="M 299.540455 161.921552 
L 299.540455 128.917877 
" style="fill:none;stroke:#ff0000;stroke-width:2;"/>
    <path clip-path="url(#pd92fdb1ba1)" d="M 365.291364 210.20924 
L 365.291364 167.061267 
" style="fill:none;stroke:#ff0000;stroke-width:2;"/>
    <path clip-path="url(#pd92fdb1ba1)" d="M 431.042273 259.118338 
L 431.042273 228.226799 
" style="fill:none;stroke:#ff0000;stroke-width:2;"/>
   </g>
   <g id="line2d_39">
    <defs>
     <path d="M 5 0 
L -5 -0 
" id="me018a11bee" style="stroke:#ff0000;"/>
    </defs>
    <g clip-path="url(#pd92fdb1ba1)">
     <use style="fill:#ff0000;stroke:#ff0000;" x="102.287727" xlink:href="#me018a11bee" y="72.993234"/>
     <use style="fill:#ff0000;stroke:#ff0000;" x="168.038636" xlink:href="#me018a11bee" y="98.532549"/>
     <use style="fill:#ff0000;stroke:#ff0000;" x="233.789545" xlink:href="#me018a11bee" y="133.224656"/>
     <use style="fill:#ff0000;stroke:#ff0000;" x="299.540455" xlink:href="#me018a11bee" y="161.921552"/>
     <use style="fill:#ff0000;stroke:#ff0000;" x="365.291364" xlink:href="#me018a11bee" y="210.20924"/>
     <use style="fill:#ff0000;stroke:#ff0000;" x="431.042273" xlink:href="#me018a11bee" y="259.118338"/>
    </g>
   </g>
   <g id="line2d_40">
    <g clip-path="url(#pd92fdb1ba1)">
     <use style="fill:#ff0000;stroke:#ff0000;" x="102.287727" xlink:href="#me018a11bee" y="53.421923"/>
     <use style="fill:#ff0000;stroke:#ff0000;" x="168.038636" xlink:href="#me018a11bee" y="82.161807"/>
     <use style="fill:#ff0000;stroke:#ff0000;" x="233.789545" xlink:href="#me018a11bee" y="109.129335"/>
     <use style="fill:#ff0000;stroke:#ff0000;" x="299.540455" xlink:href="#me018a11bee" y="128.917877"/>
     <use style="fill:#ff0000;stroke:#ff0000;" x="365.291364" xlink:href="#me018a11bee" y="167.061267"/>
     <use style="fill:#ff0000;stroke:#ff0000;" x="431.042273" xlink:href="#me018a11bee" y="228.226799"/>
    </g>
   </g>
   <g id="line2d_41">
    <path clip-path="url(#pd92fdb1ba1)" d="M 102.287727 63.207579 
L 168.038636 90.347178 
L 233.789545 121.176995 
L 299.540455 145.419714 
L 365.291364 188.635254 
L 431.042273 243.672568 
" style="fill:none;stroke:#ff0000;stroke-linecap:square;stroke-width:2;"/>
    <defs>
     <path d="M 0 3 
C 0.795609 3 1.55874 2.683901 2.12132 2.12132 
C 2.683901 1.55874 3 0.795609 3 0 
C 3 -0.795609 2.683901 -1.55874 2.12132 -2.12132 
C 1.55874 -2.683901 0.795609 -3 0 -3 
C -0.795609 -3 -1.55874 -2.683901 -2.12132 -2.12132 
C -2.683901 -1.55874 -3 -0.795609 -3 0 
C -3 0.795609 -2.683901 1.55874 -2.12132 2.12132 
C -1.55874 2.683901 -0.795609 3 0 3 
z
" id="m12fc2259c4" style="stroke:#ff0000;"/>
    </defs>
    <g clip-path="url(#pd92fdb1ba1)">
     <use style="fill:#ff0000;stroke:#ff0000;" x="102.287727" xlink:href="#m12fc2259c4" y="63.207579"/>
     <use style="fill:#ff0000;stroke:#ff0000;" x="168.038636" xlink:href="#m12fc2259c4" y="90.347178"/>
     <use style="fill:#ff0000;stroke:#ff0000;" x="233.789545" xlink:href="#m12fc2259c4" y="121.176995"/>
     <use style="fill:#ff0000;stroke:#ff0000;" x="299.540455" xlink:href="#m12fc2259c4" y="145.419714"/>
     <use style="fill:#ff0000;stroke:#ff0000;" x="365.291364" xlink:href="#m12fc2259c4" y="188.635254"/>
     <use style="fill:#ff0000;stroke:#ff0000;" x="431.042273" xlink:href="#m12fc2259c4" y="243.672568"/>
    </g>
   </g>
  </g>
 </g>
 <defs>
  <clipPath id="pd92fdb1ba1">
   <rect height="271.6" width="361.63" x="85.85" y="17.64"/>
  </clipPath>
 </defs>
</svg>
