<?xml version="1.0" encoding="utf-8" standalone="no"?>
<!DOCTYPE svg PUBLIC "-//W3C//DTD SVG 1.1//EN"
  "http://www.w3.org/Graphics/SVG/1.1/DTD/svg11.dtd">
<!-- Created with matplotlib (https://matplotlib.org/) -->
<svg height="345.6pt" version="1.1" viewBox="0 0 460.8 345.6" width="460.8pt" xmlns="http://www.w3.org/2000/svg" xmlns:xlink="http://www.w3.org/1999/xlink">
 <defs>
  <style type="text/css">
*{stroke-linecap:butt;stroke-linejoin:round;}
  </style>
 </defs>
 <g id="figure_1">
  <g id="patch_1">
   <path d="M 0 345.6 
L 460.8 345.6 
L 460.8 0 
L 0 0 
z
" style="fill:#ffffff;"/>
  </g>
  <g id="axes_1">
   <g id="patch_2">
    <path d="M 57.6 307.584 
L 414.72 307.584 
L 414.72 41.472 
L 57.6 41.472 
z
" style="fill:#ffffff;"/>
   </g>
   <g id="matplotlib.axis_1">
    <g id="xtick_1">
     <g id="line2d_1">
      <defs>
       <path d="M 0 0 
L 0 3.5 
" id="mfce961ee2a" style="stroke:#000000;stroke-width:0.8;"/>
      </defs>
      <g>
       <use style="stroke:#000000;stroke-width:0.8;" x="73.832727" xlink:href="#mfce961ee2a" y="307.584"/>
      </g>
     </g>
     <g id="text_1">
      <!-- 1 -->
      <defs>
       <path d="M 12.40625 8.296875 
L 28.515625 8.296875 
L 28.515625 63.921875 
L 10.984375 60.40625 
L 10.984375 69.390625 
L 28.421875 72.90625 
L 38.28125 72.90625 
L 38.28125 8.296875 
L 54.390625 8.296875 
L 54.390625 0 
L 12.40625 0 
z
" id="DejaVuSans-49"/>
      </defs>
      <g transform="translate(69.378977 325.221812)scale(0.14 -0.14)">
       <use xlink:href="#DejaVuSans-49"/>
      </g>
     </g>
    </g>
    <g id="xtick_2">
     <g id="line2d_2">
      <g>
       <use style="stroke:#000000;stroke-width:0.8;" x="154.996364" xlink:href="#mfce961ee2a" y="307.584"/>
      </g>
     </g>
     <g id="text_2">
      <!-- 2 -->
      <defs>
       <path d="M 19.1875 8.296875 
L 53.609375 8.296875 
L 53.609375 0 
L 7.328125 0 
L 7.328125 8.296875 
Q 12.9375 14.109375 22.625 23.890625 
Q 32.328125 33.6875 34.8125 36.53125 
Q 39.546875 41.84375 41.421875 45.53125 
Q 43.3125 49.21875 43.3125 52.78125 
Q 43.3125 58.59375 39.234375 62.25 
Q 35.15625 65.921875 28.609375 65.921875 
Q 23.96875 65.921875 18.8125 64.3125 
Q 13.671875 62.703125 7.8125 59.421875 
L 7.8125 69.390625 
Q 13.765625 71.78125 18.9375 73 
Q 24.125 74.21875 28.421875 74.21875 
Q 39.75 74.21875 46.484375 68.546875 
Q 53.21875 62.890625 53.21875 53.421875 
Q 53.21875 48.921875 51.53125 44.890625 
Q 49.859375 40.875 45.40625 35.40625 
Q 44.1875 33.984375 37.640625 27.21875 
Q 31.109375 20.453125 19.1875 8.296875 
z
" id="DejaVuSans-50"/>
      </defs>
      <g transform="translate(150.542614 325.221812)scale(0.14 -0.14)">
       <use xlink:href="#DejaVuSans-50"/>
      </g>
     </g>
    </g>
    <g id="xtick_3">
     <g id="line2d_3">
      <g>
       <use style="stroke:#000000;stroke-width:0.8;" x="236.16" xlink:href="#mfce961ee2a" y="307.584"/>
      </g>
     </g>
     <g id="text_3">
      <!-- 3 -->
      <defs>
       <path d="M 40.578125 39.3125 
Q 47.65625 37.796875 51.625 33 
Q 55.609375 28.21875 55.609375 21.1875 
Q 55.609375 10.40625 48.1875 4.484375 
Q 40.765625 -1.421875 27.09375 -1.421875 
Q 22.515625 -1.421875 17.65625 -0.515625 
Q 12.796875 0.390625 7.625 2.203125 
L 7.625 11.71875 
Q 11.71875 9.328125 16.59375 8.109375 
Q 21.484375 6.890625 26.8125 6.890625 
Q 36.078125 6.890625 40.9375 10.546875 
Q 45.796875 14.203125 45.796875 21.1875 
Q 45.796875 27.640625 41.28125 31.265625 
Q 36.765625 34.90625 28.71875 34.90625 
L 20.21875 34.90625 
L 20.21875 43.015625 
L 29.109375 43.015625 
Q 36.375 43.015625 40.234375 45.921875 
Q 44.09375 48.828125 44.09375 54.296875 
Q 44.09375 59.90625 40.109375 62.90625 
Q 36.140625 65.921875 28.71875 65.921875 
Q 24.65625 65.921875 20.015625 65.03125 
Q 15.375 64.15625 9.8125 62.3125 
L 9.8125 71.09375 
Q 15.4375 72.65625 20.34375 73.4375 
Q 25.25 74.21875 29.59375 74.21875 
Q 40.828125 74.21875 47.359375 69.109375 
Q 53.90625 64.015625 53.90625 55.328125 
Q 53.90625 49.265625 50.4375 45.09375 
Q 46.96875 40.921875 40.578125 39.3125 
z
" id="DejaVuSans-51"/>
      </defs>
      <g transform="translate(231.70625 325.221812)scale(0.14 -0.14)">
       <use xlink:href="#DejaVuSans-51"/>
      </g>
     </g>
    </g>
    <g id="xtick_4">
     <g id="line2d_4">
      <g>
       <use style="stroke:#000000;stroke-width:0.8;" x="317.323636" xlink:href="#mfce961ee2a" y="307.584"/>
      </g>
     </g>
     <g id="text_4">
      <!-- 4 -->
      <defs>
       <path d="M 37.796875 64.3125 
L 12.890625 25.390625 
L 37.796875 25.390625 
z
M 35.203125 72.90625 
L 47.609375 72.90625 
L 47.609375 25.390625 
L 58.015625 25.390625 
L 58.015625 17.1875 
L 47.609375 17.1875 
L 47.609375 0 
L 37.796875 0 
L 37.796875 17.1875 
L 4.890625 17.1875 
L 4.890625 26.703125 
z
" id="DejaVuSans-52"/>
      </defs>
      <g transform="translate(312.869886 325.221812)scale(0.14 -0.14)">
       <use xlink:href="#DejaVuSans-52"/>
      </g>
     </g>
    </g>
    <g id="xtick_5">
     <g id="line2d_5">
      <g>
       <use style="stroke:#000000;stroke-width:0.8;" x="398.487273" xlink:href="#mfce961ee2a" y="307.584"/>
      </g>
     </g>
     <g id="text_5">
      <!-- 5 -->
      <defs>
       <path d="M 10.796875 72.90625 
L 49.515625 72.90625 
L 49.515625 64.59375 
L 19.828125 64.59375 
L 19.828125 46.734375 
Q 21.96875 47.46875 24.109375 47.828125 
Q 26.265625 48.1875 28.421875 48.1875 
Q 40.625 48.1875 47.75 41.5 
Q 54.890625 34.8125 54.890625 23.390625 
Q 54.890625 11.625 47.5625 5.09375 
Q 40.234375 -1.421875 26.90625 -1.421875 
Q 22.3125 -1.421875 17.546875 -0.640625 
Q 12.796875 0.140625 7.71875 1.703125 
L 7.71875 11.625 
Q 12.109375 9.234375 16.796875 8.0625 
Q 21.484375 6.890625 26.703125 6.890625 
Q 35.15625 6.890625 40.078125 11.328125 
Q 45.015625 15.765625 45.015625 23.390625 
Q 45.015625 31 40.078125 35.4375 
Q 35.15625 39.890625 26.703125 39.890625 
Q 22.75 39.890625 18.8125 39.015625 
Q 14.890625 38.140625 10.796875 36.28125 
z
" id="DejaVuSans-53"/>
      </defs>
      <g transform="translate(394.033523 325.221812)scale(0.14 -0.14)">
       <use xlink:href="#DejaVuSans-53"/>
      </g>
     </g>
    </g>
    <g id="text_6">
     <!-- $\beta_i$ -->
     <defs>
      <path d="M 13.625 3.375 
L 8.9375 -20.796875 
L -0.09375 -20.796875 
L 14.5 54.34375 
Q 18.84375 76.609375 39.65625 76.609375 
Q 60.75 76.609375 57.171875 57.8125 
Q 54.734375 44.4375 45.21875 39.546875 
Q 58.015625 35.15625 55.515625 22.125 
Q 51.125 -1.078125 27.484375 -1.03125 
Q 17.140625 -0.984375 13.625 3.375 
z
M 15.921875 15.09375 
Q 19.671875 6.59375 29.296875 6.640625 
Q 43.359375 6.640625 46.34375 21.96875 
Q 49.03125 35.75 26.171875 34.671875 
L 27.78125 42.96875 
Q 45.453125 42.671875 48.53125 58.59375 
Q 50.640625 69.34375 39.203125 69.28125 
Q 26.421875 69.28125 23.484375 54.046875 
z
" id="DejaVuSans-Oblique-946"/>
      <path d="M 18.3125 75.984375 
L 27.296875 75.984375 
L 25.09375 64.59375 
L 16.109375 64.59375 
z
M 14.203125 54.6875 
L 23.1875 54.6875 
L 12.5 0 
L 3.515625 0 
z
" id="DejaVuSans-Oblique-105"/>
     </defs>
     <g transform="translate(230.07 342.913375)scale(0.14 -0.14)">
      <use transform="translate(0 0.390625)" xlink:href="#DejaVuSans-Oblique-946"/>
      <use transform="translate(63.818359 -16.015625)scale(0.7)" xlink:href="#DejaVuSans-Oblique-105"/>
     </g>
    </g>
   </g>
   <g id="matplotlib.axis_2">
    <g id="ytick_1">
     <g id="line2d_6">
      <defs>
       <path d="M 0 0 
L -3.5 0 
" id="ma30e545552" style="stroke:#000000;stroke-width:0.8;"/>
      </defs>
      <g>
       <use style="stroke:#000000;stroke-width:0.8;" x="57.6" xlink:href="#ma30e545552" y="280.329897"/>
      </g>
     </g>
     <g id="text_7">
      <!-- 0.02 -->
      <defs>
       <path d="M 31.78125 66.40625 
Q 24.171875 66.40625 20.328125 58.90625 
Q 16.5 51.421875 16.5 36.375 
Q 16.5 21.390625 20.328125 13.890625 
Q 24.171875 6.390625 31.78125 6.390625 
Q 39.453125 6.390625 43.28125 13.890625 
Q 47.125 21.390625 47.125 36.375 
Q 47.125 51.421875 43.28125 58.90625 
Q 39.453125 66.40625 31.78125 66.40625 
z
M 31.78125 74.21875 
Q 44.046875 74.21875 50.515625 64.515625 
Q 56.984375 54.828125 56.984375 36.375 
Q 56.984375 17.96875 50.515625 8.265625 
Q 44.046875 -1.421875 31.78125 -1.421875 
Q 19.53125 -1.421875 13.0625 8.265625 
Q 6.59375 17.96875 6.59375 36.375 
Q 6.59375 54.828125 13.0625 64.515625 
Q 19.53125 74.21875 31.78125 74.21875 
z
" id="DejaVuSans-48"/>
       <path d="M 10.6875 12.40625 
L 21 12.40625 
L 21 0 
L 10.6875 0 
z
" id="DejaVuSans-46"/>
      </defs>
      <g transform="translate(19.428125 285.648803)scale(0.14 -0.14)">
       <use xlink:href="#DejaVuSans-48"/>
       <use x="63.623047" xlink:href="#DejaVuSans-46"/>
       <use x="95.410156" xlink:href="#DejaVuSans-48"/>
       <use x="159.033203" xlink:href="#DejaVuSans-50"/>
      </g>
     </g>
    </g>
    <g id="ytick_2">
     <g id="line2d_7">
      <g>
       <use style="stroke:#000000;stroke-width:0.8;" x="57.6" xlink:href="#ma30e545552" y="243.957547"/>
      </g>
     </g>
     <g id="text_8">
      <!-- 0.04 -->
      <g transform="translate(19.428125 249.276453)scale(0.14 -0.14)">
       <use xlink:href="#DejaVuSans-48"/>
       <use x="63.623047" xlink:href="#DejaVuSans-46"/>
       <use x="95.410156" xlink:href="#DejaVuSans-48"/>
       <use x="159.033203" xlink:href="#DejaVuSans-52"/>
      </g>
     </g>
    </g>
    <g id="ytick_3">
     <g id="line2d_8">
      <g>
       <use style="stroke:#000000;stroke-width:0.8;" x="57.6" xlink:href="#ma30e545552" y="207.585197"/>
      </g>
     </g>
     <g id="text_9">
      <!-- 0.06 -->
      <defs>
       <path d="M 33.015625 40.375 
Q 26.375 40.375 22.484375 35.828125 
Q 18.609375 31.296875 18.609375 23.390625 
Q 18.609375 15.53125 22.484375 10.953125 
Q 26.375 6.390625 33.015625 6.390625 
Q 39.65625 6.390625 43.53125 10.953125 
Q 47.40625 15.53125 47.40625 23.390625 
Q 47.40625 31.296875 43.53125 35.828125 
Q 39.65625 40.375 33.015625 40.375 
z
M 52.59375 71.296875 
L 52.59375 62.3125 
Q 48.875 64.0625 45.09375 64.984375 
Q 41.3125 65.921875 37.59375 65.921875 
Q 27.828125 65.921875 22.671875 59.328125 
Q 17.53125 52.734375 16.796875 39.40625 
Q 19.671875 43.65625 24.015625 45.921875 
Q 28.375 48.1875 33.59375 48.1875 
Q 44.578125 48.1875 50.953125 41.515625 
Q 57.328125 34.859375 57.328125 23.390625 
Q 57.328125 12.15625 50.6875 5.359375 
Q 44.046875 -1.421875 33.015625 -1.421875 
Q 20.359375 -1.421875 13.671875 8.265625 
Q 6.984375 17.96875 6.984375 36.375 
Q 6.984375 53.65625 15.1875 63.9375 
Q 23.390625 74.21875 37.203125 74.21875 
Q 40.921875 74.21875 44.703125 73.484375 
Q 48.484375 72.75 52.59375 71.296875 
z
" id="DejaVuSans-54"/>
      </defs>
      <g transform="translate(19.428125 212.904103)scale(0.14 -0.14)">
       <use xlink:href="#DejaVuSans-48"/>
       <use x="63.623047" xlink:href="#DejaVuSans-46"/>
       <use x="95.410156" xlink:href="#DejaVuSans-48"/>
       <use x="159.033203" xlink:href="#DejaVuSans-54"/>
      </g>
     </g>
    </g>
    <g id="ytick_4">
     <g id="line2d_9">
      <g>
       <use style="stroke:#000000;stroke-width:0.8;" x="57.6" xlink:href="#ma30e545552" y="171.212847"/>
      </g>
     </g>
     <g id="text_10">
      <!-- 0.08 -->
      <defs>
       <path d="M 31.78125 34.625 
Q 24.75 34.625 20.71875 30.859375 
Q 16.703125 27.09375 16.703125 20.515625 
Q 16.703125 13.921875 20.71875 10.15625 
Q 24.75 6.390625 31.78125 6.390625 
Q 38.8125 6.390625 42.859375 10.171875 
Q 46.921875 13.96875 46.921875 20.515625 
Q 46.921875 27.09375 42.890625 30.859375 
Q 38.875 34.625 31.78125 34.625 
z
M 21.921875 38.8125 
Q 15.578125 40.375 12.03125 44.71875 
Q 8.5 49.078125 8.5 55.328125 
Q 8.5 64.0625 14.71875 69.140625 
Q 20.953125 74.21875 31.78125 74.21875 
Q 42.671875 74.21875 48.875 69.140625 
Q 55.078125 64.0625 55.078125 55.328125 
Q 55.078125 49.078125 51.53125 44.71875 
Q 48 40.375 41.703125 38.8125 
Q 48.828125 37.15625 52.796875 32.3125 
Q 56.78125 27.484375 56.78125 20.515625 
Q 56.78125 9.90625 50.3125 4.234375 
Q 43.84375 -1.421875 31.78125 -1.421875 
Q 19.734375 -1.421875 13.25 4.234375 
Q 6.78125 9.90625 6.78125 20.515625 
Q 6.78125 27.484375 10.78125 32.3125 
Q 14.796875 37.15625 21.921875 38.8125 
z
M 18.3125 54.390625 
Q 18.3125 48.734375 21.84375 45.5625 
Q 25.390625 42.390625 31.78125 42.390625 
Q 38.140625 42.390625 41.71875 45.5625 
Q 45.3125 48.734375 45.3125 54.390625 
Q 45.3125 60.0625 41.71875 63.234375 
Q 38.140625 66.40625 31.78125 66.40625 
Q 25.390625 66.40625 21.84375 63.234375 
Q 18.3125 60.0625 18.3125 54.390625 
z
" id="DejaVuSans-56"/>
      </defs>
      <g transform="translate(19.428125 176.531754)scale(0.14 -0.14)">
       <use xlink:href="#DejaVuSans-48"/>
       <use x="63.623047" xlink:href="#DejaVuSans-46"/>
       <use x="95.410156" xlink:href="#DejaVuSans-48"/>
       <use x="159.033203" xlink:href="#DejaVuSans-56"/>
      </g>
     </g>
    </g>
    <g id="ytick_5">
     <g id="line2d_10">
      <g>
       <use style="stroke:#000000;stroke-width:0.8;" x="57.6" xlink:href="#ma30e545552" y="134.840497"/>
      </g>
     </g>
     <g id="text_11">
      <!-- 0.10 -->
      <g transform="translate(19.428125 140.159404)scale(0.14 -0.14)">
       <use xlink:href="#DejaVuSans-48"/>
       <use x="63.623047" xlink:href="#DejaVuSans-46"/>
       <use x="95.410156" xlink:href="#DejaVuSans-49"/>
       <use x="159.033203" xlink:href="#DejaVuSans-48"/>
      </g>
     </g>
    </g>
    <g id="ytick_6">
     <g id="line2d_11">
      <g>
       <use style="stroke:#000000;stroke-width:0.8;" x="57.6" xlink:href="#ma30e545552" y="98.468148"/>
      </g>
     </g>
     <g id="text_12">
      <!-- 0.12 -->
      <g transform="translate(19.428125 103.787054)scale(0.14 -0.14)">
       <use xlink:href="#DejaVuSans-48"/>
       <use x="63.623047" xlink:href="#DejaVuSans-46"/>
       <use x="95.410156" xlink:href="#DejaVuSans-49"/>
       <use x="159.033203" xlink:href="#DejaVuSans-50"/>
      </g>
     </g>
    </g>
    <g id="ytick_7">
     <g id="line2d_12">
      <g>
       <use style="stroke:#000000;stroke-width:0.8;" x="57.6" xlink:href="#ma30e545552" y="62.095798"/>
      </g>
     </g>
     <g id="text_13">
      <!-- 0.14 -->
      <g transform="translate(19.428125 67.414704)scale(0.14 -0.14)">
       <use xlink:href="#DejaVuSans-48"/>
       <use x="63.623047" xlink:href="#DejaVuSans-46"/>
       <use x="95.410156" xlink:href="#DejaVuSans-49"/>
       <use x="159.033203" xlink:href="#DejaVuSans-52"/>
      </g>
     </g>
    </g>
    <g id="text_14">
     <!-- Value of $\beta_i$ -->
     <defs>
      <path d="M 28.609375 0 
L 0.78125 72.90625 
L 11.078125 72.90625 
L 34.1875 11.53125 
L 57.328125 72.90625 
L 67.578125 72.90625 
L 39.796875 0 
z
" id="DejaVuSans-86"/>
      <path d="M 34.28125 27.484375 
Q 23.390625 27.484375 19.1875 25 
Q 14.984375 22.515625 14.984375 16.5 
Q 14.984375 11.71875 18.140625 8.90625 
Q 21.296875 6.109375 26.703125 6.109375 
Q 34.1875 6.109375 38.703125 11.40625 
Q 43.21875 16.703125 43.21875 25.484375 
L 43.21875 27.484375 
z
M 52.203125 31.203125 
L 52.203125 0 
L 43.21875 0 
L 43.21875 8.296875 
Q 40.140625 3.328125 35.546875 0.953125 
Q 30.953125 -1.421875 24.3125 -1.421875 
Q 15.921875 -1.421875 10.953125 3.296875 
Q 6 8.015625 6 15.921875 
Q 6 25.140625 12.171875 29.828125 
Q 18.359375 34.515625 30.609375 34.515625 
L 43.21875 34.515625 
L 43.21875 35.40625 
Q 43.21875 41.609375 39.140625 45 
Q 35.0625 48.390625 27.6875 48.390625 
Q 23 48.390625 18.546875 47.265625 
Q 14.109375 46.140625 10.015625 43.890625 
L 10.015625 52.203125 
Q 14.9375 54.109375 19.578125 55.046875 
Q 24.21875 56 28.609375 56 
Q 40.484375 56 46.34375 49.84375 
Q 52.203125 43.703125 52.203125 31.203125 
z
" id="DejaVuSans-97"/>
      <path d="M 9.421875 75.984375 
L 18.40625 75.984375 
L 18.40625 0 
L 9.421875 0 
z
" id="DejaVuSans-108"/>
      <path d="M 8.5 21.578125 
L 8.5 54.6875 
L 17.484375 54.6875 
L 17.484375 21.921875 
Q 17.484375 14.15625 20.5 10.265625 
Q 23.53125 6.390625 29.59375 6.390625 
Q 36.859375 6.390625 41.078125 11.03125 
Q 45.3125 15.671875 45.3125 23.6875 
L 45.3125 54.6875 
L 54.296875 54.6875 
L 54.296875 0 
L 45.3125 0 
L 45.3125 8.40625 
Q 42.046875 3.421875 37.71875 1 
Q 33.40625 -1.421875 27.6875 -1.421875 
Q 18.265625 -1.421875 13.375 4.4375 
Q 8.5 10.296875 8.5 21.578125 
z
M 31.109375 56 
z
" id="DejaVuSans-117"/>
      <path d="M 56.203125 29.59375 
L 56.203125 25.203125 
L 14.890625 25.203125 
Q 15.484375 15.921875 20.484375 11.0625 
Q 25.484375 6.203125 34.421875 6.203125 
Q 39.59375 6.203125 44.453125 7.46875 
Q 49.3125 8.734375 54.109375 11.28125 
L 54.109375 2.78125 
Q 49.265625 0.734375 44.1875 -0.34375 
Q 39.109375 -1.421875 33.890625 -1.421875 
Q 20.796875 -1.421875 13.15625 6.1875 
Q 5.515625 13.8125 5.515625 26.8125 
Q 5.515625 40.234375 12.765625 48.109375 
Q 20.015625 56 32.328125 56 
Q 43.359375 56 49.78125 48.890625 
Q 56.203125 41.796875 56.203125 29.59375 
z
M 47.21875 32.234375 
Q 47.125 39.59375 43.09375 43.984375 
Q 39.0625 48.390625 32.421875 48.390625 
Q 24.90625 48.390625 20.390625 44.140625 
Q 15.875 39.890625 15.1875 32.171875 
z
" id="DejaVuSans-101"/>
      <path id="DejaVuSans-32"/>
      <path d="M 30.609375 48.390625 
Q 23.390625 48.390625 19.1875 42.75 
Q 14.984375 37.109375 14.984375 27.296875 
Q 14.984375 17.484375 19.15625 11.84375 
Q 23.34375 6.203125 30.609375 6.203125 
Q 37.796875 6.203125 41.984375 11.859375 
Q 46.1875 17.53125 46.1875 27.296875 
Q 46.1875 37.015625 41.984375 42.703125 
Q 37.796875 48.390625 30.609375 48.390625 
z
M 30.609375 56 
Q 42.328125 56 49.015625 48.375 
Q 55.71875 40.765625 55.71875 27.296875 
Q 55.71875 13.875 49.015625 6.21875 
Q 42.328125 -1.421875 30.609375 -1.421875 
Q 18.84375 -1.421875 12.171875 6.21875 
Q 5.515625 13.875 5.515625 27.296875 
Q 5.515625 40.765625 12.171875 48.375 
Q 18.84375 56 30.609375 56 
z
" id="DejaVuSans-111"/>
      <path d="M 37.109375 75.984375 
L 37.109375 68.5 
L 28.515625 68.5 
Q 23.6875 68.5 21.796875 66.546875 
Q 19.921875 64.59375 19.921875 59.515625 
L 19.921875 54.6875 
L 34.71875 54.6875 
L 34.71875 47.703125 
L 19.921875 47.703125 
L 19.921875 0 
L 10.890625 0 
L 10.890625 47.703125 
L 2.296875 47.703125 
L 2.296875 54.6875 
L 10.890625 54.6875 
L 10.890625 58.5 
Q 10.890625 67.625 15.140625 71.796875 
Q 19.390625 75.984375 28.609375 75.984375 
z
" id="DejaVuSans-102"/>
     </defs>
     <g transform="translate(12.488125 211.558)rotate(-90)scale(0.14 -0.14)">
      <use transform="translate(0 0.390625)" xlink:href="#DejaVuSans-86"/>
      <use transform="translate(68.408203 0.390625)" xlink:href="#DejaVuSans-97"/>
      <use transform="translate(129.6875 0.390625)" xlink:href="#DejaVuSans-108"/>
      <use transform="translate(157.470703 0.390625)" xlink:href="#DejaVuSans-117"/>
      <use transform="translate(220.849609 0.390625)" xlink:href="#DejaVuSans-101"/>
      <use transform="translate(282.373047 0.390625)" xlink:href="#DejaVuSans-32"/>
      <use transform="translate(314.160156 0.390625)" xlink:href="#DejaVuSans-111"/>
      <use transform="translate(375.341797 0.390625)" xlink:href="#DejaVuSans-102"/>
      <use transform="translate(410.546875 0.390625)" xlink:href="#DejaVuSans-32"/>
      <use transform="translate(442.333984 0.390625)" xlink:href="#DejaVuSans-Oblique-946"/>
      <use transform="translate(506.152344 -16.015625)scale(0.7)" xlink:href="#DejaVuSans-Oblique-105"/>
     </g>
    </g>
   </g>
   <g id="line2d_13">
    <path clip-path="url(#p46378201a1)" d="M 73.832727 91.641002 
L 154.996364 130.788198 
L 236.16 183.70235 
L 317.323636 202.010858 
L 398.487273 251.986052 
" style="fill:none;stroke:#1f77b4;stroke-linecap:square;stroke-width:1.5;"/>
    <defs>
     <path d="M 0 3 
C 0.795609 3 1.55874 2.683901 2.12132 2.12132 
C 2.683901 1.55874 3 0.795609 3 0 
C 3 -0.795609 2.683901 -1.55874 2.12132 -2.12132 
C 1.55874 -2.683901 0.795609 -3 0 -3 
C -0.795609 -3 -1.55874 -2.683901 -2.12132 -2.12132 
C -2.683901 -1.55874 -3 -0.795609 -3 0 
C -3 0.795609 -2.683901 1.55874 -2.12132 2.12132 
C -1.55874 2.683901 -0.795609 3 0 3 
z
" id="m1961ca754e" style="stroke:#1f77b4;"/>
    </defs>
    <g clip-path="url(#p46378201a1)">
     <use style="fill:#1f77b4;stroke:#1f77b4;" x="73.832727" xlink:href="#m1961ca754e" y="91.641002"/>
     <use style="fill:#1f77b4;stroke:#1f77b4;" x="154.996364" xlink:href="#m1961ca754e" y="130.788198"/>
     <use style="fill:#1f77b4;stroke:#1f77b4;" x="236.16" xlink:href="#m1961ca754e" y="183.70235"/>
     <use style="fill:#1f77b4;stroke:#1f77b4;" x="317.323636" xlink:href="#m1961ca754e" y="202.010858"/>
     <use style="fill:#1f77b4;stroke:#1f77b4;" x="398.487273" xlink:href="#m1961ca754e" y="251.986052"/>
    </g>
   </g>
   <g id="line2d_14">
    <path clip-path="url(#p46378201a1)" d="M 73.832727 81.202629 
L 154.996364 129.78725 
L 236.16 164.805228 
L 317.323636 198.43849 
L 398.487273 252.575333 
" style="fill:none;stroke:#ff7f0e;stroke-linecap:square;stroke-width:1.5;"/>
    <defs>
     <path d="M 0 3 
C 0.795609 3 1.55874 2.683901 2.12132 2.12132 
C 2.683901 1.55874 3 0.795609 3 0 
C 3 -0.795609 2.683901 -1.55874 2.12132 -2.12132 
C 1.55874 -2.683901 0.795609 -3 0 -3 
C -0.795609 -3 -1.55874 -2.683901 -2.12132 -2.12132 
C -2.683901 -1.55874 -3 -0.795609 -3 0 
C -3 0.795609 -2.683901 1.55874 -2.12132 2.12132 
C -1.55874 2.683901 -0.795609 3 0 3 
z
" id="m0be4758baa" style="stroke:#ff7f0e;"/>
    </defs>
    <g clip-path="url(#p46378201a1)">
     <use style="fill:#ff7f0e;stroke:#ff7f0e;" x="73.832727" xlink:href="#m0be4758baa" y="81.202629"/>
     <use style="fill:#ff7f0e;stroke:#ff7f0e;" x="154.996364" xlink:href="#m0be4758baa" y="129.78725"/>
     <use style="fill:#ff7f0e;stroke:#ff7f0e;" x="236.16" xlink:href="#m0be4758baa" y="164.805228"/>
     <use style="fill:#ff7f0e;stroke:#ff7f0e;" x="317.323636" xlink:href="#m0be4758baa" y="198.43849"/>
     <use style="fill:#ff7f0e;stroke:#ff7f0e;" x="398.487273" xlink:href="#m0be4758baa" y="252.575333"/>
    </g>
   </g>
   <g id="line2d_15">
    <path clip-path="url(#p46378201a1)" d="M 73.832727 89.312859 
L 154.996364 111.331935 
L 236.16 140.089193 
L 317.323636 187.376645 
L 398.487273 252.538475 
" style="fill:none;stroke:#2ca02c;stroke-linecap:square;stroke-width:1.5;"/>
    <defs>
     <path d="M 0 3 
C 0.795609 3 1.55874 2.683901 2.12132 2.12132 
C 2.683901 1.55874 3 0.795609 3 0 
C 3 -0.795609 2.683901 -1.55874 2.12132 -2.12132 
C 1.55874 -2.683901 0.795609 -3 0 -3 
C -0.795609 -3 -1.55874 -2.683901 -2.12132 -2.12132 
C -2.683901 -1.55874 -3 -0.795609 -3 0 
C -3 0.795609 -2.683901 1.55874 -2.12132 2.12132 
C -1.55874 2.683901 -0.795609 3 0 3 
z
" id="m40963ddee5" style="stroke:#2ca02c;"/>
    </defs>
    <g clip-path="url(#p46378201a1)">
     <use style="fill:#2ca02c;stroke:#2ca02c;" x="73.832727" xlink:href="#m40963ddee5" y="89.312859"/>
     <use style="fill:#2ca02c;stroke:#2ca02c;" x="154.996364" xlink:href="#m40963ddee5" y="111.331935"/>
     <use style="fill:#2ca02c;stroke:#2ca02c;" x="236.16" xlink:href="#m40963ddee5" y="140.089193"/>
     <use style="fill:#2ca02c;stroke:#2ca02c;" x="317.323636" xlink:href="#m40963ddee5" y="187.376645"/>
     <use style="fill:#2ca02c;stroke:#2ca02c;" x="398.487273" xlink:href="#m40963ddee5" y="252.538475"/>
    </g>
   </g>
   <g id="line2d_16">
    <path clip-path="url(#p46378201a1)" d="M 73.832727 81.315436 
L 154.996364 96.002362 
L 236.16 109.683362 
L 317.323636 145.839166 
L 398.487273 211.123104 
" style="fill:none;stroke:#d62728;stroke-linecap:square;stroke-width:1.5;"/>
    <defs>
     <path d="M 0 3 
C 0.795609 3 1.55874 2.683901 2.12132 2.12132 
C 2.683901 1.55874 3 0.795609 3 0 
C 3 -0.795609 2.683901 -1.55874 2.12132 -2.12132 
C 1.55874 -2.683901 0.795609 -3 0 -3 
C -0.795609 -3 -1.55874 -2.683901 -2.12132 -2.12132 
C -2.683901 -1.55874 -3 -0.795609 -3 0 
C -3 0.795609 -2.683901 1.55874 -2.12132 2.12132 
C -1.55874 2.683901 -0.795609 3 0 3 
z
" id="m656ee268f7" style="stroke:#d62728;"/>
    </defs>
    <g clip-path="url(#p46378201a1)">
     <use style="fill:#d62728;stroke:#d62728;" x="73.832727" xlink:href="#m656ee268f7" y="81.315436"/>
     <use style="fill:#d62728;stroke:#d62728;" x="154.996364" xlink:href="#m656ee268f7" y="96.002362"/>
     <use style="fill:#d62728;stroke:#d62728;" x="236.16" xlink:href="#m656ee268f7" y="109.683362"/>
     <use style="fill:#d62728;stroke:#d62728;" x="317.323636" xlink:href="#m656ee268f7" y="145.839166"/>
     <use style="fill:#d62728;stroke:#d62728;" x="398.487273" xlink:href="#m656ee268f7" y="211.123104"/>
    </g>
   </g>
   <g id="line2d_17">
    <path clip-path="url(#p46378201a1)" d="M 73.832727 97.084984 
L 154.996364 142.892238 
L 236.16 182.42 
L 317.323636 218.76618 
L 398.487273 265.341926 
" style="fill:none;stroke:#9467bd;stroke-linecap:square;stroke-width:1.5;"/>
    <defs>
     <path d="M 0 3 
C 0.795609 3 1.55874 2.683901 2.12132 2.12132 
C 2.683901 1.55874 3 0.795609 3 0 
C 3 -0.795609 2.683901 -1.55874 2.12132 -2.12132 
C 1.55874 -2.683901 0.795609 -3 0 -3 
C -0.795609 -3 -1.55874 -2.683901 -2.12132 -2.12132 
C -2.683901 -1.55874 -3 -0.795609 -3 0 
C -3 0.795609 -2.683901 1.55874 -2.12132 2.12132 
C -1.55874 2.683901 -0.795609 3 0 3 
z
" id="m35ccb21ae2" style="stroke:#9467bd;"/>
    </defs>
    <g clip-path="url(#p46378201a1)">
     <use style="fill:#9467bd;stroke:#9467bd;" x="73.832727" xlink:href="#m35ccb21ae2" y="97.084984"/>
     <use style="fill:#9467bd;stroke:#9467bd;" x="154.996364" xlink:href="#m35ccb21ae2" y="142.892238"/>
     <use style="fill:#9467bd;stroke:#9467bd;" x="236.16" xlink:href="#m35ccb21ae2" y="182.42"/>
     <use style="fill:#9467bd;stroke:#9467bd;" x="317.323636" xlink:href="#m35ccb21ae2" y="218.76618"/>
     <use style="fill:#9467bd;stroke:#9467bd;" x="398.487273" xlink:href="#m35ccb21ae2" y="265.341926"/>
    </g>
   </g>
   <g id="line2d_18">
    <path clip-path="url(#p46378201a1)" d="M 73.832727 90.764918 
L 154.996364 116.571385 
L 236.16 141.643523 
L 317.323636 149.295512 
L 398.487273 221.680357 
" style="fill:none;stroke:#8c564b;stroke-linecap:square;stroke-width:1.5;"/>
    <defs>
     <path d="M 0 3 
C 0.795609 3 1.55874 2.683901 2.12132 2.12132 
C 2.683901 1.55874 3 0.795609 3 0 
C 3 -0.795609 2.683901 -1.55874 2.12132 -2.12132 
C 1.55874 -2.683901 0.795609 -3 0 -3 
C -0.795609 -3 -1.55874 -2.683901 -2.12132 -2.12132 
C -2.683901 -1.55874 -3 -0.795609 -3 0 
C -3 0.795609 -2.683901 1.55874 -2.12132 2.12132 
C -1.55874 2.683901 -0.795609 3 0 3 
z
" id="m68debc6004" style="stroke:#8c564b;"/>
    </defs>
    <g clip-path="url(#p46378201a1)">
     <use style="fill:#8c564b;stroke:#8c564b;" x="73.832727" xlink:href="#m68debc6004" y="90.764918"/>
     <use style="fill:#8c564b;stroke:#8c564b;" x="154.996364" xlink:href="#m68debc6004" y="116.571385"/>
     <use style="fill:#8c564b;stroke:#8c564b;" x="236.16" xlink:href="#m68debc6004" y="141.643523"/>
     <use style="fill:#8c564b;stroke:#8c564b;" x="317.323636" xlink:href="#m68debc6004" y="149.295512"/>
     <use style="fill:#8c564b;stroke:#8c564b;" x="398.487273" xlink:href="#m68debc6004" y="221.680357"/>
    </g>
   </g>
   <g id="line2d_19">
    <path clip-path="url(#p46378201a1)" d="M 73.832727 92.529999 
L 154.996364 139.090131 
L 236.16 182.20856 
L 317.323636 213.752012 
L 398.487273 260.02305 
" style="fill:none;stroke:#e377c2;stroke-linecap:square;stroke-width:1.5;"/>
    <defs>
     <path d="M 0 3 
C 0.795609 3 1.55874 2.683901 2.12132 2.12132 
C 2.683901 1.55874 3 0.795609 3 0 
C 3 -0.795609 2.683901 -1.55874 2.12132 -2.12132 
C 1.55874 -2.683901 0.795609 -3 0 -3 
C -0.795609 -3 -1.55874 -2.683901 -2.12132 -2.12132 
C -2.683901 -1.55874 -3 -0.795609 -3 0 
C -3 0.795609 -2.683901 1.55874 -2.12132 2.12132 
C -1.55874 2.683901 -0.795609 3 0 3 
z
" id="m824a1fcbff" style="stroke:#e377c2;"/>
    </defs>
    <g clip-path="url(#p46378201a1)">
     <use style="fill:#e377c2;stroke:#e377c2;" x="73.832727" xlink:href="#m824a1fcbff" y="92.529999"/>
     <use style="fill:#e377c2;stroke:#e377c2;" x="154.996364" xlink:href="#m824a1fcbff" y="139.090131"/>
     <use style="fill:#e377c2;stroke:#e377c2;" x="236.16" xlink:href="#m824a1fcbff" y="182.20856"/>
     <use style="fill:#e377c2;stroke:#e377c2;" x="317.323636" xlink:href="#m824a1fcbff" y="213.752012"/>
     <use style="fill:#e377c2;stroke:#e377c2;" x="398.487273" xlink:href="#m824a1fcbff" y="260.02305"/>
    </g>
   </g>
   <g id="line2d_20">
    <path clip-path="url(#p46378201a1)" d="M 73.832727 53.568 
L 154.996364 117.893048 
L 236.16 187.266877 
L 317.323636 240.725574 
L 398.487273 276.509568 
" style="fill:none;stroke:#7f7f7f;stroke-linecap:square;stroke-width:1.5;"/>
    <defs>
     <path d="M 0 3 
C 0.795609 3 1.55874 2.683901 2.12132 2.12132 
C 2.683901 1.55874 3 0.795609 3 0 
C 3 -0.795609 2.683901 -1.55874 2.12132 -2.12132 
C 1.55874 -2.683901 0.795609 -3 0 -3 
C -0.795609 -3 -1.55874 -2.683901 -2.12132 -2.12132 
C -2.683901 -1.55874 -3 -0.795609 -3 0 
C -3 0.795609 -2.683901 1.55874 -2.12132 2.12132 
C -1.55874 2.683901 -0.795609 3 0 3 
z
" id="m5a7207dc78" style="stroke:#7f7f7f;"/>
    </defs>
    <g clip-path="url(#p46378201a1)">
     <use style="fill:#7f7f7f;stroke:#7f7f7f;" x="73.832727" xlink:href="#m5a7207dc78" y="53.568"/>
     <use style="fill:#7f7f7f;stroke:#7f7f7f;" x="154.996364" xlink:href="#m5a7207dc78" y="117.893048"/>
     <use style="fill:#7f7f7f;stroke:#7f7f7f;" x="236.16" xlink:href="#m5a7207dc78" y="187.266877"/>
     <use style="fill:#7f7f7f;stroke:#7f7f7f;" x="317.323636" xlink:href="#m5a7207dc78" y="240.725574"/>
     <use style="fill:#7f7f7f;stroke:#7f7f7f;" x="398.487273" xlink:href="#m5a7207dc78" y="276.509568"/>
    </g>
   </g>
   <g id="line2d_21">
    <path clip-path="url(#p46378201a1)" d="M 73.832727 99.561707 
L 154.996364 146.671763 
L 236.16 179.495606 
L 317.323636 203.044805 
L 398.487273 248.24049 
" style="fill:none;stroke:#bcbd22;stroke-linecap:square;stroke-width:1.5;"/>
    <defs>
     <path d="M 0 3 
C 0.795609 3 1.55874 2.683901 2.12132 2.12132 
C 2.683901 1.55874 3 0.795609 3 0 
C 3 -0.795609 2.683901 -1.55874 2.12132 -2.12132 
C 1.55874 -2.683901 0.795609 -3 0 -3 
C -0.795609 -3 -1.55874 -2.683901 -2.12132 -2.12132 
C -2.683901 -1.55874 -3 -0.795609 -3 0 
C -3 0.795609 -2.683901 1.55874 -2.12132 2.12132 
C -1.55874 2.683901 -0.795609 3 0 3 
z
" id="m2d56edbd2a" style="stroke:#bcbd22;"/>
    </defs>
    <g clip-path="url(#p46378201a1)">
     <use style="fill:#bcbd22;stroke:#bcbd22;" x="73.832727" xlink:href="#m2d56edbd2a" y="99.561707"/>
     <use style="fill:#bcbd22;stroke:#bcbd22;" x="154.996364" xlink:href="#m2d56edbd2a" y="146.671763"/>
     <use style="fill:#bcbd22;stroke:#bcbd22;" x="236.16" xlink:href="#m2d56edbd2a" y="179.495606"/>
     <use style="fill:#bcbd22;stroke:#bcbd22;" x="317.323636" xlink:href="#m2d56edbd2a" y="203.044805"/>
     <use style="fill:#bcbd22;stroke:#bcbd22;" x="398.487273" xlink:href="#m2d56edbd2a" y="248.24049"/>
    </g>
   </g>
   <g id="line2d_22">
    <path clip-path="url(#p46378201a1)" d="M 73.832727 68.98542 
L 154.996364 121.326364 
L 236.16 120.532523 
L 317.323636 160.503504 
L 398.487273 231.897919 
" style="fill:none;stroke:#17becf;stroke-linecap:square;stroke-width:1.5;"/>
    <defs>
     <path d="M 0 3 
C 0.795609 3 1.55874 2.683901 2.12132 2.12132 
C 2.683901 1.55874 3 0.795609 3 0 
C 3 -0.795609 2.683901 -1.55874 2.12132 -2.12132 
C 1.55874 -2.683901 0.795609 -3 0 -3 
C -0.795609 -3 -1.55874 -2.683901 -2.12132 -2.12132 
C -2.683901 -1.55874 -3 -0.795609 -3 0 
C -3 0.795609 -2.683901 1.55874 -2.12132 2.12132 
C -1.55874 2.683901 -0.795609 3 0 3 
z
" id="maad684fe8c" style="stroke:#17becf;"/>
    </defs>
    <g clip-path="url(#p46378201a1)">
     <use style="fill:#17becf;stroke:#17becf;" x="73.832727" xlink:href="#maad684fe8c" y="68.98542"/>
     <use style="fill:#17becf;stroke:#17becf;" x="154.996364" xlink:href="#maad684fe8c" y="121.326364"/>
     <use style="fill:#17becf;stroke:#17becf;" x="236.16" xlink:href="#maad684fe8c" y="120.532523"/>
     <use style="fill:#17becf;stroke:#17becf;" x="317.323636" xlink:href="#maad684fe8c" y="160.503504"/>
     <use style="fill:#17becf;stroke:#17becf;" x="398.487273" xlink:href="#maad684fe8c" y="231.897919"/>
    </g>
   </g>
   <g id="line2d_23">
    <path clip-path="url(#p46378201a1)" d="M 73.832727 88.416407 
L 154.996364 125.967984 
L 236.16 167.522541 
L 317.323636 200.589727 
L 398.487273 258.752055 
" style="fill:none;stroke:#1f77b4;stroke-linecap:square;stroke-width:1.5;"/>
    <g clip-path="url(#p46378201a1)">
     <use style="fill:#1f77b4;stroke:#1f77b4;" x="73.832727" xlink:href="#m1961ca754e" y="88.416407"/>
     <use style="fill:#1f77b4;stroke:#1f77b4;" x="154.996364" xlink:href="#m1961ca754e" y="125.967984"/>
     <use style="fill:#1f77b4;stroke:#1f77b4;" x="236.16" xlink:href="#m1961ca754e" y="167.522541"/>
     <use style="fill:#1f77b4;stroke:#1f77b4;" x="317.323636" xlink:href="#m1961ca754e" y="200.589727"/>
     <use style="fill:#1f77b4;stroke:#1f77b4;" x="398.487273" xlink:href="#m1961ca754e" y="258.752055"/>
    </g>
   </g>
   <g id="line2d_24">
    <path clip-path="url(#p46378201a1)" d="M 73.832727 93.630591 
L 154.996364 131.876145 
L 236.16 160.257545 
L 317.323636 197.954772 
L 398.487273 250.168683 
" style="fill:none;stroke:#ff7f0e;stroke-linecap:square;stroke-width:1.5;"/>
    <g clip-path="url(#p46378201a1)">
     <use style="fill:#ff7f0e;stroke:#ff7f0e;" x="73.832727" xlink:href="#m0be4758baa" y="93.630591"/>
     <use style="fill:#ff7f0e;stroke:#ff7f0e;" x="154.996364" xlink:href="#m0be4758baa" y="131.876145"/>
     <use style="fill:#ff7f0e;stroke:#ff7f0e;" x="236.16" xlink:href="#m0be4758baa" y="160.257545"/>
     <use style="fill:#ff7f0e;stroke:#ff7f0e;" x="317.323636" xlink:href="#m0be4758baa" y="197.954772"/>
     <use style="fill:#ff7f0e;stroke:#ff7f0e;" x="398.487273" xlink:href="#m0be4758baa" y="250.168683"/>
    </g>
   </g>
   <g id="line2d_25">
    <path clip-path="url(#p46378201a1)" d="M 73.832727 87.762755 
L 154.996364 127.64269 
L 236.16 164.949583 
L 317.323636 214.400658 
L 398.487273 267.968273 
" style="fill:none;stroke:#2ca02c;stroke-linecap:square;stroke-width:1.5;"/>
    <g clip-path="url(#p46378201a1)">
     <use style="fill:#2ca02c;stroke:#2ca02c;" x="73.832727" xlink:href="#m40963ddee5" y="87.762755"/>
     <use style="fill:#2ca02c;stroke:#2ca02c;" x="154.996364" xlink:href="#m40963ddee5" y="127.64269"/>
     <use style="fill:#2ca02c;stroke:#2ca02c;" x="236.16" xlink:href="#m40963ddee5" y="164.949583"/>
     <use style="fill:#2ca02c;stroke:#2ca02c;" x="317.323636" xlink:href="#m40963ddee5" y="214.400658"/>
     <use style="fill:#2ca02c;stroke:#2ca02c;" x="398.487273" xlink:href="#m40963ddee5" y="267.968273"/>
    </g>
   </g>
   <g id="line2d_26">
    <path clip-path="url(#p46378201a1)" d="M 73.832727 82.728063 
L 154.996364 103.529251 
L 236.16 128.940497 
L 317.323636 179.255081 
L 398.487273 253.458217 
" style="fill:none;stroke:#d62728;stroke-linecap:square;stroke-width:1.5;"/>
    <g clip-path="url(#p46378201a1)">
     <use style="fill:#d62728;stroke:#d62728;" x="73.832727" xlink:href="#m656ee268f7" y="82.728063"/>
     <use style="fill:#d62728;stroke:#d62728;" x="154.996364" xlink:href="#m656ee268f7" y="103.529251"/>
     <use style="fill:#d62728;stroke:#d62728;" x="236.16" xlink:href="#m656ee268f7" y="128.940497"/>
     <use style="fill:#d62728;stroke:#d62728;" x="317.323636" xlink:href="#m656ee268f7" y="179.255081"/>
     <use style="fill:#d62728;stroke:#d62728;" x="398.487273" xlink:href="#m656ee268f7" y="253.458217"/>
    </g>
   </g>
   <g id="line2d_27">
    <path clip-path="url(#p46378201a1)" d="M 73.832727 81.573025 
L 154.996364 110.105725 
L 236.16 125.732887 
L 317.323636 144.889179 
L 398.487273 202.70958 
" style="fill:none;stroke:#9467bd;stroke-linecap:square;stroke-width:1.5;"/>
    <g clip-path="url(#p46378201a1)">
     <use style="fill:#9467bd;stroke:#9467bd;" x="73.832727" xlink:href="#m35ccb21ae2" y="81.573025"/>
     <use style="fill:#9467bd;stroke:#9467bd;" x="154.996364" xlink:href="#m35ccb21ae2" y="110.105725"/>
     <use style="fill:#9467bd;stroke:#9467bd;" x="236.16" xlink:href="#m35ccb21ae2" y="125.732887"/>
     <use style="fill:#9467bd;stroke:#9467bd;" x="317.323636" xlink:href="#m35ccb21ae2" y="144.889179"/>
     <use style="fill:#9467bd;stroke:#9467bd;" x="398.487273" xlink:href="#m35ccb21ae2" y="202.70958"/>
    </g>
   </g>
   <g id="line2d_28">
    <path clip-path="url(#p46378201a1)" d="M 73.832727 88.962757 
L 154.996364 126.527116 
L 236.16 190.128361 
L 317.323636 248.521123 
L 398.487273 295.469929 
" style="fill:none;stroke:#8c564b;stroke-linecap:square;stroke-width:1.5;"/>
    <g clip-path="url(#p46378201a1)">
     <use style="fill:#8c564b;stroke:#8c564b;" x="73.832727" xlink:href="#m68debc6004" y="88.962757"/>
     <use style="fill:#8c564b;stroke:#8c564b;" x="154.996364" xlink:href="#m68debc6004" y="126.527116"/>
     <use style="fill:#8c564b;stroke:#8c564b;" x="236.16" xlink:href="#m68debc6004" y="190.128361"/>
     <use style="fill:#8c564b;stroke:#8c564b;" x="317.323636" xlink:href="#m68debc6004" y="248.521123"/>
     <use style="fill:#8c564b;stroke:#8c564b;" x="398.487273" xlink:href="#m68debc6004" y="295.469929"/>
    </g>
   </g>
   <g id="line2d_29">
    <path clip-path="url(#p46378201a1)" d="M 73.832727 89.135875 
L 154.996364 126.721096 
L 236.16 190.347906 
L 317.323636 248.662364 
L 398.487273 295.488 
" style="fill:none;stroke:#e377c2;stroke-linecap:square;stroke-width:1.5;"/>
    <g clip-path="url(#p46378201a1)">
     <use style="fill:#e377c2;stroke:#e377c2;" x="73.832727" xlink:href="#m824a1fcbff" y="89.135875"/>
     <use style="fill:#e377c2;stroke:#e377c2;" x="154.996364" xlink:href="#m824a1fcbff" y="126.721096"/>
     <use style="fill:#e377c2;stroke:#e377c2;" x="236.16" xlink:href="#m824a1fcbff" y="190.347906"/>
     <use style="fill:#e377c2;stroke:#e377c2;" x="317.323636" xlink:href="#m824a1fcbff" y="248.662364"/>
     <use style="fill:#e377c2;stroke:#e377c2;" x="398.487273" xlink:href="#m824a1fcbff" y="295.488"/>
    </g>
   </g>
   <g id="line2d_30">
    <path clip-path="url(#p46378201a1)" d="M 73.832727 88.667415 
L 154.996364 126.374197 
L 236.16 190.142809 
L 317.323636 248.472434 
L 398.487273 295.483253 
" style="fill:none;stroke:#7f7f7f;stroke-linecap:square;stroke-width:1.5;"/>
    <g clip-path="url(#p46378201a1)">
     <use style="fill:#7f7f7f;stroke:#7f7f7f;" x="73.832727" xlink:href="#m5a7207dc78" y="88.667415"/>
     <use style="fill:#7f7f7f;stroke:#7f7f7f;" x="154.996364" xlink:href="#m5a7207dc78" y="126.374197"/>
     <use style="fill:#7f7f7f;stroke:#7f7f7f;" x="236.16" xlink:href="#m5a7207dc78" y="190.142809"/>
     <use style="fill:#7f7f7f;stroke:#7f7f7f;" x="317.323636" xlink:href="#m5a7207dc78" y="248.472434"/>
     <use style="fill:#7f7f7f;stroke:#7f7f7f;" x="398.487273" xlink:href="#m5a7207dc78" y="295.483253"/>
    </g>
   </g>
   <g id="line2d_31">
    <path clip-path="url(#p46378201a1)" d="M 73.832727 81.186683 
L 154.996364 134.767206 
L 236.16 142.143522 
L 317.323636 147.963319 
L 398.487273 212.461167 
" style="fill:none;stroke:#bcbd22;stroke-linecap:square;stroke-width:1.5;"/>
    <g clip-path="url(#p46378201a1)">
     <use style="fill:#bcbd22;stroke:#bcbd22;" x="73.832727" xlink:href="#m2d56edbd2a" y="81.186683"/>
     <use style="fill:#bcbd22;stroke:#bcbd22;" x="154.996364" xlink:href="#m2d56edbd2a" y="134.767206"/>
     <use style="fill:#bcbd22;stroke:#bcbd22;" x="236.16" xlink:href="#m2d56edbd2a" y="142.143522"/>
     <use style="fill:#bcbd22;stroke:#bcbd22;" x="317.323636" xlink:href="#m2d56edbd2a" y="147.963319"/>
     <use style="fill:#bcbd22;stroke:#bcbd22;" x="398.487273" xlink:href="#m2d56edbd2a" y="212.461167"/>
    </g>
   </g>
   <g id="line2d_32">
    <path clip-path="url(#p46378201a1)" d="M 73.832727 74.15234 
L 154.996364 99.731487 
L 236.16 133.462875 
L 317.323636 192.064601 
L 398.487273 259.052579 
" style="fill:none;stroke:#17becf;stroke-linecap:square;stroke-width:1.5;"/>
    <g clip-path="url(#p46378201a1)">
     <use style="fill:#17becf;stroke:#17becf;" x="73.832727" xlink:href="#maad684fe8c" y="74.15234"/>
     <use style="fill:#17becf;stroke:#17becf;" x="154.996364" xlink:href="#maad684fe8c" y="99.731487"/>
     <use style="fill:#17becf;stroke:#17becf;" x="236.16" xlink:href="#maad684fe8c" y="133.462875"/>
     <use style="fill:#17becf;stroke:#17becf;" x="317.323636" xlink:href="#maad684fe8c" y="192.064601"/>
     <use style="fill:#17becf;stroke:#17becf;" x="398.487273" xlink:href="#maad684fe8c" y="259.052579"/>
    </g>
   </g>
   <g id="line2d_33">
    <path clip-path="url(#p46378201a1)" d="M 73.832727 77.012188 
L 154.996364 105.573099 
L 236.16 151.551042 
L 317.323636 206.523663 
L 398.487273 274.2377 
" style="fill:none;stroke:#1f77b4;stroke-linecap:square;stroke-width:1.5;"/>
    <g clip-path="url(#p46378201a1)">
     <use style="fill:#1f77b4;stroke:#1f77b4;" x="73.832727" xlink:href="#m1961ca754e" y="77.012188"/>
     <use style="fill:#1f77b4;stroke:#1f77b4;" x="154.996364" xlink:href="#m1961ca754e" y="105.573099"/>
     <use style="fill:#1f77b4;stroke:#1f77b4;" x="236.16" xlink:href="#m1961ca754e" y="151.551042"/>
     <use style="fill:#1f77b4;stroke:#1f77b4;" x="317.323636" xlink:href="#m1961ca754e" y="206.523663"/>
     <use style="fill:#1f77b4;stroke:#1f77b4;" x="398.487273" xlink:href="#m1961ca754e" y="274.2377"/>
    </g>
   </g>
   <g id="line2d_34">
    <path clip-path="url(#p46378201a1)" d="M 73.832727 96.107802 
L 154.996364 125.159689 
L 236.16 177.73603 
L 317.323636 224.485408 
L 398.487273 269.603709 
" style="fill:none;stroke:#ff7f0e;stroke-linecap:square;stroke-width:1.5;"/>
    <g clip-path="url(#p46378201a1)">
     <use style="fill:#ff7f0e;stroke:#ff7f0e;" x="73.832727" xlink:href="#m0be4758baa" y="96.107802"/>
     <use style="fill:#ff7f0e;stroke:#ff7f0e;" x="154.996364" xlink:href="#m0be4758baa" y="125.159689"/>
     <use style="fill:#ff7f0e;stroke:#ff7f0e;" x="236.16" xlink:href="#m0be4758baa" y="177.73603"/>
     <use style="fill:#ff7f0e;stroke:#ff7f0e;" x="317.323636" xlink:href="#m0be4758baa" y="224.485408"/>
     <use style="fill:#ff7f0e;stroke:#ff7f0e;" x="398.487273" xlink:href="#m0be4758baa" y="269.603709"/>
    </g>
   </g>
   <g id="line2d_35">
    <path clip-path="url(#p46378201a1)" d="M 73.832727 112.074828 
L 154.996364 149.795489 
L 236.16 189.232222 
L 317.323636 214.414576 
L 398.487273 265.76115 
" style="fill:none;stroke:#2ca02c;stroke-linecap:square;stroke-width:1.5;"/>
    <g clip-path="url(#p46378201a1)">
     <use style="fill:#2ca02c;stroke:#2ca02c;" x="73.832727" xlink:href="#m40963ddee5" y="112.074828"/>
     <use style="fill:#2ca02c;stroke:#2ca02c;" x="154.996364" xlink:href="#m40963ddee5" y="149.795489"/>
     <use style="fill:#2ca02c;stroke:#2ca02c;" x="236.16" xlink:href="#m40963ddee5" y="189.232222"/>
     <use style="fill:#2ca02c;stroke:#2ca02c;" x="317.323636" xlink:href="#m40963ddee5" y="214.414576"/>
     <use style="fill:#2ca02c;stroke:#2ca02c;" x="398.487273" xlink:href="#m40963ddee5" y="265.76115"/>
    </g>
   </g>
   <g id="line2d_36">
    <path clip-path="url(#p46378201a1)" d="M 73.832727 55.022806 
L 154.996364 77.877954 
L 236.16 112.440399 
L 317.323636 160.827499 
L 398.487273 228.554409 
" style="fill:none;stroke:#d62728;stroke-linecap:square;stroke-width:1.5;"/>
    <g clip-path="url(#p46378201a1)">
     <use style="fill:#d62728;stroke:#d62728;" x="73.832727" xlink:href="#m656ee268f7" y="55.022806"/>
     <use style="fill:#d62728;stroke:#d62728;" x="154.996364" xlink:href="#m656ee268f7" y="77.877954"/>
     <use style="fill:#d62728;stroke:#d62728;" x="236.16" xlink:href="#m656ee268f7" y="112.440399"/>
     <use style="fill:#d62728;stroke:#d62728;" x="317.323636" xlink:href="#m656ee268f7" y="160.827499"/>
     <use style="fill:#d62728;stroke:#d62728;" x="398.487273" xlink:href="#m656ee268f7" y="228.554409"/>
    </g>
   </g>
   <g id="line2d_37">
    <path clip-path="url(#p46378201a1)" d="M 73.832727 98.884291 
L 154.996364 135.47148 
L 236.16 185.387304 
L 317.323636 196.964834 
L 398.487273 221.481333 
" style="fill:none;stroke:#9467bd;stroke-linecap:square;stroke-width:1.5;"/>
    <g clip-path="url(#p46378201a1)">
     <use style="fill:#9467bd;stroke:#9467bd;" x="73.832727" xlink:href="#m35ccb21ae2" y="98.884291"/>
     <use style="fill:#9467bd;stroke:#9467bd;" x="154.996364" xlink:href="#m35ccb21ae2" y="135.47148"/>
     <use style="fill:#9467bd;stroke:#9467bd;" x="236.16" xlink:href="#m35ccb21ae2" y="185.387304"/>
     <use style="fill:#9467bd;stroke:#9467bd;" x="317.323636" xlink:href="#m35ccb21ae2" y="196.964834"/>
     <use style="fill:#9467bd;stroke:#9467bd;" x="398.487273" xlink:href="#m35ccb21ae2" y="221.481333"/>
    </g>
   </g>
   <g id="line2d_38">
    <path clip-path="url(#p46378201a1)" d="M 73.832727 97.773337 
L 154.996364 131.118416 
L 236.16 177.83423 
L 317.323636 210.486603 
L 398.487273 255.284265 
" style="fill:none;stroke:#8c564b;stroke-linecap:square;stroke-width:1.5;"/>
    <g clip-path="url(#p46378201a1)">
     <use style="fill:#8c564b;stroke:#8c564b;" x="73.832727" xlink:href="#m68debc6004" y="97.773337"/>
     <use style="fill:#8c564b;stroke:#8c564b;" x="154.996364" xlink:href="#m68debc6004" y="131.118416"/>
     <use style="fill:#8c564b;stroke:#8c564b;" x="236.16" xlink:href="#m68debc6004" y="177.83423"/>
     <use style="fill:#8c564b;stroke:#8c564b;" x="317.323636" xlink:href="#m68debc6004" y="210.486603"/>
     <use style="fill:#8c564b;stroke:#8c564b;" x="398.487273" xlink:href="#m68debc6004" y="255.284265"/>
    </g>
   </g>
   <g id="line2d_39">
    <path clip-path="url(#p46378201a1)" d="M 73.832727 96.942851 
L 154.996364 108.795002 
L 236.16 137.549369 
L 317.323636 179.157142 
L 398.487273 242.28795 
" style="fill:none;stroke:#e377c2;stroke-linecap:square;stroke-width:1.5;"/>
    <g clip-path="url(#p46378201a1)">
     <use style="fill:#e377c2;stroke:#e377c2;" x="73.832727" xlink:href="#m824a1fcbff" y="96.942851"/>
     <use style="fill:#e377c2;stroke:#e377c2;" x="154.996364" xlink:href="#m824a1fcbff" y="108.795002"/>
     <use style="fill:#e377c2;stroke:#e377c2;" x="236.16" xlink:href="#m824a1fcbff" y="137.549369"/>
     <use style="fill:#e377c2;stroke:#e377c2;" x="317.323636" xlink:href="#m824a1fcbff" y="179.157142"/>
     <use style="fill:#e377c2;stroke:#e377c2;" x="398.487273" xlink:href="#m824a1fcbff" y="242.28795"/>
    </g>
   </g>
   <g id="patch_3">
    <path d="M 57.6 307.584 
L 57.6 41.472 
" style="fill:none;stroke:#000000;stroke-linecap:square;stroke-linejoin:miter;stroke-width:0.8;"/>
   </g>
   <g id="patch_4">
    <path d="M 414.72 307.584 
L 414.72 41.472 
" style="fill:none;stroke:#000000;stroke-linecap:square;stroke-linejoin:miter;stroke-width:0.8;"/>
   </g>
   <g id="patch_5">
    <path d="M 57.6 307.584 
L 414.72 307.584 
" style="fill:none;stroke:#000000;stroke-linecap:square;stroke-linejoin:miter;stroke-width:0.8;"/>
   </g>
   <g id="patch_6">
    <path d="M 57.6 41.472 
L 414.72 41.472 
" style="fill:none;stroke:#000000;stroke-linecap:square;stroke-linejoin:miter;stroke-width:0.8;"/>
   </g>
   <g id="text_15">
    <!-- $p=$5 -->
    <defs>
     <path d="M 49.609375 33.6875 
Q 49.609375 40.875 46.484375 44.671875 
Q 43.359375 48.484375 37.5 48.484375 
Q 33.5 48.484375 29.859375 46.4375 
Q 26.21875 44.390625 23.390625 40.484375 
Q 20.609375 36.625 18.9375 31.15625 
Q 17.28125 25.6875 17.28125 20.3125 
Q 17.28125 13.484375 20.40625 9.796875 
Q 23.53125 6.109375 29.296875 6.109375 
Q 33.546875 6.109375 37.1875 8.109375 
Q 40.828125 10.109375 43.40625 13.921875 
Q 46.1875 17.921875 47.890625 23.34375 
Q 49.609375 28.765625 49.609375 33.6875 
z
M 21.78125 46.390625 
Q 25.390625 51.125 30.296875 53.5625 
Q 35.203125 56 41.21875 56 
Q 49.609375 56 54.25 50.5 
Q 58.890625 45.015625 58.890625 35.109375 
Q 58.890625 27 56 19.65625 
Q 53.125 12.3125 47.703125 6.5 
Q 44.09375 2.640625 39.546875 0.609375 
Q 35.015625 -1.421875 29.984375 -1.421875 
Q 24.171875 -1.421875 20.21875 1 
Q 16.265625 3.421875 14.3125 8.203125 
L 8.6875 -20.796875 
L -0.296875 -20.796875 
L 14.40625 54.6875 
L 23.390625 54.6875 
z
" id="DejaVuSans-Oblique-112"/>
     <path d="M 10.59375 45.40625 
L 73.1875 45.40625 
L 73.1875 37.203125 
L 10.59375 37.203125 
z
M 10.59375 25.484375 
L 73.1875 25.484375 
L 73.1875 17.1875 
L 10.59375 17.1875 
z
" id="DejaVuSans-61"/>
    </defs>
    <g transform="translate(218.66 35.472)scale(0.14 -0.14)">
     <use transform="translate(0 0.09375)" xlink:href="#DejaVuSans-Oblique-112"/>
     <use transform="translate(82.958984 0.09375)" xlink:href="#DejaVuSans-61"/>
     <use transform="translate(186.230469 0.09375)" xlink:href="#DejaVuSans-53"/>
    </g>
   </g>
  </g>
 </g>
 <defs>
  <clipPath id="p46378201a1">
   <rect height="266.112" width="357.12" x="57.6" y="41.472"/>
  </clipPath>
 </defs>
</svg>
