<?xml version="1.0" encoding="utf-8" standalone="no"?>
<!DOCTYPE svg PUBLIC "-//W3C//DTD SVG 1.1//EN"
  "http://www.w3.org/Graphics/SVG/1.1/DTD/svg11.dtd">
<!-- Created with matplotlib (https://matplotlib.org/) -->
<svg height="345.6pt" version="1.1" viewBox="0 0 460.8 345.6" width="460.8pt" xmlns="http://www.w3.org/2000/svg" xmlns:xlink="http://www.w3.org/1999/xlink">
 <defs>
  <style type="text/css">
*{stroke-linecap:butt;stroke-linejoin:round;}
  </style>
 </defs>
 <g id="figure_1">
  <g id="patch_1">
   <path d="M 0 345.6 
L 460.8 345.6 
L 460.8 0 
L 0 0 
z
" style="fill:#ffffff;"/>
  </g>
  <g id="axes_1">
   <g id="patch_2">
    <path d="M 57.6 307.584 
L 414.72 307.584 
L 414.72 41.472 
L 57.6 41.472 
z
" style="fill:#ffffff;"/>
   </g>
   <g id="matplotlib.axis_1">
    <g id="xtick_1">
     <g id="line2d_1">
      <defs>
       <path d="M 0 0 
L 0 3.5 
" id="m9530db70ef" style="stroke:#000000;stroke-width:0.8;"/>
      </defs>
      <g>
       <use style="stroke:#000000;stroke-width:0.8;" x="73.832727" xlink:href="#m9530db70ef" y="307.584"/>
      </g>
     </g>
     <g id="text_1">
      <!-- 1 -->
      <defs>
       <path d="M 12.40625 8.296875 
L 28.515625 8.296875 
L 28.515625 63.921875 
L 10.984375 60.40625 
L 10.984375 69.390625 
L 28.421875 72.90625 
L 38.28125 72.90625 
L 38.28125 8.296875 
L 54.390625 8.296875 
L 54.390625 0 
L 12.40625 0 
z
" id="DejaVuSans-49"/>
      </defs>
      <g transform="translate(69.378977 325.221812)scale(0.14 -0.14)">
       <use xlink:href="#DejaVuSans-49"/>
      </g>
     </g>
    </g>
    <g id="xtick_2">
     <g id="line2d_2">
      <g>
       <use style="stroke:#000000;stroke-width:0.8;" x="138.763636" xlink:href="#m9530db70ef" y="307.584"/>
      </g>
     </g>
     <g id="text_2">
      <!-- 2 -->
      <defs>
       <path d="M 19.1875 8.296875 
L 53.609375 8.296875 
L 53.609375 0 
L 7.328125 0 
L 7.328125 8.296875 
Q 12.9375 14.109375 22.625 23.890625 
Q 32.328125 33.6875 34.8125 36.53125 
Q 39.546875 41.84375 41.421875 45.53125 
Q 43.3125 49.21875 43.3125 52.78125 
Q 43.3125 58.59375 39.234375 62.25 
Q 35.15625 65.921875 28.609375 65.921875 
Q 23.96875 65.921875 18.8125 64.3125 
Q 13.671875 62.703125 7.8125 59.421875 
L 7.8125 69.390625 
Q 13.765625 71.78125 18.9375 73 
Q 24.125 74.21875 28.421875 74.21875 
Q 39.75 74.21875 46.484375 68.546875 
Q 53.21875 62.890625 53.21875 53.421875 
Q 53.21875 48.921875 51.53125 44.890625 
Q 49.859375 40.875 45.40625 35.40625 
Q 44.1875 33.984375 37.640625 27.21875 
Q 31.109375 20.453125 19.1875 8.296875 
z
" id="DejaVuSans-50"/>
      </defs>
      <g transform="translate(134.309886 325.221812)scale(0.14 -0.14)">
       <use xlink:href="#DejaVuSans-50"/>
      </g>
     </g>
    </g>
    <g id="xtick_3">
     <g id="line2d_3">
      <g>
       <use style="stroke:#000000;stroke-width:0.8;" x="203.694545" xlink:href="#m9530db70ef" y="307.584"/>
      </g>
     </g>
     <g id="text_3">
      <!-- 3 -->
      <defs>
       <path d="M 40.578125 39.3125 
Q 47.65625 37.796875 51.625 33 
Q 55.609375 28.21875 55.609375 21.1875 
Q 55.609375 10.40625 48.1875 4.484375 
Q 40.765625 -1.421875 27.09375 -1.421875 
Q 22.515625 -1.421875 17.65625 -0.515625 
Q 12.796875 0.390625 7.625 2.203125 
L 7.625 11.71875 
Q 11.71875 9.328125 16.59375 8.109375 
Q 21.484375 6.890625 26.8125 6.890625 
Q 36.078125 6.890625 40.9375 10.546875 
Q 45.796875 14.203125 45.796875 21.1875 
Q 45.796875 27.640625 41.28125 31.265625 
Q 36.765625 34.90625 28.71875 34.90625 
L 20.21875 34.90625 
L 20.21875 43.015625 
L 29.109375 43.015625 
Q 36.375 43.015625 40.234375 45.921875 
Q 44.09375 48.828125 44.09375 54.296875 
Q 44.09375 59.90625 40.109375 62.90625 
Q 36.140625 65.921875 28.71875 65.921875 
Q 24.65625 65.921875 20.015625 65.03125 
Q 15.375 64.15625 9.8125 62.3125 
L 9.8125 71.09375 
Q 15.4375 72.65625 20.34375 73.4375 
Q 25.25 74.21875 29.59375 74.21875 
Q 40.828125 74.21875 47.359375 69.109375 
Q 53.90625 64.015625 53.90625 55.328125 
Q 53.90625 49.265625 50.4375 45.09375 
Q 46.96875 40.921875 40.578125 39.3125 
z
" id="DejaVuSans-51"/>
      </defs>
      <g transform="translate(199.240795 325.221812)scale(0.14 -0.14)">
       <use xlink:href="#DejaVuSans-51"/>
      </g>
     </g>
    </g>
    <g id="xtick_4">
     <g id="line2d_4">
      <g>
       <use style="stroke:#000000;stroke-width:0.8;" x="268.625455" xlink:href="#m9530db70ef" y="307.584"/>
      </g>
     </g>
     <g id="text_4">
      <!-- 4 -->
      <defs>
       <path d="M 37.796875 64.3125 
L 12.890625 25.390625 
L 37.796875 25.390625 
z
M 35.203125 72.90625 
L 47.609375 72.90625 
L 47.609375 25.390625 
L 58.015625 25.390625 
L 58.015625 17.1875 
L 47.609375 17.1875 
L 47.609375 0 
L 37.796875 0 
L 37.796875 17.1875 
L 4.890625 17.1875 
L 4.890625 26.703125 
z
" id="DejaVuSans-52"/>
      </defs>
      <g transform="translate(264.171705 325.221812)scale(0.14 -0.14)">
       <use xlink:href="#DejaVuSans-52"/>
      </g>
     </g>
    </g>
    <g id="xtick_5">
     <g id="line2d_5">
      <g>
       <use style="stroke:#000000;stroke-width:0.8;" x="333.556364" xlink:href="#m9530db70ef" y="307.584"/>
      </g>
     </g>
     <g id="text_5">
      <!-- 5 -->
      <defs>
       <path d="M 10.796875 72.90625 
L 49.515625 72.90625 
L 49.515625 64.59375 
L 19.828125 64.59375 
L 19.828125 46.734375 
Q 21.96875 47.46875 24.109375 47.828125 
Q 26.265625 48.1875 28.421875 48.1875 
Q 40.625 48.1875 47.75 41.5 
Q 54.890625 34.8125 54.890625 23.390625 
Q 54.890625 11.625 47.5625 5.09375 
Q 40.234375 -1.421875 26.90625 -1.421875 
Q 22.3125 -1.421875 17.546875 -0.640625 
Q 12.796875 0.140625 7.71875 1.703125 
L 7.71875 11.625 
Q 12.109375 9.234375 16.796875 8.0625 
Q 21.484375 6.890625 26.703125 6.890625 
Q 35.15625 6.890625 40.078125 11.328125 
Q 45.015625 15.765625 45.015625 23.390625 
Q 45.015625 31 40.078125 35.4375 
Q 35.15625 39.890625 26.703125 39.890625 
Q 22.75 39.890625 18.8125 39.015625 
Q 14.890625 38.140625 10.796875 36.28125 
z
" id="DejaVuSans-53"/>
      </defs>
      <g transform="translate(329.102614 325.221812)scale(0.14 -0.14)">
       <use xlink:href="#DejaVuSans-53"/>
      </g>
     </g>
    </g>
    <g id="xtick_6">
     <g id="line2d_6">
      <g>
       <use style="stroke:#000000;stroke-width:0.8;" x="398.487273" xlink:href="#m9530db70ef" y="307.584"/>
      </g>
     </g>
     <g id="text_6">
      <!-- 6 -->
      <defs>
       <path d="M 33.015625 40.375 
Q 26.375 40.375 22.484375 35.828125 
Q 18.609375 31.296875 18.609375 23.390625 
Q 18.609375 15.53125 22.484375 10.953125 
Q 26.375 6.390625 33.015625 6.390625 
Q 39.65625 6.390625 43.53125 10.953125 
Q 47.40625 15.53125 47.40625 23.390625 
Q 47.40625 31.296875 43.53125 35.828125 
Q 39.65625 40.375 33.015625 40.375 
z
M 52.59375 71.296875 
L 52.59375 62.3125 
Q 48.875 64.0625 45.09375 64.984375 
Q 41.3125 65.921875 37.59375 65.921875 
Q 27.828125 65.921875 22.671875 59.328125 
Q 17.53125 52.734375 16.796875 39.40625 
Q 19.671875 43.65625 24.015625 45.921875 
Q 28.375 48.1875 33.59375 48.1875 
Q 44.578125 48.1875 50.953125 41.515625 
Q 57.328125 34.859375 57.328125 23.390625 
Q 57.328125 12.15625 50.6875 5.359375 
Q 44.046875 -1.421875 33.015625 -1.421875 
Q 20.359375 -1.421875 13.671875 8.265625 
Q 6.984375 17.96875 6.984375 36.375 
Q 6.984375 53.65625 15.1875 63.9375 
Q 23.390625 74.21875 37.203125 74.21875 
Q 40.921875 74.21875 44.703125 73.484375 
Q 48.484375 72.75 52.59375 71.296875 
z
" id="DejaVuSans-54"/>
      </defs>
      <g transform="translate(394.033523 325.221812)scale(0.14 -0.14)">
       <use xlink:href="#DejaVuSans-54"/>
      </g>
     </g>
    </g>
    <g id="text_7">
     <!-- $\beta_i$ -->
     <defs>
      <path d="M 13.625 3.375 
L 8.9375 -20.796875 
L -0.09375 -20.796875 
L 14.5 54.34375 
Q 18.84375 76.609375 39.65625 76.609375 
Q 60.75 76.609375 57.171875 57.8125 
Q 54.734375 44.4375 45.21875 39.546875 
Q 58.015625 35.15625 55.515625 22.125 
Q 51.125 -1.078125 27.484375 -1.03125 
Q 17.140625 -0.984375 13.625 3.375 
z
M 15.921875 15.09375 
Q 19.671875 6.59375 29.296875 6.640625 
Q 43.359375 6.640625 46.34375 21.96875 
Q 49.03125 35.75 26.171875 34.671875 
L 27.78125 42.96875 
Q 45.453125 42.671875 48.53125 58.59375 
Q 50.640625 69.34375 39.203125 69.28125 
Q 26.421875 69.28125 23.484375 54.046875 
z
" id="DejaVuSans-Oblique-946"/>
      <path d="M 18.3125 75.984375 
L 27.296875 75.984375 
L 25.09375 64.59375 
L 16.109375 64.59375 
z
M 14.203125 54.6875 
L 23.1875 54.6875 
L 12.5 0 
L 3.515625 0 
z
" id="DejaVuSans-Oblique-105"/>
     </defs>
     <g transform="translate(230.07 342.913375)scale(0.14 -0.14)">
      <use transform="translate(0 0.390625)" xlink:href="#DejaVuSans-Oblique-946"/>
      <use transform="translate(63.818359 -16.015625)scale(0.7)" xlink:href="#DejaVuSans-Oblique-105"/>
     </g>
    </g>
   </g>
   <g id="matplotlib.axis_2">
    <g id="ytick_1">
     <g id="line2d_7">
      <defs>
       <path d="M 0 0 
L -3.5 0 
" id="m213520bfb9" style="stroke:#000000;stroke-width:0.8;"/>
      </defs>
      <g>
       <use style="stroke:#000000;stroke-width:0.8;" x="57.6" xlink:href="#m213520bfb9" y="296.098618"/>
      </g>
     </g>
     <g id="text_8">
      <!-- 0.00 -->
      <defs>
       <path d="M 31.78125 66.40625 
Q 24.171875 66.40625 20.328125 58.90625 
Q 16.5 51.421875 16.5 36.375 
Q 16.5 21.390625 20.328125 13.890625 
Q 24.171875 6.390625 31.78125 6.390625 
Q 39.453125 6.390625 43.28125 13.890625 
Q 47.125 21.390625 47.125 36.375 
Q 47.125 51.421875 43.28125 58.90625 
Q 39.453125 66.40625 31.78125 66.40625 
z
M 31.78125 74.21875 
Q 44.046875 74.21875 50.515625 64.515625 
Q 56.984375 54.828125 56.984375 36.375 
Q 56.984375 17.96875 50.515625 8.265625 
Q 44.046875 -1.421875 31.78125 -1.421875 
Q 19.53125 -1.421875 13.0625 8.265625 
Q 6.59375 17.96875 6.59375 36.375 
Q 6.59375 54.828125 13.0625 64.515625 
Q 19.53125 74.21875 31.78125 74.21875 
z
" id="DejaVuSans-48"/>
       <path d="M 10.6875 12.40625 
L 21 12.40625 
L 21 0 
L 10.6875 0 
z
" id="DejaVuSans-46"/>
      </defs>
      <g transform="translate(19.428125 301.417524)scale(0.14 -0.14)">
       <use xlink:href="#DejaVuSans-48"/>
       <use x="63.623047" xlink:href="#DejaVuSans-46"/>
       <use x="95.410156" xlink:href="#DejaVuSans-48"/>
       <use x="159.033203" xlink:href="#DejaVuSans-48"/>
      </g>
     </g>
    </g>
    <g id="ytick_2">
     <g id="line2d_8">
      <g>
       <use style="stroke:#000000;stroke-width:0.8;" x="57.6" xlink:href="#m213520bfb9" y="262.969784"/>
      </g>
     </g>
     <g id="text_9">
      <!-- 0.02 -->
      <g transform="translate(19.428125 268.28869)scale(0.14 -0.14)">
       <use xlink:href="#DejaVuSans-48"/>
       <use x="63.623047" xlink:href="#DejaVuSans-46"/>
       <use x="95.410156" xlink:href="#DejaVuSans-48"/>
       <use x="159.033203" xlink:href="#DejaVuSans-50"/>
      </g>
     </g>
    </g>
    <g id="ytick_3">
     <g id="line2d_9">
      <g>
       <use style="stroke:#000000;stroke-width:0.8;" x="57.6" xlink:href="#m213520bfb9" y="229.84095"/>
      </g>
     </g>
     <g id="text_10">
      <!-- 0.04 -->
      <g transform="translate(19.428125 235.159856)scale(0.14 -0.14)">
       <use xlink:href="#DejaVuSans-48"/>
       <use x="63.623047" xlink:href="#DejaVuSans-46"/>
       <use x="95.410156" xlink:href="#DejaVuSans-48"/>
       <use x="159.033203" xlink:href="#DejaVuSans-52"/>
      </g>
     </g>
    </g>
    <g id="ytick_4">
     <g id="line2d_10">
      <g>
       <use style="stroke:#000000;stroke-width:0.8;" x="57.6" xlink:href="#m213520bfb9" y="196.712116"/>
      </g>
     </g>
     <g id="text_11">
      <!-- 0.06 -->
      <g transform="translate(19.428125 202.031022)scale(0.14 -0.14)">
       <use xlink:href="#DejaVuSans-48"/>
       <use x="63.623047" xlink:href="#DejaVuSans-46"/>
       <use x="95.410156" xlink:href="#DejaVuSans-48"/>
       <use x="159.033203" xlink:href="#DejaVuSans-54"/>
      </g>
     </g>
    </g>
    <g id="ytick_5">
     <g id="line2d_11">
      <g>
       <use style="stroke:#000000;stroke-width:0.8;" x="57.6" xlink:href="#m213520bfb9" y="163.583282"/>
      </g>
     </g>
     <g id="text_12">
      <!-- 0.08 -->
      <defs>
       <path d="M 31.78125 34.625 
Q 24.75 34.625 20.71875 30.859375 
Q 16.703125 27.09375 16.703125 20.515625 
Q 16.703125 13.921875 20.71875 10.15625 
Q 24.75 6.390625 31.78125 6.390625 
Q 38.8125 6.390625 42.859375 10.171875 
Q 46.921875 13.96875 46.921875 20.515625 
Q 46.921875 27.09375 42.890625 30.859375 
Q 38.875 34.625 31.78125 34.625 
z
M 21.921875 38.8125 
Q 15.578125 40.375 12.03125 44.71875 
Q 8.5 49.078125 8.5 55.328125 
Q 8.5 64.0625 14.71875 69.140625 
Q 20.953125 74.21875 31.78125 74.21875 
Q 42.671875 74.21875 48.875 69.140625 
Q 55.078125 64.0625 55.078125 55.328125 
Q 55.078125 49.078125 51.53125 44.71875 
Q 48 40.375 41.703125 38.8125 
Q 48.828125 37.15625 52.796875 32.3125 
Q 56.78125 27.484375 56.78125 20.515625 
Q 56.78125 9.90625 50.3125 4.234375 
Q 43.84375 -1.421875 31.78125 -1.421875 
Q 19.734375 -1.421875 13.25 4.234375 
Q 6.78125 9.90625 6.78125 20.515625 
Q 6.78125 27.484375 10.78125 32.3125 
Q 14.796875 37.15625 21.921875 38.8125 
z
M 18.3125 54.390625 
Q 18.3125 48.734375 21.84375 45.5625 
Q 25.390625 42.390625 31.78125 42.390625 
Q 38.140625 42.390625 41.71875 45.5625 
Q 45.3125 48.734375 45.3125 54.390625 
Q 45.3125 60.0625 41.71875 63.234375 
Q 38.140625 66.40625 31.78125 66.40625 
Q 25.390625 66.40625 21.84375 63.234375 
Q 18.3125 60.0625 18.3125 54.390625 
z
" id="DejaVuSans-56"/>
      </defs>
      <g transform="translate(19.428125 168.902188)scale(0.14 -0.14)">
       <use xlink:href="#DejaVuSans-48"/>
       <use x="63.623047" xlink:href="#DejaVuSans-46"/>
       <use x="95.410156" xlink:href="#DejaVuSans-48"/>
       <use x="159.033203" xlink:href="#DejaVuSans-56"/>
      </g>
     </g>
    </g>
    <g id="ytick_6">
     <g id="line2d_12">
      <g>
       <use style="stroke:#000000;stroke-width:0.8;" x="57.6" xlink:href="#m213520bfb9" y="130.454448"/>
      </g>
     </g>
     <g id="text_13">
      <!-- 0.10 -->
      <g transform="translate(19.428125 135.773354)scale(0.14 -0.14)">
       <use xlink:href="#DejaVuSans-48"/>
       <use x="63.623047" xlink:href="#DejaVuSans-46"/>
       <use x="95.410156" xlink:href="#DejaVuSans-49"/>
       <use x="159.033203" xlink:href="#DejaVuSans-48"/>
      </g>
     </g>
    </g>
    <g id="ytick_7">
     <g id="line2d_13">
      <g>
       <use style="stroke:#000000;stroke-width:0.8;" x="57.6" xlink:href="#m213520bfb9" y="97.325614"/>
      </g>
     </g>
     <g id="text_14">
      <!-- 0.12 -->
      <g transform="translate(19.428125 102.64452)scale(0.14 -0.14)">
       <use xlink:href="#DejaVuSans-48"/>
       <use x="63.623047" xlink:href="#DejaVuSans-46"/>
       <use x="95.410156" xlink:href="#DejaVuSans-49"/>
       <use x="159.033203" xlink:href="#DejaVuSans-50"/>
      </g>
     </g>
    </g>
    <g id="ytick_8">
     <g id="line2d_14">
      <g>
       <use style="stroke:#000000;stroke-width:0.8;" x="57.6" xlink:href="#m213520bfb9" y="64.19678"/>
      </g>
     </g>
     <g id="text_15">
      <!-- 0.14 -->
      <g transform="translate(19.428125 69.515686)scale(0.14 -0.14)">
       <use xlink:href="#DejaVuSans-48"/>
       <use x="63.623047" xlink:href="#DejaVuSans-46"/>
       <use x="95.410156" xlink:href="#DejaVuSans-49"/>
       <use x="159.033203" xlink:href="#DejaVuSans-52"/>
      </g>
     </g>
    </g>
    <g id="text_16">
     <!-- Value of $\beta_i$ -->
     <defs>
      <path d="M 28.609375 0 
L 0.78125 72.90625 
L 11.078125 72.90625 
L 34.1875 11.53125 
L 57.328125 72.90625 
L 67.578125 72.90625 
L 39.796875 0 
z
" id="DejaVuSans-86"/>
      <path d="M 34.28125 27.484375 
Q 23.390625 27.484375 19.1875 25 
Q 14.984375 22.515625 14.984375 16.5 
Q 14.984375 11.71875 18.140625 8.90625 
Q 21.296875 6.109375 26.703125 6.109375 
Q 34.1875 6.109375 38.703125 11.40625 
Q 43.21875 16.703125 43.21875 25.484375 
L 43.21875 27.484375 
z
M 52.203125 31.203125 
L 52.203125 0 
L 43.21875 0 
L 43.21875 8.296875 
Q 40.140625 3.328125 35.546875 0.953125 
Q 30.953125 -1.421875 24.3125 -1.421875 
Q 15.921875 -1.421875 10.953125 3.296875 
Q 6 8.015625 6 15.921875 
Q 6 25.140625 12.171875 29.828125 
Q 18.359375 34.515625 30.609375 34.515625 
L 43.21875 34.515625 
L 43.21875 35.40625 
Q 43.21875 41.609375 39.140625 45 
Q 35.0625 48.390625 27.6875 48.390625 
Q 23 48.390625 18.546875 47.265625 
Q 14.109375 46.140625 10.015625 43.890625 
L 10.015625 52.203125 
Q 14.9375 54.109375 19.578125 55.046875 
Q 24.21875 56 28.609375 56 
Q 40.484375 56 46.34375 49.84375 
Q 52.203125 43.703125 52.203125 31.203125 
z
" id="DejaVuSans-97"/>
      <path d="M 9.421875 75.984375 
L 18.40625 75.984375 
L 18.40625 0 
L 9.421875 0 
z
" id="DejaVuSans-108"/>
      <path d="M 8.5 21.578125 
L 8.5 54.6875 
L 17.484375 54.6875 
L 17.484375 21.921875 
Q 17.484375 14.15625 20.5 10.265625 
Q 23.53125 6.390625 29.59375 6.390625 
Q 36.859375 6.390625 41.078125 11.03125 
Q 45.3125 15.671875 45.3125 23.6875 
L 45.3125 54.6875 
L 54.296875 54.6875 
L 54.296875 0 
L 45.3125 0 
L 45.3125 8.40625 
Q 42.046875 3.421875 37.71875 1 
Q 33.40625 -1.421875 27.6875 -1.421875 
Q 18.265625 -1.421875 13.375 4.4375 
Q 8.5 10.296875 8.5 21.578125 
z
M 31.109375 56 
z
" id="DejaVuSans-117"/>
      <path d="M 56.203125 29.59375 
L 56.203125 25.203125 
L 14.890625 25.203125 
Q 15.484375 15.921875 20.484375 11.0625 
Q 25.484375 6.203125 34.421875 6.203125 
Q 39.59375 6.203125 44.453125 7.46875 
Q 49.3125 8.734375 54.109375 11.28125 
L 54.109375 2.78125 
Q 49.265625 0.734375 44.1875 -0.34375 
Q 39.109375 -1.421875 33.890625 -1.421875 
Q 20.796875 -1.421875 13.15625 6.1875 
Q 5.515625 13.8125 5.515625 26.8125 
Q 5.515625 40.234375 12.765625 48.109375 
Q 20.015625 56 32.328125 56 
Q 43.359375 56 49.78125 48.890625 
Q 56.203125 41.796875 56.203125 29.59375 
z
M 47.21875 32.234375 
Q 47.125 39.59375 43.09375 43.984375 
Q 39.0625 48.390625 32.421875 48.390625 
Q 24.90625 48.390625 20.390625 44.140625 
Q 15.875 39.890625 15.1875 32.171875 
z
" id="DejaVuSans-101"/>
      <path id="DejaVuSans-32"/>
      <path d="M 30.609375 48.390625 
Q 23.390625 48.390625 19.1875 42.75 
Q 14.984375 37.109375 14.984375 27.296875 
Q 14.984375 17.484375 19.15625 11.84375 
Q 23.34375 6.203125 30.609375 6.203125 
Q 37.796875 6.203125 41.984375 11.859375 
Q 46.1875 17.53125 46.1875 27.296875 
Q 46.1875 37.015625 41.984375 42.703125 
Q 37.796875 48.390625 30.609375 48.390625 
z
M 30.609375 56 
Q 42.328125 56 49.015625 48.375 
Q 55.71875 40.765625 55.71875 27.296875 
Q 55.71875 13.875 49.015625 6.21875 
Q 42.328125 -1.421875 30.609375 -1.421875 
Q 18.84375 -1.421875 12.171875 6.21875 
Q 5.515625 13.875 5.515625 27.296875 
Q 5.515625 40.765625 12.171875 48.375 
Q 18.84375 56 30.609375 56 
z
" id="DejaVuSans-111"/>
      <path d="M 37.109375 75.984375 
L 37.109375 68.5 
L 28.515625 68.5 
Q 23.6875 68.5 21.796875 66.546875 
Q 19.921875 64.59375 19.921875 59.515625 
L 19.921875 54.6875 
L 34.71875 54.6875 
L 34.71875 47.703125 
L 19.921875 47.703125 
L 19.921875 0 
L 10.890625 0 
L 10.890625 47.703125 
L 2.296875 47.703125 
L 2.296875 54.6875 
L 10.890625 54.6875 
L 10.890625 58.5 
Q 10.890625 67.625 15.140625 71.796875 
Q 19.390625 75.984375 28.609375 75.984375 
z
" id="DejaVuSans-102"/>
     </defs>
     <g transform="translate(12.488125 211.558)rotate(-90)scale(0.14 -0.14)">
      <use transform="translate(0 0.390625)" xlink:href="#DejaVuSans-86"/>
      <use transform="translate(68.408203 0.390625)" xlink:href="#DejaVuSans-97"/>
      <use transform="translate(129.6875 0.390625)" xlink:href="#DejaVuSans-108"/>
      <use transform="translate(157.470703 0.390625)" xlink:href="#DejaVuSans-117"/>
      <use transform="translate(220.849609 0.390625)" xlink:href="#DejaVuSans-101"/>
      <use transform="translate(282.373047 0.390625)" xlink:href="#DejaVuSans-32"/>
      <use transform="translate(314.160156 0.390625)" xlink:href="#DejaVuSans-111"/>
      <use transform="translate(375.341797 0.390625)" xlink:href="#DejaVuSans-102"/>
      <use transform="translate(410.546875 0.390625)" xlink:href="#DejaVuSans-32"/>
      <use transform="translate(442.333984 0.390625)" xlink:href="#DejaVuSans-Oblique-946"/>
      <use transform="translate(506.152344 -16.015625)scale(0.7)" xlink:href="#DejaVuSans-Oblique-105"/>
     </g>
    </g>
   </g>
   <g id="line2d_15">
    <path clip-path="url(#p6315ea6b5d)" d="M 73.832727 70.150424 
L 138.763636 111.485793 
L 203.694545 144.339179 
L 268.625455 182.720082 
L 333.556364 193.18298 
L 398.487273 231.092516 
" style="fill:none;stroke:#1f77b4;stroke-linecap:square;stroke-width:1.5;"/>
    <defs>
     <path d="M 0 3 
C 0.795609 3 1.55874 2.683901 2.12132 2.12132 
C 2.683901 1.55874 3 0.795609 3 0 
C 3 -0.795609 2.683901 -1.55874 2.12132 -2.12132 
C 1.55874 -2.683901 0.795609 -3 0 -3 
C -0.795609 -3 -1.55874 -2.683901 -2.12132 -2.12132 
C -2.683901 -1.55874 -3 -0.795609 -3 0 
C -3 0.795609 -2.683901 1.55874 -2.12132 2.12132 
C -1.55874 2.683901 -0.795609 3 0 3 
z
" id="m16cdecc460" style="stroke:#1f77b4;"/>
    </defs>
    <g clip-path="url(#p6315ea6b5d)">
     <use style="fill:#1f77b4;stroke:#1f77b4;" x="73.832727" xlink:href="#m16cdecc460" y="70.150424"/>
     <use style="fill:#1f77b4;stroke:#1f77b4;" x="138.763636" xlink:href="#m16cdecc460" y="111.485793"/>
     <use style="fill:#1f77b4;stroke:#1f77b4;" x="203.694545" xlink:href="#m16cdecc460" y="144.339179"/>
     <use style="fill:#1f77b4;stroke:#1f77b4;" x="268.625455" xlink:href="#m16cdecc460" y="182.720082"/>
     <use style="fill:#1f77b4;stroke:#1f77b4;" x="333.556364" xlink:href="#m16cdecc460" y="193.18298"/>
     <use style="fill:#1f77b4;stroke:#1f77b4;" x="398.487273" xlink:href="#m16cdecc460" y="231.092516"/>
    </g>
   </g>
   <g id="line2d_16">
    <path clip-path="url(#p6315ea6b5d)" d="M 73.832727 86.432899 
L 138.763636 121.175753 
L 203.694545 159.16571 
L 268.625455 182.132458 
L 333.556364 212.660358 
L 398.487273 260.855197 
" style="fill:none;stroke:#ff7f0e;stroke-linecap:square;stroke-width:1.5;"/>
    <defs>
     <path d="M 0 3 
C 0.795609 3 1.55874 2.683901 2.12132 2.12132 
C 2.683901 1.55874 3 0.795609 3 0 
C 3 -0.795609 2.683901 -1.55874 2.12132 -2.12132 
C 1.55874 -2.683901 0.795609 -3 0 -3 
C -0.795609 -3 -1.55874 -2.683901 -2.12132 -2.12132 
C -2.683901 -1.55874 -3 -0.795609 -3 0 
C -3 0.795609 -2.683901 1.55874 -2.12132 2.12132 
C -1.55874 2.683901 -0.795609 3 0 3 
z
" id="m79da87a532" style="stroke:#ff7f0e;"/>
    </defs>
    <g clip-path="url(#p6315ea6b5d)">
     <use style="fill:#ff7f0e;stroke:#ff7f0e;" x="73.832727" xlink:href="#m79da87a532" y="86.432899"/>
     <use style="fill:#ff7f0e;stroke:#ff7f0e;" x="138.763636" xlink:href="#m79da87a532" y="121.175753"/>
     <use style="fill:#ff7f0e;stroke:#ff7f0e;" x="203.694545" xlink:href="#m79da87a532" y="159.16571"/>
     <use style="fill:#ff7f0e;stroke:#ff7f0e;" x="268.625455" xlink:href="#m79da87a532" y="182.132458"/>
     <use style="fill:#ff7f0e;stroke:#ff7f0e;" x="333.556364" xlink:href="#m79da87a532" y="212.660358"/>
     <use style="fill:#ff7f0e;stroke:#ff7f0e;" x="398.487273" xlink:href="#m79da87a532" y="260.855197"/>
    </g>
   </g>
   <g id="line2d_17">
    <path clip-path="url(#p6315ea6b5d)" d="M 73.832727 86.610268 
L 138.763636 121.17859 
L 203.694545 159.085397 
L 268.625455 182.019208 
L 333.556364 212.445087 
L 398.487273 260.681016 
" style="fill:none;stroke:#2ca02c;stroke-linecap:square;stroke-width:1.5;"/>
    <defs>
     <path d="M 0 3 
C 0.795609 3 1.55874 2.683901 2.12132 2.12132 
C 2.683901 1.55874 3 0.795609 3 0 
C 3 -0.795609 2.683901 -1.55874 2.12132 -2.12132 
C 1.55874 -2.683901 0.795609 -3 0 -3 
C -0.795609 -3 -1.55874 -2.683901 -2.12132 -2.12132 
C -2.683901 -1.55874 -3 -0.795609 -3 0 
C -3 0.795609 -2.683901 1.55874 -2.12132 2.12132 
C -1.55874 2.683901 -0.795609 3 0 3 
z
" id="m767c7ec900" style="stroke:#2ca02c;"/>
    </defs>
    <g clip-path="url(#p6315ea6b5d)">
     <use style="fill:#2ca02c;stroke:#2ca02c;" x="73.832727" xlink:href="#m767c7ec900" y="86.610268"/>
     <use style="fill:#2ca02c;stroke:#2ca02c;" x="138.763636" xlink:href="#m767c7ec900" y="121.17859"/>
     <use style="fill:#2ca02c;stroke:#2ca02c;" x="203.694545" xlink:href="#m767c7ec900" y="159.085397"/>
     <use style="fill:#2ca02c;stroke:#2ca02c;" x="268.625455" xlink:href="#m767c7ec900" y="182.019208"/>
     <use style="fill:#2ca02c;stroke:#2ca02c;" x="333.556364" xlink:href="#m767c7ec900" y="212.445087"/>
     <use style="fill:#2ca02c;stroke:#2ca02c;" x="398.487273" xlink:href="#m767c7ec900" y="260.681016"/>
    </g>
   </g>
   <g id="line2d_18">
    <path clip-path="url(#p6315ea6b5d)" d="M 73.832727 82.064193 
L 138.763636 101.029266 
L 203.694545 131.508295 
L 268.625455 158.0763 
L 333.556364 207.673493 
L 398.487273 264.633163 
" style="fill:none;stroke:#d62728;stroke-linecap:square;stroke-width:1.5;"/>
    <defs>
     <path d="M 0 3 
C 0.795609 3 1.55874 2.683901 2.12132 2.12132 
C 2.683901 1.55874 3 0.795609 3 0 
C 3 -0.795609 2.683901 -1.55874 2.12132 -2.12132 
C 1.55874 -2.683901 0.795609 -3 0 -3 
C -0.795609 -3 -1.55874 -2.683901 -2.12132 -2.12132 
C -2.683901 -1.55874 -3 -0.795609 -3 0 
C -3 0.795609 -2.683901 1.55874 -2.12132 2.12132 
C -1.55874 2.683901 -0.795609 3 0 3 
z
" id="m935aca898a" style="stroke:#d62728;"/>
    </defs>
    <g clip-path="url(#p6315ea6b5d)">
     <use style="fill:#d62728;stroke:#d62728;" x="73.832727" xlink:href="#m935aca898a" y="82.064193"/>
     <use style="fill:#d62728;stroke:#d62728;" x="138.763636" xlink:href="#m935aca898a" y="101.029266"/>
     <use style="fill:#d62728;stroke:#d62728;" x="203.694545" xlink:href="#m935aca898a" y="131.508295"/>
     <use style="fill:#d62728;stroke:#d62728;" x="268.625455" xlink:href="#m935aca898a" y="158.0763"/>
     <use style="fill:#d62728;stroke:#d62728;" x="333.556364" xlink:href="#m935aca898a" y="207.673493"/>
     <use style="fill:#d62728;stroke:#d62728;" x="398.487273" xlink:href="#m935aca898a" y="264.633163"/>
    </g>
   </g>
   <g id="line2d_19">
    <path clip-path="url(#p6315ea6b5d)" d="M 73.832727 71.826991 
L 138.763636 90.963339 
L 203.694545 108.979548 
L 268.625455 112.168552 
L 333.556364 146.073049 
L 398.487273 213.203229 
" style="fill:none;stroke:#9467bd;stroke-linecap:square;stroke-width:1.5;"/>
    <defs>
     <path d="M 0 3 
C 0.795609 3 1.55874 2.683901 2.12132 2.12132 
C 2.683901 1.55874 3 0.795609 3 0 
C 3 -0.795609 2.683901 -1.55874 2.12132 -2.12132 
C 1.55874 -2.683901 0.795609 -3 0 -3 
C -0.795609 -3 -1.55874 -2.683901 -2.12132 -2.12132 
C -2.683901 -1.55874 -3 -0.795609 -3 0 
C -3 0.795609 -2.683901 1.55874 -2.12132 2.12132 
C -1.55874 2.683901 -0.795609 3 0 3 
z
" id="m30deae1f33" style="stroke:#9467bd;"/>
    </defs>
    <g clip-path="url(#p6315ea6b5d)">
     <use style="fill:#9467bd;stroke:#9467bd;" x="73.832727" xlink:href="#m30deae1f33" y="71.826991"/>
     <use style="fill:#9467bd;stroke:#9467bd;" x="138.763636" xlink:href="#m30deae1f33" y="90.963339"/>
     <use style="fill:#9467bd;stroke:#9467bd;" x="203.694545" xlink:href="#m30deae1f33" y="108.979548"/>
     <use style="fill:#9467bd;stroke:#9467bd;" x="268.625455" xlink:href="#m30deae1f33" y="112.168552"/>
     <use style="fill:#9467bd;stroke:#9467bd;" x="333.556364" xlink:href="#m30deae1f33" y="146.073049"/>
     <use style="fill:#9467bd;stroke:#9467bd;" x="398.487273" xlink:href="#m30deae1f33" y="213.203229"/>
    </g>
   </g>
   <g id="line2d_20">
    <path clip-path="url(#p6315ea6b5d)" d="M 73.832727 70.617707 
L 138.763636 113.043256 
L 203.694545 150.034126 
L 268.625455 180.481137 
L 333.556364 213.063559 
L 398.487273 253.805982 
" style="fill:none;stroke:#8c564b;stroke-linecap:square;stroke-width:1.5;"/>
    <defs>
     <path d="M 0 3 
C 0.795609 3 1.55874 2.683901 2.12132 2.12132 
C 2.683901 1.55874 3 0.795609 3 0 
C 3 -0.795609 2.683901 -1.55874 2.12132 -2.12132 
C 1.55874 -2.683901 0.795609 -3 0 -3 
C -0.795609 -3 -1.55874 -2.683901 -2.12132 -2.12132 
C -2.683901 -1.55874 -3 -0.795609 -3 0 
C -3 0.795609 -2.683901 1.55874 -2.12132 2.12132 
C -1.55874 2.683901 -0.795609 3 0 3 
z
" id="m64a16a2b19" style="stroke:#8c564b;"/>
    </defs>
    <g clip-path="url(#p6315ea6b5d)">
     <use style="fill:#8c564b;stroke:#8c564b;" x="73.832727" xlink:href="#m64a16a2b19" y="70.617707"/>
     <use style="fill:#8c564b;stroke:#8c564b;" x="138.763636" xlink:href="#m64a16a2b19" y="113.043256"/>
     <use style="fill:#8c564b;stroke:#8c564b;" x="203.694545" xlink:href="#m64a16a2b19" y="150.034126"/>
     <use style="fill:#8c564b;stroke:#8c564b;" x="268.625455" xlink:href="#m64a16a2b19" y="180.481137"/>
     <use style="fill:#8c564b;stroke:#8c564b;" x="333.556364" xlink:href="#m64a16a2b19" y="213.063559"/>
     <use style="fill:#8c564b;stroke:#8c564b;" x="398.487273" xlink:href="#m64a16a2b19" y="253.805982"/>
    </g>
   </g>
   <g id="line2d_21">
    <path clip-path="url(#p6315ea6b5d)" d="M 73.832727 72.131278 
L 138.763636 101.696486 
L 203.694545 132.386045 
L 268.625455 139.803858 
L 333.556364 154.561211 
L 398.487273 225.704197 
" style="fill:none;stroke:#e377c2;stroke-linecap:square;stroke-width:1.5;"/>
    <defs>
     <path d="M 0 3 
C 0.795609 3 1.55874 2.683901 2.12132 2.12132 
C 2.683901 1.55874 3 0.795609 3 0 
C 3 -0.795609 2.683901 -1.55874 2.12132 -2.12132 
C 1.55874 -2.683901 0.795609 -3 0 -3 
C -0.795609 -3 -1.55874 -2.683901 -2.12132 -2.12132 
C -2.683901 -1.55874 -3 -0.795609 -3 0 
C -3 0.795609 -2.683901 1.55874 -2.12132 2.12132 
C -1.55874 2.683901 -0.795609 3 0 3 
z
" id="m540d32e73c" style="stroke:#e377c2;"/>
    </defs>
    <g clip-path="url(#p6315ea6b5d)">
     <use style="fill:#e377c2;stroke:#e377c2;" x="73.832727" xlink:href="#m540d32e73c" y="72.131278"/>
     <use style="fill:#e377c2;stroke:#e377c2;" x="138.763636" xlink:href="#m540d32e73c" y="101.696486"/>
     <use style="fill:#e377c2;stroke:#e377c2;" x="203.694545" xlink:href="#m540d32e73c" y="132.386045"/>
     <use style="fill:#e377c2;stroke:#e377c2;" x="268.625455" xlink:href="#m540d32e73c" y="139.803858"/>
     <use style="fill:#e377c2;stroke:#e377c2;" x="333.556364" xlink:href="#m540d32e73c" y="154.561211"/>
     <use style="fill:#e377c2;stroke:#e377c2;" x="398.487273" xlink:href="#m540d32e73c" y="225.704197"/>
    </g>
   </g>
   <g id="line2d_22">
    <path clip-path="url(#p6315ea6b5d)" d="M 73.832727 70.209515 
L 138.763636 112.076986 
L 203.694545 154.825316 
L 268.625455 180.173312 
L 333.556364 212.6187 
L 398.487273 254.536055 
" style="fill:none;stroke:#7f7f7f;stroke-linecap:square;stroke-width:1.5;"/>
    <defs>
     <path d="M 0 3 
C 0.795609 3 1.55874 2.683901 2.12132 2.12132 
C 2.683901 1.55874 3 0.795609 3 0 
C 3 -0.795609 2.683901 -1.55874 2.12132 -2.12132 
C 1.55874 -2.683901 0.795609 -3 0 -3 
C -0.795609 -3 -1.55874 -2.683901 -2.12132 -2.12132 
C -2.683901 -1.55874 -3 -0.795609 -3 0 
C -3 0.795609 -2.683901 1.55874 -2.12132 2.12132 
C -1.55874 2.683901 -0.795609 3 0 3 
z
" id="m2924618361" style="stroke:#7f7f7f;"/>
    </defs>
    <g clip-path="url(#p6315ea6b5d)">
     <use style="fill:#7f7f7f;stroke:#7f7f7f;" x="73.832727" xlink:href="#m2924618361" y="70.209515"/>
     <use style="fill:#7f7f7f;stroke:#7f7f7f;" x="138.763636" xlink:href="#m2924618361" y="112.076986"/>
     <use style="fill:#7f7f7f;stroke:#7f7f7f;" x="203.694545" xlink:href="#m2924618361" y="154.825316"/>
     <use style="fill:#7f7f7f;stroke:#7f7f7f;" x="268.625455" xlink:href="#m2924618361" y="180.173312"/>
     <use style="fill:#7f7f7f;stroke:#7f7f7f;" x="333.556364" xlink:href="#m2924618361" y="212.6187"/>
     <use style="fill:#7f7f7f;stroke:#7f7f7f;" x="398.487273" xlink:href="#m2924618361" y="254.536055"/>
    </g>
   </g>
   <g id="line2d_23">
    <path clip-path="url(#p6315ea6b5d)" d="M 73.832727 86.425141 
L 138.763636 125.685938 
L 203.694545 160.958546 
L 268.625455 177.93655 
L 333.556364 207.201274 
L 398.487273 255.848191 
" style="fill:none;stroke:#bcbd22;stroke-linecap:square;stroke-width:1.5;"/>
    <defs>
     <path d="M 0 3 
C 0.795609 3 1.55874 2.683901 2.12132 2.12132 
C 2.683901 1.55874 3 0.795609 3 0 
C 3 -0.795609 2.683901 -1.55874 2.12132 -2.12132 
C 1.55874 -2.683901 0.795609 -3 0 -3 
C -0.795609 -3 -1.55874 -2.683901 -2.12132 -2.12132 
C -2.683901 -1.55874 -3 -0.795609 -3 0 
C -3 0.795609 -2.683901 1.55874 -2.12132 2.12132 
C -1.55874 2.683901 -0.795609 3 0 3 
z
" id="m03b31fd8e0" style="stroke:#bcbd22;"/>
    </defs>
    <g clip-path="url(#p6315ea6b5d)">
     <use style="fill:#bcbd22;stroke:#bcbd22;" x="73.832727" xlink:href="#m03b31fd8e0" y="86.425141"/>
     <use style="fill:#bcbd22;stroke:#bcbd22;" x="138.763636" xlink:href="#m03b31fd8e0" y="125.685938"/>
     <use style="fill:#bcbd22;stroke:#bcbd22;" x="203.694545" xlink:href="#m03b31fd8e0" y="160.958546"/>
     <use style="fill:#bcbd22;stroke:#bcbd22;" x="268.625455" xlink:href="#m03b31fd8e0" y="177.93655"/>
     <use style="fill:#bcbd22;stroke:#bcbd22;" x="333.556364" xlink:href="#m03b31fd8e0" y="207.201274"/>
     <use style="fill:#bcbd22;stroke:#bcbd22;" x="398.487273" xlink:href="#m03b31fd8e0" y="255.848191"/>
    </g>
   </g>
   <g id="line2d_24">
    <path clip-path="url(#p6315ea6b5d)" d="M 73.832727 73.713831 
L 138.763636 97.361113 
L 203.694545 135.883664 
L 268.625455 136.434006 
L 333.556364 179.508132 
L 398.487273 224.5373 
" style="fill:none;stroke:#17becf;stroke-linecap:square;stroke-width:1.5;"/>
    <defs>
     <path d="M 0 3 
C 0.795609 3 1.55874 2.683901 2.12132 2.12132 
C 2.683901 1.55874 3 0.795609 3 0 
C 3 -0.795609 2.683901 -1.55874 2.12132 -2.12132 
C 1.55874 -2.683901 0.795609 -3 0 -3 
C -0.795609 -3 -1.55874 -2.683901 -2.12132 -2.12132 
C -2.683901 -1.55874 -3 -0.795609 -3 0 
C -3 0.795609 -2.683901 1.55874 -2.12132 2.12132 
C -1.55874 2.683901 -0.795609 3 0 3 
z
" id="mcf9f4f3b59" style="stroke:#17becf;"/>
    </defs>
    <g clip-path="url(#p6315ea6b5d)">
     <use style="fill:#17becf;stroke:#17becf;" x="73.832727" xlink:href="#mcf9f4f3b59" y="73.713831"/>
     <use style="fill:#17becf;stroke:#17becf;" x="138.763636" xlink:href="#mcf9f4f3b59" y="97.361113"/>
     <use style="fill:#17becf;stroke:#17becf;" x="203.694545" xlink:href="#mcf9f4f3b59" y="135.883664"/>
     <use style="fill:#17becf;stroke:#17becf;" x="268.625455" xlink:href="#mcf9f4f3b59" y="136.434006"/>
     <use style="fill:#17becf;stroke:#17becf;" x="333.556364" xlink:href="#mcf9f4f3b59" y="179.508132"/>
     <use style="fill:#17becf;stroke:#17becf;" x="398.487273" xlink:href="#mcf9f4f3b59" y="224.5373"/>
    </g>
   </g>
   <g id="line2d_25">
    <path clip-path="url(#p6315ea6b5d)" d="M 73.832727 84.544684 
L 138.763636 111.637153 
L 203.694545 147.910231 
L 268.625455 180.673093 
L 333.556364 210.863817 
L 398.487273 258.743236 
" style="fill:none;stroke:#1f77b4;stroke-linecap:square;stroke-width:1.5;"/>
    <g clip-path="url(#p6315ea6b5d)">
     <use style="fill:#1f77b4;stroke:#1f77b4;" x="73.832727" xlink:href="#m16cdecc460" y="84.544684"/>
     <use style="fill:#1f77b4;stroke:#1f77b4;" x="138.763636" xlink:href="#m16cdecc460" y="111.637153"/>
     <use style="fill:#1f77b4;stroke:#1f77b4;" x="203.694545" xlink:href="#m16cdecc460" y="147.910231"/>
     <use style="fill:#1f77b4;stroke:#1f77b4;" x="268.625455" xlink:href="#m16cdecc460" y="180.673093"/>
     <use style="fill:#1f77b4;stroke:#1f77b4;" x="333.556364" xlink:href="#m16cdecc460" y="210.863817"/>
     <use style="fill:#1f77b4;stroke:#1f77b4;" x="398.487273" xlink:href="#m16cdecc460" y="258.743236"/>
    </g>
   </g>
   <g id="line2d_26">
    <path clip-path="url(#p6315ea6b5d)" d="M 73.832727 70.125785 
L 138.763636 101.692467 
L 203.694545 134.119916 
L 268.625455 157.695948 
L 333.556364 189.304503 
L 398.487273 239.806126 
" style="fill:none;stroke:#ff7f0e;stroke-linecap:square;stroke-width:1.5;"/>
    <g clip-path="url(#p6315ea6b5d)">
     <use style="fill:#ff7f0e;stroke:#ff7f0e;" x="73.832727" xlink:href="#m79da87a532" y="70.125785"/>
     <use style="fill:#ff7f0e;stroke:#ff7f0e;" x="138.763636" xlink:href="#m79da87a532" y="101.692467"/>
     <use style="fill:#ff7f0e;stroke:#ff7f0e;" x="203.694545" xlink:href="#m79da87a532" y="134.119916"/>
     <use style="fill:#ff7f0e;stroke:#ff7f0e;" x="268.625455" xlink:href="#m79da87a532" y="157.695948"/>
     <use style="fill:#ff7f0e;stroke:#ff7f0e;" x="333.556364" xlink:href="#m79da87a532" y="189.304503"/>
     <use style="fill:#ff7f0e;stroke:#ff7f0e;" x="398.487273" xlink:href="#m79da87a532" y="239.806126"/>
    </g>
   </g>
   <g id="line2d_27">
    <path clip-path="url(#p6315ea6b5d)" d="M 73.832727 53.717547 
L 138.763636 92.456466 
L 203.694545 133.185521 
L 268.625455 162.718791 
L 333.556364 208.785879 
L 398.487273 257.039819 
" style="fill:none;stroke:#2ca02c;stroke-linecap:square;stroke-width:1.5;"/>
    <g clip-path="url(#p6315ea6b5d)">
     <use style="fill:#2ca02c;stroke:#2ca02c;" x="73.832727" xlink:href="#m767c7ec900" y="53.717547"/>
     <use style="fill:#2ca02c;stroke:#2ca02c;" x="138.763636" xlink:href="#m767c7ec900" y="92.456466"/>
     <use style="fill:#2ca02c;stroke:#2ca02c;" x="203.694545" xlink:href="#m767c7ec900" y="133.185521"/>
     <use style="fill:#2ca02c;stroke:#2ca02c;" x="268.625455" xlink:href="#m767c7ec900" y="162.718791"/>
     <use style="fill:#2ca02c;stroke:#2ca02c;" x="333.556364" xlink:href="#m767c7ec900" y="208.785879"/>
     <use style="fill:#2ca02c;stroke:#2ca02c;" x="398.487273" xlink:href="#m767c7ec900" y="257.039819"/>
    </g>
   </g>
   <g id="line2d_28">
    <path clip-path="url(#p6315ea6b5d)" d="M 73.832727 54.010292 
L 138.763636 92.614096 
L 203.694545 133.289731 
L 268.625455 162.800358 
L 333.556364 208.854137 
L 398.487273 257.102414 
" style="fill:none;stroke:#d62728;stroke-linecap:square;stroke-width:1.5;"/>
    <g clip-path="url(#p6315ea6b5d)">
     <use style="fill:#d62728;stroke:#d62728;" x="73.832727" xlink:href="#m935aca898a" y="54.010292"/>
     <use style="fill:#d62728;stroke:#d62728;" x="138.763636" xlink:href="#m935aca898a" y="92.614096"/>
     <use style="fill:#d62728;stroke:#d62728;" x="203.694545" xlink:href="#m935aca898a" y="133.289731"/>
     <use style="fill:#d62728;stroke:#d62728;" x="268.625455" xlink:href="#m935aca898a" y="162.800358"/>
     <use style="fill:#d62728;stroke:#d62728;" x="333.556364" xlink:href="#m935aca898a" y="208.854137"/>
     <use style="fill:#d62728;stroke:#d62728;" x="398.487273" xlink:href="#m935aca898a" y="257.102414"/>
    </g>
   </g>
   <g id="line2d_29">
    <path clip-path="url(#p6315ea6b5d)" d="M 73.832727 53.568 
L 138.763636 92.382516 
L 203.694545 133.219434 
L 268.625455 162.735525 
L 333.556364 208.754374 
L 398.487273 256.968506 
" style="fill:none;stroke:#9467bd;stroke-linecap:square;stroke-width:1.5;"/>
    <g clip-path="url(#p6315ea6b5d)">
     <use style="fill:#9467bd;stroke:#9467bd;" x="73.832727" xlink:href="#m30deae1f33" y="53.568"/>
     <use style="fill:#9467bd;stroke:#9467bd;" x="138.763636" xlink:href="#m30deae1f33" y="92.382516"/>
     <use style="fill:#9467bd;stroke:#9467bd;" x="203.694545" xlink:href="#m30deae1f33" y="133.219434"/>
     <use style="fill:#9467bd;stroke:#9467bd;" x="268.625455" xlink:href="#m30deae1f33" y="162.735525"/>
     <use style="fill:#9467bd;stroke:#9467bd;" x="333.556364" xlink:href="#m30deae1f33" y="208.754374"/>
     <use style="fill:#9467bd;stroke:#9467bd;" x="398.487273" xlink:href="#m30deae1f33" y="256.968506"/>
    </g>
   </g>
   <g id="line2d_30">
    <path clip-path="url(#p6315ea6b5d)" d="M 73.832727 80.448434 
L 138.763636 97.037833 
L 203.694545 124.796014 
L 268.625455 149.389745 
L 333.556364 198.51379 
L 398.487273 259.765764 
" style="fill:none;stroke:#8c564b;stroke-linecap:square;stroke-width:1.5;"/>
    <g clip-path="url(#p6315ea6b5d)">
     <use style="fill:#8c564b;stroke:#8c564b;" x="73.832727" xlink:href="#m64a16a2b19" y="80.448434"/>
     <use style="fill:#8c564b;stroke:#8c564b;" x="138.763636" xlink:href="#m64a16a2b19" y="97.037833"/>
     <use style="fill:#8c564b;stroke:#8c564b;" x="203.694545" xlink:href="#m64a16a2b19" y="124.796014"/>
     <use style="fill:#8c564b;stroke:#8c564b;" x="268.625455" xlink:href="#m64a16a2b19" y="149.389745"/>
     <use style="fill:#8c564b;stroke:#8c564b;" x="333.556364" xlink:href="#m64a16a2b19" y="198.51379"/>
     <use style="fill:#8c564b;stroke:#8c564b;" x="398.487273" xlink:href="#m64a16a2b19" y="259.765764"/>
    </g>
   </g>
   <g id="line2d_31">
    <path clip-path="url(#p6315ea6b5d)" d="M 73.832727 75.229728 
L 138.763636 96.050832 
L 203.694545 127.931092 
L 268.625455 132.306553 
L 333.556364 150.148427 
L 398.487273 211.933057 
" style="fill:none;stroke:#e377c2;stroke-linecap:square;stroke-width:1.5;"/>
    <g clip-path="url(#p6315ea6b5d)">
     <use style="fill:#e377c2;stroke:#e377c2;" x="73.832727" xlink:href="#m540d32e73c" y="75.229728"/>
     <use style="fill:#e377c2;stroke:#e377c2;" x="138.763636" xlink:href="#m540d32e73c" y="96.050832"/>
     <use style="fill:#e377c2;stroke:#e377c2;" x="203.694545" xlink:href="#m540d32e73c" y="127.931092"/>
     <use style="fill:#e377c2;stroke:#e377c2;" x="268.625455" xlink:href="#m540d32e73c" y="132.306553"/>
     <use style="fill:#e377c2;stroke:#e377c2;" x="333.556364" xlink:href="#m540d32e73c" y="150.148427"/>
     <use style="fill:#e377c2;stroke:#e377c2;" x="398.487273" xlink:href="#m540d32e73c" y="211.933057"/>
    </g>
   </g>
   <g id="line2d_32">
    <path clip-path="url(#p6315ea6b5d)" d="M 73.832727 88.240413 
L 138.763636 111.19586 
L 203.694545 146.542096 
L 268.625455 198.949064 
L 333.556364 245.600242 
L 398.487273 278.593173 
" style="fill:none;stroke:#7f7f7f;stroke-linecap:square;stroke-width:1.5;"/>
    <g clip-path="url(#p6315ea6b5d)">
     <use style="fill:#7f7f7f;stroke:#7f7f7f;" x="73.832727" xlink:href="#m2924618361" y="88.240413"/>
     <use style="fill:#7f7f7f;stroke:#7f7f7f;" x="138.763636" xlink:href="#m2924618361" y="111.19586"/>
     <use style="fill:#7f7f7f;stroke:#7f7f7f;" x="203.694545" xlink:href="#m2924618361" y="146.542096"/>
     <use style="fill:#7f7f7f;stroke:#7f7f7f;" x="268.625455" xlink:href="#m2924618361" y="198.949064"/>
     <use style="fill:#7f7f7f;stroke:#7f7f7f;" x="333.556364" xlink:href="#m2924618361" y="245.600242"/>
     <use style="fill:#7f7f7f;stroke:#7f7f7f;" x="398.487273" xlink:href="#m2924618361" y="278.593173"/>
    </g>
   </g>
   <g id="line2d_33">
    <path clip-path="url(#p6315ea6b5d)" d="M 73.832727 88.538858 
L 138.763636 122.412795 
L 203.694545 180.103051 
L 268.625455 233.310166 
L 333.556364 276.032913 
L 398.487273 295.488 
" style="fill:none;stroke:#bcbd22;stroke-linecap:square;stroke-width:1.5;"/>
    <g clip-path="url(#p6315ea6b5d)">
     <use style="fill:#bcbd22;stroke:#bcbd22;" x="73.832727" xlink:href="#m03b31fd8e0" y="88.538858"/>
     <use style="fill:#bcbd22;stroke:#bcbd22;" x="138.763636" xlink:href="#m03b31fd8e0" y="122.412795"/>
     <use style="fill:#bcbd22;stroke:#bcbd22;" x="203.694545" xlink:href="#m03b31fd8e0" y="180.103051"/>
     <use style="fill:#bcbd22;stroke:#bcbd22;" x="268.625455" xlink:href="#m03b31fd8e0" y="233.310166"/>
     <use style="fill:#bcbd22;stroke:#bcbd22;" x="333.556364" xlink:href="#m03b31fd8e0" y="276.032913"/>
     <use style="fill:#bcbd22;stroke:#bcbd22;" x="398.487273" xlink:href="#m03b31fd8e0" y="295.488"/>
    </g>
   </g>
   <g id="line2d_34">
    <path clip-path="url(#p6315ea6b5d)" d="M 73.832727 73.541869 
L 138.763636 113.155646 
L 203.694545 146.913582 
L 268.625455 151.387022 
L 333.556364 162.198309 
L 398.487273 220.607863 
" style="fill:none;stroke:#17becf;stroke-linecap:square;stroke-width:1.5;"/>
    <g clip-path="url(#p6315ea6b5d)">
     <use style="fill:#17becf;stroke:#17becf;" x="73.832727" xlink:href="#mcf9f4f3b59" y="73.541869"/>
     <use style="fill:#17becf;stroke:#17becf;" x="138.763636" xlink:href="#mcf9f4f3b59" y="113.155646"/>
     <use style="fill:#17becf;stroke:#17becf;" x="203.694545" xlink:href="#mcf9f4f3b59" y="146.913582"/>
     <use style="fill:#17becf;stroke:#17becf;" x="268.625455" xlink:href="#mcf9f4f3b59" y="151.387022"/>
     <use style="fill:#17becf;stroke:#17becf;" x="333.556364" xlink:href="#mcf9f4f3b59" y="162.198309"/>
     <use style="fill:#17becf;stroke:#17becf;" x="398.487273" xlink:href="#mcf9f4f3b59" y="220.607863"/>
    </g>
   </g>
   <g id="line2d_35">
    <path clip-path="url(#p6315ea6b5d)" d="M 73.832727 57.919616 
L 138.763636 75.306732 
L 203.694545 109.757543 
L 268.625455 136.758404 
L 333.556364 196.207014 
L 398.487273 251.320152 
" style="fill:none;stroke:#1f77b4;stroke-linecap:square;stroke-width:1.5;"/>
    <g clip-path="url(#p6315ea6b5d)">
     <use style="fill:#1f77b4;stroke:#1f77b4;" x="73.832727" xlink:href="#m16cdecc460" y="57.919616"/>
     <use style="fill:#1f77b4;stroke:#1f77b4;" x="138.763636" xlink:href="#m16cdecc460" y="75.306732"/>
     <use style="fill:#1f77b4;stroke:#1f77b4;" x="203.694545" xlink:href="#m16cdecc460" y="109.757543"/>
     <use style="fill:#1f77b4;stroke:#1f77b4;" x="268.625455" xlink:href="#m16cdecc460" y="136.758404"/>
     <use style="fill:#1f77b4;stroke:#1f77b4;" x="333.556364" xlink:href="#m16cdecc460" y="196.207014"/>
     <use style="fill:#1f77b4;stroke:#1f77b4;" x="398.487273" xlink:href="#m16cdecc460" y="251.320152"/>
    </g>
   </g>
   <g id="line2d_36">
    <path clip-path="url(#p6315ea6b5d)" d="M 73.832727 59.164944 
L 138.763636 91.441837 
L 203.694545 126.845131 
L 268.625455 166.241168 
L 333.556364 219.923104 
L 398.487273 270.410288 
" style="fill:none;stroke:#ff7f0e;stroke-linecap:square;stroke-width:1.5;"/>
    <g clip-path="url(#p6315ea6b5d)">
     <use style="fill:#ff7f0e;stroke:#ff7f0e;" x="73.832727" xlink:href="#m79da87a532" y="59.164944"/>
     <use style="fill:#ff7f0e;stroke:#ff7f0e;" x="138.763636" xlink:href="#m79da87a532" y="91.441837"/>
     <use style="fill:#ff7f0e;stroke:#ff7f0e;" x="203.694545" xlink:href="#m79da87a532" y="126.845131"/>
     <use style="fill:#ff7f0e;stroke:#ff7f0e;" x="268.625455" xlink:href="#m79da87a532" y="166.241168"/>
     <use style="fill:#ff7f0e;stroke:#ff7f0e;" x="333.556364" xlink:href="#m79da87a532" y="219.923104"/>
     <use style="fill:#ff7f0e;stroke:#ff7f0e;" x="398.487273" xlink:href="#m79da87a532" y="270.410288"/>
    </g>
   </g>
   <g id="line2d_37">
    <path clip-path="url(#p6315ea6b5d)" d="M 73.832727 74.244483 
L 138.763636 113.541774 
L 203.694545 145.481318 
L 268.625455 185.517171 
L 333.556364 221.955252 
L 398.487273 260.689169 
" style="fill:none;stroke:#2ca02c;stroke-linecap:square;stroke-width:1.5;"/>
    <g clip-path="url(#p6315ea6b5d)">
     <use style="fill:#2ca02c;stroke:#2ca02c;" x="73.832727" xlink:href="#m767c7ec900" y="74.244483"/>
     <use style="fill:#2ca02c;stroke:#2ca02c;" x="138.763636" xlink:href="#m767c7ec900" y="113.541774"/>
     <use style="fill:#2ca02c;stroke:#2ca02c;" x="203.694545" xlink:href="#m767c7ec900" y="145.481318"/>
     <use style="fill:#2ca02c;stroke:#2ca02c;" x="268.625455" xlink:href="#m767c7ec900" y="185.517171"/>
     <use style="fill:#2ca02c;stroke:#2ca02c;" x="333.556364" xlink:href="#m767c7ec900" y="221.955252"/>
     <use style="fill:#2ca02c;stroke:#2ca02c;" x="398.487273" xlink:href="#m767c7ec900" y="260.689169"/>
    </g>
   </g>
   <g id="line2d_38">
    <path clip-path="url(#p6315ea6b5d)" d="M 73.832727 95.6787 
L 138.763636 131.770609 
L 203.694545 163.881308 
L 268.625455 192.727181 
L 333.556364 218.042222 
L 398.487273 265.492855 
" style="fill:none;stroke:#d62728;stroke-linecap:square;stroke-width:1.5;"/>
    <g clip-path="url(#p6315ea6b5d)">
     <use style="fill:#d62728;stroke:#d62728;" x="73.832727" xlink:href="#m935aca898a" y="95.6787"/>
     <use style="fill:#d62728;stroke:#d62728;" x="138.763636" xlink:href="#m935aca898a" y="131.770609"/>
     <use style="fill:#d62728;stroke:#d62728;" x="203.694545" xlink:href="#m935aca898a" y="163.881308"/>
     <use style="fill:#d62728;stroke:#d62728;" x="268.625455" xlink:href="#m935aca898a" y="192.727181"/>
     <use style="fill:#d62728;stroke:#d62728;" x="333.556364" xlink:href="#m935aca898a" y="218.042222"/>
     <use style="fill:#d62728;stroke:#d62728;" x="398.487273" xlink:href="#m935aca898a" y="265.492855"/>
    </g>
   </g>
   <g id="line2d_39">
    <path clip-path="url(#p6315ea6b5d)" d="M 73.832727 61.033 
L 138.763636 80.93533 
L 203.694545 103.700223 
L 268.625455 136.821513 
L 333.556364 174.388155 
L 398.487273 240.699604 
" style="fill:none;stroke:#9467bd;stroke-linecap:square;stroke-width:1.5;"/>
    <g clip-path="url(#p6315ea6b5d)">
     <use style="fill:#9467bd;stroke:#9467bd;" x="73.832727" xlink:href="#m30deae1f33" y="61.033"/>
     <use style="fill:#9467bd;stroke:#9467bd;" x="138.763636" xlink:href="#m30deae1f33" y="80.93533"/>
     <use style="fill:#9467bd;stroke:#9467bd;" x="203.694545" xlink:href="#m30deae1f33" y="103.700223"/>
     <use style="fill:#9467bd;stroke:#9467bd;" x="268.625455" xlink:href="#m30deae1f33" y="136.821513"/>
     <use style="fill:#9467bd;stroke:#9467bd;" x="333.556364" xlink:href="#m30deae1f33" y="174.388155"/>
     <use style="fill:#9467bd;stroke:#9467bd;" x="398.487273" xlink:href="#m30deae1f33" y="240.699604"/>
    </g>
   </g>
   <g id="line2d_40">
    <path clip-path="url(#p6315ea6b5d)" d="M 73.832727 61.012544 
L 138.763636 80.958331 
L 203.694545 103.798564 
L 268.625455 137.014942 
L 333.556364 174.606507 
L 398.487273 240.857356 
" style="fill:none;stroke:#8c564b;stroke-linecap:square;stroke-width:1.5;"/>
    <g clip-path="url(#p6315ea6b5d)">
     <use style="fill:#8c564b;stroke:#8c564b;" x="73.832727" xlink:href="#m64a16a2b19" y="61.012544"/>
     <use style="fill:#8c564b;stroke:#8c564b;" x="138.763636" xlink:href="#m64a16a2b19" y="80.958331"/>
     <use style="fill:#8c564b;stroke:#8c564b;" x="203.694545" xlink:href="#m64a16a2b19" y="103.798564"/>
     <use style="fill:#8c564b;stroke:#8c564b;" x="268.625455" xlink:href="#m64a16a2b19" y="137.014942"/>
     <use style="fill:#8c564b;stroke:#8c564b;" x="333.556364" xlink:href="#m64a16a2b19" y="174.606507"/>
     <use style="fill:#8c564b;stroke:#8c564b;" x="398.487273" xlink:href="#m64a16a2b19" y="240.857356"/>
    </g>
   </g>
   <g id="line2d_41">
    <path clip-path="url(#p6315ea6b5d)" d="M 73.832727 78.962507 
L 138.763636 125.463127 
L 203.694545 151.895158 
L 268.625455 184.251599 
L 333.556364 191.467885 
L 398.487273 224.205083 
" style="fill:none;stroke:#e377c2;stroke-linecap:square;stroke-width:1.5;"/>
    <g clip-path="url(#p6315ea6b5d)">
     <use style="fill:#e377c2;stroke:#e377c2;" x="73.832727" xlink:href="#m540d32e73c" y="78.962507"/>
     <use style="fill:#e377c2;stroke:#e377c2;" x="138.763636" xlink:href="#m540d32e73c" y="125.463127"/>
     <use style="fill:#e377c2;stroke:#e377c2;" x="203.694545" xlink:href="#m540d32e73c" y="151.895158"/>
     <use style="fill:#e377c2;stroke:#e377c2;" x="268.625455" xlink:href="#m540d32e73c" y="184.251599"/>
     <use style="fill:#e377c2;stroke:#e377c2;" x="333.556364" xlink:href="#m540d32e73c" y="191.467885"/>
     <use style="fill:#e377c2;stroke:#e377c2;" x="398.487273" xlink:href="#m540d32e73c" y="224.205083"/>
    </g>
   </g>
   <g id="line2d_42">
    <path clip-path="url(#p6315ea6b5d)" d="M 73.832727 70.77579 
L 138.763636 103.235245 
L 203.694545 144.042341 
L 268.625455 178.617028 
L 333.556364 201.615455 
L 398.487273 253.487762 
" style="fill:none;stroke:#7f7f7f;stroke-linecap:square;stroke-width:1.5;"/>
    <g clip-path="url(#p6315ea6b5d)">
     <use style="fill:#7f7f7f;stroke:#7f7f7f;" x="73.832727" xlink:href="#m2924618361" y="70.77579"/>
     <use style="fill:#7f7f7f;stroke:#7f7f7f;" x="138.763636" xlink:href="#m2924618361" y="103.235245"/>
     <use style="fill:#7f7f7f;stroke:#7f7f7f;" x="203.694545" xlink:href="#m2924618361" y="144.042341"/>
     <use style="fill:#7f7f7f;stroke:#7f7f7f;" x="268.625455" xlink:href="#m2924618361" y="178.617028"/>
     <use style="fill:#7f7f7f;stroke:#7f7f7f;" x="333.556364" xlink:href="#m2924618361" y="201.615455"/>
     <use style="fill:#7f7f7f;stroke:#7f7f7f;" x="398.487273" xlink:href="#m2924618361" y="253.487762"/>
    </g>
   </g>
   <g id="line2d_43">
    <path clip-path="url(#p6315ea6b5d)" d="M 73.832727 86.539143 
L 138.763636 106.459543 
L 203.694545 120.349091 
L 268.625455 147.740256 
L 333.556364 189.738187 
L 398.487273 251.662072 
" style="fill:none;stroke:#bcbd22;stroke-linecap:square;stroke-width:1.5;"/>
    <g clip-path="url(#p6315ea6b5d)">
     <use style="fill:#bcbd22;stroke:#bcbd22;" x="73.832727" xlink:href="#m03b31fd8e0" y="86.539143"/>
     <use style="fill:#bcbd22;stroke:#bcbd22;" x="138.763636" xlink:href="#m03b31fd8e0" y="106.459543"/>
     <use style="fill:#bcbd22;stroke:#bcbd22;" x="203.694545" xlink:href="#m03b31fd8e0" y="120.349091"/>
     <use style="fill:#bcbd22;stroke:#bcbd22;" x="268.625455" xlink:href="#m03b31fd8e0" y="147.740256"/>
     <use style="fill:#bcbd22;stroke:#bcbd22;" x="333.556364" xlink:href="#m03b31fd8e0" y="189.738187"/>
     <use style="fill:#bcbd22;stroke:#bcbd22;" x="398.487273" xlink:href="#m03b31fd8e0" y="251.662072"/>
    </g>
   </g>
   <g id="patch_3">
    <path d="M 57.6 307.584 
L 57.6 41.472 
" style="fill:none;stroke:#000000;stroke-linecap:square;stroke-linejoin:miter;stroke-width:0.8;"/>
   </g>
   <g id="patch_4">
    <path d="M 414.72 307.584 
L 414.72 41.472 
" style="fill:none;stroke:#000000;stroke-linecap:square;stroke-linejoin:miter;stroke-width:0.8;"/>
   </g>
   <g id="patch_5">
    <path d="M 57.6 307.584 
L 414.72 307.584 
" style="fill:none;stroke:#000000;stroke-linecap:square;stroke-linejoin:miter;stroke-width:0.8;"/>
   </g>
   <g id="patch_6">
    <path d="M 57.6 41.472 
L 414.72 41.472 
" style="fill:none;stroke:#000000;stroke-linecap:square;stroke-linejoin:miter;stroke-width:0.8;"/>
   </g>
   <g id="text_17">
    <!-- $p=$6 -->
    <defs>
     <path d="M 49.609375 33.6875 
Q 49.609375 40.875 46.484375 44.671875 
Q 43.359375 48.484375 37.5 48.484375 
Q 33.5 48.484375 29.859375 46.4375 
Q 26.21875 44.390625 23.390625 40.484375 
Q 20.609375 36.625 18.9375 31.15625 
Q 17.28125 25.6875 17.28125 20.3125 
Q 17.28125 13.484375 20.40625 9.796875 
Q 23.53125 6.109375 29.296875 6.109375 
Q 33.546875 6.109375 37.1875 8.109375 
Q 40.828125 10.109375 43.40625 13.921875 
Q 46.1875 17.921875 47.890625 23.34375 
Q 49.609375 28.765625 49.609375 33.6875 
z
M 21.78125 46.390625 
Q 25.390625 51.125 30.296875 53.5625 
Q 35.203125 56 41.21875 56 
Q 49.609375 56 54.25 50.5 
Q 58.890625 45.015625 58.890625 35.109375 
Q 58.890625 27 56 19.65625 
Q 53.125 12.3125 47.703125 6.5 
Q 44.09375 2.640625 39.546875 0.609375 
Q 35.015625 -1.421875 29.984375 -1.421875 
Q 24.171875 -1.421875 20.21875 1 
Q 16.265625 3.421875 14.3125 8.203125 
L 8.6875 -20.796875 
L -0.296875 -20.796875 
L 14.40625 54.6875 
L 23.390625 54.6875 
z
" id="DejaVuSans-Oblique-112"/>
     <path d="M 10.59375 45.40625 
L 73.1875 45.40625 
L 73.1875 37.203125 
L 10.59375 37.203125 
z
M 10.59375 25.484375 
L 73.1875 25.484375 
L 73.1875 17.1875 
L 10.59375 17.1875 
z
" id="DejaVuSans-61"/>
    </defs>
    <g transform="translate(218.66 35.472)scale(0.14 -0.14)">
     <use transform="translate(0 0.78125)" xlink:href="#DejaVuSans-Oblique-112"/>
     <use transform="translate(82.958984 0.78125)" xlink:href="#DejaVuSans-61"/>
     <use transform="translate(186.230469 0.78125)" xlink:href="#DejaVuSans-54"/>
    </g>
   </g>
  </g>
 </g>
 <defs>
  <clipPath id="p6315ea6b5d">
   <rect height="266.112" width="357.12" x="57.6" y="41.472"/>
  </clipPath>
 </defs>
</svg>
