<?xml version="1.0" encoding="utf-8" standalone="no"?>
<!DOCTYPE svg PUBLIC "-//W3C//DTD SVG 1.1//EN"
  "http://www.w3.org/Graphics/SVG/1.1/DTD/svg11.dtd">
<!-- Created with matplotlib (https://matplotlib.org/) -->
<svg height="345.6pt" version="1.1" viewBox="0 0 460.8 345.6" width="460.8pt" xmlns="http://www.w3.org/2000/svg" xmlns:xlink="http://www.w3.org/1999/xlink">
 <defs>
  <style type="text/css">
*{stroke-linecap:butt;stroke-linejoin:round;}
  </style>
 </defs>
 <g id="figure_1">
  <g id="patch_1">
   <path d="M 0 345.6 
L 460.8 345.6 
L 460.8 0 
L 0 0 
z
" style="fill:#ffffff;"/>
  </g>
  <g id="axes_1">
   <g id="patch_2">
    <path d="M 57.6 307.584 
L 414.72 307.584 
L 414.72 41.472 
L 57.6 41.472 
z
" style="fill:#ffffff;"/>
   </g>
   <g id="matplotlib.axis_1">
    <g id="xtick_1">
     <g id="line2d_1">
      <defs>
       <path d="M 0 0 
L 0 3.5 
" id="mb125ad1581" style="stroke:#000000;stroke-width:0.8;"/>
      </defs>
      <g>
       <use style="stroke:#000000;stroke-width:0.8;" x="73.832727" xlink:href="#mb125ad1581" y="307.584"/>
      </g>
     </g>
     <g id="text_1">
      <!-- 1 -->
      <defs>
       <path d="M 12.40625 8.296875 
L 28.515625 8.296875 
L 28.515625 63.921875 
L 10.984375 60.40625 
L 10.984375 69.390625 
L 28.421875 72.90625 
L 38.28125 72.90625 
L 38.28125 8.296875 
L 54.390625 8.296875 
L 54.390625 0 
L 12.40625 0 
z
" id="DejaVuSans-49"/>
      </defs>
      <g transform="translate(69.378977 325.221812)scale(0.14 -0.14)">
       <use xlink:href="#DejaVuSans-49"/>
      </g>
     </g>
    </g>
    <g id="xtick_2">
     <g id="line2d_2">
      <g>
       <use style="stroke:#000000;stroke-width:0.8;" x="236.16" xlink:href="#mb125ad1581" y="307.584"/>
      </g>
     </g>
     <g id="text_2">
      <!-- 2 -->
      <defs>
       <path d="M 19.1875 8.296875 
L 53.609375 8.296875 
L 53.609375 0 
L 7.328125 0 
L 7.328125 8.296875 
Q 12.9375 14.109375 22.625 23.890625 
Q 32.328125 33.6875 34.8125 36.53125 
Q 39.546875 41.84375 41.421875 45.53125 
Q 43.3125 49.21875 43.3125 52.78125 
Q 43.3125 58.59375 39.234375 62.25 
Q 35.15625 65.921875 28.609375 65.921875 
Q 23.96875 65.921875 18.8125 64.3125 
Q 13.671875 62.703125 7.8125 59.421875 
L 7.8125 69.390625 
Q 13.765625 71.78125 18.9375 73 
Q 24.125 74.21875 28.421875 74.21875 
Q 39.75 74.21875 46.484375 68.546875 
Q 53.21875 62.890625 53.21875 53.421875 
Q 53.21875 48.921875 51.53125 44.890625 
Q 49.859375 40.875 45.40625 35.40625 
Q 44.1875 33.984375 37.640625 27.21875 
Q 31.109375 20.453125 19.1875 8.296875 
z
" id="DejaVuSans-50"/>
      </defs>
      <g transform="translate(231.70625 325.221812)scale(0.14 -0.14)">
       <use xlink:href="#DejaVuSans-50"/>
      </g>
     </g>
    </g>
    <g id="xtick_3">
     <g id="line2d_3">
      <g>
       <use style="stroke:#000000;stroke-width:0.8;" x="398.487273" xlink:href="#mb125ad1581" y="307.584"/>
      </g>
     </g>
     <g id="text_3">
      <!-- 3 -->
      <defs>
       <path d="M 40.578125 39.3125 
Q 47.65625 37.796875 51.625 33 
Q 55.609375 28.21875 55.609375 21.1875 
Q 55.609375 10.40625 48.1875 4.484375 
Q 40.765625 -1.421875 27.09375 -1.421875 
Q 22.515625 -1.421875 17.65625 -0.515625 
Q 12.796875 0.390625 7.625 2.203125 
L 7.625 11.71875 
Q 11.71875 9.328125 16.59375 8.109375 
Q 21.484375 6.890625 26.8125 6.890625 
Q 36.078125 6.890625 40.9375 10.546875 
Q 45.796875 14.203125 45.796875 21.1875 
Q 45.796875 27.640625 41.28125 31.265625 
Q 36.765625 34.90625 28.71875 34.90625 
L 20.21875 34.90625 
L 20.21875 43.015625 
L 29.109375 43.015625 
Q 36.375 43.015625 40.234375 45.921875 
Q 44.09375 48.828125 44.09375 54.296875 
Q 44.09375 59.90625 40.109375 62.90625 
Q 36.140625 65.921875 28.71875 65.921875 
Q 24.65625 65.921875 20.015625 65.03125 
Q 15.375 64.15625 9.8125 62.3125 
L 9.8125 71.09375 
Q 15.4375 72.65625 20.34375 73.4375 
Q 25.25 74.21875 29.59375 74.21875 
Q 40.828125 74.21875 47.359375 69.109375 
Q 53.90625 64.015625 53.90625 55.328125 
Q 53.90625 49.265625 50.4375 45.09375 
Q 46.96875 40.921875 40.578125 39.3125 
z
" id="DejaVuSans-51"/>
      </defs>
      <g transform="translate(394.033523 325.221812)scale(0.14 -0.14)">
       <use xlink:href="#DejaVuSans-51"/>
      </g>
     </g>
    </g>
    <g id="text_4">
     <!-- $\gamma_i$ -->
     <defs>
      <path d="M 23.296875 46.09375 
L 28.71875 12.3125 
L 54 54.6875 
L 63.53125 54.6875 
L 30.8125 0 
L 26.765625 -20.796875 
L 17.78125 -20.796875 
L 21.828125 0 
L 15.4375 40.828125 
Q 14.453125 46.96875 9.8125 46.96875 
L 7.421875 46.96875 
L 8.890625 54.6875 
L 12.3125 54.6875 
Q 21.921875 54.6875 23.296875 46.09375 
z
" id="DejaVuSans-Oblique-947"/>
      <path d="M 18.3125 75.984375 
L 27.296875 75.984375 
L 25.09375 64.59375 
L 16.109375 64.59375 
z
M 14.203125 54.6875 
L 23.1875 54.6875 
L 12.5 0 
L 3.515625 0 
z
" id="DejaVuSans-Oblique-105"/>
     </defs>
     <g transform="translate(230.42 342.74275)scale(0.14 -0.14)">
      <use transform="translate(0 0.3125)" xlink:href="#DejaVuSans-Oblique-947"/>
      <use transform="translate(59.179688 -16.09375)scale(0.7)" xlink:href="#DejaVuSans-Oblique-105"/>
     </g>
    </g>
   </g>
   <g id="matplotlib.axis_2">
    <g id="ytick_1">
     <g id="line2d_4">
      <defs>
       <path d="M 0 0 
L -3.5 0 
" id="m0b98c997b1" style="stroke:#000000;stroke-width:0.8;"/>
      </defs>
      <g>
       <use style="stroke:#000000;stroke-width:0.8;" x="57.6" xlink:href="#m0b98c997b1" y="293.699132"/>
      </g>
     </g>
     <g id="text_5">
      <!-- 1.20 -->
      <defs>
       <path d="M 10.6875 12.40625 
L 21 12.40625 
L 21 0 
L 10.6875 0 
z
" id="DejaVuSans-46"/>
       <path d="M 31.78125 66.40625 
Q 24.171875 66.40625 20.328125 58.90625 
Q 16.5 51.421875 16.5 36.375 
Q 16.5 21.390625 20.328125 13.890625 
Q 24.171875 6.390625 31.78125 6.390625 
Q 39.453125 6.390625 43.28125 13.890625 
Q 47.125 21.390625 47.125 36.375 
Q 47.125 51.421875 43.28125 58.90625 
Q 39.453125 66.40625 31.78125 66.40625 
z
M 31.78125 74.21875 
Q 44.046875 74.21875 50.515625 64.515625 
Q 56.984375 54.828125 56.984375 36.375 
Q 56.984375 17.96875 50.515625 8.265625 
Q 44.046875 -1.421875 31.78125 -1.421875 
Q 19.53125 -1.421875 13.0625 8.265625 
Q 6.59375 17.96875 6.59375 36.375 
Q 6.59375 54.828125 13.0625 64.515625 
Q 19.53125 74.21875 31.78125 74.21875 
z
" id="DejaVuSans-48"/>
      </defs>
      <g transform="translate(19.428125 299.018039)scale(0.14 -0.14)">
       <use xlink:href="#DejaVuSans-49"/>
       <use x="63.623047" xlink:href="#DejaVuSans-46"/>
       <use x="95.410156" xlink:href="#DejaVuSans-50"/>
       <use x="159.033203" xlink:href="#DejaVuSans-48"/>
      </g>
     </g>
    </g>
    <g id="ytick_2">
     <g id="line2d_5">
      <g>
       <use style="stroke:#000000;stroke-width:0.8;" x="57.6" xlink:href="#m0b98c997b1" y="247.170636"/>
      </g>
     </g>
     <g id="text_6">
      <!-- 1.25 -->
      <defs>
       <path d="M 10.796875 72.90625 
L 49.515625 72.90625 
L 49.515625 64.59375 
L 19.828125 64.59375 
L 19.828125 46.734375 
Q 21.96875 47.46875 24.109375 47.828125 
Q 26.265625 48.1875 28.421875 48.1875 
Q 40.625 48.1875 47.75 41.5 
Q 54.890625 34.8125 54.890625 23.390625 
Q 54.890625 11.625 47.5625 5.09375 
Q 40.234375 -1.421875 26.90625 -1.421875 
Q 22.3125 -1.421875 17.546875 -0.640625 
Q 12.796875 0.140625 7.71875 1.703125 
L 7.71875 11.625 
Q 12.109375 9.234375 16.796875 8.0625 
Q 21.484375 6.890625 26.703125 6.890625 
Q 35.15625 6.890625 40.078125 11.328125 
Q 45.015625 15.765625 45.015625 23.390625 
Q 45.015625 31 40.078125 35.4375 
Q 35.15625 39.890625 26.703125 39.890625 
Q 22.75 39.890625 18.8125 39.015625 
Q 14.890625 38.140625 10.796875 36.28125 
z
" id="DejaVuSans-53"/>
      </defs>
      <g transform="translate(19.428125 252.489542)scale(0.14 -0.14)">
       <use xlink:href="#DejaVuSans-49"/>
       <use x="63.623047" xlink:href="#DejaVuSans-46"/>
       <use x="95.410156" xlink:href="#DejaVuSans-50"/>
       <use x="159.033203" xlink:href="#DejaVuSans-53"/>
      </g>
     </g>
    </g>
    <g id="ytick_3">
     <g id="line2d_6">
      <g>
       <use style="stroke:#000000;stroke-width:0.8;" x="57.6" xlink:href="#m0b98c997b1" y="200.642139"/>
      </g>
     </g>
     <g id="text_7">
      <!-- 1.30 -->
      <g transform="translate(19.428125 205.961045)scale(0.14 -0.14)">
       <use xlink:href="#DejaVuSans-49"/>
       <use x="63.623047" xlink:href="#DejaVuSans-46"/>
       <use x="95.410156" xlink:href="#DejaVuSans-51"/>
       <use x="159.033203" xlink:href="#DejaVuSans-48"/>
      </g>
     </g>
    </g>
    <g id="ytick_4">
     <g id="line2d_7">
      <g>
       <use style="stroke:#000000;stroke-width:0.8;" x="57.6" xlink:href="#m0b98c997b1" y="154.113642"/>
      </g>
     </g>
     <g id="text_8">
      <!-- 1.35 -->
      <g transform="translate(19.428125 159.432548)scale(0.14 -0.14)">
       <use xlink:href="#DejaVuSans-49"/>
       <use x="63.623047" xlink:href="#DejaVuSans-46"/>
       <use x="95.410156" xlink:href="#DejaVuSans-51"/>
       <use x="159.033203" xlink:href="#DejaVuSans-53"/>
      </g>
     </g>
    </g>
    <g id="ytick_5">
     <g id="line2d_8">
      <g>
       <use style="stroke:#000000;stroke-width:0.8;" x="57.6" xlink:href="#m0b98c997b1" y="107.585145"/>
      </g>
     </g>
     <g id="text_9">
      <!-- 1.40 -->
      <defs>
       <path d="M 37.796875 64.3125 
L 12.890625 25.390625 
L 37.796875 25.390625 
z
M 35.203125 72.90625 
L 47.609375 72.90625 
L 47.609375 25.390625 
L 58.015625 25.390625 
L 58.015625 17.1875 
L 47.609375 17.1875 
L 47.609375 0 
L 37.796875 0 
L 37.796875 17.1875 
L 4.890625 17.1875 
L 4.890625 26.703125 
z
" id="DejaVuSans-52"/>
      </defs>
      <g transform="translate(19.428125 112.904052)scale(0.14 -0.14)">
       <use xlink:href="#DejaVuSans-49"/>
       <use x="63.623047" xlink:href="#DejaVuSans-46"/>
       <use x="95.410156" xlink:href="#DejaVuSans-52"/>
       <use x="159.033203" xlink:href="#DejaVuSans-48"/>
      </g>
     </g>
    </g>
    <g id="ytick_6">
     <g id="line2d_9">
      <g>
       <use style="stroke:#000000;stroke-width:0.8;" x="57.6" xlink:href="#m0b98c997b1" y="61.056649"/>
      </g>
     </g>
     <g id="text_10">
      <!-- 1.45 -->
      <g transform="translate(19.428125 66.375555)scale(0.14 -0.14)">
       <use xlink:href="#DejaVuSans-49"/>
       <use x="63.623047" xlink:href="#DejaVuSans-46"/>
       <use x="95.410156" xlink:href="#DejaVuSans-52"/>
       <use x="159.033203" xlink:href="#DejaVuSans-53"/>
      </g>
     </g>
    </g>
    <g id="text_11">
     <!-- Value of $\gamma_i$ -->
     <defs>
      <path d="M 28.609375 0 
L 0.78125 72.90625 
L 11.078125 72.90625 
L 34.1875 11.53125 
L 57.328125 72.90625 
L 67.578125 72.90625 
L 39.796875 0 
z
" id="DejaVuSans-86"/>
      <path d="M 34.28125 27.484375 
Q 23.390625 27.484375 19.1875 25 
Q 14.984375 22.515625 14.984375 16.5 
Q 14.984375 11.71875 18.140625 8.90625 
Q 21.296875 6.109375 26.703125 6.109375 
Q 34.1875 6.109375 38.703125 11.40625 
Q 43.21875 16.703125 43.21875 25.484375 
L 43.21875 27.484375 
z
M 52.203125 31.203125 
L 52.203125 0 
L 43.21875 0 
L 43.21875 8.296875 
Q 40.140625 3.328125 35.546875 0.953125 
Q 30.953125 -1.421875 24.3125 -1.421875 
Q 15.921875 -1.421875 10.953125 3.296875 
Q 6 8.015625 6 15.921875 
Q 6 25.140625 12.171875 29.828125 
Q 18.359375 34.515625 30.609375 34.515625 
L 43.21875 34.515625 
L 43.21875 35.40625 
Q 43.21875 41.609375 39.140625 45 
Q 35.0625 48.390625 27.6875 48.390625 
Q 23 48.390625 18.546875 47.265625 
Q 14.109375 46.140625 10.015625 43.890625 
L 10.015625 52.203125 
Q 14.9375 54.109375 19.578125 55.046875 
Q 24.21875 56 28.609375 56 
Q 40.484375 56 46.34375 49.84375 
Q 52.203125 43.703125 52.203125 31.203125 
z
" id="DejaVuSans-97"/>
      <path d="M 9.421875 75.984375 
L 18.40625 75.984375 
L 18.40625 0 
L 9.421875 0 
z
" id="DejaVuSans-108"/>
      <path d="M 8.5 21.578125 
L 8.5 54.6875 
L 17.484375 54.6875 
L 17.484375 21.921875 
Q 17.484375 14.15625 20.5 10.265625 
Q 23.53125 6.390625 29.59375 6.390625 
Q 36.859375 6.390625 41.078125 11.03125 
Q 45.3125 15.671875 45.3125 23.6875 
L 45.3125 54.6875 
L 54.296875 54.6875 
L 54.296875 0 
L 45.3125 0 
L 45.3125 8.40625 
Q 42.046875 3.421875 37.71875 1 
Q 33.40625 -1.421875 27.6875 -1.421875 
Q 18.265625 -1.421875 13.375 4.4375 
Q 8.5 10.296875 8.5 21.578125 
z
M 31.109375 56 
z
" id="DejaVuSans-117"/>
      <path d="M 56.203125 29.59375 
L 56.203125 25.203125 
L 14.890625 25.203125 
Q 15.484375 15.921875 20.484375 11.0625 
Q 25.484375 6.203125 34.421875 6.203125 
Q 39.59375 6.203125 44.453125 7.46875 
Q 49.3125 8.734375 54.109375 11.28125 
L 54.109375 2.78125 
Q 49.265625 0.734375 44.1875 -0.34375 
Q 39.109375 -1.421875 33.890625 -1.421875 
Q 20.796875 -1.421875 13.15625 6.1875 
Q 5.515625 13.8125 5.515625 26.8125 
Q 5.515625 40.234375 12.765625 48.109375 
Q 20.015625 56 32.328125 56 
Q 43.359375 56 49.78125 48.890625 
Q 56.203125 41.796875 56.203125 29.59375 
z
M 47.21875 32.234375 
Q 47.125 39.59375 43.09375 43.984375 
Q 39.0625 48.390625 32.421875 48.390625 
Q 24.90625 48.390625 20.390625 44.140625 
Q 15.875 39.890625 15.1875 32.171875 
z
" id="DejaVuSans-101"/>
      <path id="DejaVuSans-32"/>
      <path d="M 30.609375 48.390625 
Q 23.390625 48.390625 19.1875 42.75 
Q 14.984375 37.109375 14.984375 27.296875 
Q 14.984375 17.484375 19.15625 11.84375 
Q 23.34375 6.203125 30.609375 6.203125 
Q 37.796875 6.203125 41.984375 11.859375 
Q 46.1875 17.53125 46.1875 27.296875 
Q 46.1875 37.015625 41.984375 42.703125 
Q 37.796875 48.390625 30.609375 48.390625 
z
M 30.609375 56 
Q 42.328125 56 49.015625 48.375 
Q 55.71875 40.765625 55.71875 27.296875 
Q 55.71875 13.875 49.015625 6.21875 
Q 42.328125 -1.421875 30.609375 -1.421875 
Q 18.84375 -1.421875 12.171875 6.21875 
Q 5.515625 13.875 5.515625 27.296875 
Q 5.515625 40.765625 12.171875 48.375 
Q 18.84375 56 30.609375 56 
z
" id="DejaVuSans-111"/>
      <path d="M 37.109375 75.984375 
L 37.109375 68.5 
L 28.515625 68.5 
Q 23.6875 68.5 21.796875 66.546875 
Q 19.921875 64.59375 19.921875 59.515625 
L 19.921875 54.6875 
L 34.71875 54.6875 
L 34.71875 47.703125 
L 19.921875 47.703125 
L 19.921875 0 
L 10.890625 0 
L 10.890625 47.703125 
L 2.296875 47.703125 
L 2.296875 54.6875 
L 10.890625 54.6875 
L 10.890625 58.5 
Q 10.890625 67.625 15.140625 71.796875 
Q 19.390625 75.984375 28.609375 75.984375 
z
" id="DejaVuSans-102"/>
     </defs>
     <g transform="translate(12.488125 211.208)rotate(-90)scale(0.14 -0.14)">
      <use transform="translate(0 0.015625)" xlink:href="#DejaVuSans-86"/>
      <use transform="translate(68.408203 0.015625)" xlink:href="#DejaVuSans-97"/>
      <use transform="translate(129.6875 0.015625)" xlink:href="#DejaVuSans-108"/>
      <use transform="translate(157.470703 0.015625)" xlink:href="#DejaVuSans-117"/>
      <use transform="translate(220.849609 0.015625)" xlink:href="#DejaVuSans-101"/>
      <use transform="translate(282.373047 0.015625)" xlink:href="#DejaVuSans-32"/>
      <use transform="translate(314.160156 0.015625)" xlink:href="#DejaVuSans-111"/>
      <use transform="translate(375.341797 0.015625)" xlink:href="#DejaVuSans-102"/>
      <use transform="translate(410.546875 0.015625)" xlink:href="#DejaVuSans-32"/>
      <use transform="translate(442.333984 0.015625)" xlink:href="#DejaVuSans-Oblique-947"/>
      <use transform="translate(501.513672 -16.390625)scale(0.7)" xlink:href="#DejaVuSans-Oblique-105"/>
     </g>
    </g>
   </g>
   <g id="line2d_10">
    <path clip-path="url(#p92b8dbad22)" d="M 73.832727 86.508699 
L 236.16 165.416533 
L 398.487273 272.078959 
" style="fill:none;stroke:#1f77b4;stroke-linecap:square;stroke-width:1.5;"/>
    <defs>
     <path d="M 0 3 
C 0.795609 3 1.55874 2.683901 2.12132 2.12132 
C 2.683901 1.55874 3 0.795609 3 0 
C 3 -0.795609 2.683901 -1.55874 2.12132 -2.12132 
C 1.55874 -2.683901 0.795609 -3 0 -3 
C -0.795609 -3 -1.55874 -2.683901 -2.12132 -2.12132 
C -2.683901 -1.55874 -3 -0.795609 -3 0 
C -3 0.795609 -2.683901 1.55874 -2.12132 2.12132 
C -1.55874 2.683901 -0.795609 3 0 3 
z
" id="m4fef386643" style="stroke:#1f77b4;"/>
    </defs>
    <g clip-path="url(#p92b8dbad22)">
     <use style="fill:#1f77b4;stroke:#1f77b4;" x="73.832727" xlink:href="#m4fef386643" y="86.508699"/>
     <use style="fill:#1f77b4;stroke:#1f77b4;" x="236.16" xlink:href="#m4fef386643" y="165.416533"/>
     <use style="fill:#1f77b4;stroke:#1f77b4;" x="398.487273" xlink:href="#m4fef386643" y="272.078959"/>
    </g>
   </g>
   <g id="line2d_11">
    <path clip-path="url(#p92b8dbad22)" d="M 73.832727 81.509123 
L 236.16 209.445513 
L 398.487273 295.488 
" style="fill:none;stroke:#ff7f0e;stroke-linecap:square;stroke-width:1.5;"/>
    <defs>
     <path d="M 0 3 
C 0.795609 3 1.55874 2.683901 2.12132 2.12132 
C 2.683901 1.55874 3 0.795609 3 0 
C 3 -0.795609 2.683901 -1.55874 2.12132 -2.12132 
C 1.55874 -2.683901 0.795609 -3 0 -3 
C -0.795609 -3 -1.55874 -2.683901 -2.12132 -2.12132 
C -2.683901 -1.55874 -3 -0.795609 -3 0 
C -3 0.795609 -2.683901 1.55874 -2.12132 2.12132 
C -1.55874 2.683901 -0.795609 3 0 3 
z
" id="ma90f947191" style="stroke:#ff7f0e;"/>
    </defs>
    <g clip-path="url(#p92b8dbad22)">
     <use style="fill:#ff7f0e;stroke:#ff7f0e;" x="73.832727" xlink:href="#ma90f947191" y="81.509123"/>
     <use style="fill:#ff7f0e;stroke:#ff7f0e;" x="236.16" xlink:href="#ma90f947191" y="209.445513"/>
     <use style="fill:#ff7f0e;stroke:#ff7f0e;" x="398.487273" xlink:href="#ma90f947191" y="295.488"/>
    </g>
   </g>
   <g id="line2d_12">
    <path clip-path="url(#p92b8dbad22)" d="M 73.832727 85.148042 
L 236.16 175.346198 
L 398.487273 218.752828 
" style="fill:none;stroke:#2ca02c;stroke-linecap:square;stroke-width:1.5;"/>
    <defs>
     <path d="M 0 3 
C 0.795609 3 1.55874 2.683901 2.12132 2.12132 
C 2.683901 1.55874 3 0.795609 3 0 
C 3 -0.795609 2.683901 -1.55874 2.12132 -2.12132 
C 1.55874 -2.683901 0.795609 -3 0 -3 
C -0.795609 -3 -1.55874 -2.683901 -2.12132 -2.12132 
C -2.683901 -1.55874 -3 -0.795609 -3 0 
C -3 0.795609 -2.683901 1.55874 -2.12132 2.12132 
C -1.55874 2.683901 -0.795609 3 0 3 
z
" id="m42ad0db7a5" style="stroke:#2ca02c;"/>
    </defs>
    <g clip-path="url(#p92b8dbad22)">
     <use style="fill:#2ca02c;stroke:#2ca02c;" x="73.832727" xlink:href="#m42ad0db7a5" y="85.148042"/>
     <use style="fill:#2ca02c;stroke:#2ca02c;" x="236.16" xlink:href="#m42ad0db7a5" y="175.346198"/>
     <use style="fill:#2ca02c;stroke:#2ca02c;" x="398.487273" xlink:href="#m42ad0db7a5" y="218.752828"/>
    </g>
   </g>
   <g id="line2d_13">
    <path clip-path="url(#p92b8dbad22)" d="M 73.832727 103.427103 
L 236.16 202.480949 
L 398.487273 261.697888 
" style="fill:none;stroke:#d62728;stroke-linecap:square;stroke-width:1.5;"/>
    <defs>
     <path d="M 0 3 
C 0.795609 3 1.55874 2.683901 2.12132 2.12132 
C 2.683901 1.55874 3 0.795609 3 0 
C 3 -0.795609 2.683901 -1.55874 2.12132 -2.12132 
C 1.55874 -2.683901 0.795609 -3 0 -3 
C -0.795609 -3 -1.55874 -2.683901 -2.12132 -2.12132 
C -2.683901 -1.55874 -3 -0.795609 -3 0 
C -3 0.795609 -2.683901 1.55874 -2.12132 2.12132 
C -1.55874 2.683901 -0.795609 3 0 3 
z
" id="madb1eb39bf" style="stroke:#d62728;"/>
    </defs>
    <g clip-path="url(#p92b8dbad22)">
     <use style="fill:#d62728;stroke:#d62728;" x="73.832727" xlink:href="#madb1eb39bf" y="103.427103"/>
     <use style="fill:#d62728;stroke:#d62728;" x="236.16" xlink:href="#madb1eb39bf" y="202.480949"/>
     <use style="fill:#d62728;stroke:#d62728;" x="398.487273" xlink:href="#madb1eb39bf" y="261.697888"/>
    </g>
   </g>
   <g id="line2d_14">
    <path clip-path="url(#p92b8dbad22)" d="M 73.832727 74.070058 
L 236.16 188.765645 
L 398.487273 258.603272 
" style="fill:none;stroke:#9467bd;stroke-linecap:square;stroke-width:1.5;"/>
    <defs>
     <path d="M 0 3 
C 0.795609 3 1.55874 2.683901 2.12132 2.12132 
C 2.683901 1.55874 3 0.795609 3 0 
C 3 -0.795609 2.683901 -1.55874 2.12132 -2.12132 
C 1.55874 -2.683901 0.795609 -3 0 -3 
C -0.795609 -3 -1.55874 -2.683901 -2.12132 -2.12132 
C -2.683901 -1.55874 -3 -0.795609 -3 0 
C -3 0.795609 -2.683901 1.55874 -2.12132 2.12132 
C -1.55874 2.683901 -0.795609 3 0 3 
z
" id="m3d76796cb4" style="stroke:#9467bd;"/>
    </defs>
    <g clip-path="url(#p92b8dbad22)">
     <use style="fill:#9467bd;stroke:#9467bd;" x="73.832727" xlink:href="#m3d76796cb4" y="74.070058"/>
     <use style="fill:#9467bd;stroke:#9467bd;" x="236.16" xlink:href="#m3d76796cb4" y="188.765645"/>
     <use style="fill:#9467bd;stroke:#9467bd;" x="398.487273" xlink:href="#m3d76796cb4" y="258.603272"/>
    </g>
   </g>
   <g id="line2d_15">
    <path clip-path="url(#p92b8dbad22)" d="M 73.832727 91.911887 
L 236.16 178.166588 
L 398.487273 236.170851 
" style="fill:none;stroke:#8c564b;stroke-linecap:square;stroke-width:1.5;"/>
    <defs>
     <path d="M 0 3 
C 0.795609 3 1.55874 2.683901 2.12132 2.12132 
C 2.683901 1.55874 3 0.795609 3 0 
C 3 -0.795609 2.683901 -1.55874 2.12132 -2.12132 
C 1.55874 -2.683901 0.795609 -3 0 -3 
C -0.795609 -3 -1.55874 -2.683901 -2.12132 -2.12132 
C -2.683901 -1.55874 -3 -0.795609 -3 0 
C -3 0.795609 -2.683901 1.55874 -2.12132 2.12132 
C -1.55874 2.683901 -0.795609 3 0 3 
z
" id="m188354769d" style="stroke:#8c564b;"/>
    </defs>
    <g clip-path="url(#p92b8dbad22)">
     <use style="fill:#8c564b;stroke:#8c564b;" x="73.832727" xlink:href="#m188354769d" y="91.911887"/>
     <use style="fill:#8c564b;stroke:#8c564b;" x="236.16" xlink:href="#m188354769d" y="178.166588"/>
     <use style="fill:#8c564b;stroke:#8c564b;" x="398.487273" xlink:href="#m188354769d" y="236.170851"/>
    </g>
   </g>
   <g id="line2d_16">
    <path clip-path="url(#p92b8dbad22)" d="M 73.832727 75.714904 
L 236.16 195.585233 
L 398.487273 273.777683 
" style="fill:none;stroke:#e377c2;stroke-linecap:square;stroke-width:1.5;"/>
    <defs>
     <path d="M 0 3 
C 0.795609 3 1.55874 2.683901 2.12132 2.12132 
C 2.683901 1.55874 3 0.795609 3 0 
C 3 -0.795609 2.683901 -1.55874 2.12132 -2.12132 
C 1.55874 -2.683901 0.795609 -3 0 -3 
C -0.795609 -3 -1.55874 -2.683901 -2.12132 -2.12132 
C -2.683901 -1.55874 -3 -0.795609 -3 0 
C -3 0.795609 -2.683901 1.55874 -2.12132 2.12132 
C -1.55874 2.683901 -0.795609 3 0 3 
z
" id="m877e65ac72" style="stroke:#e377c2;"/>
    </defs>
    <g clip-path="url(#p92b8dbad22)">
     <use style="fill:#e377c2;stroke:#e377c2;" x="73.832727" xlink:href="#m877e65ac72" y="75.714904"/>
     <use style="fill:#e377c2;stroke:#e377c2;" x="236.16" xlink:href="#m877e65ac72" y="195.585233"/>
     <use style="fill:#e377c2;stroke:#e377c2;" x="398.487273" xlink:href="#m877e65ac72" y="273.777683"/>
    </g>
   </g>
   <g id="line2d_17">
    <path clip-path="url(#p92b8dbad22)" d="M 73.832727 64.01073 
L 236.16 199.731825 
L 398.487273 288.367319 
" style="fill:none;stroke:#7f7f7f;stroke-linecap:square;stroke-width:1.5;"/>
    <defs>
     <path d="M 0 3 
C 0.795609 3 1.55874 2.683901 2.12132 2.12132 
C 2.683901 1.55874 3 0.795609 3 0 
C 3 -0.795609 2.683901 -1.55874 2.12132 -2.12132 
C 1.55874 -2.683901 0.795609 -3 0 -3 
C -0.795609 -3 -1.55874 -2.683901 -2.12132 -2.12132 
C -2.683901 -1.55874 -3 -0.795609 -3 0 
C -3 0.795609 -2.683901 1.55874 -2.12132 2.12132 
C -1.55874 2.683901 -0.795609 3 0 3 
z
" id="mff985707b6" style="stroke:#7f7f7f;"/>
    </defs>
    <g clip-path="url(#p92b8dbad22)">
     <use style="fill:#7f7f7f;stroke:#7f7f7f;" x="73.832727" xlink:href="#mff985707b6" y="64.01073"/>
     <use style="fill:#7f7f7f;stroke:#7f7f7f;" x="236.16" xlink:href="#mff985707b6" y="199.731825"/>
     <use style="fill:#7f7f7f;stroke:#7f7f7f;" x="398.487273" xlink:href="#mff985707b6" y="288.367319"/>
    </g>
   </g>
   <g id="line2d_18">
    <path clip-path="url(#p92b8dbad22)" d="M 73.832727 72.35581 
L 236.16 193.585122 
L 398.487273 263.345705 
" style="fill:none;stroke:#bcbd22;stroke-linecap:square;stroke-width:1.5;"/>
    <defs>
     <path d="M 0 3 
C 0.795609 3 1.55874 2.683901 2.12132 2.12132 
C 2.683901 1.55874 3 0.795609 3 0 
C 3 -0.795609 2.683901 -1.55874 2.12132 -2.12132 
C 1.55874 -2.683901 0.795609 -3 0 -3 
C -0.795609 -3 -1.55874 -2.683901 -2.12132 -2.12132 
C -2.683901 -1.55874 -3 -0.795609 -3 0 
C -3 0.795609 -2.683901 1.55874 -2.12132 2.12132 
C -1.55874 2.683901 -0.795609 3 0 3 
z
" id="m9533cb11f8" style="stroke:#bcbd22;"/>
    </defs>
    <g clip-path="url(#p92b8dbad22)">
     <use style="fill:#bcbd22;stroke:#bcbd22;" x="73.832727" xlink:href="#m9533cb11f8" y="72.35581"/>
     <use style="fill:#bcbd22;stroke:#bcbd22;" x="236.16" xlink:href="#m9533cb11f8" y="193.585122"/>
     <use style="fill:#bcbd22;stroke:#bcbd22;" x="398.487273" xlink:href="#m9533cb11f8" y="263.345705"/>
    </g>
   </g>
   <g id="line2d_19">
    <path clip-path="url(#p92b8dbad22)" d="M 73.832727 53.568 
L 236.16 151.242781 
L 398.487273 215.183191 
" style="fill:none;stroke:#17becf;stroke-linecap:square;stroke-width:1.5;"/>
    <defs>
     <path d="M 0 3 
C 0.795609 3 1.55874 2.683901 2.12132 2.12132 
C 2.683901 1.55874 3 0.795609 3 0 
C 3 -0.795609 2.683901 -1.55874 2.12132 -2.12132 
C 1.55874 -2.683901 0.795609 -3 0 -3 
C -0.795609 -3 -1.55874 -2.683901 -2.12132 -2.12132 
C -2.683901 -1.55874 -3 -0.795609 -3 0 
C -3 0.795609 -2.683901 1.55874 -2.12132 2.12132 
C -1.55874 2.683901 -0.795609 3 0 3 
z
" id="mf5bb93fa62" style="stroke:#17becf;"/>
    </defs>
    <g clip-path="url(#p92b8dbad22)">
     <use style="fill:#17becf;stroke:#17becf;" x="73.832727" xlink:href="#mf5bb93fa62" y="53.568"/>
     <use style="fill:#17becf;stroke:#17becf;" x="236.16" xlink:href="#mf5bb93fa62" y="151.242781"/>
     <use style="fill:#17becf;stroke:#17becf;" x="398.487273" xlink:href="#mf5bb93fa62" y="215.183191"/>
    </g>
   </g>
   <g id="line2d_20">
    <path clip-path="url(#p92b8dbad22)" d="M 73.832727 71.104878 
L 236.16 146.905727 
L 398.487273 241.839618 
" style="fill:none;stroke:#1f77b4;stroke-linecap:square;stroke-width:1.5;"/>
    <g clip-path="url(#p92b8dbad22)">
     <use style="fill:#1f77b4;stroke:#1f77b4;" x="73.832727" xlink:href="#m4fef386643" y="71.104878"/>
     <use style="fill:#1f77b4;stroke:#1f77b4;" x="236.16" xlink:href="#m4fef386643" y="146.905727"/>
     <use style="fill:#1f77b4;stroke:#1f77b4;" x="398.487273" xlink:href="#m4fef386643" y="241.839618"/>
    </g>
   </g>
   <g id="line2d_21">
    <path clip-path="url(#p92b8dbad22)" d="M 73.832727 88.086919 
L 236.16 187.413537 
L 398.487273 256.25321 
" style="fill:none;stroke:#ff7f0e;stroke-linecap:square;stroke-width:1.5;"/>
    <g clip-path="url(#p92b8dbad22)">
     <use style="fill:#ff7f0e;stroke:#ff7f0e;" x="73.832727" xlink:href="#ma90f947191" y="88.086919"/>
     <use style="fill:#ff7f0e;stroke:#ff7f0e;" x="236.16" xlink:href="#ma90f947191" y="187.413537"/>
     <use style="fill:#ff7f0e;stroke:#ff7f0e;" x="398.487273" xlink:href="#ma90f947191" y="256.25321"/>
    </g>
   </g>
   <g id="line2d_22">
    <path clip-path="url(#p92b8dbad22)" d="M 73.832727 65.177672 
L 236.16 171.535356 
L 398.487273 243.345731 
" style="fill:none;stroke:#2ca02c;stroke-linecap:square;stroke-width:1.5;"/>
    <g clip-path="url(#p92b8dbad22)">
     <use style="fill:#2ca02c;stroke:#2ca02c;" x="73.832727" xlink:href="#m42ad0db7a5" y="65.177672"/>
     <use style="fill:#2ca02c;stroke:#2ca02c;" x="236.16" xlink:href="#m42ad0db7a5" y="171.535356"/>
     <use style="fill:#2ca02c;stroke:#2ca02c;" x="398.487273" xlink:href="#m42ad0db7a5" y="243.345731"/>
    </g>
   </g>
   <g id="line2d_23">
    <path clip-path="url(#p92b8dbad22)" d="M 73.832727 95.867838 
L 236.16 193.471675 
L 398.487273 243.833243 
" style="fill:none;stroke:#d62728;stroke-linecap:square;stroke-width:1.5;"/>
    <g clip-path="url(#p92b8dbad22)">
     <use style="fill:#d62728;stroke:#d62728;" x="73.832727" xlink:href="#madb1eb39bf" y="95.867838"/>
     <use style="fill:#d62728;stroke:#d62728;" x="236.16" xlink:href="#madb1eb39bf" y="193.471675"/>
     <use style="fill:#d62728;stroke:#d62728;" x="398.487273" xlink:href="#madb1eb39bf" y="243.833243"/>
    </g>
   </g>
   <g id="line2d_24">
    <path clip-path="url(#p92b8dbad22)" d="M 73.832727 95.245571 
L 236.16 200.793859 
L 398.487273 262.936008 
" style="fill:none;stroke:#9467bd;stroke-linecap:square;stroke-width:1.5;"/>
    <g clip-path="url(#p92b8dbad22)">
     <use style="fill:#9467bd;stroke:#9467bd;" x="73.832727" xlink:href="#m3d76796cb4" y="95.245571"/>
     <use style="fill:#9467bd;stroke:#9467bd;" x="236.16" xlink:href="#m3d76796cb4" y="200.793859"/>
     <use style="fill:#9467bd;stroke:#9467bd;" x="398.487273" xlink:href="#m3d76796cb4" y="262.936008"/>
    </g>
   </g>
   <g id="line2d_25">
    <path clip-path="url(#p92b8dbad22)" d="M 73.832727 54.085261 
L 236.16 181.741002 
L 398.487273 258.20327 
" style="fill:none;stroke:#8c564b;stroke-linecap:square;stroke-width:1.5;"/>
    <g clip-path="url(#p92b8dbad22)">
     <use style="fill:#8c564b;stroke:#8c564b;" x="73.832727" xlink:href="#m188354769d" y="54.085261"/>
     <use style="fill:#8c564b;stroke:#8c564b;" x="236.16" xlink:href="#m188354769d" y="181.741002"/>
     <use style="fill:#8c564b;stroke:#8c564b;" x="398.487273" xlink:href="#m188354769d" y="258.20327"/>
    </g>
   </g>
   <g id="line2d_26">
    <path clip-path="url(#p92b8dbad22)" d="M 73.832727 87.782408 
L 236.16 187.741453 
L 398.487273 240.309759 
" style="fill:none;stroke:#e377c2;stroke-linecap:square;stroke-width:1.5;"/>
    <g clip-path="url(#p92b8dbad22)">
     <use style="fill:#e377c2;stroke:#e377c2;" x="73.832727" xlink:href="#m877e65ac72" y="87.782408"/>
     <use style="fill:#e377c2;stroke:#e377c2;" x="236.16" xlink:href="#m877e65ac72" y="187.741453"/>
     <use style="fill:#e377c2;stroke:#e377c2;" x="398.487273" xlink:href="#m877e65ac72" y="240.309759"/>
    </g>
   </g>
   <g id="line2d_27">
    <path clip-path="url(#p92b8dbad22)" d="M 73.832727 69.56135 
L 236.16 166.236585 
L 398.487273 206.252558 
" style="fill:none;stroke:#7f7f7f;stroke-linecap:square;stroke-width:1.5;"/>
    <g clip-path="url(#p92b8dbad22)">
     <use style="fill:#7f7f7f;stroke:#7f7f7f;" x="73.832727" xlink:href="#mff985707b6" y="69.56135"/>
     <use style="fill:#7f7f7f;stroke:#7f7f7f;" x="236.16" xlink:href="#mff985707b6" y="166.236585"/>
     <use style="fill:#7f7f7f;stroke:#7f7f7f;" x="398.487273" xlink:href="#mff985707b6" y="206.252558"/>
    </g>
   </g>
   <g id="line2d_28">
    <path clip-path="url(#p92b8dbad22)" d="M 73.832727 90.059299 
L 236.16 208.183507 
L 398.487273 262.048914 
" style="fill:none;stroke:#bcbd22;stroke-linecap:square;stroke-width:1.5;"/>
    <g clip-path="url(#p92b8dbad22)">
     <use style="fill:#bcbd22;stroke:#bcbd22;" x="73.832727" xlink:href="#m9533cb11f8" y="90.059299"/>
     <use style="fill:#bcbd22;stroke:#bcbd22;" x="236.16" xlink:href="#m9533cb11f8" y="208.183507"/>
     <use style="fill:#bcbd22;stroke:#bcbd22;" x="398.487273" xlink:href="#m9533cb11f8" y="262.048914"/>
    </g>
   </g>
   <g id="line2d_29">
    <path clip-path="url(#p92b8dbad22)" d="M 73.832727 65.302223 
L 236.16 168.322113 
L 398.487273 277.634748 
" style="fill:none;stroke:#17becf;stroke-linecap:square;stroke-width:1.5;"/>
    <g clip-path="url(#p92b8dbad22)">
     <use style="fill:#17becf;stroke:#17becf;" x="73.832727" xlink:href="#mf5bb93fa62" y="65.302223"/>
     <use style="fill:#17becf;stroke:#17becf;" x="236.16" xlink:href="#mf5bb93fa62" y="168.322113"/>
     <use style="fill:#17becf;stroke:#17becf;" x="398.487273" xlink:href="#mf5bb93fa62" y="277.634748"/>
    </g>
   </g>
   <g id="line2d_30">
    <path clip-path="url(#p92b8dbad22)" d="M 73.832727 82.640468 
L 236.16 176.779923 
L 398.487273 266.769178 
" style="fill:none;stroke:#1f77b4;stroke-linecap:square;stroke-width:1.5;"/>
    <g clip-path="url(#p92b8dbad22)">
     <use style="fill:#1f77b4;stroke:#1f77b4;" x="73.832727" xlink:href="#m4fef386643" y="82.640468"/>
     <use style="fill:#1f77b4;stroke:#1f77b4;" x="236.16" xlink:href="#m4fef386643" y="176.779923"/>
     <use style="fill:#1f77b4;stroke:#1f77b4;" x="398.487273" xlink:href="#m4fef386643" y="266.769178"/>
    </g>
   </g>
   <g id="line2d_31">
    <path clip-path="url(#p92b8dbad22)" d="M 73.832727 82.062364 
L 236.16 178.953506 
L 398.487273 245.902709 
" style="fill:none;stroke:#ff7f0e;stroke-linecap:square;stroke-width:1.5;"/>
    <g clip-path="url(#p92b8dbad22)">
     <use style="fill:#ff7f0e;stroke:#ff7f0e;" x="73.832727" xlink:href="#ma90f947191" y="82.062364"/>
     <use style="fill:#ff7f0e;stroke:#ff7f0e;" x="236.16" xlink:href="#ma90f947191" y="178.953506"/>
     <use style="fill:#ff7f0e;stroke:#ff7f0e;" x="398.487273" xlink:href="#ma90f947191" y="245.902709"/>
    </g>
   </g>
   <g id="line2d_32">
    <path clip-path="url(#p92b8dbad22)" d="M 73.832727 107.238195 
L 236.16 225.256662 
L 398.487273 292.649654 
" style="fill:none;stroke:#2ca02c;stroke-linecap:square;stroke-width:1.5;"/>
    <g clip-path="url(#p92b8dbad22)">
     <use style="fill:#2ca02c;stroke:#2ca02c;" x="73.832727" xlink:href="#m42ad0db7a5" y="107.238195"/>
     <use style="fill:#2ca02c;stroke:#2ca02c;" x="236.16" xlink:href="#m42ad0db7a5" y="225.256662"/>
     <use style="fill:#2ca02c;stroke:#2ca02c;" x="398.487273" xlink:href="#m42ad0db7a5" y="292.649654"/>
    </g>
   </g>
   <g id="line2d_33">
    <path clip-path="url(#p92b8dbad22)" d="M 73.832727 63.566655 
L 236.16 138.270087 
L 398.487273 248.728973 
" style="fill:none;stroke:#d62728;stroke-linecap:square;stroke-width:1.5;"/>
    <g clip-path="url(#p92b8dbad22)">
     <use style="fill:#d62728;stroke:#d62728;" x="73.832727" xlink:href="#madb1eb39bf" y="63.566655"/>
     <use style="fill:#d62728;stroke:#d62728;" x="236.16" xlink:href="#madb1eb39bf" y="138.270087"/>
     <use style="fill:#d62728;stroke:#d62728;" x="398.487273" xlink:href="#madb1eb39bf" y="248.728973"/>
    </g>
   </g>
   <g id="line2d_34">
    <path clip-path="url(#p92b8dbad22)" d="M 73.832727 117.476358 
L 236.16 223.477758 
L 398.487273 261.832795 
" style="fill:none;stroke:#9467bd;stroke-linecap:square;stroke-width:1.5;"/>
    <g clip-path="url(#p92b8dbad22)">
     <use style="fill:#9467bd;stroke:#9467bd;" x="73.832727" xlink:href="#m3d76796cb4" y="117.476358"/>
     <use style="fill:#9467bd;stroke:#9467bd;" x="236.16" xlink:href="#m3d76796cb4" y="223.477758"/>
     <use style="fill:#9467bd;stroke:#9467bd;" x="398.487273" xlink:href="#m3d76796cb4" y="261.832795"/>
    </g>
   </g>
   <g id="patch_3">
    <path d="M 57.6 307.584 
L 57.6 41.472 
" style="fill:none;stroke:#000000;stroke-linecap:square;stroke-linejoin:miter;stroke-width:0.8;"/>
   </g>
   <g id="patch_4">
    <path d="M 414.72 307.584 
L 414.72 41.472 
" style="fill:none;stroke:#000000;stroke-linecap:square;stroke-linejoin:miter;stroke-width:0.8;"/>
   </g>
   <g id="patch_5">
    <path d="M 57.6 307.584 
L 414.72 307.584 
" style="fill:none;stroke:#000000;stroke-linecap:square;stroke-linejoin:miter;stroke-width:0.8;"/>
   </g>
   <g id="patch_6">
    <path d="M 57.6 41.472 
L 414.72 41.472 
" style="fill:none;stroke:#000000;stroke-linecap:square;stroke-linejoin:miter;stroke-width:0.8;"/>
   </g>
   <g id="text_12">
    <!-- $p=$3 -->
    <defs>
     <path d="M 49.609375 33.6875 
Q 49.609375 40.875 46.484375 44.671875 
Q 43.359375 48.484375 37.5 48.484375 
Q 33.5 48.484375 29.859375 46.4375 
Q 26.21875 44.390625 23.390625 40.484375 
Q 20.609375 36.625 18.9375 31.15625 
Q 17.28125 25.6875 17.28125 20.3125 
Q 17.28125 13.484375 20.40625 9.796875 
Q 23.53125 6.109375 29.296875 6.109375 
Q 33.546875 6.109375 37.1875 8.109375 
Q 40.828125 10.109375 43.40625 13.921875 
Q 46.1875 17.921875 47.890625 23.34375 
Q 49.609375 28.765625 49.609375 33.6875 
z
M 21.78125 46.390625 
Q 25.390625 51.125 30.296875 53.5625 
Q 35.203125 56 41.21875 56 
Q 49.609375 56 54.25 50.5 
Q 58.890625 45.015625 58.890625 35.109375 
Q 58.890625 27 56 19.65625 
Q 53.125 12.3125 47.703125 6.5 
Q 44.09375 2.640625 39.546875 0.609375 
Q 35.015625 -1.421875 29.984375 -1.421875 
Q 24.171875 -1.421875 20.21875 1 
Q 16.265625 3.421875 14.3125 8.203125 
L 8.6875 -20.796875 
L -0.296875 -20.796875 
L 14.40625 54.6875 
L 23.390625 54.6875 
z
" id="DejaVuSans-Oblique-112"/>
     <path d="M 10.59375 45.40625 
L 73.1875 45.40625 
L 73.1875 37.203125 
L 10.59375 37.203125 
z
M 10.59375 25.484375 
L 73.1875 25.484375 
L 73.1875 17.1875 
L 10.59375 17.1875 
z
" id="DejaVuSans-61"/>
    </defs>
    <g transform="translate(218.66 35.472)scale(0.14 -0.14)">
     <use transform="translate(0 0.78125)" xlink:href="#DejaVuSans-Oblique-112"/>
     <use transform="translate(82.958984 0.78125)" xlink:href="#DejaVuSans-61"/>
     <use transform="translate(186.230469 0.78125)" xlink:href="#DejaVuSans-51"/>
    </g>
   </g>
  </g>
 </g>
 <defs>
  <clipPath id="p92b8dbad22">
   <rect height="266.112" width="357.12" x="57.6" y="41.472"/>
  </clipPath>
 </defs>
</svg>
